<?xml version="1.0" encoding="UTF-8" standalone="no"?>
<!-- Created with Inkscape (http://www.inkscape.org/) -->

<svg
   xmlns:dc="http://purl.org/dc/elements/1.1/"
   xmlns:cc="http://creativecommons.org/ns#"
   xmlns:rdf="http://www.w3.org/1999/02/22-rdf-syntax-ns#"
   xmlns:svg="http://www.w3.org/2000/svg"
   xmlns="http://www.w3.org/2000/svg"
   xmlns:sodipodi="http://sodipodi.sourceforge.net/DTD/sodipodi-0.dtd"
   xmlns:inkscape="http://www.inkscape.org/namespaces/inkscape"
   width="240"
   height="600"
   id="svg3254"
   version="1.1"
   inkscape:version="0.48.5 r10040"
   sodipodi:docname="Новый документ 2">
  <defs
     id="defs3256" />
  <sodipodi:namedview
     id="base"
     pagecolor="#ffffff"
     bordercolor="#666666"
     borderopacity="1.0"
     inkscape:pageopacity="0.0"
     inkscape:pageshadow="2"
     inkscape:zoom="0.98994949"
     inkscape:cx="230.49254"
     inkscape:cy="230.65332"
     inkscape:document-units="px"
     inkscape:current-layer="layer1"
     showgrid="false"
     inkscape:window-width="1920"
     inkscape:window-height="1020"
     inkscape:window-x="0"
     inkscape:window-y="31"
     inkscape:window-maximized="1" />
  <metadata
     id="metadata3259">
    <rdf:RDF>
      <cc:Work
         rdf:about="">
        <dc:format>image/svg+xml</dc:format>
        <dc:type
           rdf:resource="http://purl.org/dc/dcmitype/StillImage" />
        <dc:title></dc:title>
      </cc:Work>
    </rdf:RDF>
  </metadata>
  <g
     inkscape:label="Layer 1"
     inkscape:groupmode="layer"
     id="layer1"
     transform="translate(0,-452.36218)">
    <g
       transform="matrix(0.537013,0,0,0.50404888,1.4510951,453.50739)"
       id="g3454">
      <g
         id="Layer_1">
        <g
           id="XMLID_98_">
          <rect
             height="139.36"
             width="398.82001"
             style="opacity:0.21000001;fill:#2290ba"
             y="915.14001"
             x="44.75"
             id="XMLID_427_" />
        </g>
        <rect
           height="161.14999"
           width="398.35999"
           style="fill:#2290ba;fill-opacity:0.21000001"
           y="490.60001"
           x="44.810001"
           id="XMLID_100_" />
        <rect
           height="172.89999"
           width="396.56"
           style="fill:#2290ba;fill-opacity:0.21000001"
           y="53.5"
           x="47.009998"
           id="XMLID_99_" />
        <g
           id="XMLID_97_">
          <g
             id="XMLID_229_">
            <path
               inkscape:connector-curvature="0"
               d="m 439.57,57.5 v 993.07 H 48.81 V 57.5 h 390.76 m 4,-4 H 44.81 V 1054.57 H 443.57 V 53.5 l 0,0 z"
               style="fill:#31708f"
               id="XMLID_230_" />
          </g>
        </g>
        <line
           y2="1053.5699"
           x2="123.53"
           y1="53.5"
           x1="123.53"
           style="fill:none;stroke:#31708f;stroke-width:4;stroke-miterlimit:10"
           id="XMLID_96_" />
        <line
           y2="1053.5699"
           x2="203.84"
           y1="53.5"
           x1="203.84"
           style="fill:none;stroke:#31708f;stroke-width:4;stroke-miterlimit:10"
           id="XMLID_95_" />
        <line
           y2="1053.5699"
           x2="284.14999"
           y1="53.5"
           x1="284.14999"
           style="fill:none;stroke:#31708f;stroke-width:4;stroke-miterlimit:10"
           id="XMLID_94_" />
        <line
           y2="1053.5699"
           x2="364.45999"
           y1="53.5"
           x1="364.45999"
           style="fill:none;stroke:#31708f;stroke-width:4;stroke-miterlimit:10"
           id="XMLID_93_" />
        <line
           y2="572.15997"
           x2="443.57001"
           y1="572.15997"
           x1="46.16"
           style="fill:none;stroke:#31708f;stroke-width:4;stroke-miterlimit:10"
           id="XMLID_92_" />
        <line
           y2="227.5"
           x2="443.57001"
           y1="227.5"
           x1="46.220001"
           style="fill:none;stroke:#31708f;stroke-width:4;stroke-miterlimit:10"
           id="XMLID_88_" />
        <line
           y2="914.94"
           x2="443.57001"
           y1="914.94"
           x1="46.25"
           style="fill:none;stroke:#31708f;stroke-width:4;stroke-miterlimit:10"
           id="XMLID_1_" />
        <line
           y2="651.26001"
           x2="443.57001"
           y1="651.26001"
           x1="46.25"
           style="fill:none;stroke:#31708f;stroke-width:4;stroke-miterlimit:10"
           id="XMLID_89_" />
        <line
           y2="491.39001"
           x2="443.57001"
           y1="491.39001"
           x1="46.25"
           style="fill:none;stroke:#31708f;stroke-width:4;stroke-miterlimit:10"
           id="XMLID_90_" />
        <g
           id="XMLID_3_">
          <g
             id="XMLID_612_">
            <path
               inkscape:connector-curvature="0"
               d="m 17.85,112.22 c 0,4.71 -0.99,8.22 -2.97,10.54 -1.98,2.32 -4.98,3.48 -9,3.48 -1.42,0 -2.49,-0.08 -3.22,-0.23 v -4.05 c 0.91,0.23 1.87,0.34 2.88,0.34 1.69,0 3.08,-0.25 4.17,-0.74 1.09,-0.49 1.92,-1.27 2.5,-2.34 0.58,-1.07 0.91,-2.52 1,-4.39 h -0.2 c -0.63,1.02 -1.36,1.74 -2.19,2.16 -0.83,0.41 -1.86,0.62 -3.1,0.62 -2.08,0 -3.72,-0.67 -4.92,-2 -1.2,-1.33 -1.8,-3.19 -1.8,-5.56 0,-2.56 0.73,-4.58 2.18,-6.07 1.45,-1.49 3.43,-2.23 5.94,-2.23 1.76,0 3.31,0.41 4.63,1.24 1.32,0.83 2.34,2.03 3.05,3.6 0.71,1.57 1.05,3.45 1.05,5.63 z M 9.2,105.8 c -1.04,0 -1.86,0.36 -2.45,1.08 -0.59,0.72 -0.88,1.75 -0.88,3.1 0,1.15 0.27,2.07 0.8,2.74 0.53,0.68 1.35,1.01 2.43,1.01 1.02,0 1.9,-0.33 2.63,-1 0.73,-0.67 1.09,-1.44 1.09,-2.31 0,-1.3 -0.34,-2.39 -1.02,-3.28 -0.68,-0.89 -1.54,-1.34 -2.6,-1.34 z"
               style="fill:#124c59"
               id="XMLID_613_" />
            <path
               inkscape:connector-curvature="0"
               d="m 36.84,112.22 c 0,4.71 -0.99,8.22 -2.97,10.54 -1.98,2.32 -4.98,3.48 -9,3.48 -1.42,0 -2.49,-0.08 -3.22,-0.23 v -4.05 c 0.91,0.23 1.87,0.34 2.88,0.34 1.69,0 3.08,-0.25 4.17,-0.74 1.09,-0.49 1.92,-1.27 2.5,-2.34 0.58,-1.07 0.91,-2.52 1,-4.39 H 32 c -0.63,1.02 -1.36,1.74 -2.19,2.16 -0.83,0.41 -1.86,0.62 -3.1,0.62 -2.08,0 -3.72,-0.67 -4.92,-2 -1.2,-1.33 -1.8,-3.19 -1.8,-5.56 0,-2.56 0.73,-4.58 2.18,-6.07 1.45,-1.49 3.43,-2.23 5.94,-2.23 1.76,0 3.31,0.41 4.63,1.24 1.32,0.83 2.34,2.03 3.05,3.6 0.71,1.57 1.05,3.45 1.05,5.63 z M 28.2,105.8 c -1.04,0 -1.86,0.36 -2.45,1.08 -0.59,0.72 -0.88,1.75 -0.88,3.1 0,1.15 0.27,2.07 0.8,2.74 0.53,0.68 1.35,1.01 2.43,1.01 1.02,0 1.9,-0.33 2.63,-1 0.73,-0.67 1.09,-1.44 1.09,-2.31 0,-1.3 -0.34,-2.39 -1.02,-3.28 -0.68,-0.89 -1.54,-1.34 -2.6,-1.34 z"
               style="fill:#124c59"
               id="XMLID_616_" />
          </g>
          <g
             id="XMLID_606_">
            <path
               inkscape:connector-curvature="0"
               d="m 17.85,224.44 c 0,4.71 -0.99,8.22 -2.97,10.54 -1.98,2.32 -4.98,3.48 -9,3.48 -1.42,0 -2.49,-0.08 -3.22,-0.23 v -4.05 c 0.91,0.23 1.87,0.34 2.88,0.34 1.69,0 3.08,-0.25 4.17,-0.74 1.09,-0.49 1.92,-1.27 2.5,-2.34 0.58,-1.07 0.91,-2.52 1,-4.39 h -0.2 c -0.63,1.02 -1.36,1.74 -2.19,2.16 -0.83,0.41 -1.86,0.62 -3.1,0.62 -2.08,0 -3.72,-0.67 -4.92,-2 C 1.6,226.5 1,224.64 1,222.27 c 0,-2.56 0.73,-4.58 2.18,-6.07 1.45,-1.49 3.43,-2.23 5.94,-2.23 1.76,0 3.31,0.41 4.63,1.24 1.32,0.83 2.34,2.03 3.05,3.6 0.71,1.57 1.05,3.45 1.05,5.63 z M 9.2,218.02 c -1.04,0 -1.86,0.36 -2.45,1.08 -0.59,0.72 -0.88,1.75 -0.88,3.1 0,1.15 0.27,2.07 0.8,2.74 0.53,0.68 1.35,1.01 2.43,1.01 1.02,0 1.9,-0.33 2.63,-1 0.73,-0.67 1.09,-1.44 1.09,-2.31 0,-1.3 -0.34,-2.39 -1.02,-3.28 -0.68,-0.89 -1.54,-1.34 -2.6,-1.34 z"
               style="fill:#124c59"
               id="XMLID_607_" />
            <path
               inkscape:connector-curvature="0"
               d="m 28.94,222.87 c 2.31,0 4.15,0.65 5.51,1.94 1.37,1.3 2.05,3.07 2.05,5.33 0,2.67 -0.82,4.72 -2.47,6.16 -1.64,1.44 -4,2.16 -7.06,2.16 -2.66,0 -4.8,-0.43 -6.44,-1.29 v -4.36 c 0.86,0.46 1.86,0.83 3.01,1.12 1.15,0.29 2.23,0.43 3.25,0.43 3.08,0 4.62,-1.26 4.62,-3.79 0,-2.41 -1.6,-3.61 -4.79,-3.61 -0.58,0 -1.21,0.06 -1.91,0.17 -0.7,0.11 -1.26,0.24 -1.7,0.37 L 21,226.42 21.9,214.25 h 12.96 v 4.28 h -8.53 l -0.44,4.69 0.57,-0.11 c 0.67,-0.16 1.5,-0.24 2.48,-0.24 z"
               style="fill:#124c59"
               id="XMLID_610_" />
          </g>
          <g
             id="XMLID_599_">
            <path
               inkscape:connector-curvature="0"
               d="m 17.85,308.09 c 0,4.71 -0.99,8.22 -2.97,10.54 -1.98,2.32 -4.98,3.48 -9,3.48 -1.42,0 -2.49,-0.08 -3.22,-0.23 v -4.05 c 0.91,0.23 1.87,0.34 2.88,0.34 1.69,0 3.08,-0.25 4.17,-0.74 1.09,-0.49 1.92,-1.27 2.5,-2.34 0.58,-1.07 0.91,-2.52 1,-4.39 h -0.2 c -0.63,1.02 -1.36,1.74 -2.19,2.16 -0.83,0.41 -1.86,0.62 -3.1,0.62 -2.08,0 -3.72,-0.67 -4.92,-2 -1.2,-1.33 -1.8,-3.19 -1.8,-5.56 0,-2.56 0.73,-4.58 2.18,-6.07 1.45,-1.49 3.43,-2.23 5.94,-2.23 1.76,0 3.31,0.41 4.63,1.24 1.32,0.83 2.34,2.03 3.05,3.6 0.71,1.57 1.05,3.46 1.05,5.63 z M 9.2,301.67 c -1.04,0 -1.86,0.36 -2.45,1.08 -0.59,0.72 -0.88,1.75 -0.88,3.1 0,1.15 0.27,2.07 0.8,2.74 0.53,0.68 1.35,1.01 2.43,1.01 1.02,0 1.9,-0.33 2.63,-1 0.73,-0.67 1.09,-1.44 1.09,-2.31 0,-1.3 -0.34,-2.39 -1.02,-3.28 -0.68,-0.89 -1.54,-1.34 -2.6,-1.34 z"
               style="fill:#124c59"
               id="XMLID_600_" />
            <path
               inkscape:connector-curvature="0"
               d="m 36.81,309.84 c 0,4.17 -0.68,7.26 -2.05,9.26 -1.37,2 -3.47,3.01 -6.31,3.01 -2.76,0 -4.83,-1.03 -6.23,-3.1 -1.4,-2.07 -2.1,-5.12 -2.1,-9.17 0,-4.22 0.68,-7.32 2.04,-9.32 1.36,-2 3.46,-3 6.29,-3 2.76,0 4.84,1.05 6.25,3.14 1.41,2.09 2.11,5.15 2.11,9.18 z m -11.68,0 c 0,2.93 0.25,5.03 0.76,6.3 0.51,1.27 1.36,1.9 2.56,1.9 1.18,0 2.03,-0.64 2.55,-1.93 0.52,-1.28 0.78,-3.38 0.78,-6.27 0,-2.93 -0.26,-5.03 -0.79,-6.31 -0.53,-1.28 -1.38,-1.92 -2.54,-1.92 -1.19,0 -2.04,0.64 -2.55,1.92 -0.51,1.28 -0.77,3.38 -0.77,6.31 z"
               style="fill:#124c59"
               id="XMLID_603_" />
          </g>
          <g
             id="XMLID_590_">
            <path
               inkscape:connector-curvature="0"
               d="m 9.48,342.19 c 2.29,0 4.13,0.52 5.53,1.56 1.4,1.04 2.1,2.44 2.1,4.21 0,1.22 -0.34,2.31 -1.01,3.26 -0.67,0.95 -1.76,1.81 -3.27,2.56 1.79,0.96 3.07,1.96 3.85,3 0.78,1.04 1.17,2.18 1.17,3.42 0,1.96 -0.77,3.54 -2.3,4.73 -1.54,1.19 -3.56,1.79 -6.06,1.79 -2.61,0 -4.67,-0.56 -6.16,-1.67 -1.49,-1.11 -2.24,-2.68 -2.24,-4.72 0,-1.36 0.36,-2.57 1.09,-3.63 0.72,-1.06 1.89,-1.99 3.49,-2.79 -1.36,-0.86 -2.34,-1.78 -2.94,-2.76 -0.6,-0.98 -0.9,-2.05 -0.9,-3.22 0,-1.71 0.71,-3.09 2.12,-4.15 1.41,-1.06 3.25,-1.59 5.53,-1.59 z m -3.72,17.84 c 0,0.94 0.33,1.67 0.98,2.19 0.65,0.52 1.55,0.78 2.68,0.78 1.25,0 2.19,-0.27 2.81,-0.81 0.62,-0.54 0.93,-1.25 0.93,-2.13 0,-0.73 -0.31,-1.41 -0.92,-2.05 -0.62,-0.64 -1.62,-1.32 -3,-2.03 -2.32,1.06 -3.48,2.41 -3.48,4.05 z m 3.69,-14.15 c -0.86,0 -1.55,0.22 -2.08,0.66 -0.53,0.44 -0.79,1.03 -0.79,1.77 0,0.65 0.21,1.24 0.63,1.76 0.42,0.52 1.18,1.05 2.28,1.59 1.07,-0.5 1.81,-1.01 2.24,-1.54 0.42,-0.52 0.64,-1.13 0.64,-1.81 0,-0.75 -0.27,-1.34 -0.82,-1.78 -0.56,-0.43 -1.25,-0.65 -2.1,-0.65 z"
               style="fill:#124c59"
               id="XMLID_591_" />
            <path
               inkscape:connector-curvature="0"
               d="M 37.48,361.43 H 34.6 v 4.95 h -4.93 v -4.95 H 19.48 v -3.51 L 29.95,342.5 h 4.66 v 15.01 h 2.88 v 3.92 z m -7.81,-3.92 v -4.05 c 0,-0.68 0.03,-1.66 0.08,-2.94 0.05,-1.29 0.1,-2.03 0.13,-2.24 h -0.13 c -0.4,0.89 -0.89,1.76 -1.45,2.61 l -4.38,6.62 h 5.75 z"
               style="fill:#124c59"
               id="XMLID_595_" />
          </g>
          <g
             id="XMLID_582_">
            <path
               inkscape:connector-curvature="0"
               d="m 9.48,386.79 c 2.29,0 4.13,0.52 5.53,1.56 1.4,1.04 2.1,2.44 2.1,4.21 0,1.22 -0.34,2.31 -1.01,3.26 -0.67,0.95 -1.76,1.81 -3.27,2.56 1.79,0.96 3.07,1.96 3.85,3 0.78,1.04 1.17,2.18 1.17,3.42 0,1.96 -0.77,3.54 -2.3,4.73 -1.54,1.19 -3.56,1.79 -6.06,1.79 -2.61,0 -4.67,-0.56 -6.16,-1.67 -1.49,-1.11 -2.24,-2.68 -2.24,-4.72 0,-1.36 0.36,-2.57 1.09,-3.63 0.72,-1.06 1.89,-1.99 3.49,-2.79 -1.36,-0.86 -2.34,-1.78 -2.94,-2.76 -0.6,-0.98 -0.9,-2.05 -0.9,-3.22 0,-1.71 0.71,-3.09 2.12,-4.15 1.41,-1.06 3.25,-1.59 5.53,-1.59 z m -3.72,17.84 c 0,0.94 0.33,1.67 0.98,2.19 0.65,0.52 1.55,0.78 2.68,0.78 1.25,0 2.19,-0.27 2.81,-0.81 0.62,-0.54 0.93,-1.25 0.93,-2.13 0,-0.73 -0.31,-1.41 -0.92,-2.05 -0.62,-0.64 -1.62,-1.32 -3,-2.03 -2.32,1.07 -3.48,2.42 -3.48,4.05 z m 3.69,-14.14 c -0.86,0 -1.55,0.22 -2.08,0.66 -0.53,0.44 -0.79,1.03 -0.79,1.77 0,0.65 0.21,1.24 0.63,1.76 0.42,0.52 1.18,1.05 2.28,1.59 1.07,-0.5 1.81,-1.01 2.24,-1.54 0.42,-0.52 0.64,-1.13 0.64,-1.81 0,-0.75 -0.27,-1.34 -0.82,-1.78 -0.56,-0.44 -1.25,-0.65 -2.1,-0.65 z"
               style="fill:#124c59"
               id="XMLID_583_" />
            <path
               inkscape:connector-curvature="0"
               d="m 36.81,399.05 c 0,4.17 -0.68,7.26 -2.05,9.26 -1.37,2 -3.47,3.01 -6.31,3.01 -2.76,0 -4.83,-1.03 -6.23,-3.1 -1.4,-2.07 -2.1,-5.12 -2.1,-9.17 0,-4.22 0.68,-7.32 2.04,-9.32 1.36,-2 3.46,-3 6.29,-3 2.76,0 4.84,1.05 6.25,3.14 1.41,2.09 2.11,5.15 2.11,9.18 z m -11.68,0 c 0,2.93 0.25,5.03 0.76,6.3 0.51,1.27 1.36,1.9 2.56,1.9 1.18,0 2.03,-0.64 2.55,-1.93 0.52,-1.28 0.78,-3.38 0.78,-6.27 0,-2.93 -0.26,-5.03 -0.79,-6.31 -0.53,-1.28 -1.38,-1.92 -2.54,-1.92 -1.19,0 -2.04,0.64 -2.55,1.92 -0.51,1.27 -0.77,3.38 -0.77,6.31 z"
               style="fill:#124c59"
               id="XMLID_587_" />
          </g>
          <g
             id="XMLID_576_">
            <path
               inkscape:connector-curvature="0"
               d="m 3.62,467.47 8.97,-19.61 H 0.81 v -4.25 h 17.14 v 3.17 L 8.91,467.46 H 3.62 z"
               style="fill:#124c59"
               id="XMLID_577_" />
            <path
               inkscape:connector-curvature="0"
               d="m 36.81,455.52 c 0,4.17 -0.68,7.26 -2.05,9.26 -1.37,2 -3.47,3.01 -6.31,3.01 -2.76,0 -4.83,-1.03 -6.23,-3.1 -1.4,-2.07 -2.1,-5.12 -2.1,-9.17 0,-4.22 0.68,-7.32 2.04,-9.32 1.36,-2 3.46,-3 6.29,-3 2.76,0 4.84,1.05 6.25,3.14 1.41,2.09 2.11,5.16 2.11,9.18 z m -11.68,0 c 0,2.93 0.25,5.03 0.76,6.3 0.51,1.27 1.36,1.9 2.56,1.9 1.18,0 2.03,-0.64 2.55,-1.93 0.52,-1.28 0.78,-3.38 0.78,-6.27 0,-2.93 -0.26,-5.03 -0.79,-6.31 -0.53,-1.28 -1.38,-1.92 -2.54,-1.92 -1.19,0 -2.04,0.64 -2.55,1.92 -0.51,1.28 -0.77,3.39 -0.77,6.31 z"
               style="fill:#124c59"
               id="XMLID_579_" />
          </g>
          <g
             id="XMLID_569_">
            <path
               inkscape:connector-curvature="0"
               d="m 1.08,529.83 c 0,-4.73 1,-8.24 3,-10.55 2,-2.31 4.99,-3.46 8.98,-3.46 1.36,0 2.43,0.08 3.2,0.25 v 4.04 c -0.97,-0.22 -1.93,-0.33 -2.88,-0.33 -1.73,0 -3.14,0.26 -4.24,0.78 -1.09,0.52 -1.92,1.3 -2.46,2.32 -0.54,1.02 -0.87,2.48 -0.96,4.36 h 0.21 c 1.08,-1.85 2.8,-2.78 5.18,-2.78 2.13,0 3.81,0.67 5.02,2.01 1.21,1.34 1.81,3.19 1.81,5.55 0,2.55 -0.72,4.57 -2.16,6.05 -1.44,1.49 -3.43,2.23 -5.98,2.23 -1.76,0 -3.3,-0.41 -4.62,-1.23 -1.32,-0.82 -2.33,-2.01 -3.04,-3.58 -0.7,-1.56 -1.06,-3.45 -1.06,-5.66 z m 8.63,6.43 c 1.08,0 1.91,-0.36 2.48,-1.09 0.58,-0.72 0.87,-1.76 0.87,-3.1 0,-1.17 -0.27,-2.08 -0.81,-2.75 -0.54,-0.67 -1.35,-1 -2.44,-1 -1.02,0 -1.9,0.33 -2.62,1 -0.72,0.66 -1.09,1.44 -1.09,2.32 0,1.3 0.34,2.39 1.02,3.28 0.68,0.89 1.54,1.34 2.59,1.34 z"
               style="fill:#124c59"
               id="XMLID_570_" />
            <path
               inkscape:connector-curvature="0"
               d="m 36.81,528.03 c 0,4.17 -0.68,7.26 -2.05,9.26 -1.37,2 -3.47,3.01 -6.31,3.01 -2.76,0 -4.83,-1.03 -6.23,-3.1 -1.4,-2.07 -2.1,-5.12 -2.1,-9.17 0,-4.22 0.68,-7.32 2.04,-9.32 1.36,-2 3.46,-3 6.29,-3 2.76,0 4.84,1.05 6.25,3.14 1.41,2.09 2.11,5.15 2.11,9.18 z m -11.68,0 c 0,2.93 0.25,5.03 0.76,6.3 0.51,1.27 1.36,1.9 2.56,1.9 1.18,0 2.03,-0.64 2.55,-1.93 0.52,-1.28 0.78,-3.38 0.78,-6.27 0,-2.93 -0.26,-5.03 -0.79,-6.31 -0.53,-1.28 -1.38,-1.92 -2.54,-1.92 -1.19,0 -2.04,0.64 -2.55,1.92 -0.51,1.28 -0.77,3.38 -0.77,6.31 z"
               style="fill:#124c59"
               id="XMLID_573_" />
          </g>
          <g
             id="XMLID_563_">
            <path
               inkscape:connector-curvature="0"
               d="m 9.94,564.46 c 2.31,0 4.15,0.65 5.51,1.94 1.37,1.3 2.05,3.07 2.05,5.33 0,2.67 -0.82,4.72 -2.47,6.16 -1.64,1.44 -4,2.16 -7.06,2.16 -2.66,0 -4.8,-0.43 -6.44,-1.29 v -4.36 c 0.86,0.46 1.86,0.83 3.01,1.12 1.15,0.29 2.23,0.43 3.25,0.43 3.08,0 4.62,-1.26 4.62,-3.79 0,-2.41 -1.6,-3.61 -4.79,-3.61 -0.58,0 -1.21,0.06 -1.91,0.17 -0.7,0.11 -1.26,0.24 -1.7,0.37 L 2,568.01 2.9,555.84 h 12.96 v 4.28 H 7.34 l -0.44,4.69 0.57,-0.11 c 0.67,-0.16 1.49,-0.24 2.47,-0.24 z"
               style="fill:#124c59"
               id="XMLID_564_" />
            <path
               inkscape:connector-curvature="0"
               d="m 36.81,567.78 c 0,4.17 -0.68,7.26 -2.05,9.26 -1.37,2 -3.47,3.01 -6.31,3.01 -2.76,0 -4.83,-1.03 -6.23,-3.1 -1.4,-2.07 -2.1,-5.12 -2.1,-9.17 0,-4.22 0.68,-7.32 2.04,-9.32 1.36,-2 3.46,-3 6.29,-3 2.76,0 4.84,1.05 6.25,3.14 1.41,2.09 2.11,5.15 2.11,9.18 z m -11.68,0 c 0,2.93 0.25,5.03 0.76,6.3 0.51,1.27 1.36,1.9 2.56,1.9 1.18,0 2.03,-0.64 2.55,-1.93 0.52,-1.28 0.78,-3.38 0.78,-6.27 0,-2.93 -0.26,-5.03 -0.79,-6.31 -0.53,-1.28 -1.38,-1.92 -2.54,-1.92 -1.19,0 -2.04,0.64 -2.55,1.92 -0.51,1.28 -0.77,3.38 -0.77,6.31 z"
               style="fill:#124c59"
               id="XMLID_566_" />
          </g>
          <g
             id="XMLID_556_">
            <path
               inkscape:connector-curvature="0"
               d="M 18.48,614.53 H 15.6 v 4.95 h -4.93 v -4.95 H 0.48 v -3.51 L 10.95,595.6 h 4.66 v 15.01 h 2.88 v 3.92 z m -7.81,-3.92 v -4.05 c 0,-0.68 0.03,-1.66 0.08,-2.94 0.05,-1.29 0.1,-2.03 0.13,-2.24 h -0.13 c -0.4,0.89 -0.89,1.76 -1.45,2.61 l -4.38,6.62 h 5.75 z"
               style="fill:#124c59"
               id="XMLID_557_" />
            <path
               inkscape:connector-curvature="0"
               d="m 36.81,607.53 c 0,4.17 -0.68,7.26 -2.05,9.26 -1.37,2 -3.47,3.01 -6.31,3.01 -2.76,0 -4.83,-1.04 -6.23,-3.1 -1.4,-2.06 -2.1,-5.12 -2.1,-9.17 0,-4.21 0.68,-7.32 2.04,-9.32 1.36,-2 3.46,-3 6.29,-3 2.76,0 4.84,1.05 6.25,3.14 1.41,2.09 2.11,5.15 2.11,9.18 z m -11.68,0 c 0,2.93 0.25,5.03 0.76,6.3 0.51,1.27 1.36,1.9 2.56,1.9 1.18,0 2.03,-0.64 2.55,-1.93 0.52,-1.29 0.78,-3.38 0.78,-6.27 0,-2.93 -0.26,-5.03 -0.79,-6.31 -0.53,-1.28 -1.38,-1.92 -2.54,-1.92 -1.19,0 -2.04,0.64 -2.55,1.92 -0.51,1.28 -0.77,3.38 -0.77,6.31 z"
               style="fill:#124c59"
               id="XMLID_560_" />
          </g>
          <g
             id="XMLID_550_">
            <path
               inkscape:connector-curvature="0"
               d="m 17.01,680.4 c 0,1.49 -0.45,2.76 -1.36,3.81 -0.9,1.04 -2.17,1.76 -3.81,2.16 v 0.1 c 1.93,0.24 3.39,0.83 4.38,1.76 0.99,0.93 1.49,2.19 1.49,3.77 0,2.3 -0.83,4.09 -2.5,5.37 -1.67,1.28 -4.05,1.92 -7.14,1.92 -2.59,0 -4.89,-0.43 -6.89,-1.29 v -4.3 c 0.93,0.47 1.94,0.85 3.05,1.14 1.11,0.29 2.21,0.44 3.3,0.44 1.67,0 2.9,-0.28 3.69,-0.85 0.79,-0.57 1.19,-1.48 1.19,-2.73 0,-1.12 -0.46,-1.92 -1.37,-2.39 -0.92,-0.47 -2.38,-0.7 -4.38,-0.7 h -1.8 v -3.87 H 6.7 c 1.85,0 3.2,-0.24 4.06,-0.73 0.85,-0.49 1.28,-1.32 1.28,-2.49 0,-1.81 -1.13,-2.71 -3.4,-2.71 -0.78,0 -1.58,0.13 -2.39,0.39 -0.81,0.26 -1.71,0.71 -2.7,1.36 l -2.34,-3.48 c 2.18,-1.57 4.78,-2.35 7.79,-2.35 2.47,0 4.42,0.5 5.86,1.5 1.44,1 2.15,2.38 2.15,4.17 z"
               style="fill:#124c59"
               id="XMLID_551_" />
            <path
               inkscape:connector-curvature="0"
               d="m 36.81,687 c 0,4.17 -0.68,7.26 -2.05,9.26 -1.37,2 -3.47,3.01 -6.31,3.01 -2.76,0 -4.83,-1.04 -6.23,-3.1 -1.4,-2.06 -2.1,-5.12 -2.1,-9.17 0,-4.21 0.68,-7.32 2.04,-9.32 1.36,-2 3.46,-3 6.29,-3 2.76,0 4.84,1.05 6.25,3.14 1.41,2.09 2.11,5.15 2.11,9.18 z m -11.68,0 c 0,2.93 0.25,5.03 0.76,6.3 0.51,1.27 1.36,1.9 2.56,1.9 1.18,0 2.03,-0.64 2.55,-1.93 0.52,-1.29 0.78,-3.38 0.78,-6.27 0,-2.93 -0.26,-5.03 -0.79,-6.31 -0.53,-1.28 -1.38,-1.92 -2.54,-1.92 -1.19,0 -2.04,0.64 -2.55,1.92 -0.51,1.28 -0.77,3.38 -0.77,6.31 z"
               style="fill:#124c59"
               id="XMLID_553_" />
          </g>
          <g
             id="XMLID_544_">
            <path
               inkscape:connector-curvature="0"
               d="M 17.94,760.98 H 1.25 v -3.51 l 6,-6.06 c 1.78,-1.82 2.93,-3.08 3.48,-3.78 0.54,-0.7 0.94,-1.35 1.18,-1.95 0.24,-0.6 0.36,-1.22 0.36,-1.86 0,-0.96 -0.26,-1.67 -0.79,-2.14 -0.53,-0.47 -1.23,-0.7 -2.12,-0.7 -0.93,0 -1.82,0.21 -2.7,0.64 -0.87,0.42 -1.78,1.03 -2.73,1.81 l -2.75,-3.25 c 1.18,-1 2.15,-1.71 2.92,-2.12 0.77,-0.41 1.62,-0.73 2.53,-0.96 0.92,-0.22 1.94,-0.33 3.07,-0.33 1.49,0 2.81,0.27 3.95,0.82 1.14,0.54 2.03,1.31 2.66,2.29 0.63,0.98 0.95,2.1 0.95,3.37 0,1.1 -0.19,2.13 -0.58,3.1 -0.39,0.97 -0.99,1.95 -1.8,2.96 -0.81,1.01 -2.24,2.46 -4.29,4.33 l -3.07,2.89 v 0.23 h 10.41 v 4.22 z"
               style="fill:#124c59"
               id="XMLID_545_" />
            <path
               inkscape:connector-curvature="0"
               d="m 36.81,749.03 c 0,4.17 -0.68,7.26 -2.05,9.26 -1.37,2 -3.47,3.01 -6.31,3.01 -2.76,0 -4.83,-1.04 -6.23,-3.1 -1.4,-2.06 -2.1,-5.12 -2.1,-9.17 0,-4.21 0.68,-7.32 2.04,-9.32 1.36,-2 3.46,-3 6.29,-3 2.76,0 4.84,1.05 6.25,3.14 1.41,2.09 2.11,5.15 2.11,9.18 z m -11.68,0 c 0,2.93 0.25,5.03 0.76,6.3 0.51,1.27 1.36,1.9 2.56,1.9 1.18,0 2.03,-0.64 2.55,-1.93 0.52,-1.29 0.78,-3.38 0.78,-6.27 0,-2.93 -0.26,-5.03 -0.79,-6.31 -0.53,-1.28 -1.38,-1.92 -2.54,-1.92 -1.19,0 -2.04,0.64 -2.55,1.92 -0.51,1.28 -0.77,3.38 -0.77,6.31 z"
               style="fill:#124c59"
               id="XMLID_547_" />
          </g>
          <g
             id="XMLID_538_">
            <path
               inkscape:connector-curvature="0"
               d="M 13.73,800.73 H 8.68 v -13.82 l 0.05,-2.27 0.08,-2.48 c -0.84,0.84 -1.42,1.39 -1.75,1.65 l -2.75,2.21 -2.43,-3.04 7.7,-6.13 h 4.15 v 23.88 z"
               style="fill:#124c59"
               id="XMLID_539_" />
            <path
               inkscape:connector-curvature="0"
               d="m 20.08,790.58 c 0,-4.73 1,-8.25 3,-10.55 2,-2.31 4.99,-3.46 8.98,-3.46 1.36,0 2.43,0.08 3.2,0.25 v 4.04 c -0.97,-0.22 -1.93,-0.33 -2.88,-0.33 -1.73,0 -3.14,0.26 -4.24,0.78 -1.09,0.52 -1.92,1.3 -2.46,2.32 -0.54,1.02 -0.87,2.48 -0.96,4.36 h 0.21 c 1.08,-1.85 2.8,-2.78 5.18,-2.78 2.13,0 3.81,0.67 5.02,2.01 1.21,1.34 1.81,3.19 1.81,5.56 0,2.55 -0.72,4.57 -2.16,6.05 -1.44,1.49 -3.43,2.23 -5.98,2.23 -1.76,0 -3.3,-0.41 -4.62,-1.23 -1.31,-0.82 -2.33,-2.01 -3.04,-3.58 -0.7,-1.57 -1.06,-3.46 -1.06,-5.67 z m 8.63,6.44 c 1.08,0 1.91,-0.36 2.48,-1.09 0.57,-0.73 0.87,-1.76 0.87,-3.1 0,-1.17 -0.27,-2.08 -0.81,-2.75 -0.54,-0.67 -1.35,-1 -2.44,-1 -1.02,0 -1.9,0.33 -2.62,1 -0.72,0.67 -1.09,1.44 -1.09,2.32 0,1.3 0.34,2.39 1.02,3.28 0.68,0.89 1.54,1.34 2.59,1.34 z"
               style="fill:#124c59"
               id="XMLID_541_" />
          </g>
          <g
             id="XMLID_532_">
            <path
               inkscape:connector-curvature="0"
               d="M 13.73,839.77 H 8.68 v -13.82 l 0.05,-2.27 0.08,-2.48 c -0.84,0.84 -1.42,1.39 -1.75,1.65 l -2.75,2.21 -2.43,-3.04 7.7,-6.13 h 4.15 v 23.88 z"
               style="fill:#124c59"
               id="XMLID_533_" />
            <path
               inkscape:connector-curvature="0"
               d="m 36.81,827.83 c 0,4.17 -0.68,7.26 -2.05,9.26 -1.37,2 -3.47,3.01 -6.31,3.01 -2.76,0 -4.83,-1.04 -6.23,-3.1 -1.4,-2.06 -2.1,-5.12 -2.1,-9.17 0,-4.21 0.68,-7.32 2.04,-9.32 1.36,-2 3.46,-3 6.29,-3 2.76,0 4.84,1.05 6.25,3.14 1.41,2.09 2.11,5.15 2.11,9.18 z m -11.68,0 c 0,2.93 0.25,5.03 0.76,6.3 0.51,1.27 1.36,1.9 2.56,1.9 1.18,0 2.03,-0.64 2.55,-1.93 0.52,-1.29 0.78,-3.38 0.78,-6.27 0,-2.93 -0.26,-5.03 -0.79,-6.31 -0.53,-1.28 -1.38,-1.92 -2.54,-1.92 -1.19,0 -2.04,0.64 -2.55,1.92 -0.51,1.28 -0.77,3.38 -0.77,6.31 z"
               style="fill:#124c59"
               id="XMLID_535_" />
          </g>
          <g
             id="XMLID_529_">
            <path
               inkscape:connector-curvature="0"
               d="m 28.94,903.98 c 2.31,0 4.15,0.65 5.51,1.94 1.37,1.3 2.05,3.07 2.05,5.33 0,2.67 -0.82,4.72 -2.47,6.16 -1.65,1.44 -4,2.16 -7.06,2.16 -2.66,0 -4.8,-0.43 -6.44,-1.29 v -4.36 c 0.86,0.46 1.86,0.83 3.01,1.12 1.14,0.29 2.23,0.43 3.25,0.43 3.08,0 4.62,-1.26 4.62,-3.79 0,-2.41 -1.6,-3.61 -4.79,-3.61 -0.58,0 -1.21,0.06 -1.91,0.17 -0.7,0.12 -1.26,0.24 -1.7,0.37 L 21,907.53 21.9,895.36 h 12.96 v 4.28 h -8.53 l -0.44,4.69 0.57,-0.12 c 0.67,-0.15 1.5,-0.23 2.48,-0.23 z"
               style="fill:#124c59"
               id="XMLID_530_" />
          </g>
          <g
             id="XMLID_526_">
            <path
               inkscape:connector-curvature="0"
               d="m 32.73,1026.61 h -5.05 v -13.82 l 0.05,-2.27 0.08,-2.48 c -0.84,0.84 -1.42,1.39 -1.75,1.65 l -2.75,2.21 -2.43,-3.04 7.7,-6.13 h 4.15 v 23.88 z"
               style="fill:#124c59"
               id="XMLID_527_" />
          </g>
        </g>
        <g
           id="XMLID_522_">
          <path
             inkscape:connector-curvature="0"
             d="m 142.25,23.81 c 0,7.05 -2.01,12.45 -6.02,16.2 -4.01,3.75 -9.81,5.62 -17.39,5.62 H 106.71 V 2.81 h 13.45 c 6.99,0 12.42,1.85 16.29,5.54 3.87,3.69 5.8,8.84 5.8,15.46 z m -9.43,0.24 c 0,-9.2 -4.06,-13.8 -12.19,-13.8 h -4.83 v 27.89 h 3.9 c 8.74,0 13.12,-4.7 13.12,-14.09 z"
             style="fill:#124c59"
             id="XMLID_523_" />
        </g>
        <g
           id="XMLID_519_">
          <path
             inkscape:connector-curvature="0"
             d="M 200.59,45.64 V 2.81 h 9.08 v 42.83 h -9.08 z"
             style="fill:#124c59"
             id="XMLID_520_" />
        </g>
        <g
           id="XMLID_516_">
          <path
             inkscape:connector-curvature="0"
             d="m 298.76,33.75 c 0,3.87 -1.39,6.91 -4.17,9.14 -2.78,2.23 -6.66,3.34 -11.62,3.34 -4.57,0 -8.61,-0.86 -12.13,-2.58 v -8.44 c 2.89,1.29 5.34,2.2 7.34,2.72 2,0.52 3.83,0.79 5.49,0.79 1.99,0 3.52,-0.38 4.58,-1.14 1.06,-0.76 1.6,-1.89 1.6,-3.4 0,-0.84 -0.23,-1.59 -0.7,-2.24 -0.47,-0.65 -1.16,-1.28 -2.07,-1.89 -0.91,-0.6 -2.76,-1.57 -5.55,-2.9 -2.62,-1.23 -4.58,-2.41 -5.89,-3.54 -1.31,-1.13 -2.35,-2.45 -3.13,-3.96 -0.78,-1.5 -1.17,-3.26 -1.17,-5.27 0,-3.79 1.28,-6.77 3.85,-8.94 2.57,-2.17 6.12,-3.25 10.65,-3.25 2.23,0 4.35,0.26 6.37,0.79 2.02,0.53 4.14,1.27 6.34,2.23 l -2.93,7.06 c -2.29,-0.94 -4.17,-1.59 -5.67,-1.96 -1.49,-0.37 -2.96,-0.56 -4.41,-0.56 -1.72,0 -3.04,0.4 -3.96,1.2 -0.92,0.8 -1.38,1.85 -1.38,3.13 0,0.8 0.19,1.5 0.56,2.09 0.37,0.6 0.96,1.17 1.77,1.73 0.81,0.56 2.73,1.56 5.76,3 4,1.91 6.75,3.83 8.23,5.76 1.5,1.93 2.24,4.29 2.24,7.09 z"
             style="fill:#124c59"
             id="XMLID_517_" />
        </g>
        <g
           id="XMLID_513_">
          <path
             inkscape:connector-curvature="0"
             d="m 369.84,9.75 c -3.42,0 -6.06,1.28 -7.94,3.85 -1.88,2.57 -2.81,6.15 -2.81,10.74 0,9.55 3.58,14.33 10.75,14.33 3.01,0 6.65,-0.75 10.93,-2.26 v 7.62 c -3.52,1.46 -7.44,2.2 -11.78,2.2 -6.23,0 -11,-1.89 -14.3,-5.67 -3.3,-3.78 -4.95,-9.2 -4.95,-16.27 0,-4.45 0.81,-8.35 2.43,-11.7 1.62,-3.35 3.95,-5.92 6.99,-7.71 3.04,-1.79 6.6,-2.68 10.68,-2.68 4.16,0 8.34,1.01 12.54,3.02 l -2.93,7.38 c -1.6,-0.76 -3.21,-1.43 -4.83,-1.99 -1.62,-0.57 -3.21,-0.86 -4.78,-0.86 z"
             style="fill:#124c59"
             id="XMLID_514_" />
        </g>
      </g>
      <g
         id="g3262">
        <g
           id="Most">
          <g
             id="XMLID_4_">
            <g
               id="XMLID_508_">
              <path
                 inkscape:connector-curvature="0"
                 id="XMLID_509_"
                 style="fill:#231f20"
                 d="m 138.64,65.37 h -0.06 l -3.15,1.7 -0.47,-1.87 3.96,-2.12 h 2.09 v 18.13 h -2.37 V 65.37 z" />
              <path
                 inkscape:connector-curvature="0"
                 id="XMLID_511_"
                 style="fill:#231f20"
                 d="m 159.3,63.08 v 1.62 l -7.89,16.51 h -2.54 l 7.87,-16.04 v -0.06 h -8.87 v -2.04 h 11.43 z" />
            </g>
            <g
               id="XMLID_502_">
              <path
                 inkscape:connector-curvature="0"
                 id="XMLID_503_"
                 style="fill:#231f20"
                 d="m 138.64,89.35 h -0.06 l -3.15,1.7 -0.47,-1.87 3.96,-2.12 h 2.09 v 18.13 h -2.37 V 89.35 z" />
              <path
                 inkscape:connector-curvature="0"
                 id="XMLID_505_"
                 style="fill:#231f20"
                 d="m 157.88,88.79 c -0.5,-0.03 -1.14,0 -1.84,0.11 -3.85,0.64 -5.89,3.46 -6.3,6.44 h 0.08 c 0.87,-1.14 2.37,-2.09 4.38,-2.09 3.21,0 5.47,2.32 5.47,5.86 0,3.32 -2.26,6.39 -6.03,6.39 -3.88,0 -6.42,-3.01 -6.42,-7.73 0,-3.57 1.28,-6.39 3.07,-8.17 1.51,-1.48 3.51,-2.4 5.8,-2.68 0.73,-0.11 1.34,-0.14 1.79,-0.14 v 2.01 z m -0.7,10.46 c 0,-2.59 -1.48,-4.16 -3.74,-4.16 -1.48,0 -2.85,0.92 -3.51,2.23 -0.17,0.28 -0.28,0.64 -0.28,1.09 0.06,2.98 1.42,5.19 3.99,5.19 2.12,0 3.54,-1.75 3.54,-4.35 z" />
            </g>
            <g
               id="XMLID_497_">
              <path
                 inkscape:connector-curvature="0"
                 id="XMLID_498_"
                 style="fill:#231f20"
                 d="m 138.64,113.33 h -0.06 l -3.15,1.7 -0.47,-1.87 3.96,-2.12 h 2.09 v 18.13 h -2.37 v -15.84 z" />
              <path
                 inkscape:connector-curvature="0"
                 id="XMLID_500_"
                 style="fill:#231f20"
                 d="m 158.35,113.11 h -6.92 l -0.7,4.66 c 0.42,-0.06 0.81,-0.11 1.48,-0.11 1.39,0 2.79,0.31 3.91,0.98 1.42,0.81 2.59,2.37 2.59,4.66 0,3.54 -2.82,6.19 -6.75,6.19 -1.98,0 -3.65,-0.56 -4.52,-1.12 l 0.61,-1.87 c 0.75,0.45 2.23,1 3.88,1 2.32,0 4.3,-1.51 4.3,-3.93 -0.03,-2.34 -1.59,-4.02 -5.22,-4.02 -1.03,0 -1.84,0.11 -2.51,0.2 l 1.17,-8.7 h 8.67 v 2.06 z" />
            </g>
            <g
               id="XMLID_487_">
              <path
                 inkscape:connector-curvature="0"
                 id="XMLID_490_"
                 style="fill:#231f20"
                 d="m 138.64,169.11 h -0.06 l -3.15,1.7 -0.47,-1.87 3.96,-2.12 h 2.09 v 18.13 h -2.37 v -15.84 z" />
              <path
                 inkscape:connector-curvature="0"
                 id="XMLID_494_"
                 style="fill:#231f20"
                 d="m 155.12,184.95 v -4.94 h -8.42 v -1.62 l 8.09,-11.58 h 2.65 v 11.27 h 2.54 V 180 h -2.54 v 4.94 h -2.32 z m 0,-6.86 v -6.05 c 0,-0.95 0.03,-1.9 0.08,-2.85 h -0.08 c -0.56,1.06 -1,1.84 -1.51,2.68 l -4.44,6.16 v 0.06 h 5.95 z" />
            </g>
            <g
               id="XMLID_480_">
              <path
                 inkscape:connector-curvature="0"
                 id="XMLID_481_"
                 style="fill:#231f20"
                 d="m 138.64,224.88 h -0.06 l -3.15,1.7 -0.47,-1.87 3.96,-2.12 h 2.09 v 18.13 h -2.37 v -15.84 z" />
              <path
                 inkscape:connector-curvature="0"
                 id="XMLID_483_"
                 style="fill:#231f20"
                 d="m 147.53,240.72 v -1.51 l 1.92,-1.87 c 4.63,-4.41 6.72,-6.75 6.75,-9.48 0,-1.84 -0.89,-3.54 -3.6,-3.54 -1.65,0 -3.01,0.84 -3.85,1.53 l -0.78,-1.73 c 1.26,-1.06 3.04,-1.84 5.13,-1.84 3.91,0 5.55,2.68 5.55,5.27 0,3.35 -2.43,6.05 -6.25,9.73 l -1.45,1.34 v 0.06 h 8.15 v 2.04 h -11.57 z" />
            </g>
            <g
               id="XMLID_475_">
              <path
                 inkscape:connector-curvature="0"
                 id="XMLID_476_"
                 style="fill:#231f20"
                 d="m 138.64,252.76 h -0.06 l -3.15,1.7 -0.47,-1.87 3.96,-2.12 h 2.09 v 18.13 h -2.37 v -15.84 z" />
              <path
                 inkscape:connector-curvature="0"
                 id="XMLID_478_"
                 style="fill:#231f20"
                 d="m 152.86,252.76 h -0.06 l -3.15,1.7 -0.47,-1.87 3.96,-2.12 h 2.09 v 18.13 h -2.37 v -15.84 z" />
            </g>
            <g
               id="XMLID_469_">
              <path
                 inkscape:connector-curvature="0"
                 id="XMLID_470_"
                 style="fill:#231f20"
                 d="m 138.64,297.38 h -0.06 l -3.15,1.7 -0.47,-1.87 3.96,-2.12 h 2.09 v 18.13 h -2.37 v -15.84 z" />
              <path
                 inkscape:connector-curvature="0"
                 id="XMLID_472_"
                 style="fill:#231f20"
                 d="m 159.58,303.96 c 0,6.16 -2.29,9.57 -6.3,9.57 -3.54,0 -5.94,-3.32 -6,-9.32 0,-6.08 2.62,-9.43 6.3,-9.43 3.82,0.01 6,3.41 6,9.18 z m -9.85,0.28 c 0,4.71 1.45,7.39 3.68,7.39 2.51,0 3.71,-2.93 3.71,-7.56 0,-4.46 -1.14,-7.39 -3.68,-7.39 -2.14,0 -3.71,2.63 -3.71,7.56 z" />
            </g>
            <g
               id="XMLID_465_">
              <path
                 inkscape:connector-curvature="0"
                 id="XMLID_466_"
                 style="fill:#231f20"
                 d="m 134.73,336.59 c 0.53,0.06 1.14,0 1.98,-0.08 1.42,-0.2 2.76,-0.78 3.79,-1.76 1.2,-1.09 2.06,-2.68 2.4,-4.83 h -0.08 c -1,1.23 -2.45,1.95 -4.27,1.95 -3.26,0 -5.36,-2.45 -5.36,-5.55 0,-3.43 2.48,-6.44 6.19,-6.44 3.71,0 6,3.01 6,7.64 0,3.99 -1.34,6.78 -3.12,8.51 -1.39,1.37 -3.32,2.2 -5.27,2.43 -0.89,0.14 -1.67,0.17 -2.26,0.14 v -2.01 z m 0.89,-10.43 c 0,2.26 1.37,3.85 3.49,3.85 1.65,0 2.93,-0.81 3.57,-1.9 0.14,-0.22 0.22,-0.5 0.22,-0.89 0,-3.1 -1.14,-5.47 -3.71,-5.47 -2.09,0 -3.57,1.84 -3.57,4.41 z" />
            </g>
            <g
               id="XMLID_460_">
              <path
                 inkscape:connector-curvature="0"
                 id="XMLID_461_"
                 style="fill:#231f20"
                 d="m 133.09,378.34 c 0,-2.29 1.37,-3.9 3.6,-4.85 l -0.03,-0.08 c -2.01,-0.95 -2.87,-2.51 -2.87,-4.07 0,-2.87 2.43,-4.83 5.61,-4.83 3.51,0 5.27,2.2 5.27,4.46 0,1.53 -0.75,3.18 -2.98,4.24 v 0.08 c 2.26,0.89 3.65,2.48 3.65,4.69 0,3.15 -2.71,5.27 -6.17,5.27 -3.8,0 -6.08,-2.26 -6.08,-4.91 z m 9.76,-0.11 c 0,-2.2 -1.53,-3.26 -3.99,-3.96 -2.12,0.61 -3.26,2.01 -3.26,3.74 -0.08,1.84 1.31,3.46 3.63,3.46 2.2,-0.01 3.62,-1.38 3.62,-3.24 z m -6.75,-9.07 c 0,1.81 1.37,2.79 3.46,3.35 1.56,-0.53 2.76,-1.65 2.76,-3.29 0,-1.45 -0.86,-2.96 -3.07,-2.96 -2.04,0 -3.15,1.34 -3.15,2.9 z" />
            </g>
            <g
               id="XMLID_457_">
              <path
                 inkscape:connector-curvature="0"
                 id="XMLID_458_"
                 style="fill:#231f20"
                 d="m 145.08,420.58 v 1.62 l -7.89,16.51 h -2.54 l 7.87,-16.04 v -0.06 h -8.87 v -2.04 h 11.43 z" />
            </g>
            <g
               id="XMLID_453_">
              <path
                 inkscape:connector-curvature="0"
                 id="XMLID_454_"
                 style="fill:#231f20"
                 d="m 143.66,450.2 c -0.5,-0.03 -1.14,0 -1.84,0.11 -3.85,0.64 -5.89,3.46 -6.3,6.44 h 0.08 c 0.87,-1.14 2.37,-2.09 4.38,-2.09 3.21,0 5.47,2.32 5.47,5.86 0,3.32 -2.26,6.39 -6.02,6.39 -3.88,0 -6.42,-3.01 -6.42,-7.73 0,-3.57 1.28,-6.39 3.07,-8.17 1.51,-1.48 3.51,-2.4 5.8,-2.68 0.73,-0.11 1.34,-0.14 1.79,-0.14 v 2.01 z m -0.7,10.46 c 0,-2.59 -1.48,-4.16 -3.74,-4.16 -1.48,0 -2.85,0.92 -3.51,2.23 -0.17,0.28 -0.28,0.64 -0.28,1.09 0.06,2.98 1.42,5.19 3.99,5.19 2.12,0 3.54,-1.76 3.54,-4.35 z" />
            </g>
            <g
               id="XMLID_450_">
              <path
                 inkscape:connector-curvature="0"
                 id="XMLID_451_"
                 style="fill:#231f20"
                 d="m 144.13,478.42 h -6.92 l -0.7,4.66 c 0.42,-0.06 0.81,-0.11 1.48,-0.11 1.39,0 2.79,0.31 3.91,0.98 1.42,0.81 2.59,2.37 2.59,4.66 0,3.54 -2.82,6.19 -6.75,6.19 -1.98,0 -3.65,-0.56 -4.52,-1.12 l 0.61,-1.87 c 0.75,0.45 2.23,1 3.88,1 2.32,0 4.3,-1.51 4.3,-3.93 -0.03,-2.34 -1.59,-4.02 -5.22,-4.02 -1.03,0 -1.84,0.11 -2.51,0.2 l 1.17,-8.7 h 8.67 v 2.06 z" />
            </g>
            <g
               id="XMLID_444_">
              <path
                 inkscape:connector-curvature="0"
                 id="XMLID_445_"
                 style="fill:#231f20"
                 d="m 140.9,550.26 v -4.94 h -8.42 v -1.62 l 8.09,-11.58 h 2.65 v 11.27 h 2.54 v 1.92 h -2.54 v 4.94 h -2.32 z m 0,-6.86 v -6.05 c 0,-0.95 0.03,-1.9 0.08,-2.85 h -0.08 c -0.56,1.06 -1,1.84 -1.51,2.68 l -4.43,6.16 v 0.06 h 5.94 z" />
            </g>
            <g
               id="XMLID_441_">
              <path
                 inkscape:connector-curvature="0"
                 id="XMLID_442_"
                 style="fill:#231f20"
                 d="m 133.89,597.64 c 0.7,0.45 2.32,1.14 4.02,1.14 3.15,0 4.13,-2.01 4.1,-3.51 -0.03,-2.54 -2.32,-3.63 -4.69,-3.63 h -1.37 v -1.84 h 1.37 c 1.79,0 4.04,-0.92 4.04,-3.07 0,-1.45 -0.92,-2.73 -3.18,-2.73 -1.45,0 -2.85,0.64 -3.63,1.2 l -0.64,-1.79 c 0.95,-0.7 2.79,-1.4 4.74,-1.4 3.57,0 5.19,2.12 5.19,4.32 0,1.87 -1.12,3.46 -3.35,4.27 v 0.06 c 2.23,0.45 4.04,2.12 4.04,4.66 0,2.9 -2.26,5.44 -6.61,5.44 -2.04,0 -3.82,-0.64 -4.71,-1.23 l 0.68,-1.89 z" />
            </g>
            <g
               id="XMLID_438_">
              <path
                 inkscape:connector-curvature="0"
                 id="XMLID_439_"
                 style="fill:#231f20"
                 d="m 133.31,661.8 v -1.51 l 1.92,-1.87 c 4.63,-4.41 6.72,-6.75 6.75,-9.48 0,-1.84 -0.89,-3.54 -3.6,-3.54 -1.65,0 -3.01,0.84 -3.85,1.53 l -0.78,-1.73 c 1.26,-1.06 3.04,-1.84 5.13,-1.84 3.91,0 5.55,2.68 5.55,5.27 0,3.35 -2.43,6.05 -6.25,9.74 l -1.45,1.34 v 0.06 h 8.14 v 2.04 h -11.56 z" />
            </g>
            <g
               id="XMLID_435_">
              <path
                 inkscape:connector-curvature="0"
                 id="XMLID_436_"
                 style="fill:#231f20"
                 d="m 138.64,729.62 h -0.06 l -3.15,1.7 -0.47,-1.87 3.96,-2.12 h 2.09 v 18.13 h -2.37 v -15.84 z" />
            </g>
            <g
               id="XMLID_429_">
              <path
                 inkscape:connector-curvature="0"
                 id="XMLID_432_"
                 style="fill:#231f20"
                 d="m 145.36,831.01 c 0,6.17 -2.29,9.57 -6.3,9.57 -3.54,0 -5.94,-3.32 -6,-9.32 0,-6.08 2.62,-9.43 6.3,-9.43 3.82,0 6,3.41 6,9.18 z m -9.85,0.28 c 0,4.71 1.45,7.39 3.68,7.39 2.51,0 3.71,-2.93 3.71,-7.56 0,-4.46 -1.14,-7.39 -3.68,-7.39 -2.15,0 -3.71,2.62 -3.71,7.56 z" />
            </g>
          </g>
          <g
             id="XMLID_91_">
            <g
               id="XMLID_410_">
              <path
                 inkscape:connector-curvature="0"
                 id="XMLID_415_"
                 style="fill:#231f20"
                 d="m 221.96,109.49 h -0.06 l -3.15,1.7 -0.47,-1.87 3.96,-2.12 h 2.09 v 18.13 h -2.37 v -15.84 z" />
              <path
                 inkscape:connector-curvature="0"
                 id="XMLID_417_"
                 style="fill:#231f20"
                 d="m 242.62,107.2 v 1.62 l -7.89,16.51 h -2.54 l 7.87,-16.04 v -0.06 h -8.87 v -2.04 h 11.43 z" />
            </g>
            <g
               id="XMLID_402_">
              <path
                 inkscape:connector-curvature="0"
                 id="XMLID_403_"
                 style="fill:#231f20"
                 d="m 221.96,134.59 h -0.06 l -3.15,1.7 -0.47,-1.87 3.96,-2.12 h 2.09 v 18.13 h -2.37 v -15.84 z" />
              <path
                 inkscape:connector-curvature="0"
                 id="XMLID_405_"
                 style="fill:#231f20"
                 d="m 241.2,134.03 c -0.5,-0.03 -1.14,0 -1.84,0.11 -3.85,0.64 -5.89,3.46 -6.3,6.44 h 0.08 c 0.87,-1.14 2.37,-2.09 4.38,-2.09 3.21,0 5.47,2.32 5.47,5.86 0,3.32 -2.26,6.39 -6.02,6.39 -3.88,0 -6.42,-3.01 -6.42,-7.73 0,-3.57 1.28,-6.39 3.07,-8.17 1.51,-1.48 3.51,-2.4 5.8,-2.68 0.73,-0.11 1.34,-0.14 1.79,-0.14 v 2.01 z m -0.7,10.46 c 0,-2.59 -1.48,-4.16 -3.74,-4.16 -1.48,0 -2.85,0.92 -3.51,2.23 -0.17,0.28 -0.28,0.64 -0.28,1.09 0.06,2.98 1.42,5.19 3.99,5.19 2.12,0 3.54,-1.76 3.54,-4.35 z" />
            </g>
            <g
               id="XMLID_397_">
              <path
                 inkscape:connector-curvature="0"
                 id="XMLID_398_"
                 style="fill:#231f20"
                 d="m 221.96,159.68 h -0.06 l -3.15,1.7 -0.47,-1.87 3.96,-2.12 h 2.09 v 18.13 h -2.37 v -15.84 z" />
              <path
                 inkscape:connector-curvature="0"
                 id="XMLID_400_"
                 style="fill:#231f20"
                 d="m 241.68,159.46 h -6.92 l -0.7,4.66 c 0.42,-0.06 0.81,-0.11 1.48,-0.11 1.39,0 2.79,0.31 3.91,0.98 1.42,0.81 2.59,2.37 2.59,4.66 0,3.54 -2.82,6.19 -6.75,6.19 -1.98,0 -3.65,-0.56 -4.52,-1.12 l 0.61,-1.87 c 0.75,0.45 2.23,1 3.88,1 2.32,0 4.3,-1.51 4.3,-3.93 -0.03,-2.34 -1.59,-4.02 -5.22,-4.02 -1.03,0 -1.84,0.11 -2.51,0.2 l 1.17,-8.7 h 8.67 v 2.06 z" />
            </g>
            <g
               id="XMLID_392_">
              <path
                 inkscape:connector-curvature="0"
                 id="XMLID_393_"
                 style="fill:#231f20"
                 d="m 221.96,200.39 h -0.06 l -3.15,1.7 -0.47,-1.87 3.96,-2.12 h 2.09 v 18.13 h -2.37 v -15.84 z" />
              <path
                 inkscape:connector-curvature="0"
                 id="XMLID_395_"
                 style="fill:#231f20"
                 d="m 231.44,213.42 c 0.7,0.45 2.32,1.14 4.02,1.14 3.15,0 4.13,-2.01 4.1,-3.51 -0.03,-2.54 -2.32,-3.63 -4.69,-3.63 h -1.37 v -1.84 h 1.37 c 1.79,0 4.04,-0.92 4.04,-3.07 0,-1.45 -0.92,-2.73 -3.18,-2.73 -1.45,0 -2.85,0.64 -3.63,1.2 l -0.64,-1.79 c 0.95,-0.7 2.79,-1.4 4.74,-1.4 3.57,0 5.19,2.12 5.19,4.32 0,1.87 -1.12,3.46 -3.35,4.27 v 0.06 c 2.23,0.45 4.04,2.12 4.04,4.66 0,2.9 -2.26,5.44 -6.61,5.44 -2.04,0 -3.82,-0.64 -4.71,-1.23 l 0.68,-1.89 z" />
            </g>
            <g
               id="XMLID_387_">
              <path
                 inkscape:connector-curvature="0"
                 id="XMLID_388_"
                 style="fill:#231f20"
                 d="m 221.96,225.49 h -0.06 l -3.15,1.7 -0.47,-1.87 3.96,-2.12 h 2.09 v 18.13 h -2.37 v -15.84 z" />
              <path
                 inkscape:connector-curvature="0"
                 id="XMLID_390_"
                 style="fill:#231f20"
                 d="m 230.85,241.33 v -1.51 l 1.92,-1.87 c 4.63,-4.41 6.72,-6.75 6.75,-9.48 0,-1.84 -0.89,-3.54 -3.6,-3.54 -1.65,0 -3.01,0.84 -3.85,1.53 l -0.78,-1.73 c 1.26,-1.06 3.04,-1.84 5.13,-1.84 3.91,0 5.55,2.68 5.55,5.27 0,3.35 -2.43,6.05 -6.25,9.73 l -1.45,1.34 v 0.06 h 8.14 v 2.04 h -11.56 z" />
            </g>
            <g
               id="XMLID_382_">
              <path
                 inkscape:connector-curvature="0"
                 id="XMLID_383_"
                 style="fill:#231f20"
                 d="m 221.96,298 h -0.06 l -3.15,1.7 -0.47,-1.87 3.96,-2.12 h 2.09 v 18.13 h -2.37 V 298 z" />
              <path
                 inkscape:connector-curvature="0"
                 id="XMLID_385_"
                 style="fill:#231f20"
                 d="m 236.18,298 h -0.06 l -3.15,1.7 -0.47,-1.87 3.96,-2.12 h 2.09 v 18.13 h -2.37 V 298 z" />
            </g>
            <g
               id="XMLID_376_">
              <path
                 inkscape:connector-curvature="0"
                 id="XMLID_377_"
                 style="fill:#231f20"
                 d="m 221.96,325.88 h -0.06 l -3.15,1.7 -0.47,-1.87 3.96,-2.12 h 2.09 v 18.13 h -2.37 v -15.84 z" />
              <path
                 inkscape:connector-curvature="0"
                 id="XMLID_379_"
                 style="fill:#231f20"
                 d="m 242.9,332.47 c 0,6.16 -2.29,9.57 -6.3,9.57 -3.54,0 -5.94,-3.32 -6,-9.32 0,-6.08 2.62,-9.43 6.3,-9.43 3.83,0 6,3.4 6,9.18 z m -9.84,0.28 c 0,4.71 1.45,7.39 3.68,7.39 2.51,0 3.71,-2.93 3.71,-7.56 0,-4.46 -1.14,-7.39 -3.68,-7.39 -2.15,0 -3.71,2.62 -3.71,7.56 z" />
            </g>
            <g
               id="XMLID_372_">
              <path
                 inkscape:connector-curvature="0"
                 id="XMLID_373_"
                 style="fill:#231f20"
                 d="m 218.05,384.62 c 0.53,0.06 1.14,0 1.98,-0.08 1.42,-0.2 2.76,-0.78 3.79,-1.76 1.2,-1.09 2.06,-2.68 2.4,-4.83 h -0.08 c -1,1.23 -2.45,1.95 -4.27,1.95 -3.26,0 -5.36,-2.45 -5.36,-5.55 0,-3.43 2.48,-6.44 6.19,-6.44 3.71,0 6,3.01 6,7.64 0,3.99 -1.34,6.78 -3.12,8.51 -1.39,1.37 -3.32,2.2 -5.27,2.43 -0.89,0.14 -1.67,0.17 -2.26,0.14 v -2.01 z m 0.9,-10.44 c 0,2.26 1.37,3.85 3.49,3.85 1.65,0 2.93,-0.81 3.57,-1.9 0.14,-0.22 0.22,-0.5 0.22,-0.89 0,-3.1 -1.14,-5.47 -3.71,-5.47 -2.09,0.01 -3.57,1.85 -3.57,4.41 z" />
            </g>
            <g
               id="XMLID_367_">
              <path
                 inkscape:connector-curvature="0"
                 id="XMLID_368_"
                 style="fill:#231f20"
                 d="m 216.41,437.51 c 0,-2.29 1.37,-3.9 3.6,-4.85 l -0.03,-0.08 c -2.01,-0.95 -2.87,-2.51 -2.87,-4.07 0,-2.87 2.43,-4.83 5.61,-4.83 3.51,0 5.27,2.2 5.27,4.46 0,1.53 -0.75,3.18 -2.98,4.24 v 0.08 c 2.26,0.89 3.65,2.48 3.65,4.69 0,3.15 -2.71,5.27 -6.17,5.27 -3.79,0 -6.08,-2.26 -6.08,-4.91 z m 9.76,-0.11 c 0,-2.2 -1.53,-3.26 -3.99,-3.96 -2.12,0.61 -3.26,2.01 -3.26,3.74 -0.08,1.84 1.31,3.46 3.63,3.46 2.2,0 3.62,-1.37 3.62,-3.24 z m -6.75,-9.07 c 0,1.81 1.37,2.79 3.46,3.35 1.56,-0.53 2.76,-1.65 2.76,-3.29 0,-1.45 -0.86,-2.96 -3.07,-2.96 -2.03,0 -3.15,1.34 -3.15,2.9 z" />
            </g>
            <g
               id="XMLID_364_">
              <path
                 inkscape:connector-curvature="0"
                 id="XMLID_365_"
                 style="fill:#231f20"
                 d="m 228.4,463.03 v 1.62 l -7.89,16.51 h -2.54 l 7.87,-16.04 v -0.06 h -8.87 v -2.04 h 11.43 z" />
            </g>
            <g
               id="XMLID_360_">
              <path
                 inkscape:connector-curvature="0"
                 id="XMLID_361_"
                 style="fill:#231f20"
                 d="m 226.98,487.06 c -0.5,-0.03 -1.14,0 -1.84,0.11 -3.85,0.64 -5.89,3.46 -6.3,6.44 h 0.08 c 0.87,-1.14 2.37,-2.09 4.38,-2.09 3.21,0 5.47,2.32 5.47,5.86 0,3.32 -2.26,6.39 -6.03,6.39 -3.88,0 -6.42,-3.01 -6.42,-7.73 0,-3.57 1.28,-6.39 3.07,-8.17 1.51,-1.48 3.51,-2.4 5.8,-2.68 0.73,-0.11 1.34,-0.14 1.79,-0.14 v 2.01 z m -0.7,10.46 c 0,-2.59 -1.48,-4.16 -3.74,-4.16 -1.48,0 -2.85,0.92 -3.51,2.23 -0.17,0.28 -0.28,0.64 -0.28,1.09 0.06,2.98 1.42,5.19 3.99,5.19 2.12,0.01 3.54,-1.75 3.54,-4.35 z" />
            </g>
            <g
               id="XMLID_357_">
              <path
                 inkscape:connector-curvature="0"
                 id="XMLID_358_"
                 style="fill:#231f20"
                 d="m 227.45,515.28 h -6.92 l -0.7,4.66 c 0.42,-0.06 0.81,-0.11 1.48,-0.11 1.39,0 2.79,0.31 3.91,0.98 1.42,0.81 2.59,2.37 2.59,4.66 0,3.54 -2.82,6.19 -6.75,6.19 -1.98,0 -3.65,-0.56 -4.52,-1.12 l 0.61,-1.87 c 0.75,0.45 2.23,1 3.88,1 2.32,0 4.3,-1.51 4.3,-3.93 -0.03,-2.34 -1.59,-4.02 -5.22,-4.02 -1.03,0 -1.84,0.11 -2.51,0.2 l 1.17,-8.7 h 8.67 v 2.06 z" />
            </g>
            <g
               id="XMLID_353_">
              <path
                 inkscape:connector-curvature="0"
                 id="XMLID_354_"
                 style="fill:#231f20"
                 d="m 224.22,564.81 v -4.94 h -8.42 v -1.62 l 8.09,-11.58 h 2.65 v 11.27 h 2.54 v 1.92 h -2.54 v 4.94 h -2.32 z m 0,-6.86 v -6.05 c 0,-0.95 0.03,-1.9 0.08,-2.85 h -0.08 c -0.56,1.06 -1,1.84 -1.51,2.68 l -4.44,6.16 v 0.06 h 5.95 z" />
            </g>
            <g
               id="XMLID_350_">
              <path
                 inkscape:connector-curvature="0"
                 id="XMLID_351_"
                 style="fill:#231f20"
                 d="m 217.22,601.04 c 0.7,0.45 2.32,1.14 4.02,1.14 3.15,0 4.13,-2.01 4.1,-3.51 -0.03,-2.54 -2.32,-3.63 -4.69,-3.63 h -1.37 v -1.84 h 1.37 c 1.79,0 4.04,-0.92 4.04,-3.07 0,-1.45 -0.92,-2.73 -3.18,-2.73 -1.45,0 -2.85,0.64 -3.63,1.2 l -0.64,-1.78 c 0.95,-0.7 2.79,-1.4 4.74,-1.4 3.57,0 5.19,2.12 5.19,4.32 0,1.87 -1.12,3.46 -3.35,4.27 v 0.06 c 2.23,0.45 4.04,2.12 4.04,4.66 0,2.9 -2.26,5.44 -6.61,5.44 -2.04,0 -3.82,-0.64 -4.71,-1.23 l 0.68,-1.9 z" />
            </g>
            <g
               id="XMLID_347_">
              <path
                 inkscape:connector-curvature="0"
                 id="XMLID_348_"
                 style="fill:#231f20"
                 d="m 216.63,670.78 v -1.51 l 1.92,-1.87 c 4.63,-4.41 6.72,-6.75 6.75,-9.48 0,-1.84 -0.89,-3.54 -3.6,-3.54 -1.65,0 -3.01,0.84 -3.85,1.53 l -0.78,-1.73 c 1.26,-1.06 3.04,-1.84 5.13,-1.84 3.91,0 5.55,2.68 5.55,5.27 0,3.35 -2.43,6.05 -6.25,9.73 l -1.45,1.34 v 0.06 h 8.15 v 2.04 h -11.57 z" />
            </g>
            <g
               id="XMLID_344_">
              <path
                 inkscape:connector-curvature="0"
                 id="XMLID_345_"
                 style="fill:#231f20"
                 d="m 221.96,738.6 h -0.06 l -3.15,1.7 -0.47,-1.87 3.96,-2.12 h 2.09 v 18.13 h -2.37 V 738.6 z" />
            </g>
            <g
               id="XMLID_340_">
              <path
                 inkscape:connector-curvature="0"
                 id="XMLID_341_"
                 style="fill:#231f20"
                 d="m 228.68,856.73 c 0,6.17 -2.29,9.57 -6.3,9.57 -3.54,0 -5.94,-3.32 -6,-9.32 0,-6.08 2.62,-9.43 6.3,-9.43 3.83,0 6,3.4 6,9.18 z m -9.84,0.27 c 0,4.71 1.45,7.39 3.68,7.39 2.51,0 3.71,-2.93 3.71,-7.56 0,-4.46 -1.14,-7.39 -3.68,-7.39 -2.15,0.01 -3.71,2.63 -3.71,7.56 z" />
            </g>
          </g>
          <g
             id="XMLID_105_">
            <g
               id="XMLID_335_">
              <path
                 inkscape:connector-curvature="0"
                 id="XMLID_336_"
                 style="fill:#231f20"
                 d="m 299.34,109.51 h -0.06 l -3.15,1.7 -0.47,-1.87 3.96,-2.12 h 2.09 v 18.13 h -2.37 v -15.84 z" />
              <path
                 inkscape:connector-curvature="0"
                 id="XMLID_338_"
                 style="fill:#231f20"
                 d="m 320.01,107.23 v 1.62 l -7.89,16.51 h -2.54 l 7.87,-16.04 v -0.06 h -8.87 v -2.04 h 11.43 z" />
            </g>
            <g
               id="XMLID_329_">
              <path
                 inkscape:connector-curvature="0"
                 id="XMLID_330_"
                 style="fill:#231f20"
                 d="m 299.34,198.75 h -0.06 l -3.15,1.7 -0.47,-1.87 3.96,-2.12 h 2.09 v 18.13 h -2.37 v -15.84 z" />
              <path
                 inkscape:connector-curvature="0"
                 id="XMLID_332_"
                 style="fill:#231f20"
                 d="m 318.59,198.19 c -0.5,-0.03 -1.14,0 -1.84,0.11 -3.85,0.64 -5.89,3.46 -6.3,6.44 h 0.08 c 0.87,-1.14 2.37,-2.09 4.38,-2.09 3.21,0 5.47,2.32 5.47,5.86 0,3.32 -2.26,6.39 -6.02,6.39 -3.88,0 -6.42,-3.01 -6.42,-7.73 0,-3.57 1.28,-6.39 3.07,-8.17 1.51,-1.48 3.51,-2.4 5.8,-2.68 0.73,-0.11 1.34,-0.14 1.79,-0.14 v 2.01 z m -0.7,10.46 c 0,-2.59 -1.48,-4.16 -3.74,-4.16 -1.48,0 -2.85,0.92 -3.51,2.23 -0.17,0.28 -0.28,0.64 -0.28,1.09 0.06,2.98 1.42,5.19 3.99,5.19 2.12,0 3.54,-1.75 3.54,-4.35 z" />
            </g>
            <g
               id="XMLID_324_">
              <path
                 inkscape:connector-curvature="0"
                 id="XMLID_325_"
                 style="fill:#231f20"
                 d="m 299.34,248.94 h -0.06 l -3.15,1.7 -0.47,-1.87 3.96,-2.12 h 2.09 v 18.13 h -2.37 v -15.84 z" />
              <path
                 inkscape:connector-curvature="0"
                 id="XMLID_327_"
                 style="fill:#231f20"
                 d="m 319.06,248.72 h -6.92 l -0.7,4.66 c 0.42,-0.06 0.81,-0.11 1.48,-0.11 1.39,0 2.79,0.31 3.91,0.98 1.42,0.81 2.59,2.37 2.59,4.66 0,3.54 -2.82,6.19 -6.75,6.19 -1.98,0 -3.65,-0.56 -4.52,-1.12 l 0.61,-1.87 c 0.75,0.45 2.23,1 3.88,1 2.32,0 4.3,-1.51 4.3,-3.93 -0.03,-2.34 -1.59,-4.02 -5.22,-4.02 -1.03,0 -1.84,0.11 -2.51,0.2 l 1.17,-8.7 h 8.67 v 2.06 z" />
            </g>
            <g
               id="XMLID_318_">
              <path
                 inkscape:connector-curvature="0"
                 id="XMLID_319_"
                 style="fill:#231f20"
                 d="m 299.34,310.29 h -0.06 l -3.15,1.7 -0.47,-1.87 3.96,-2.12 h 2.09 v 18.13 h -2.37 v -15.84 z" />
              <path
                 inkscape:connector-curvature="0"
                 id="XMLID_321_"
                 style="fill:#231f20"
                 d="m 315.82,326.14 v -4.94 h -8.42 v -1.62 L 315.49,308 h 2.65 v 11.27 h 2.54 v 1.92 h -2.54 v 4.94 h -2.32 z m 0,-6.86 v -6.05 c 0,-0.95 0.03,-1.9 0.08,-2.85 h -0.08 c -0.56,1.06 -1,1.84 -1.51,2.68 l -4.43,6.16 v 0.06 h 5.94 z" />
            </g>
            <g
               id="XMLID_313_">
              <path
                 inkscape:connector-curvature="0"
                 id="XMLID_314_"
                 style="fill:#231f20"
                 d="m 299.34,360.49 h -0.06 l -3.15,1.7 -0.47,-1.87 3.96,-2.12 h 2.09 v 18.13 h -2.37 v -15.84 z" />
              <path
                 inkscape:connector-curvature="0"
                 id="XMLID_316_"
                 style="fill:#231f20"
                 d="m 308.82,373.51 c 0.7,0.45 2.32,1.14 4.02,1.14 3.15,0 4.13,-2.01 4.1,-3.51 -0.03,-2.54 -2.32,-3.63 -4.69,-3.63 h -1.37 v -1.84 h 1.37 c 1.79,0 4.04,-0.92 4.04,-3.07 0,-1.45 -0.92,-2.73 -3.18,-2.73 -1.45,0 -2.85,0.64 -3.63,1.2 l -0.64,-1.79 c 0.95,-0.7 2.79,-1.4 4.74,-1.4 3.57,0 5.19,2.12 5.19,4.32 0,1.87 -1.12,3.46 -3.35,4.27 v 0.06 c 2.23,0.45 4.04,2.12 4.04,4.66 0,2.9 -2.26,5.44 -6.61,5.44 -2.04,0 -3.82,-0.64 -4.71,-1.23 l 0.68,-1.89 z" />
            </g>
            <g
               id="XMLID_308_">
              <path
                 inkscape:connector-curvature="0"
                 id="XMLID_309_"
                 style="fill:#231f20"
                 d="m 299.34,416.26 h -0.06 l -3.15,1.7 -0.47,-1.87 3.96,-2.12 h 2.09 v 18.13 h -2.37 v -15.84 z" />
              <path
                 inkscape:connector-curvature="0"
                 id="XMLID_311_"
                 style="fill:#231f20"
                 d="m 308.24,432.1 v -1.51 l 1.92,-1.87 c 4.63,-4.41 6.72,-6.75 6.75,-9.48 0,-1.84 -0.89,-3.54 -3.6,-3.54 -1.65,0 -3.01,0.84 -3.85,1.53 l -0.78,-1.73 c 1.26,-1.06 3.04,-1.84 5.13,-1.84 3.91,0 5.55,2.68 5.55,5.27 0,3.35 -2.43,6.05 -6.25,9.73 l -1.45,1.34 v 0.06 h 8.14 v 2.04 h -11.56 z" />
            </g>
            <g
               id="XMLID_303_">
              <path
                 inkscape:connector-curvature="0"
                 id="XMLID_304_"
                 style="fill:#231f20"
                 d="m 299.34,441.36 h -0.06 l -3.15,1.7 -0.47,-1.87 3.96,-2.12 h 2.09 v 18.13 h -2.37 v -15.84 z" />
              <path
                 inkscape:connector-curvature="0"
                 id="XMLID_306_"
                 style="fill:#231f20"
                 d="m 313.57,441.36 h -0.06 l -3.15,1.7 -0.47,-1.87 3.96,-2.12 h 2.09 v 18.13 h -2.37 v -15.84 z" />
            </g>
            <g
               id="XMLID_297_">
              <path
                 inkscape:connector-curvature="0"
                 id="XMLID_298_"
                 style="fill:#231f20"
                 d="m 299.34,469.24 h -0.06 l -3.15,1.7 -0.47,-1.87 3.96,-2.12 h 2.09 v 18.13 h -2.37 v -15.84 z" />
              <path
                 inkscape:connector-curvature="0"
                 id="XMLID_300_"
                 style="fill:#231f20"
                 d="m 320.29,475.83 c 0,6.16 -2.29,9.57 -6.3,9.57 -3.54,0 -5.94,-3.32 -6,-9.32 0,-6.08 2.62,-9.43 6.3,-9.43 3.82,0 6,3.4 6,9.18 z m -9.85,0.27 c 0,4.71 1.45,7.39 3.68,7.39 2.51,0 3.71,-2.93 3.71,-7.56 0,-4.46 -1.14,-7.39 -3.68,-7.39 -2.15,0.01 -3.71,2.63 -3.71,7.56 z" />
            </g>
            <g
               id="XMLID_293_">
              <path
                 inkscape:connector-curvature="0"
                 id="XMLID_294_"
                 style="fill:#231f20"
                 d="m 295.44,544.71 c 0.53,0.06 1.14,0 1.98,-0.08 1.42,-0.2 2.76,-0.78 3.79,-1.76 1.2,-1.09 2.06,-2.68 2.4,-4.83 h -0.08 c -1,1.23 -2.45,1.95 -4.27,1.95 -3.26,0 -5.36,-2.45 -5.36,-5.55 0,-3.43 2.48,-6.44 6.19,-6.44 3.71,0 6,3.01 6,7.64 0,3.99 -1.34,6.78 -3.12,8.51 -1.39,1.37 -3.32,2.2 -5.27,2.43 -0.89,0.14 -1.67,0.17 -2.26,0.14 v -2.01 z m 0.89,-10.43 c 0,2.26 1.37,3.85 3.49,3.85 1.65,0 2.93,-0.81 3.57,-1.9 0.14,-0.22 0.22,-0.5 0.22,-0.89 0,-3.1 -1.14,-5.47 -3.71,-5.47 -2.09,0 -3.57,1.84 -3.57,4.41 z" />
            </g>
            <g
               id="XMLID_286_">
              <path
                 inkscape:connector-curvature="0"
                 id="XMLID_287_"
                 style="fill:#231f20"
                 d="m 293.79,566.93 c 0,-2.29 1.37,-3.9 3.6,-4.85 L 297.36,562 c -2.01,-0.95 -2.87,-2.51 -2.87,-4.07 0,-2.87 2.43,-4.83 5.61,-4.83 3.51,0 5.27,2.2 5.27,4.46 0,1.53 -0.75,3.18 -2.98,4.24 v 0.08 c 2.26,0.89 3.65,2.48 3.65,4.69 0,3.15 -2.71,5.27 -6.17,5.27 -3.79,0 -6.08,-2.26 -6.08,-4.91 z m 9.77,-0.11 c 0,-2.2 -1.53,-3.26 -3.99,-3.96 -2.12,0.61 -3.26,2.01 -3.26,3.74 -0.08,1.84 1.31,3.46 3.63,3.46 2.19,-0.01 3.62,-1.37 3.62,-3.24 z m -6.75,-9.07 c 0,1.81 1.37,2.79 3.46,3.35 1.56,-0.53 2.76,-1.65 2.76,-3.29 0,-1.45 -0.86,-2.96 -3.07,-2.96 -2.04,0 -3.15,1.34 -3.15,2.9 z" />
            </g>
            <g
               id="XMLID_283_">
              <path
                 inkscape:connector-curvature="0"
                 id="XMLID_284_"
                 style="fill:#231f20"
                 d="m 305.79,578.5 v 1.62 l -7.89,16.51 h -2.54 l 7.87,-16.04 v -0.06 h -8.87 v -2.04 h 11.43 z" />
            </g>
            <g
               id="XMLID_279_">
              <path
                 inkscape:connector-curvature="0"
                 id="XMLID_280_"
                 style="fill:#231f20"
                 d="m 304.36,608.12 c -0.5,-0.03 -1.14,0 -1.84,0.11 -3.85,0.64 -5.89,3.46 -6.3,6.44 h 0.08 c 0.87,-1.14 2.37,-2.09 4.38,-2.09 3.21,0 5.47,2.32 5.47,5.86 0,3.32 -2.26,6.39 -6.03,6.39 -3.88,0 -6.42,-3.01 -6.42,-7.73 0,-3.57 1.28,-6.39 3.07,-8.17 1.51,-1.48 3.51,-2.4 5.8,-2.68 0.73,-0.11 1.34,-0.14 1.79,-0.14 v 2.01 z m -0.69,10.46 c 0,-2.59 -1.48,-4.16 -3.74,-4.16 -1.48,0 -2.85,0.92 -3.51,2.23 -0.17,0.28 -0.28,0.64 -0.28,1.09 0.06,2.99 1.42,5.19 3.99,5.19 2.11,0 3.54,-1.76 3.54,-4.35 z" />
            </g>
            <g
               id="XMLID_276_">
              <path
                 inkscape:connector-curvature="0"
                 id="XMLID_277_"
                 style="fill:#231f20"
                 d="m 304.84,647.49 h -6.92 l -0.7,4.66 c 0.42,-0.06 0.81,-0.11 1.48,-0.11 1.39,0 2.79,0.31 3.91,0.98 1.42,0.81 2.59,2.37 2.59,4.66 0,3.54 -2.82,6.19 -6.75,6.19 -1.98,0 -3.65,-0.56 -4.52,-1.12 l 0.61,-1.87 c 0.75,0.45 2.23,1 3.88,1 2.32,0 4.3,-1.51 4.3,-3.93 -0.03,-2.34 -1.59,-4.02 -5.22,-4.02 -1.03,0 -1.84,0.11 -2.51,0.2 l 1.17,-8.7 h 8.67 v 2.06 z" />
            </g>
            <g
               id="XMLID_272_">
              <path
                 inkscape:connector-curvature="0"
                 id="XMLID_273_"
                 style="fill:#231f20"
                 d="m 301.6,708.18 v -4.94 h -8.42 v -1.62 l 8.09,-11.58 h 2.65 v 11.27 h 2.54 v 1.92 h -2.54 v 4.94 h -2.32 z m 0,-6.87 v -6.05 c 0,-0.95 0.03,-1.9 0.08,-2.85 h -0.08 c -0.56,1.06 -1,1.84 -1.51,2.68 l -4.44,6.16 v 0.06 h 5.95 z" />
            </g>
            <g
               id="XMLID_269_">
              <path
                 inkscape:connector-curvature="0"
                 id="XMLID_270_"
                 style="fill:#231f20"
                 d="m 294.6,755.55 c 0.7,0.45 2.32,1.14 4.02,1.14 3.15,0 4.13,-2.01 4.1,-3.51 -0.03,-2.54 -2.32,-3.63 -4.69,-3.63 h -1.37 v -1.84 h 1.37 c 1.79,0 4.04,-0.92 4.04,-3.07 0,-1.45 -0.92,-2.73 -3.18,-2.73 -1.45,0 -2.85,0.64 -3.63,1.2 l -0.64,-1.79 c 0.95,-0.7 2.79,-1.39 4.74,-1.39 3.57,0 5.19,2.12 5.19,4.32 0,1.87 -1.12,3.46 -3.35,4.27 v 0.06 c 2.23,0.45 4.04,2.12 4.04,4.66 0,2.9 -2.26,5.44 -6.61,5.44 -2.04,0 -3.82,-0.64 -4.71,-1.23 l 0.68,-1.9 z" />
            </g>
            <g
               id="XMLID_266_">
              <path
                 inkscape:connector-curvature="0"
                 id="XMLID_267_"
                 style="fill:#231f20"
                 d="m 294.02,819.72 v -1.51 l 1.92,-1.87 c 4.63,-4.41 6.72,-6.75 6.75,-9.48 0,-1.84 -0.89,-3.54 -3.6,-3.54 -1.65,0 -3.01,0.84 -3.85,1.53 l -0.78,-1.73 c 1.26,-1.06 3.04,-1.84 5.13,-1.84 3.91,0 5.55,2.68 5.55,5.27 0,3.35 -2.43,6.05 -6.25,9.74 l -1.45,1.34 v 0.06 h 8.15 v 2.04 h -11.57 z" />
            </g>
            <g
               id="XMLID_263_">
              <path
                 inkscape:connector-curvature="0"
                 id="XMLID_264_"
                 style="fill:#231f20"
                 d="m 299.34,848.49 h -0.06 l -3.15,1.7 -0.47,-1.87 3.96,-2.12 h 2.09 v 18.13 h -2.37 v -15.84 z" />
            </g>
            <g
               id="XMLID_259_">
              <path
                 inkscape:connector-curvature="0"
                 id="XMLID_260_"
                 style="fill:#231f20"
                 d="m 306.07,949.89 c 0,6.17 -2.29,9.57 -6.3,9.57 -3.54,0 -5.94,-3.32 -6,-9.32 0,-6.08 2.62,-9.43 6.3,-9.43 3.82,0 6,3.41 6,9.18 z m -9.85,0.28 c 0,4.71 1.45,7.39 3.68,7.39 2.51,0 3.71,-2.93 3.71,-7.56 0,-4.46 -1.14,-7.39 -3.68,-7.39 -2.15,0 -3.71,2.62 -3.71,7.56 z" />
            </g>
          </g>
          <g
             id="XMLID_106_">
            <g
               id="XMLID_253_">
              <path
                 inkscape:connector-curvature="0"
                 id="XMLID_254_"
                 style="fill:#231f20"
                 d="m 382.72,109.65 h -0.06 l -3.15,1.7 -0.47,-1.87 3.96,-2.12 h 2.09 v 18.13 h -2.37 v -15.84 z" />
              <path
                 inkscape:connector-curvature="0"
                 id="XMLID_256_"
                 style="fill:#231f20"
                 d="m 399.2,125.5 v -4.94 h -8.42 v -1.62 l 8.09,-11.58 h 2.65 v 11.27 h 2.54 v 1.92 h -2.54 v 4.94 h -2.32 z m 0,-6.87 v -6.05 c 0,-0.95 0.03,-1.9 0.08,-2.85 h -0.08 c -0.56,1.06 -1,1.84 -1.51,2.68 l -4.44,6.16 v 0.06 h 5.95 z" />
            </g>
            <g
               id="XMLID_246_">
              <path
                 inkscape:connector-curvature="0"
                 id="XMLID_248_"
                 style="fill:#231f20"
                 d="m 382.72,134.75 h -0.06 l -3.15,1.7 -0.47,-1.87 3.96,-2.12 h 2.09 v 18.13 h -2.37 v -15.84 z" />
              <path
                 inkscape:connector-curvature="0"
                 id="XMLID_250_"
                 style="fill:#231f20"
                 d="m 392.2,147.77 c 0.7,0.45 2.32,1.14 4.02,1.14 3.15,0 4.13,-2.01 4.1,-3.51 -0.03,-2.54 -2.32,-3.63 -4.69,-3.63 h -1.37 v -1.84 h 1.37 c 1.79,0 4.04,-0.92 4.04,-3.07 0,-1.45 -0.92,-2.73 -3.18,-2.73 -1.45,0 -2.85,0.64 -3.63,1.2 l -0.64,-1.79 c 0.95,-0.7 2.79,-1.4 4.74,-1.4 3.57,0 5.19,2.12 5.19,4.32 0,1.87 -1.12,3.46 -3.35,4.27 v 0.06 c 2.23,0.45 4.04,2.12 4.04,4.66 0,2.9 -2.26,5.44 -6.61,5.44 -2.04,0 -3.82,-0.64 -4.71,-1.23 l 0.68,-1.89 z" />
            </g>
            <g
               id="XMLID_239_">
              <path
                 inkscape:connector-curvature="0"
                 id="XMLID_240_"
                 style="fill:#231f20"
                 d="m 382.72,173.79 h -0.06 l -3.15,1.7 -0.47,-1.87 3.96,-2.12 h 2.09 v 18.13 h -2.37 v -15.84 z" />
              <path
                 inkscape:connector-curvature="0"
                 id="XMLID_244_"
                 style="fill:#231f20"
                 d="m 391.62,189.63 v -1.51 l 1.92,-1.87 c 4.63,-4.41 6.72,-6.75 6.75,-9.48 0,-1.84 -0.89,-3.54 -3.6,-3.54 -1.65,0 -3.01,0.84 -3.85,1.53 l -0.78,-1.73 c 1.26,-1.06 3.04,-1.84 5.13,-1.84 3.91,0 5.55,2.68 5.55,5.27 0,3.35 -2.43,6.05 -6.25,9.73 l -1.45,1.34 v 0.06 h 8.15 v 2.04 h -11.57 z" />
            </g>
            <g
               id="XMLID_233_">
              <path
                 inkscape:connector-curvature="0"
                 id="XMLID_234_"
                 style="fill:#231f20"
                 d="m 382.72,274.18 h -0.06 l -3.15,1.7 -0.47,-1.87 3.96,-2.12 h 2.09 v 18.13 h -2.37 v -15.84 z" />
              <path
                 inkscape:connector-curvature="0"
                 id="XMLID_237_"
                 style="fill:#231f20"
                 d="m 396.94,274.18 h -0.06 l -3.15,1.7 -0.47,-1.87 3.96,-2.12 h 2.09 v 18.13 h -2.37 v -15.84 z" />
            </g>
            <g
               id="XMLID_221_">
              <path
                 inkscape:connector-curvature="0"
                 id="XMLID_223_"
                 style="fill:#231f20"
                 d="m 382.72,329.95 h -0.06 l -3.15,1.7 -0.47,-1.87 3.96,-2.12 h 2.09 v 18.13 h -2.37 v -15.84 z" />
              <path
                 inkscape:connector-curvature="0"
                 id="XMLID_225_"
                 style="fill:#231f20"
                 d="m 403.67,336.54 c 0,6.16 -2.29,9.57 -6.3,9.57 -3.54,0 -5.94,-3.32 -6,-9.32 0,-6.08 2.62,-9.43 6.3,-9.43 3.82,0 6,3.4 6,9.18 z m -9.85,0.28 c 0,4.71 1.45,7.39 3.68,7.39 2.51,0 3.71,-2.93 3.71,-7.56 0,-4.46 -1.14,-7.39 -3.68,-7.39 -2.15,0 -3.71,2.62 -3.71,7.56 z" />
            </g>
            <g
               id="XMLID_217_">
              <path
                 inkscape:connector-curvature="0"
                 id="XMLID_218_"
                 style="fill:#231f20"
                 d="m 378.82,388.69 c 0.53,0.06 1.14,0 1.98,-0.08 1.42,-0.2 2.76,-0.78 3.79,-1.76 1.2,-1.09 2.06,-2.68 2.4,-4.83 h -0.08 c -1,1.23 -2.45,1.95 -4.27,1.95 -3.26,0 -5.36,-2.45 -5.36,-5.55 0,-3.43 2.48,-6.44 6.19,-6.44 3.71,0 6,3.01 6,7.64 0,3.99 -1.34,6.78 -3.12,8.51 -1.39,1.37 -3.32,2.2 -5.27,2.43 -0.89,0.14 -1.67,0.17 -2.26,0.14 v -2.01 z m 0.89,-10.44 c 0,2.26 1.37,3.85 3.49,3.85 1.65,0 2.93,-0.81 3.57,-1.9 0.14,-0.22 0.22,-0.5 0.22,-0.89 0,-3.1 -1.14,-5.47 -3.71,-5.47 -2.09,0.01 -3.57,1.85 -3.57,4.41 z" />
            </g>
            <g
               id="XMLID_211_">
              <path
                 inkscape:connector-curvature="0"
                 id="XMLID_213_"
                 style="fill:#231f20"
                 d="m 377.17,452.74 c 0,-2.29 1.37,-3.9 3.6,-4.85 l -0.03,-0.08 c -2.01,-0.95 -2.87,-2.51 -2.87,-4.07 0,-2.87 2.43,-4.83 5.61,-4.83 3.51,0 5.27,2.2 5.27,4.46 0,1.53 -0.75,3.18 -2.98,4.24 v 0.08 c 2.26,0.89 3.65,2.48 3.65,4.69 0,3.15 -2.71,5.27 -6.17,5.27 -3.79,0 -6.08,-2.26 -6.08,-4.91 z m 9.76,-0.11 c 0,-2.2 -1.53,-3.26 -3.99,-3.96 -2.12,0.61 -3.26,2.01 -3.26,3.74 -0.08,1.84 1.31,3.46 3.63,3.46 2.2,-0.01 3.62,-1.37 3.62,-3.24 z m -6.75,-9.07 c 0,1.81 1.37,2.79 3.46,3.35 1.56,-0.53 2.76,-1.65 2.76,-3.29 0,-1.45 -0.86,-2.96 -3.07,-2.96 -2.03,0 -3.15,1.34 -3.15,2.9 z" />
            </g>
            <g
               id="XMLID_208_">
              <path
                 inkscape:connector-curvature="0"
                 id="XMLID_209_"
                 style="fill:#231f20"
                 d="m 389.17,467.1 v 1.62 l -7.89,16.51 h -2.54 l 7.87,-16.04 v -0.06 h -8.87 v -2.04 h 11.43 z" />
            </g>
            <g
               id="XMLID_204_">
              <path
                 inkscape:connector-curvature="0"
                 id="XMLID_205_"
                 style="fill:#231f20"
                 d="m 387.74,530.18 c -0.5,-0.03 -1.14,0 -1.84,0.11 -3.85,0.64 -5.89,3.46 -6.3,6.44 h 0.08 c 0.87,-1.14 2.37,-2.09 4.38,-2.09 3.21,0 5.47,2.32 5.47,5.86 0,3.32 -2.26,6.39 -6.02,6.39 -3.88,0 -6.42,-3.01 -6.42,-7.73 0,-3.57 1.28,-6.39 3.07,-8.17 1.51,-1.48 3.51,-2.4 5.8,-2.68 0.73,-0.11 1.34,-0.14 1.79,-0.14 v 2.01 z m -0.69,10.46 c 0,-2.59 -1.48,-4.16 -3.74,-4.16 -1.48,0 -2.85,0.92 -3.51,2.23 -0.17,0.28 -0.28,0.64 -0.28,1.09 0.06,2.98 1.42,5.19 3.99,5.19 2.11,0 3.54,-1.76 3.54,-4.35 z" />
            </g>
            <g
               id="XMLID_201_">
              <path
                 inkscape:connector-curvature="0"
                 id="XMLID_202_"
                 style="fill:#231f20"
                 d="m 388.22,586.28 h -6.92 l -0.7,4.66 c 0.42,-0.06 0.81,-0.11 1.48,-0.11 1.39,0 2.79,0.31 3.91,0.98 1.42,0.81 2.59,2.37 2.59,4.66 0,3.54 -2.82,6.19 -6.75,6.19 -1.98,0 -3.65,-0.56 -4.52,-1.12 l 0.61,-1.87 c 0.75,0.45 2.23,1 3.88,1 2.32,0 4.3,-1.51 4.3,-3.93 -0.03,-2.34 -1.59,-4.02 -5.22,-4.02 -1.03,0 -1.84,0.11 -2.51,0.2 l 1.17,-8.7 h 8.67 v 2.06 z" />
            </g>
            <g
               id="XMLID_197_">
              <path
                 inkscape:connector-curvature="0"
                 id="XMLID_198_"
                 style="fill:#231f20"
                 d="m 384.98,630.24 v -4.94 h -8.42 v -1.62 l 8.09,-11.58 h 2.65 v 11.27 h 2.54 v 1.92 h -2.54 v 4.94 h -2.32 z m 0,-6.87 v -6.05 c 0,-0.95 0.03,-1.9 0.08,-2.85 h -0.08 c -0.56,1.06 -1,1.84 -1.51,2.68 l -4.43,6.17 v 0.06 h 5.94 z" />
            </g>
            <g
               id="XMLID_194_">
              <path
                 inkscape:connector-curvature="0"
                 id="XMLID_195_"
                 style="fill:#231f20"
                 d="m 377.98,733.39 c 0.7,0.45 2.32,1.14 4.02,1.14 3.15,0 4.13,-2.01 4.1,-3.51 -0.03,-2.54 -2.32,-3.63 -4.69,-3.63 h -1.37 v -1.84 h 1.37 c 1.79,0 4.04,-0.92 4.04,-3.07 0,-1.45 -0.92,-2.73 -3.18,-2.73 -1.45,0 -2.85,0.64 -3.63,1.2 L 378,719.16 c 0.95,-0.7 2.79,-1.39 4.74,-1.39 3.57,0 5.19,2.12 5.19,4.32 0,1.87 -1.12,3.46 -3.35,4.27 v 0.06 c 2.23,0.45 4.04,2.12 4.04,4.66 0,2.9 -2.26,5.44 -6.61,5.44 -2.04,0 -3.82,-0.64 -4.71,-1.23 l 0.68,-1.9 z" />
            </g>
            <g
               id="XMLID_191_">
              <path
                 inkscape:connector-curvature="0"
                 id="XMLID_192_"
                 style="fill:#231f20"
                 d="m 377.39,797.56 v -1.51 l 1.92,-1.87 c 4.63,-4.41 6.72,-6.75 6.75,-9.48 0,-1.84 -0.89,-3.54 -3.6,-3.54 -1.65,0 -3.01,0.84 -3.85,1.53 l -0.78,-1.73 c 1.26,-1.06 3.04,-1.84 5.13,-1.84 3.91,0 5.55,2.68 5.55,5.27 0,3.35 -2.43,6.05 -6.25,9.73 l -1.45,1.34 v 0.06 h 8.14 v 2.04 h -11.56 z" />
            </g>
            <g
               id="XMLID_188_">
              <path
                 inkscape:connector-curvature="0"
                 id="XMLID_189_"
                 style="fill:#231f20"
                 d="m 382.72,837.48 h -0.06 l -3.15,1.7 -0.47,-1.87 3.96,-2.12 h 2.09 v 18.13 h -2.37 v -15.84 z" />
            </g>
            <g
               id="XMLID_184_">
              <path
                 inkscape:connector-curvature="0"
                 id="XMLID_185_"
                 style="fill:#231f20"
                 d="m 389.44,1000.23 c 0,6.17 -2.29,9.57 -6.3,9.57 -3.54,0 -5.94,-3.32 -6,-9.32 0,-6.08 2.62,-9.43 6.3,-9.43 3.83,0 6,3.4 6,9.18 z m -9.84,0.28 c 0,4.71 1.45,7.39 3.68,7.39 2.51,0 3.71,-2.93 3.71,-7.56 0,-4.46 -1.14,-7.39 -3.68,-7.39 -2.15,0 -3.71,2.62 -3.71,7.56 z" />
            </g>
          </g>
          <g
             id="XMLID_174_">
            <path
               inkscape:connector-curvature="0"
               id="XMLID_175_"
               style="fill:#2290ba"
               d="m 182.77,1122.02 -14.98,-39.15 h -0.24 c 0.28,3.1 0.42,6.79 0.42,11.06 v 28.09 h -4.74 v -44.16 h 7.73 l 13.99,36.43 h 0.24 l 14.11,-36.43 h 7.67 v 44.16 h -5.13 v -28.46 c 0,-3.26 0.14,-6.81 0.42,-10.63 h -0.24 l -15.1,39.09 h -4.15 z" />
            <path
               inkscape:connector-curvature="0"
               id="XMLID_177_"
               style="fill:#2290ba"
               d="m 258.71,1099.88 c 0,7.07 -1.79,12.63 -5.36,16.67 -3.57,4.05 -8.54,6.07 -14.91,6.07 -6.5,0 -11.52,-1.99 -15.06,-5.97 -3.53,-3.98 -5.3,-9.59 -5.3,-16.84 0,-7.19 1.77,-12.76 5.32,-16.72 3.54,-3.96 8.58,-5.94 15.1,-5.94 6.34,0 11.3,2.01 14.86,6.04 3.57,4.04 5.35,9.6 5.35,16.69 z m -35.19,0 c 0,5.98 1.27,10.52 3.82,13.61 2.55,3.09 6.25,4.64 11.1,4.64 4.89,0 8.59,-1.54 11.09,-4.62 2.5,-3.08 3.75,-7.62 3.75,-13.62 0,-5.94 -1.24,-10.45 -3.73,-13.52 -2.49,-3.07 -6.17,-4.61 -11.04,-4.61 -4.89,0 -8.61,1.55 -11.16,4.64 -2.56,3.08 -3.83,7.58 -3.83,13.48 z" />
            <path
               inkscape:connector-curvature="0"
               id="XMLID_180_"
               style="fill:#2290ba"
               d="m 294.78,1110.27 c 0,3.89 -1.41,6.92 -4.23,9.09 -2.82,2.17 -6.65,3.26 -11.48,3.26 -5.24,0 -9.26,-0.67 -12.08,-2.02 v -4.95 c 1.81,0.77 3.79,1.37 5.92,1.81 2.13,0.44 4.25,0.67 6.34,0.67 3.42,0 6,-0.65 7.73,-1.95 1.73,-1.3 2.6,-3.11 2.6,-5.42 0,-1.53 -0.31,-2.78 -0.92,-3.76 -0.61,-0.98 -1.64,-1.88 -3.08,-2.7 -1.44,-0.83 -3.63,-1.76 -6.57,-2.81 -4.11,-1.47 -7.04,-3.21 -8.81,-5.23 -1.76,-2.01 -2.64,-4.64 -2.64,-7.88 0,-3.4 1.28,-6.11 3.84,-8.12 2.56,-2.01 5.94,-3.02 10.15,-3.02 4.39,0 8.43,0.81 12.11,2.42 l -1.6,4.47 c -3.65,-1.53 -7.19,-2.3 -10.63,-2.3 -2.72,0 -4.84,0.58 -6.37,1.75 -1.53,1.17 -2.3,2.79 -2.3,4.86 0,1.53 0.28,2.78 0.85,3.76 0.56,0.98 1.51,1.87 2.85,2.69 1.34,0.82 3.39,1.72 6.15,2.7 4.63,1.65 7.82,3.42 9.56,5.32 1.74,1.88 2.61,4.34 2.61,7.36 z" />
            <path
               inkscape:connector-curvature="0"
               id="XMLID_182_"
               style="fill:#2290ba"
               d="m 318.7,1122.02 h -5.13 v -39.6 h -13.99 v -4.56 h 33.11 v 4.56 H 318.7 v 39.6 z" />
          </g>
          <g
             id="XMLID_131_">
            <path
               inkscape:connector-curvature="0"
               id="XMLID_132_"
               style="fill:#124c59"
               d="m 57.86,1177.63 v -25.29 h 6.87 v 25.29 h -6.87 z" />
            <path
               inkscape:connector-curvature="0"
               id="XMLID_134_"
               style="fill:#124c59"
               d="m 67.56,1174.76 c 0,-1.06 0.31,-1.88 0.94,-2.46 0.63,-0.58 1.54,-0.86 2.74,-0.86 1.14,0 2.02,0.29 2.63,0.86 0.61,0.58 0.92,1.4 0.92,2.46 0,1.04 -0.31,1.85 -0.94,2.43 -0.63,0.58 -1.5,0.87 -2.6,0.87 -1.14,0 -2.04,-0.29 -2.7,-0.87 -0.66,-0.56 -0.99,-1.38 -0.99,-2.43 z" />
            <path
               inkscape:connector-curvature="0"
               id="XMLID_136_"
               style="fill:#124c59"
               d="m 103.05,1160.39 c 0,2.83 -0.83,5.01 -2.5,6.55 -1.67,1.54 -4.03,2.31 -7.1,2.31 h -1.92 v 8.39 H 84.7 v -25.29 h 8.75 c 3.19,0 5.59,0.7 7.2,2.09 1.6,1.4 2.4,3.38 2.4,5.95 z m -11.52,3.29 h 1.25 c 1.03,0 1.84,-0.29 2.45,-0.86 0.6,-0.58 0.91,-1.37 0.91,-2.39 0,-1.71 -0.95,-2.56 -2.84,-2.56 h -1.76 v 5.81 z" />
            <path
               inkscape:connector-curvature="0"
               id="XMLID_139_"
               style="fill:#124c59"
               d="m 112.53,1168.43 v 9.2 h -6.83 v -25.29 h 8.28 c 6.87,0 10.31,2.49 10.31,7.47 0,2.93 -1.43,5.19 -4.29,6.8 l 7.37,11.02 h -7.75 l -5.36,-9.2 h -1.73 z m 0,-5.13 h 1.28 c 2.39,0 3.58,-1.06 3.58,-3.17 0,-1.74 -1.17,-2.61 -3.51,-2.61 h -1.35 v 5.78 z" />
            <path
               inkscape:connector-curvature="0"
               id="XMLID_142_"
               style="fill:#124c59"
               d="m 151.95,1164.96 c 0,4.25 -1.04,7.49 -3.13,9.7 -2.09,2.21 -5.14,3.32 -9.17,3.32 -3.97,0 -7.01,-1.11 -9.12,-3.34 -2.12,-2.22 -3.17,-5.46 -3.17,-9.72 0,-4.21 1.05,-7.42 3.16,-9.64 2.1,-2.22 5.16,-3.33 9.17,-3.33 4.02,0 7.07,1.1 9.15,3.3 2.08,2.2 3.11,5.44 3.11,9.71 z m -17.4,0 c 0,4.89 1.7,7.33 5.1,7.33 1.73,0 3.01,-0.59 3.85,-1.78 0.84,-1.19 1.25,-3.04 1.25,-5.55 0,-2.53 -0.42,-4.39 -1.27,-5.59 -0.85,-1.2 -2.11,-1.81 -3.8,-1.81 -3.42,0 -5.13,2.46 -5.13,7.4 z" />
            <path
               inkscape:connector-curvature="0"
               id="XMLID_145_"
               style="fill:#124c59"
               d="m 153.15,1185.57 c -1.25,0 -2.43,-0.12 -3.55,-0.36 v -5.31 c 0.37,0.07 0.76,0.15 1.18,0.23 0.42,0.09 0.87,0.13 1.35,0.13 1.13,0 1.94,-0.34 2.42,-1.02 0.48,-0.68 0.73,-1.84 0.73,-3.49 v -23.4 h 6.87 v 22.81 c 0,3.42 -0.75,6.01 -2.25,7.77 -1.51,1.76 -3.76,2.64 -6.75,2.64 z" />
            <path
               inkscape:connector-curvature="0"
               id="XMLID_147_"
               style="fill:#124c59"
               d="m 181.23,1177.63 h -15.01 v -25.29 h 15.01 v 5.48 h -8.18 v 3.98 h 7.58 v 5.48 h -7.58 v 4.77 h 8.18 v 5.58 z" />
            <path
               inkscape:connector-curvature="0"
               id="XMLID_149_"
               style="fill:#124c59"
               d="m 195.54,1157.59 c -1.63,0 -2.89,0.67 -3.8,2 -0.91,1.33 -1.37,3.17 -1.37,5.51 0,4.87 1.85,7.3 5.55,7.3 1.12,0 2.2,-0.16 3.25,-0.47 1.05,-0.31 2.1,-0.69 3.17,-1.12 v 5.78 c -2.11,0.93 -4.5,1.4 -7.16,1.4 -3.82,0 -6.74,-1.11 -8.78,-3.32 -2.04,-2.21 -3.05,-5.41 -3.05,-9.6 0,-2.62 0.49,-4.92 1.48,-6.9 0.99,-1.98 2.4,-3.51 4.25,-4.57 1.85,-1.06 4.03,-1.6 6.53,-1.6 2.73,0 5.34,0.59 7.83,1.78 l -2.09,5.38 c -0.93,-0.44 -1.87,-0.81 -2.8,-1.11 -0.94,-0.31 -1.94,-0.46 -3.01,-0.46 z" />
            <path
               inkscape:connector-curvature="0"
               id="XMLID_151_"
               style="fill:#124c59"
               d="m 217.04,1177.63 h -6.83 v -19.7 h -6.17 v -5.59 h 19.16 v 5.59 h -6.16 v 19.7 z" />
            <path
               inkscape:connector-curvature="0"
               id="XMLID_153_"
               style="fill:#124c59"
               d="m 240.44,1177.63 h -15.01 v -25.29 h 15.01 v 5.48 h -8.18 v 3.98 h 7.58 v 5.48 h -7.58 v 4.77 h 8.18 v 5.58 z" />
            <path
               inkscape:connector-curvature="0"
               id="XMLID_155_"
               style="fill:#124c59"
               d="m 264.95,1164.46 c 0,4.22 -1.16,7.47 -3.49,9.75 -2.32,2.28 -5.59,3.42 -9.8,3.42 h -8.18 v -25.29 h 8.75 c 4.06,0 7.19,1.04 9.4,3.11 2.22,2.09 3.32,5.09 3.32,9.01 z m -7.09,0.24 c 0,-2.32 -0.46,-4.04 -1.38,-5.15 -0.92,-1.12 -2.31,-1.68 -4.18,-1.68 h -1.99 v 14.16 h 1.52 c 2.08,0 3.6,-0.6 4.57,-1.81 0.97,-1.2 1.46,-3.04 1.46,-5.52 z" />
            <path
               inkscape:connector-curvature="0"
               id="XMLID_158_"
               style="fill:#124c59"
               d="m 288.52,1157.59 c -1.63,0 -2.89,0.67 -3.8,2 -0.91,1.33 -1.37,3.17 -1.37,5.51 0,4.87 1.85,7.3 5.55,7.3 1.12,0 2.2,-0.16 3.25,-0.47 1.05,-0.31 2.1,-0.69 3.17,-1.12 v 5.78 c -2.11,0.93 -4.5,1.4 -7.16,1.4 -3.82,0 -6.74,-1.11 -8.78,-3.32 -2.04,-2.21 -3.05,-5.41 -3.05,-9.6 0,-2.62 0.49,-4.92 1.48,-6.9 0.99,-1.98 2.4,-3.51 4.25,-4.57 1.85,-1.06 4.03,-1.6 6.53,-1.6 2.73,0 5.34,0.59 7.83,1.78 l -2.09,5.38 c -0.93,-0.44 -1.87,-0.81 -2.8,-1.11 -0.93,-0.31 -1.93,-0.46 -3.01,-0.46 z" />
            <path
               inkscape:connector-curvature="0"
               id="XMLID_160_"
               style="fill:#124c59"
               d="m 322.53,1164.96 c 0,4.25 -1.04,7.49 -3.13,9.7 -2.09,2.21 -5.14,3.32 -9.17,3.32 -3.97,0 -7.01,-1.11 -9.12,-3.34 -2.12,-2.22 -3.17,-5.46 -3.17,-9.72 0,-4.21 1.05,-7.42 3.16,-9.64 2.1,-2.22 5.16,-3.33 9.17,-3.33 4.02,0 7.07,1.1 9.15,3.3 2.08,2.2 3.11,5.44 3.11,9.71 z m -17.4,0 c 0,4.89 1.7,7.33 5.1,7.33 1.73,0 3.01,-0.59 3.85,-1.78 0.84,-1.19 1.25,-3.04 1.25,-5.55 0,-2.53 -0.42,-4.39 -1.27,-5.59 -0.85,-1.2 -2.11,-1.81 -3.8,-1.81 -3.42,0 -5.13,2.46 -5.13,7.4 z" />
            <path
               inkscape:connector-curvature="0"
               id="XMLID_163_"
               style="fill:#124c59"
               d="m 349.79,1177.63 h -8.96 l -9.24,-17.81 h -0.16 c 0.22,2.8 0.33,4.94 0.33,6.42 v 11.4 h -6.05 v -25.29 h 8.92 l 9.2,17.57 h 0.1 c -0.16,-2.55 -0.24,-4.59 -0.24,-6.14 v -11.43 h 6.09 v 25.28 z" />
            <path
               inkscape:connector-curvature="0"
               id="XMLID_165_"
               style="fill:#124c59"
               d="m 365.13,1157.59 c -1.63,0 -2.89,0.67 -3.8,2 -0.91,1.33 -1.37,3.17 -1.37,5.51 0,4.87 1.85,7.3 5.55,7.3 1.12,0 2.2,-0.16 3.25,-0.47 1.05,-0.31 2.1,-0.69 3.17,-1.12 v 5.78 c -2.11,0.93 -4.5,1.4 -7.16,1.4 -3.82,0 -6.74,-1.11 -8.78,-3.32 -2.04,-2.21 -3.05,-5.41 -3.05,-9.6 0,-2.62 0.49,-4.92 1.48,-6.9 0.99,-1.98 2.4,-3.51 4.25,-4.57 1.85,-1.06 4.03,-1.6 6.53,-1.6 2.73,0 5.34,0.59 7.83,1.78 l -2.09,5.38 c -0.93,-0.44 -1.87,-0.81 -2.8,-1.11 -0.94,-0.31 -1.94,-0.46 -3.01,-0.46 z" />
            <path
               inkscape:connector-curvature="0"
               id="XMLID_167_"
               style="fill:#124c59"
               d="m 390.48,1177.63 h -15.01 v -25.29 h 15.01 v 5.48 h -8.18 v 3.98 h 7.58 v 5.48 h -7.58 v 4.77 h 8.18 v 5.58 z" />
            <path
               inkscape:connector-curvature="0"
               id="XMLID_169_"
               style="fill:#124c59"
               d="m 411.88,1160.39 c 0,2.83 -0.83,5.01 -2.5,6.55 -1.67,1.54 -4.03,2.31 -7.1,2.31 h -1.92 v 8.39 h -6.83 v -25.29 h 8.75 c 3.19,0 5.59,0.7 7.2,2.09 1.6,1.4 2.4,3.38 2.4,5.95 z m -11.52,3.29 h 1.25 c 1.03,0 1.84,-0.29 2.45,-0.86 0.6,-0.58 0.91,-1.37 0.91,-2.39 0,-1.71 -0.95,-2.56 -2.84,-2.56 h -1.76 v 5.81 z" />
            <path
               inkscape:connector-curvature="0"
               id="XMLID_172_"
               style="fill:#124c59"
               d="m 425.68,1177.63 h -6.83 v -19.7 h -6.17 v -5.59 h 19.16 v 5.59 h -6.16 v 19.7 z" />
          </g>
        </g>
      </g>
    </g>
  </g>
</svg>
