<?xml version="1.0" encoding="UTF-8" standalone="no"?>
<!-- Created with Inkscape (http://www.inkscape.org/) -->

<svg
   xmlns:dc="http://purl.org/dc/elements/1.1/"
   xmlns:cc="http://creativecommons.org/ns#"
   xmlns:rdf="http://www.w3.org/1999/02/22-rdf-syntax-ns#"
   xmlns:svg="http://www.w3.org/2000/svg"
   xmlns="http://www.w3.org/2000/svg"
   xmlns:sodipodi="http://sodipodi.sourceforge.net/DTD/sodipodi-0.dtd"
   xmlns:inkscape="http://www.inkscape.org/namespaces/inkscape"
   width="240"
   height="600"
   id="svg3502"
   version="1.1"
   inkscape:version="0.48.5 r10040"
   sodipodi:docname="Новый документ 1">
  <defs
     id="defs3504" />
  <sodipodi:namedview
     id="base"
     pagecolor="#ffffff"
     bordercolor="#666666"
     borderopacity="1.0"
     inkscape:pageopacity="0.0"
     inkscape:pageshadow="2"
     inkscape:zoom="2.8"
     inkscape:cx="128.97805"
     inkscape:cy="393.08408"
     inkscape:document-units="px"
     inkscape:current-layer="layer1"
     showgrid="false"
     inkscape:window-width="1920"
     inkscape:window-height="1020"
     inkscape:window-x="0"
     inkscape:window-y="31"
     inkscape:window-maximized="1" />
  <metadata
     id="metadata3507">
    <rdf:RDF>
      <cc:Work
         rdf:about="">
        <dc:format>image/svg+xml</dc:format>
        <dc:type
           rdf:resource="http://purl.org/dc/dcmitype/StillImage" />
        <dc:title></dc:title>
      </cc:Work>
    </rdf:RDF>
  </metadata>
  <g
     inkscape:label="Layer 1"
     inkscape:groupmode="layer"
     id="layer1"
     transform="translate(0,-452.36218)">
    <g
       transform="matrix(0.54102375,0,0,0.51008919,-0.30469518,451.52436)"
       id="g3243">
      <g
         id="Layer_1">
        <g
           id="XMLID_295_">
          <rect
             height="139.36"
             width="398.82001"
             style="opacity:0.21000001;fill:#2290ba"
             y="915.14001"
             x="44.75"
             id="XMLID_421_" />
        </g>
        <rect
           height="161.14999"
           width="398.35999"
           style="fill:#2290ba;fill-opacity:0.21000001"
           y="490.60001"
           x="44.810001"
           id="XMLID_292_" />
        <rect
           height="172.89999"
           width="396.56"
           style="fill:#2290ba;fill-opacity:0.21000001"
           y="53.5"
           x="47.009998"
           id="XMLID_289_" />
        <g
           id="XMLID_283_">
          <g
             id="XMLID_285_">
            <path
               inkscape:connector-curvature="0"
               d="m 439.57,57.5 v 993.07 H 48.81 V 57.5 h 390.76 m 4,-4 H 44.81 V 1054.57 H 443.57 V 53.5 l 0,0 z"
               style="fill:#31708f"
               id="XMLID_286_" />
          </g>
        </g>
        <line
           y2="1053.5699"
           x2="123.53"
           y1="53.5"
           x1="123.53"
           style="fill:none;stroke:#31708f;stroke-width:4;stroke-miterlimit:10"
           id="XMLID_282_" />
        <line
           y2="1053.5699"
           x2="203.84"
           y1="53.5"
           x1="203.84"
           style="fill:none;stroke:#31708f;stroke-width:4;stroke-miterlimit:10"
           id="XMLID_281_" />
        <line
           y2="1053.5699"
           x2="284.14999"
           y1="53.5"
           x1="284.14999"
           style="fill:none;stroke:#31708f;stroke-width:4;stroke-miterlimit:10"
           id="XMLID_280_" />
        <line
           y2="1053.5699"
           x2="364.45999"
           y1="53.5"
           x1="364.45999"
           style="fill:none;stroke:#31708f;stroke-width:4;stroke-miterlimit:10"
           id="XMLID_279_" />
        <line
           y2="572.15997"
           x2="443.57001"
           y1="572.15997"
           x1="46.16"
           style="fill:none;stroke:#31708f;stroke-width:4;stroke-miterlimit:10"
           id="XMLID_278_" />
        <line
           y2="227.5"
           x2="443.57001"
           y1="227.5"
           x1="46.220001"
           style="fill:none;stroke:#31708f;stroke-width:4;stroke-miterlimit:10"
           id="XMLID_277_" />
        <line
           y2="914.94"
           x2="443.57001"
           y1="914.94"
           x1="46.25"
           style="fill:none;stroke:#31708f;stroke-width:4;stroke-miterlimit:10"
           id="XMLID_276_" />
        <line
           y2="651.26001"
           x2="443.57001"
           y1="651.26001"
           x1="46.25"
           style="fill:none;stroke:#31708f;stroke-width:4;stroke-miterlimit:10"
           id="XMLID_275_" />
        <line
           y2="491.39001"
           x2="443.57001"
           y1="491.39001"
           x1="46.25"
           style="fill:none;stroke:#31708f;stroke-width:4;stroke-miterlimit:10"
           id="XMLID_274_" />
        <g
           id="XMLID_258_">
          <g
             id="XMLID_555_">
            <path
               inkscape:connector-curvature="0"
               d="m 17.85,112.22 c 0,4.71 -0.99,8.22 -2.97,10.54 -1.98,2.32 -4.98,3.48 -9,3.48 -1.42,0 -2.49,-0.08 -3.22,-0.23 v -4.05 c 0.91,0.23 1.87,0.34 2.88,0.34 1.69,0 3.08,-0.25 4.17,-0.74 1.09,-0.49 1.92,-1.27 2.5,-2.34 0.58,-1.07 0.91,-2.52 1,-4.39 h -0.2 c -0.63,1.02 -1.36,1.74 -2.19,2.16 -0.83,0.41 -1.86,0.62 -3.1,0.62 -2.08,0 -3.72,-0.67 -4.92,-2 -1.2,-1.33 -1.8,-3.19 -1.8,-5.56 0,-2.56 0.73,-4.58 2.18,-6.07 1.45,-1.49 3.43,-2.23 5.94,-2.23 1.76,0 3.31,0.41 4.63,1.24 1.32,0.83 2.34,2.03 3.05,3.6 0.71,1.57 1.05,3.45 1.05,5.63 z M 9.2,105.8 c -1.04,0 -1.86,0.36 -2.45,1.08 -0.59,0.72 -0.88,1.75 -0.88,3.1 0,1.15 0.27,2.07 0.8,2.74 0.53,0.68 1.35,1.01 2.43,1.01 1.02,0 1.9,-0.33 2.63,-1 0.73,-0.67 1.09,-1.44 1.09,-2.31 0,-1.3 -0.34,-2.39 -1.02,-3.28 -0.68,-0.89 -1.54,-1.34 -2.6,-1.34 z"
               style="fill:#124c59"
               id="XMLID_556_" />
            <path
               inkscape:connector-curvature="0"
               d="m 36.84,112.22 c 0,4.71 -0.99,8.22 -2.97,10.54 -1.98,2.32 -4.98,3.48 -9,3.48 -1.42,0 -2.49,-0.08 -3.22,-0.23 v -4.05 c 0.91,0.23 1.87,0.34 2.88,0.34 1.69,0 3.08,-0.25 4.17,-0.74 1.09,-0.49 1.92,-1.27 2.5,-2.34 0.58,-1.07 0.91,-2.52 1,-4.39 H 32 c -0.63,1.02 -1.36,1.74 -2.19,2.16 -0.83,0.41 -1.86,0.62 -3.1,0.62 -2.08,0 -3.72,-0.67 -4.92,-2 -1.2,-1.33 -1.8,-3.19 -1.8,-5.56 0,-2.56 0.73,-4.58 2.18,-6.07 1.45,-1.49 3.43,-2.23 5.94,-2.23 1.76,0 3.31,0.41 4.63,1.24 1.32,0.83 2.34,2.03 3.05,3.6 0.71,1.57 1.05,3.45 1.05,5.63 z M 28.2,105.8 c -1.04,0 -1.86,0.36 -2.45,1.08 -0.59,0.72 -0.88,1.75 -0.88,3.1 0,1.15 0.27,2.07 0.8,2.74 0.53,0.68 1.35,1.01 2.43,1.01 1.02,0 1.9,-0.33 2.63,-1 0.73,-0.67 1.09,-1.44 1.09,-2.31 0,-1.3 -0.34,-2.39 -1.02,-3.28 -0.68,-0.89 -1.54,-1.34 -2.6,-1.34 z"
               style="fill:#124c59"
               id="XMLID_559_" />
          </g>
          <g
             id="XMLID_549_">
            <path
               inkscape:connector-curvature="0"
               d="m 17.85,224.44 c 0,4.71 -0.99,8.22 -2.97,10.54 -1.98,2.32 -4.98,3.48 -9,3.48 -1.42,0 -2.49,-0.08 -3.22,-0.23 v -4.05 c 0.91,0.23 1.87,0.34 2.88,0.34 1.69,0 3.08,-0.25 4.17,-0.74 1.09,-0.49 1.92,-1.27 2.5,-2.34 0.58,-1.07 0.91,-2.52 1,-4.39 h -0.2 c -0.63,1.02 -1.36,1.74 -2.19,2.16 -0.83,0.41 -1.86,0.62 -3.1,0.62 -2.08,0 -3.72,-0.67 -4.92,-2 C 1.6,226.5 1,224.64 1,222.27 c 0,-2.56 0.73,-4.58 2.18,-6.07 1.45,-1.49 3.43,-2.23 5.94,-2.23 1.76,0 3.31,0.41 4.63,1.24 1.32,0.83 2.34,2.03 3.05,3.6 0.71,1.57 1.05,3.45 1.05,5.63 z M 9.2,218.02 c -1.04,0 -1.86,0.36 -2.45,1.08 -0.59,0.72 -0.88,1.75 -0.88,3.1 0,1.15 0.27,2.07 0.8,2.74 0.53,0.68 1.35,1.01 2.43,1.01 1.02,0 1.9,-0.33 2.63,-1 0.73,-0.67 1.09,-1.44 1.09,-2.31 0,-1.3 -0.34,-2.39 -1.02,-3.28 -0.68,-0.89 -1.54,-1.34 -2.6,-1.34 z"
               style="fill:#124c59"
               id="XMLID_550_" />
            <path
               inkscape:connector-curvature="0"
               d="m 28.94,222.87 c 2.31,0 4.15,0.65 5.51,1.94 1.37,1.3 2.05,3.07 2.05,5.33 0,2.67 -0.82,4.72 -2.47,6.16 -1.64,1.44 -4,2.16 -7.06,2.16 -2.66,0 -4.8,-0.43 -6.44,-1.29 v -4.36 c 0.86,0.46 1.86,0.83 3.01,1.12 1.15,0.29 2.23,0.43 3.25,0.43 3.08,0 4.62,-1.26 4.62,-3.79 0,-2.41 -1.6,-3.61 -4.79,-3.61 -0.58,0 -1.21,0.06 -1.91,0.17 -0.7,0.11 -1.26,0.24 -1.7,0.37 L 21,226.42 21.9,214.25 h 12.96 v 4.28 h -8.53 l -0.44,4.69 0.57,-0.11 c 0.67,-0.16 1.5,-0.24 2.48,-0.24 z"
               style="fill:#124c59"
               id="XMLID_553_" />
          </g>
          <g
             id="XMLID_542_">
            <path
               inkscape:connector-curvature="0"
               d="m 17.85,308.09 c 0,4.71 -0.99,8.22 -2.97,10.54 -1.98,2.32 -4.98,3.48 -9,3.48 -1.42,0 -2.49,-0.08 -3.22,-0.23 v -4.05 c 0.91,0.23 1.87,0.34 2.88,0.34 1.69,0 3.08,-0.25 4.17,-0.74 1.09,-0.49 1.92,-1.27 2.5,-2.34 0.58,-1.07 0.91,-2.52 1,-4.39 h -0.2 c -0.63,1.02 -1.36,1.74 -2.19,2.16 -0.83,0.41 -1.86,0.62 -3.1,0.62 -2.08,0 -3.72,-0.67 -4.92,-2 -1.2,-1.33 -1.8,-3.19 -1.8,-5.56 0,-2.56 0.73,-4.58 2.18,-6.07 1.45,-1.49 3.43,-2.23 5.94,-2.23 1.76,0 3.31,0.41 4.63,1.24 1.32,0.83 2.34,2.03 3.05,3.6 0.71,1.57 1.05,3.46 1.05,5.63 z M 9.2,301.67 c -1.04,0 -1.86,0.36 -2.45,1.08 -0.59,0.72 -0.88,1.75 -0.88,3.1 0,1.15 0.27,2.07 0.8,2.74 0.53,0.68 1.35,1.01 2.43,1.01 1.02,0 1.9,-0.33 2.63,-1 0.73,-0.67 1.09,-1.44 1.09,-2.31 0,-1.3 -0.34,-2.39 -1.02,-3.28 -0.68,-0.89 -1.54,-1.34 -2.6,-1.34 z"
               style="fill:#124c59"
               id="XMLID_543_" />
            <path
               inkscape:connector-curvature="0"
               d="m 36.81,309.84 c 0,4.17 -0.68,7.26 -2.05,9.26 -1.37,2 -3.47,3.01 -6.31,3.01 -2.76,0 -4.83,-1.03 -6.23,-3.1 -1.4,-2.07 -2.1,-5.12 -2.1,-9.17 0,-4.22 0.68,-7.32 2.04,-9.32 1.36,-2 3.46,-3 6.29,-3 2.76,0 4.84,1.05 6.25,3.14 1.41,2.09 2.11,5.15 2.11,9.18 z m -11.68,0 c 0,2.93 0.25,5.03 0.76,6.3 0.51,1.27 1.36,1.9 2.56,1.9 1.18,0 2.03,-0.64 2.55,-1.93 0.52,-1.28 0.78,-3.38 0.78,-6.27 0,-2.93 -0.26,-5.03 -0.79,-6.31 -0.53,-1.28 -1.38,-1.92 -2.54,-1.92 -1.19,0 -2.04,0.64 -2.55,1.92 -0.51,1.28 -0.77,3.38 -0.77,6.31 z"
               style="fill:#124c59"
               id="XMLID_546_" />
          </g>
          <g
             id="XMLID_534_">
            <path
               inkscape:connector-curvature="0"
               d="m 9.48,342.19 c 2.29,0 4.13,0.52 5.53,1.56 1.4,1.04 2.1,2.44 2.1,4.21 0,1.22 -0.34,2.31 -1.01,3.26 -0.67,0.95 -1.76,1.81 -3.27,2.56 1.79,0.96 3.07,1.96 3.85,3 0.78,1.04 1.17,2.18 1.17,3.42 0,1.96 -0.77,3.54 -2.3,4.73 -1.54,1.19 -3.56,1.79 -6.06,1.79 -2.61,0 -4.67,-0.56 -6.16,-1.67 -1.49,-1.11 -2.24,-2.68 -2.24,-4.72 0,-1.36 0.36,-2.57 1.09,-3.63 0.72,-1.06 1.89,-1.99 3.49,-2.79 -1.36,-0.86 -2.34,-1.78 -2.94,-2.76 -0.6,-0.98 -0.9,-2.05 -0.9,-3.22 0,-1.71 0.71,-3.09 2.12,-4.15 1.41,-1.06 3.26,-1.59 5.53,-1.59 z m -3.72,17.84 c 0,0.94 0.33,1.67 0.98,2.19 0.65,0.52 1.55,0.78 2.68,0.78 1.25,0 2.19,-0.27 2.81,-0.81 0.62,-0.54 0.93,-1.25 0.93,-2.13 0,-0.73 -0.31,-1.41 -0.92,-2.05 -0.62,-0.64 -1.62,-1.32 -3,-2.03 -2.32,1.06 -3.48,2.41 -3.48,4.05 z m 3.69,-14.15 c -0.86,0 -1.55,0.22 -2.08,0.66 -0.53,0.44 -0.79,1.03 -0.79,1.77 0,0.65 0.21,1.24 0.63,1.76 0.42,0.52 1.18,1.05 2.28,1.59 1.07,-0.5 1.81,-1.01 2.24,-1.54 0.42,-0.52 0.64,-1.13 0.64,-1.81 0,-0.75 -0.27,-1.34 -0.82,-1.78 -0.55,-0.43 -1.25,-0.65 -2.1,-0.65 z"
               style="fill:#124c59"
               id="XMLID_535_" />
            <path
               inkscape:connector-curvature="0"
               d="M 37.48,361.43 H 34.6 v 4.95 h -4.93 v -4.95 H 19.48 v -3.51 L 29.95,342.5 h 4.66 v 15.01 h 2.88 v 3.92 z m -7.81,-3.92 v -4.05 c 0,-0.68 0.03,-1.66 0.08,-2.94 0.05,-1.29 0.1,-2.03 0.13,-2.24 h -0.13 c -0.4,0.89 -0.89,1.76 -1.45,2.61 l -4.38,6.62 h 5.75 z"
               style="fill:#124c59"
               id="XMLID_539_" />
          </g>
          <g
             id="XMLID_526_">
            <path
               inkscape:connector-curvature="0"
               d="m 9.48,386.79 c 2.29,0 4.13,0.52 5.53,1.56 1.4,1.04 2.1,2.44 2.1,4.21 0,1.22 -0.34,2.31 -1.01,3.26 -0.67,0.95 -1.76,1.81 -3.27,2.56 1.79,0.96 3.07,1.96 3.85,3 0.78,1.04 1.17,2.18 1.17,3.42 0,1.96 -0.77,3.54 -2.3,4.73 -1.54,1.19 -3.56,1.79 -6.06,1.79 -2.61,0 -4.67,-0.56 -6.16,-1.67 -1.49,-1.11 -2.24,-2.68 -2.24,-4.72 0,-1.36 0.36,-2.57 1.09,-3.63 0.72,-1.06 1.89,-1.99 3.49,-2.79 -1.36,-0.86 -2.34,-1.78 -2.94,-2.76 -0.6,-0.98 -0.9,-2.05 -0.9,-3.22 0,-1.71 0.71,-3.09 2.12,-4.15 1.41,-1.06 3.26,-1.59 5.53,-1.59 z m -3.72,17.84 c 0,0.94 0.33,1.67 0.98,2.19 0.65,0.52 1.55,0.78 2.68,0.78 1.25,0 2.19,-0.27 2.81,-0.81 0.62,-0.54 0.93,-1.25 0.93,-2.13 0,-0.73 -0.31,-1.41 -0.92,-2.05 -0.62,-0.64 -1.62,-1.32 -3,-2.03 -2.32,1.07 -3.48,2.42 -3.48,4.05 z m 3.69,-14.14 c -0.86,0 -1.55,0.22 -2.08,0.66 -0.53,0.44 -0.79,1.03 -0.79,1.77 0,0.65 0.21,1.24 0.63,1.76 0.42,0.52 1.18,1.05 2.28,1.59 1.07,-0.5 1.81,-1.01 2.24,-1.54 0.42,-0.52 0.64,-1.13 0.64,-1.81 0,-0.75 -0.27,-1.34 -0.82,-1.78 -0.55,-0.44 -1.25,-0.65 -2.1,-0.65 z"
               style="fill:#124c59"
               id="XMLID_527_" />
            <path
               inkscape:connector-curvature="0"
               d="m 36.81,399.05 c 0,4.17 -0.68,7.26 -2.05,9.26 -1.37,2 -3.47,3.01 -6.31,3.01 -2.76,0 -4.83,-1.03 -6.23,-3.1 -1.4,-2.07 -2.1,-5.12 -2.1,-9.17 0,-4.22 0.68,-7.32 2.04,-9.32 1.36,-2 3.46,-3 6.29,-3 2.76,0 4.84,1.05 6.25,3.14 1.41,2.09 2.11,5.15 2.11,9.18 z m -11.68,0 c 0,2.93 0.25,5.03 0.76,6.3 0.51,1.27 1.36,1.9 2.56,1.9 1.18,0 2.03,-0.64 2.55,-1.93 0.52,-1.28 0.78,-3.38 0.78,-6.27 0,-2.93 -0.26,-5.03 -0.79,-6.31 -0.53,-1.28 -1.38,-1.92 -2.54,-1.92 -1.19,0 -2.04,0.64 -2.55,1.92 -0.51,1.27 -0.77,3.38 -0.77,6.31 z"
               style="fill:#124c59"
               id="XMLID_531_" />
          </g>
          <g
             id="XMLID_520_">
            <path
               inkscape:connector-curvature="0"
               d="m 3.62,467.47 8.97,-19.61 H 0.81 v -4.25 h 17.14 v 3.17 L 8.91,467.46 H 3.62 z"
               style="fill:#124c59"
               id="XMLID_521_" />
            <path
               inkscape:connector-curvature="0"
               d="m 36.81,455.52 c 0,4.17 -0.68,7.26 -2.05,9.26 -1.37,2 -3.47,3.01 -6.31,3.01 -2.76,0 -4.83,-1.03 -6.23,-3.1 -1.4,-2.07 -2.1,-5.12 -2.1,-9.17 0,-4.22 0.68,-7.32 2.04,-9.32 1.36,-2 3.46,-3 6.29,-3 2.76,0 4.84,1.05 6.25,3.14 1.41,2.09 2.11,5.16 2.11,9.18 z m -11.68,0 c 0,2.93 0.25,5.03 0.76,6.3 0.51,1.27 1.36,1.9 2.56,1.9 1.18,0 2.03,-0.64 2.55,-1.93 0.52,-1.28 0.78,-3.38 0.78,-6.27 0,-2.93 -0.26,-5.03 -0.79,-6.31 -0.53,-1.28 -1.38,-1.92 -2.54,-1.92 -1.19,0 -2.04,0.64 -2.55,1.92 -0.51,1.28 -0.77,3.39 -0.77,6.31 z"
               style="fill:#124c59"
               id="XMLID_523_" />
          </g>
          <g
             id="XMLID_513_">
            <path
               inkscape:connector-curvature="0"
               d="m 1.08,529.83 c 0,-4.73 1,-8.24 3,-10.55 2,-2.31 4.99,-3.46 8.98,-3.46 1.36,0 2.43,0.08 3.2,0.25 v 4.04 c -0.97,-0.22 -1.93,-0.33 -2.88,-0.33 -1.73,0 -3.14,0.26 -4.24,0.78 -1.09,0.52 -1.92,1.3 -2.46,2.32 -0.54,1.02 -0.87,2.48 -0.96,4.36 h 0.21 c 1.08,-1.85 2.8,-2.78 5.18,-2.78 2.13,0 3.81,0.67 5.02,2.01 1.21,1.34 1.81,3.19 1.81,5.55 0,2.55 -0.72,4.57 -2.16,6.05 -1.44,1.49 -3.43,2.23 -5.98,2.23 -1.76,0 -3.3,-0.41 -4.62,-1.23 -1.32,-0.82 -2.33,-2.01 -3.04,-3.58 -0.7,-1.56 -1.06,-3.45 -1.06,-5.66 z m 8.63,6.43 c 1.08,0 1.91,-0.36 2.48,-1.09 0.58,-0.72 0.87,-1.76 0.87,-3.1 0,-1.17 -0.27,-2.08 -0.81,-2.75 -0.54,-0.67 -1.35,-1 -2.44,-1 -1.02,0 -1.9,0.33 -2.62,1 -0.72,0.66 -1.09,1.44 -1.09,2.32 0,1.3 0.34,2.39 1.02,3.28 0.68,0.89 1.54,1.34 2.59,1.34 z"
               style="fill:#124c59"
               id="XMLID_514_" />
            <path
               inkscape:connector-curvature="0"
               d="m 36.81,528.03 c 0,4.17 -0.68,7.26 -2.05,9.26 -1.37,2 -3.47,3.01 -6.31,3.01 -2.76,0 -4.83,-1.03 -6.23,-3.1 -1.4,-2.07 -2.1,-5.12 -2.1,-9.17 0,-4.22 0.68,-7.32 2.04,-9.32 1.36,-2 3.46,-3 6.29,-3 2.76,0 4.84,1.05 6.25,3.14 1.41,2.09 2.11,5.15 2.11,9.18 z m -11.68,0 c 0,2.93 0.25,5.03 0.76,6.3 0.51,1.27 1.36,1.9 2.56,1.9 1.18,0 2.03,-0.64 2.55,-1.93 0.52,-1.28 0.78,-3.38 0.78,-6.27 0,-2.93 -0.26,-5.03 -0.79,-6.31 -0.53,-1.28 -1.38,-1.92 -2.54,-1.92 -1.19,0 -2.04,0.64 -2.55,1.92 -0.51,1.28 -0.77,3.38 -0.77,6.31 z"
               style="fill:#124c59"
               id="XMLID_517_" />
          </g>
          <g
             id="XMLID_507_">
            <path
               inkscape:connector-curvature="0"
               d="m 9.94,564.46 c 2.31,0 4.15,0.65 5.51,1.94 1.37,1.3 2.05,3.07 2.05,5.33 0,2.67 -0.82,4.72 -2.47,6.16 -1.64,1.44 -4,2.16 -7.06,2.16 -2.66,0 -4.8,-0.43 -6.44,-1.29 v -4.36 c 0.86,0.46 1.86,0.83 3.01,1.12 1.15,0.29 2.23,0.43 3.25,0.43 3.08,0 4.62,-1.26 4.62,-3.79 0,-2.41 -1.6,-3.61 -4.79,-3.61 -0.58,0 -1.21,0.06 -1.91,0.17 -0.7,0.11 -1.26,0.24 -1.7,0.37 L 2,568.01 2.9,555.84 h 12.96 v 4.28 H 7.34 l -0.44,4.69 0.57,-0.11 c 0.67,-0.16 1.49,-0.24 2.47,-0.24 z"
               style="fill:#124c59"
               id="XMLID_508_" />
            <path
               inkscape:connector-curvature="0"
               d="m 36.81,567.78 c 0,4.17 -0.68,7.26 -2.05,9.26 -1.37,2 -3.47,3.01 -6.31,3.01 -2.76,0 -4.83,-1.03 -6.23,-3.1 -1.4,-2.07 -2.1,-5.12 -2.1,-9.17 0,-4.22 0.68,-7.32 2.04,-9.32 1.36,-2 3.46,-3 6.29,-3 2.76,0 4.84,1.05 6.25,3.14 1.41,2.09 2.11,5.15 2.11,9.18 z m -11.68,0 c 0,2.93 0.25,5.03 0.76,6.3 0.51,1.27 1.36,1.9 2.56,1.9 1.18,0 2.03,-0.64 2.55,-1.93 0.52,-1.28 0.78,-3.38 0.78,-6.27 0,-2.93 -0.26,-5.03 -0.79,-6.31 -0.53,-1.28 -1.38,-1.92 -2.54,-1.92 -1.19,0 -2.04,0.64 -2.55,1.92 -0.51,1.28 -0.77,3.38 -0.77,6.31 z"
               style="fill:#124c59"
               id="XMLID_510_" />
          </g>
          <g
             id="XMLID_500_">
            <path
               inkscape:connector-curvature="0"
               d="M 18.48,614.53 H 15.6 v 4.95 h -4.93 v -4.95 H 0.48 v -3.51 L 10.95,595.6 h 4.66 v 15.01 h 2.88 v 3.92 z m -7.81,-3.92 v -4.05 c 0,-0.68 0.03,-1.66 0.08,-2.94 0.05,-1.29 0.1,-2.03 0.13,-2.24 h -0.13 c -0.4,0.89 -0.89,1.76 -1.45,2.61 l -4.38,6.62 h 5.75 z"
               style="fill:#124c59"
               id="XMLID_501_" />
            <path
               inkscape:connector-curvature="0"
               d="m 36.81,607.53 c 0,4.17 -0.68,7.26 -2.05,9.26 -1.37,2 -3.47,3.01 -6.31,3.01 -2.76,0 -4.83,-1.04 -6.23,-3.1 -1.4,-2.06 -2.1,-5.12 -2.1,-9.17 0,-4.21 0.68,-7.32 2.04,-9.32 1.36,-2 3.46,-3 6.29,-3 2.76,0 4.84,1.05 6.25,3.14 1.41,2.09 2.11,5.15 2.11,9.18 z m -11.68,0 c 0,2.93 0.25,5.03 0.76,6.3 0.51,1.27 1.36,1.9 2.56,1.9 1.18,0 2.03,-0.64 2.55,-1.93 0.52,-1.29 0.78,-3.38 0.78,-6.27 0,-2.93 -0.26,-5.03 -0.79,-6.31 -0.53,-1.28 -1.38,-1.92 -2.54,-1.92 -1.19,0 -2.04,0.64 -2.55,1.92 -0.51,1.28 -0.77,3.38 -0.77,6.31 z"
               style="fill:#124c59"
               id="XMLID_504_" />
          </g>
          <g
             id="XMLID_494_">
            <path
               inkscape:connector-curvature="0"
               d="m 17.01,680.4 c 0,1.49 -0.45,2.76 -1.36,3.81 -0.9,1.04 -2.17,1.76 -3.81,2.16 v 0.1 c 1.93,0.24 3.39,0.83 4.38,1.76 0.99,0.93 1.49,2.19 1.49,3.77 0,2.3 -0.83,4.09 -2.5,5.37 -1.67,1.28 -4.05,1.92 -7.14,1.92 -2.59,0 -4.89,-0.43 -6.89,-1.29 v -4.3 c 0.93,0.47 1.94,0.85 3.05,1.14 1.11,0.29 2.21,0.44 3.3,0.44 1.67,0 2.9,-0.28 3.69,-0.85 0.79,-0.57 1.19,-1.48 1.19,-2.73 0,-1.12 -0.46,-1.92 -1.37,-2.39 -0.92,-0.47 -2.38,-0.7 -4.38,-0.7 h -1.8 v -3.87 H 6.7 c 1.85,0 3.2,-0.24 4.06,-0.73 0.85,-0.49 1.28,-1.32 1.28,-2.49 0,-1.81 -1.13,-2.71 -3.4,-2.71 -0.78,0 -1.58,0.13 -2.39,0.39 -0.81,0.26 -1.71,0.71 -2.7,1.36 l -2.34,-3.48 c 2.18,-1.57 4.78,-2.35 7.79,-2.35 2.47,0 4.42,0.5 5.86,1.5 1.44,1 2.15,2.38 2.15,4.17 z"
               style="fill:#124c59"
               id="XMLID_495_" />
            <path
               inkscape:connector-curvature="0"
               d="m 36.81,687 c 0,4.17 -0.68,7.26 -2.05,9.26 -1.37,2 -3.47,3.01 -6.31,3.01 -2.76,0 -4.83,-1.04 -6.23,-3.1 -1.4,-2.06 -2.1,-5.12 -2.1,-9.17 0,-4.21 0.68,-7.32 2.04,-9.32 1.36,-2 3.46,-3 6.29,-3 2.76,0 4.84,1.05 6.25,3.14 1.41,2.09 2.11,5.15 2.11,9.18 z m -11.68,0 c 0,2.93 0.25,5.03 0.76,6.3 0.51,1.27 1.36,1.9 2.56,1.9 1.18,0 2.03,-0.64 2.55,-1.93 0.52,-1.29 0.78,-3.38 0.78,-6.27 0,-2.93 -0.26,-5.03 -0.79,-6.31 -0.53,-1.28 -1.38,-1.92 -2.54,-1.92 -1.19,0 -2.04,0.64 -2.55,1.92 -0.51,1.28 -0.77,3.38 -0.77,6.31 z"
               style="fill:#124c59"
               id="XMLID_497_" />
          </g>
          <g
             id="XMLID_482_">
            <path
               inkscape:connector-curvature="0"
               d="M 17.94,760.98 H 1.25 v -3.51 l 6,-6.06 c 1.78,-1.82 2.93,-3.08 3.48,-3.78 0.54,-0.7 0.94,-1.35 1.18,-1.95 0.24,-0.6 0.36,-1.22 0.36,-1.86 0,-0.96 -0.26,-1.67 -0.79,-2.14 -0.53,-0.47 -1.23,-0.7 -2.12,-0.7 -0.93,0 -1.82,0.21 -2.7,0.64 -0.87,0.42 -1.78,1.03 -2.73,1.81 l -2.75,-3.25 c 1.18,-1 2.15,-1.71 2.92,-2.12 0.77,-0.41 1.62,-0.73 2.53,-0.96 0.92,-0.22 1.94,-0.33 3.07,-0.33 1.49,0 2.81,0.27 3.95,0.82 1.14,0.54 2.03,1.31 2.66,2.29 0.63,0.98 0.95,2.1 0.95,3.37 0,1.1 -0.19,2.13 -0.58,3.1 -0.39,0.97 -0.99,1.95 -1.8,2.96 -0.81,1.01 -2.24,2.46 -4.29,4.33 l -3.07,2.89 v 0.23 h 10.41 v 4.22 z"
               style="fill:#124c59"
               id="XMLID_483_" />
            <path
               inkscape:connector-curvature="0"
               d="m 36.81,749.03 c 0,4.17 -0.68,7.26 -2.05,9.26 -1.37,2 -3.47,3.01 -6.31,3.01 -2.76,0 -4.83,-1.04 -6.23,-3.1 -1.4,-2.06 -2.1,-5.12 -2.1,-9.17 0,-4.21 0.68,-7.32 2.04,-9.32 1.36,-2 3.46,-3 6.29,-3 2.76,0 4.84,1.05 6.25,3.14 1.41,2.09 2.11,5.15 2.11,9.18 z m -11.68,0 c 0,2.93 0.25,5.03 0.76,6.3 0.51,1.27 1.36,1.9 2.56,1.9 1.18,0 2.03,-0.64 2.55,-1.93 0.52,-1.29 0.78,-3.38 0.78,-6.27 0,-2.93 -0.26,-5.03 -0.79,-6.31 -0.53,-1.28 -1.38,-1.92 -2.54,-1.92 -1.19,0 -2.04,0.64 -2.55,1.92 -0.51,1.28 -0.77,3.38 -0.77,6.31 z"
               style="fill:#124c59"
               id="XMLID_487_" />
          </g>
          <g
             id="XMLID_476_">
            <path
               inkscape:connector-curvature="0"
               d="M 13.73,800.73 H 8.68 v -13.82 l 0.05,-2.27 0.08,-2.48 c -0.84,0.84 -1.42,1.39 -1.75,1.65 l -2.75,2.21 -2.43,-3.04 7.7,-6.13 h 4.15 v 23.88 z"
               style="fill:#124c59"
               id="XMLID_477_" />
            <path
               inkscape:connector-curvature="0"
               d="m 20.08,790.58 c 0,-4.73 1,-8.25 3,-10.55 2,-2.31 4.99,-3.46 8.98,-3.46 1.36,0 2.43,0.08 3.2,0.25 v 4.04 c -0.97,-0.22 -1.93,-0.33 -2.88,-0.33 -1.73,0 -3.14,0.26 -4.24,0.78 -1.09,0.52 -1.92,1.3 -2.46,2.32 -0.54,1.02 -0.87,2.48 -0.96,4.36 h 0.21 c 1.08,-1.85 2.8,-2.78 5.18,-2.78 2.13,0 3.81,0.67 5.02,2.01 1.21,1.34 1.81,3.19 1.81,5.56 0,2.55 -0.72,4.57 -2.16,6.05 -1.44,1.49 -3.43,2.23 -5.98,2.23 -1.76,0 -3.3,-0.41 -4.62,-1.23 -1.31,-0.82 -2.33,-2.01 -3.04,-3.58 -0.7,-1.57 -1.06,-3.46 -1.06,-5.67 z m 8.63,6.44 c 1.08,0 1.91,-0.36 2.48,-1.09 0.57,-0.73 0.87,-1.76 0.87,-3.1 0,-1.17 -0.27,-2.08 -0.81,-2.75 -0.54,-0.67 -1.35,-1 -2.44,-1 -1.02,0 -1.9,0.33 -2.62,1 -0.72,0.67 -1.09,1.44 -1.09,2.32 0,1.3 0.34,2.39 1.02,3.28 0.68,0.89 1.54,1.34 2.59,1.34 z"
               style="fill:#124c59"
               id="XMLID_479_" />
          </g>
          <g
             id="XMLID_470_">
            <path
               inkscape:connector-curvature="0"
               d="M 13.73,839.77 H 8.68 v -13.82 l 0.05,-2.27 0.08,-2.48 c -0.84,0.84 -1.42,1.39 -1.75,1.65 l -2.75,2.21 -2.43,-3.04 7.7,-6.13 h 4.15 v 23.88 z"
               style="fill:#124c59"
               id="XMLID_471_" />
            <path
               inkscape:connector-curvature="0"
               d="m 36.81,827.83 c 0,4.17 -0.68,7.26 -2.05,9.26 -1.37,2 -3.47,3.01 -6.31,3.01 -2.76,0 -4.83,-1.04 -6.23,-3.1 -1.4,-2.06 -2.1,-5.12 -2.1,-9.17 0,-4.21 0.68,-7.32 2.04,-9.32 1.36,-2 3.46,-3 6.29,-3 2.76,0 4.84,1.05 6.25,3.14 1.41,2.09 2.11,5.15 2.11,9.18 z m -11.68,0 c 0,2.93 0.25,5.03 0.76,6.3 0.51,1.27 1.36,1.9 2.56,1.9 1.18,0 2.03,-0.64 2.55,-1.93 0.52,-1.29 0.78,-3.38 0.78,-6.27 0,-2.93 -0.26,-5.03 -0.79,-6.31 -0.53,-1.28 -1.38,-1.92 -2.54,-1.92 -1.19,0 -2.04,0.64 -2.55,1.92 -0.51,1.28 -0.77,3.38 -0.77,6.31 z"
               style="fill:#124c59"
               id="XMLID_473_" />
          </g>
          <g
             id="XMLID_467_">
            <path
               inkscape:connector-curvature="0"
               d="m 28.94,903.98 c 2.31,0 4.15,0.65 5.51,1.94 1.37,1.3 2.05,3.07 2.05,5.33 0,2.67 -0.82,4.72 -2.47,6.16 -1.65,1.44 -4,2.16 -7.06,2.16 -2.66,0 -4.8,-0.43 -6.44,-1.29 v -4.36 c 0.86,0.46 1.86,0.83 3.01,1.12 1.14,0.29 2.23,0.43 3.25,0.43 3.08,0 4.62,-1.26 4.62,-3.79 0,-2.41 -1.6,-3.61 -4.79,-3.61 -0.58,0 -1.21,0.06 -1.91,0.17 -0.7,0.12 -1.26,0.24 -1.7,0.37 L 21,907.53 21.9,895.36 h 12.96 v 4.28 h -8.53 l -0.44,4.69 0.57,-0.12 c 0.67,-0.15 1.5,-0.23 2.48,-0.23 z"
               style="fill:#124c59"
               id="XMLID_468_" />
          </g>
          <g
             id="XMLID_464_">
            <path
               inkscape:connector-curvature="0"
               d="m 32.73,1026.61 h -5.05 v -13.82 l 0.05,-2.27 0.08,-2.48 c -0.84,0.84 -1.42,1.39 -1.75,1.65 l -2.75,2.21 -2.43,-3.04 7.7,-6.13 h 4.15 v 23.88 z"
               style="fill:#124c59"
               id="XMLID_465_" />
          </g>
        </g>
        <g
           id="XMLID_460_">
          <path
             inkscape:connector-curvature="0"
             d="m 142.25,23.81 c 0,7.05 -2.01,12.45 -6.02,16.2 -4.01,3.75 -9.81,5.62 -17.39,5.62 H 106.71 V 2.81 h 13.45 c 6.99,0 12.42,1.85 16.29,5.54 3.87,3.69 5.8,8.84 5.8,15.46 z m -9.43,0.24 c 0,-9.2 -4.06,-13.8 -12.19,-13.8 h -4.83 v 27.89 h 3.9 c 8.74,0 13.12,-4.7 13.12,-14.09 z"
             style="fill:#124c59"
             id="XMLID_461_" />
        </g>
        <g
           id="XMLID_457_">
          <path
             inkscape:connector-curvature="0"
             d="M 200.58,45.64 V 2.81 h 9.08 v 42.83 h -9.08 z"
             style="fill:#124c59"
             id="XMLID_458_" />
        </g>
        <g
           id="XMLID_454_">
          <path
             inkscape:connector-curvature="0"
             d="m 298.76,33.75 c 0,3.87 -1.39,6.91 -4.17,9.14 -2.78,2.23 -6.66,3.34 -11.62,3.34 -4.57,0 -8.61,-0.86 -12.13,-2.58 v -8.44 c 2.89,1.29 5.34,2.2 7.34,2.72 2,0.52 3.83,0.79 5.49,0.79 1.99,0 3.52,-0.38 4.58,-1.14 1.06,-0.76 1.6,-1.89 1.6,-3.4 0,-0.84 -0.23,-1.59 -0.7,-2.24 -0.47,-0.65 -1.16,-1.28 -2.07,-1.89 -0.91,-0.6 -2.76,-1.57 -5.55,-2.9 -2.62,-1.23 -4.58,-2.41 -5.89,-3.54 -1.31,-1.13 -2.35,-2.45 -3.13,-3.96 -0.78,-1.5 -1.17,-3.26 -1.17,-5.27 0,-3.79 1.28,-6.77 3.85,-8.94 2.57,-2.17 6.12,-3.25 10.65,-3.25 2.23,0 4.35,0.26 6.37,0.79 2.02,0.53 4.14,1.27 6.34,2.23 l -2.93,7.06 c -2.29,-0.94 -4.17,-1.59 -5.67,-1.96 -1.49,-0.37 -2.96,-0.56 -4.41,-0.56 -1.72,0 -3.04,0.4 -3.96,1.2 -0.92,0.8 -1.38,1.85 -1.38,3.13 0,0.8 0.19,1.5 0.56,2.09 0.37,0.6 0.96,1.17 1.77,1.73 0.81,0.56 2.73,1.56 5.76,3 4,1.91 6.75,3.83 8.23,5.76 1.5,1.93 2.24,4.29 2.24,7.09 z"
             style="fill:#124c59"
             id="XMLID_455_" />
        </g>
        <g
           id="XMLID_451_">
          <path
             inkscape:connector-curvature="0"
             d="m 369.84,9.75 c -3.42,0 -6.06,1.28 -7.94,3.85 -1.88,2.57 -2.81,6.15 -2.81,10.74 0,9.55 3.58,14.33 10.75,14.33 3.01,0 6.65,-0.75 10.93,-2.26 v 7.62 c -3.52,1.46 -7.44,2.2 -11.78,2.2 -6.23,0 -11,-1.89 -14.3,-5.67 -3.3,-3.78 -4.95,-9.2 -4.95,-16.27 0,-4.45 0.81,-8.35 2.43,-11.7 1.62,-3.35 3.95,-5.92 6.99,-7.71 3.04,-1.79 6.6,-2.68 10.68,-2.68 4.16,0 8.34,1.01 12.54,3.02 l -2.93,7.38 c -1.6,-0.76 -3.21,-1.43 -4.83,-1.99 -1.62,-0.57 -3.21,-0.86 -4.78,-0.86 z"
             style="fill:#124c59"
             id="XMLID_452_" />
        </g>
      </g>
      <g
         id="Most">
        <g
           id="XMLID_437_">
          <path
             inkscape:connector-curvature="0"
             d="m 161.76,1122.02 v -44.16 h 5.14 v 39.51 h 19.48 v 4.65 h -24.62 z"
             style="fill:#2290ba"
             id="XMLID_438_" />
          <path
             inkscape:connector-curvature="0"
             d="m 219.79,1122.02 h -24.62 v -44.16 h 24.62 v 4.56 H 200.3 v 14.23 h 18.3 v 4.53 h -18.3 v 16.25 h 19.48 v 4.59 z"
             style="fill:#2290ba"
             id="XMLID_440_" />
          <path
             inkscape:connector-curvature="0"
             d="m 258.63,1122.02 -5.5,-14.05 h -17.7 l -5.44,14.05 h -5.2 l 17.46,-44.34 h 4.32 l 17.37,44.34 h -5.31 z m -7.09,-18.67 -5.14,-13.68 c -0.66,-1.73 -1.35,-3.86 -2.05,-6.37 -0.44,1.93 -1.08,4.06 -1.9,6.37 l -5.2,13.68 h 14.29 z"
             style="fill:#2290ba"
             id="XMLID_442_" />
          <path
             inkscape:connector-curvature="0"
             d="m 296.24,1110.27 c 0,3.89 -1.41,6.92 -4.23,9.09 -2.82,2.17 -6.65,3.26 -11.48,3.26 -5.24,0 -9.26,-0.67 -12.08,-2.02 v -4.95 c 1.81,0.77 3.79,1.37 5.92,1.81 2.13,0.44 4.25,0.67 6.34,0.67 3.42,0 6,-0.65 7.73,-1.95 1.73,-1.3 2.6,-3.11 2.6,-5.42 0,-1.53 -0.31,-2.78 -0.92,-3.76 -0.61,-0.98 -1.64,-1.88 -3.08,-2.7 -1.44,-0.83 -3.63,-1.76 -6.57,-2.81 -4.11,-1.47 -7.04,-3.21 -8.81,-5.23 -1.76,-2.01 -2.64,-4.64 -2.64,-7.88 0,-3.4 1.28,-6.11 3.84,-8.12 2.56,-2.01 5.94,-3.02 10.15,-3.02 4.39,0 8.43,0.81 12.11,2.42 l -1.6,4.47 c -3.65,-1.53 -7.19,-2.3 -10.63,-2.3 -2.72,0 -4.84,0.58 -6.37,1.75 -1.53,1.17 -2.3,2.79 -2.3,4.86 0,1.53 0.28,2.78 0.85,3.76 0.56,0.98 1.51,1.87 2.85,2.69 1.34,0.82 3.39,1.72 6.15,2.7 4.63,1.65 7.82,3.42 9.56,5.32 1.74,1.88 2.61,4.34 2.61,7.36 z"
             style="fill:#2290ba"
             id="XMLID_445_" />
          <path
             inkscape:connector-curvature="0"
             d="m 320.16,1122.02 h -5.13 v -39.6 h -13.99 v -4.56 h 33.11 v 4.56 h -13.99 v 39.6 z"
             style="fill:#2290ba"
             id="XMLID_449_" />
        </g>
        <g
           id="XMLID_380_">
          <path
             inkscape:connector-curvature="0"
             d="m 68.21,1177.63 v -25.29 h 6.87 v 25.29 h -6.87 z"
             style="fill:#124c59"
             id="XMLID_381_" />
          <path
             inkscape:connector-curvature="0"
             d="m 79.86,1177.63 v -25.29 h 6.87 v 25.29 h -6.87 z"
             style="fill:#124c59"
             id="XMLID_383_" />
          <path
             inkscape:connector-curvature="0"
             d="m 90.28,1174.76 c 0,-1.06 0.31,-1.88 0.94,-2.46 0.63,-0.58 1.54,-0.86 2.74,-0.86 1.14,0 2.02,0.29 2.63,0.86 0.61,0.58 0.92,1.4 0.92,2.46 0,1.04 -0.31,1.85 -0.94,2.43 -0.63,0.58 -1.5,0.87 -2.6,0.87 -1.14,0 -2.04,-0.29 -2.7,-0.87 -0.66,-0.56 -0.99,-1.38 -0.99,-2.43 z"
             style="fill:#124c59"
             id="XMLID_385_" />
          <path
             inkscape:connector-curvature="0"
             d="m 127.19,1160.39 c 0,2.83 -0.83,5.01 -2.5,6.55 -1.67,1.54 -4.03,2.31 -7.1,2.31 h -1.92 v 8.39 h -6.83 v -25.29 h 8.75 c 3.19,0 5.59,0.7 7.2,2.09 1.59,1.4 2.4,3.38 2.4,5.95 z m -11.52,3.29 h 1.25 c 1.03,0 1.84,-0.29 2.45,-0.86 0.6,-0.58 0.91,-1.37 0.91,-2.39 0,-1.71 -0.95,-2.56 -2.84,-2.56 h -1.76 v 5.81 z"
             style="fill:#124c59"
             id="XMLID_387_" />
          <path
             inkscape:connector-curvature="0"
             d="m 137.37,1168.43 v 9.2 h -6.83 v -25.29 h 8.28 c 6.87,0 10.31,2.49 10.31,7.47 0,2.93 -1.43,5.19 -4.29,6.8 l 7.37,11.02 h -7.75 l -5.36,-9.2 h -1.73 z m 0,-5.13 h 1.28 c 2.39,0 3.58,-1.06 3.58,-3.17 0,-1.74 -1.17,-2.61 -3.51,-2.61 h -1.35 v 5.78 z"
             style="fill:#124c59"
             id="XMLID_390_" />
          <path
             inkscape:connector-curvature="0"
             d="m 153.84,1177.63 v -25.29 h 6.87 v 25.29 h -6.87 z"
             style="fill:#124c59"
             id="XMLID_393_" />
          <path
             inkscape:connector-curvature="0"
             d="m 179.7,1152.35 h 7.64 l -8.28,25.29 h -8.04 l -8.25,-25.29 h 7.68 l 3.44,12.82 c 0.71,2.85 1.11,4.83 1.18,5.95 0.08,-0.81 0.24,-1.82 0.48,-3.03 0.24,-1.21 0.46,-2.16 0.64,-2.85 l 3.51,-12.89 z"
             style="fill:#124c59"
             id="XMLID_395_" />
          <path
             inkscape:connector-curvature="0"
             d="m 204.92,1177.63 -1.25,-4.74 h -8.21 l -1.28,4.74 h -7.51 l 8.25,-25.39 h 9.11 l 8.35,25.39 h -7.46 z m -2.67,-10.34 -1.09,-4.15 c -0.25,-0.92 -0.56,-2.12 -0.93,-3.58 -0.36,-1.46 -0.6,-2.51 -0.72,-3.15 -0.1,0.59 -0.31,1.56 -0.61,2.91 -0.31,1.35 -0.98,4.01 -2.03,7.97 h 5.38 z"
             style="fill:#124c59"
             id="XMLID_397_" />
          <path
             inkscape:connector-curvature="0"
             d="m 225.6,1177.63 h -6.83 v -19.7 h -6.17 v -5.59 h 19.16 v 5.59 h -6.16 v 19.7 z"
             style="fill:#124c59"
             id="XMLID_400_" />
          <path
             inkscape:connector-curvature="0"
             d="M 249.71,1177.63 H 234.7 v -25.29 h 15.01 v 5.48 h -8.18 v 3.98 h 7.58 v 5.48 h -7.58 v 4.77 h 8.18 v 5.58 z"
             style="fill:#124c59"
             id="XMLID_402_" />
          <path
             inkscape:connector-curvature="0"
             d="m 273.92,1157.59 c -1.63,0 -2.89,0.67 -3.8,2 -0.91,1.33 -1.37,3.17 -1.37,5.51 0,4.87 1.85,7.3 5.55,7.3 1.12,0 2.2,-0.16 3.25,-0.47 1.05,-0.31 2.1,-0.69 3.17,-1.12 v 5.78 c -2.11,0.93 -4.5,1.4 -7.16,1.4 -3.82,0 -6.74,-1.11 -8.78,-3.32 -2.04,-2.21 -3.05,-5.41 -3.05,-9.6 0,-2.62 0.49,-4.92 1.48,-6.9 0.99,-1.98 2.4,-3.51 4.25,-4.57 1.85,-1.06 4.03,-1.6 6.53,-1.6 2.73,0 5.34,0.59 7.83,1.78 l -2.09,5.38 c -0.93,-0.44 -1.87,-0.81 -2.8,-1.11 -0.93,-0.31 -1.93,-0.46 -3.01,-0.46 z"
             style="fill:#124c59"
             id="XMLID_404_" />
          <path
             inkscape:connector-curvature="0"
             d="m 308.64,1164.96 c 0,4.25 -1.04,7.49 -3.13,9.7 -2.09,2.21 -5.14,3.32 -9.17,3.32 -3.97,0 -7.01,-1.11 -9.12,-3.34 -2.12,-2.22 -3.17,-5.46 -3.17,-9.72 0,-4.21 1.05,-7.42 3.16,-9.64 2.1,-2.22 5.16,-3.33 9.17,-3.33 4.02,0 7.07,1.1 9.15,3.3 2.08,2.2 3.11,5.44 3.11,9.71 z m -17.4,0 c 0,4.89 1.7,7.33 5.1,7.33 1.73,0 3.01,-0.59 3.85,-1.78 0.84,-1.19 1.25,-3.04 1.25,-5.55 0,-2.53 -0.42,-4.39 -1.27,-5.59 -0.85,-1.2 -2.11,-1.81 -3.8,-1.81 -3.42,0 -5.13,2.46 -5.13,7.4 z"
             style="fill:#124c59"
             id="XMLID_409_" />
          <path
             inkscape:connector-curvature="0"
             d="m 336.6,1177.63 h -8.96 l -9.24,-17.81 h -0.16 c 0.22,2.8 0.33,4.94 0.33,6.42 v 11.4 h -6.05 v -25.29 h 8.92 l 9.2,17.57 h 0.1 c -0.16,-2.55 -0.24,-4.59 -0.24,-6.14 v -11.43 h 6.09 v 25.28 z"
             style="fill:#124c59"
             id="XMLID_413_" />
          <path
             inkscape:connector-curvature="0"
             d="m 352.65,1157.59 c -1.63,0 -2.89,0.67 -3.8,2 -0.91,1.33 -1.37,3.17 -1.37,5.51 0,4.87 1.85,7.3 5.55,7.3 1.12,0 2.2,-0.16 3.25,-0.47 1.05,-0.31 2.1,-0.69 3.17,-1.12 v 5.78 c -2.11,0.93 -4.5,1.4 -7.16,1.4 -3.82,0 -6.74,-1.11 -8.78,-3.32 -2.04,-2.21 -3.05,-5.41 -3.05,-9.6 0,-2.62 0.49,-4.92 1.48,-6.9 0.99,-1.98 2.4,-3.51 4.25,-4.57 1.85,-1.06 4.03,-1.6 6.53,-1.6 2.73,0 5.34,0.59 7.83,1.78 l -2.09,5.38 c -0.93,-0.44 -1.87,-0.81 -2.8,-1.11 -0.93,-0.31 -1.93,-0.46 -3.01,-0.46 z"
             style="fill:#124c59"
             id="XMLID_417_" />
          <path
             inkscape:connector-curvature="0"
             d="m 378.72,1177.63 h -15.01 v -25.29 h 15.01 v 5.48 h -8.18 v 3.98 h 7.58 v 5.48 h -7.58 v 4.77 h 8.18 v 5.58 z"
             style="fill:#124c59"
             id="XMLID_427_" />
          <path
             inkscape:connector-curvature="0"
             d="m 400.82,1160.39 c 0,2.83 -0.83,5.01 -2.5,6.55 -1.67,1.54 -4.03,2.31 -7.1,2.31 h -1.92 v 8.39 h -6.83 v -25.29 h 8.75 c 3.19,0 5.59,0.7 7.2,2.09 1.6,1.4 2.4,3.38 2.4,5.95 z m -11.52,3.29 h 1.25 c 1.03,0 1.84,-0.29 2.45,-0.86 0.6,-0.58 0.91,-1.37 0.91,-2.39 0,-1.71 -0.95,-2.56 -2.84,-2.56 h -1.76 v 5.81 z"
             style="fill:#124c59"
             id="XMLID_432_" />
          <path
             inkscape:connector-curvature="0"
             d="m 415.33,1177.63 h -6.83 v -19.7 h -6.17 v -5.59 h 19.16 v 5.59 h -6.16 v 19.7 z"
             style="fill:#124c59"
             id="XMLID_435_" />
        </g>
      </g>
      <g
         id="Least">
        <g
           id="XMLID_598_">
          <g
             id="XMLID_376_">
            <path
               inkscape:connector-curvature="0"
               d="m 145.58,113.95 c 0,6.16 -2.29,9.57 -6.3,9.57 -3.54,0 -5.94,-3.32 -6,-9.32 0,-6.08 2.62,-9.43 6.3,-9.43 3.82,0 6,3.41 6,9.18 z m -9.85,0.28 c 0,4.71 1.45,7.39 3.68,7.39 2.51,0 3.71,-2.93 3.71,-7.56 0,-4.46 -1.14,-7.39 -3.68,-7.39 -2.15,0 -3.71,2.62 -3.71,7.56 z"
               style="fill:#231f20"
               id="XMLID_377_" />
          </g>
          <g
             id="XMLID_373_">
            <path
               inkscape:connector-curvature="0"
               d="m 138.85,151.99 h -0.06 l -3.15,1.7 -0.47,-1.87 3.96,-2.12 h 2.09 v 18.13 h -2.37 v -15.84 z"
               style="fill:#231f20"
               id="XMLID_374_" />
          </g>
          <g
             id="XMLID_370_">
            <path
               inkscape:connector-curvature="0"
               d="m 133.53,262.64 v -1.51 l 1.92,-1.87 c 4.63,-4.41 6.72,-6.75 6.75,-9.48 0,-1.84 -0.89,-3.54 -3.6,-3.54 -1.65,0 -3.01,0.84 -3.85,1.53 l -0.78,-1.73 c 1.26,-1.06 3.04,-1.84 5.13,-1.84 3.91,0 5.55,2.68 5.55,5.27 0,3.35 -2.43,6.05 -6.25,9.73 l -1.45,1.34 v 0.06 h 8.14 v 2.04 h -11.56 z"
               style="fill:#231f20"
               id="XMLID_371_" />
          </g>
          <g
             id="XMLID_367_">
            <path
               inkscape:connector-curvature="0"
               d="m 134.11,332.33 c 0.7,0.45 2.32,1.14 4.02,1.14 3.15,0 4.13,-2.01 4.1,-3.51 -0.03,-2.54 -2.32,-3.63 -4.69,-3.63 h -1.37 v -1.84 h 1.37 c 1.79,0 4.04,-0.92 4.04,-3.07 0,-1.45 -0.92,-2.73 -3.18,-2.73 -1.45,0 -2.85,0.64 -3.63,1.2 l -0.64,-1.79 c 0.95,-0.7 2.79,-1.4 4.74,-1.4 3.57,0 5.19,2.12 5.19,4.32 0,1.87 -1.12,3.46 -3.35,4.27 v 0.06 c 2.23,0.45 4.04,2.12 4.04,4.66 0,2.9 -2.26,5.44 -6.61,5.44 -2.04,0 -3.82,-0.64 -4.71,-1.23 l 0.68,-1.89 z"
               style="fill:#231f20"
               id="XMLID_368_" />
          </g>
          <g
             id="XMLID_363_">
            <path
               inkscape:connector-curvature="0"
               d="m 141.11,374.19 v -4.94 h -8.42 v -1.62 l 8.09,-11.58 h 2.65 v 11.27 h 2.54 v 1.92 h -2.54 v 4.94 h -2.32 z m 0,-6.86 v -6.05 c 0,-0.95 0.03,-1.9 0.08,-2.85 h -0.08 c -0.56,1.06 -1,1.84 -1.51,2.68 l -4.43,6.16 v 0.06 h 5.94 z"
               style="fill:#231f20"
               id="XMLID_364_" />
          </g>
          <g
             id="XMLID_360_">
            <path
               inkscape:connector-curvature="0"
               d="m 144.35,419.47 h -6.92 l -0.7,4.66 c 0.42,-0.06 0.81,-0.11 1.48,-0.11 1.39,0 2.79,0.31 3.91,0.98 1.42,0.81 2.59,2.37 2.59,4.66 0,3.54 -2.82,6.19 -6.75,6.19 -1.98,0 -3.65,-0.56 -4.52,-1.12 l 0.61,-1.87 c 0.75,0.45 2.23,1 3.88,1 2.32,0 4.3,-1.51 4.3,-3.93 -0.03,-2.34 -1.59,-4.02 -5.22,-4.02 -1.03,0 -1.84,0.11 -2.51,0.2 l 1.17,-8.7 h 8.67 v 2.06 z"
               style="fill:#231f20"
               id="XMLID_361_" />
          </g>
          <g
             id="XMLID_356_">
            <path
               inkscape:connector-curvature="0"
               d="m 143.87,452.6 c -0.5,-0.03 -1.14,0 -1.84,0.11 -3.85,0.64 -5.89,3.46 -6.3,6.44 h 0.08 c 0.87,-1.14 2.37,-2.09 4.38,-2.09 3.21,0 5.47,2.31 5.47,5.86 0,3.32 -2.26,6.39 -6.02,6.39 -3.88,0 -6.42,-3.01 -6.42,-7.73 0,-3.57 1.28,-6.39 3.07,-8.17 1.51,-1.48 3.51,-2.4 5.8,-2.68 0.73,-0.11 1.34,-0.14 1.79,-0.14 v 2.01 z m -0.69,10.46 c 0,-2.59 -1.48,-4.16 -3.74,-4.16 -1.48,0 -2.85,0.92 -3.51,2.23 -0.17,0.28 -0.28,0.64 -0.28,1.09 0.06,2.98 1.42,5.19 3.99,5.19 2.11,0 3.54,-1.76 3.54,-4.35 z"
               style="fill:#231f20"
               id="XMLID_357_" />
          </g>
          <g
             id="XMLID_353_">
            <path
               inkscape:connector-curvature="0"
               d="m 145.3,484.33 v 1.62 l -7.89,16.51 h -2.54 l 7.87,-16.04 v -0.06 h -8.87 v -2.04 h 11.43 z"
               style="fill:#231f20"
               id="XMLID_354_" />
          </g>
          <g
             id="XMLID_348_">
            <path
               inkscape:connector-curvature="0"
               d="m 133.3,536.9 c 0,-2.29 1.37,-3.9 3.6,-4.85 l -0.03,-0.08 c -2.01,-0.95 -2.87,-2.51 -2.87,-4.07 0,-2.87 2.43,-4.83 5.61,-4.83 3.51,0 5.27,2.2 5.27,4.46 0,1.53 -0.75,3.18 -2.98,4.24 v 0.08 c 2.26,0.89 3.65,2.48 3.65,4.69 0,3.15 -2.71,5.27 -6.17,5.27 -3.79,0 -6.08,-2.26 -6.08,-4.91 z m 9.77,-0.11 c 0,-2.2 -1.53,-3.26 -3.99,-3.96 -2.12,0.61 -3.26,2.01 -3.26,3.74 -0.08,1.84 1.31,3.46 3.63,3.46 2.19,0 3.62,-1.37 3.62,-3.24 z m -6.75,-9.06 c 0,1.81 1.37,2.79 3.46,3.35 1.56,-0.53 2.76,-1.65 2.76,-3.29 0,-1.45 -0.86,-2.96 -3.07,-2.96 -2.04,0 -3.15,1.33 -3.15,2.9 z"
               style="fill:#231f20"
               id="XMLID_349_" />
          </g>
          <g
             id="XMLID_344_">
            <path
               inkscape:connector-curvature="0"
               d="m 134.95,567.66 c 0.53,0.06 1.14,0 1.98,-0.08 1.42,-0.2 2.76,-0.78 3.79,-1.76 1.2,-1.09 2.06,-2.68 2.4,-4.83 h -0.08 c -1,1.23 -2.45,1.95 -4.27,1.95 -3.26,0 -5.36,-2.45 -5.36,-5.55 0,-3.43 2.48,-6.44 6.19,-6.44 3.71,0 6,3.01 6,7.64 0,3.99 -1.34,6.78 -3.12,8.51 -1.39,1.37 -3.32,2.2 -5.27,2.43 -0.89,0.14 -1.67,0.17 -2.26,0.14 v -2.01 z m 0.89,-10.43 c 0,2.26 1.37,3.85 3.49,3.85 1.65,0 2.93,-0.81 3.57,-1.9 0.14,-0.22 0.22,-0.5 0.22,-0.89 0,-3.1 -1.14,-5.47 -3.71,-5.47 -2.09,0 -3.57,1.84 -3.57,4.41 z"
               style="fill:#231f20"
               id="XMLID_345_" />
          </g>
          <g
             id="XMLID_338_">
            <path
               inkscape:connector-curvature="0"
               d="m 138.85,578.64 h -0.06 l -3.15,1.7 -0.47,-1.87 3.96,-2.12 h 2.09 v 18.13 h -2.37 v -15.84 z"
               style="fill:#231f20"
               id="XMLID_339_" />
            <path
               inkscape:connector-curvature="0"
               d="m 159.8,585.23 c 0,6.17 -2.29,9.57 -6.3,9.57 -3.54,0 -5.94,-3.32 -6,-9.32 0,-6.08 2.62,-9.43 6.3,-9.43 3.82,0 6,3.4 6,9.18 z m -9.85,0.27 c 0,4.71 1.45,7.39 3.68,7.39 2.51,0 3.71,-2.93 3.71,-7.56 0,-4.46 -1.14,-7.39 -3.68,-7.39 -2.15,0.01 -3.71,2.63 -3.71,7.56 z"
               style="fill:#231f20"
               id="XMLID_341_" />
          </g>
          <g
             id="XMLID_333_">
            <path
               inkscape:connector-curvature="0"
               d="m 138.85,606.53 h -0.06 l -3.15,1.7 -0.47,-1.87 3.96,-2.12 h 2.09 v 18.13 h -2.37 v -15.84 z"
               style="fill:#231f20"
               id="XMLID_334_" />
            <path
               inkscape:connector-curvature="0"
               d="m 153.08,606.53 h -0.06 l -3.15,1.7 -0.47,-1.87 3.96,-2.12 h 2.09 v 18.13 h -2.37 v -15.84 z"
               style="fill:#231f20"
               id="XMLID_336_" />
          </g>
          <g
             id="XMLID_328_">
            <path
               inkscape:connector-curvature="0"
               d="m 138.85,645.57 h -0.06 l -3.15,1.7 -0.47,-1.87 3.96,-2.12 h 2.09 v 18.13 h -2.37 v -15.84 z"
               style="fill:#231f20"
               id="XMLID_329_" />
            <path
               inkscape:connector-curvature="0"
               d="m 147.75,661.42 v -1.51 l 1.92,-1.87 c 4.63,-4.41 6.72,-6.75 6.75,-9.48 0,-1.84 -0.89,-3.54 -3.6,-3.54 -1.65,0 -3.01,0.84 -3.85,1.53 l -0.78,-1.73 c 1.26,-1.06 3.04,-1.84 5.13,-1.84 3.91,0 5.55,2.68 5.55,5.27 0,3.35 -2.43,6.05 -6.25,9.73 l -1.45,1.34 v 0.06 h 8.15 v 2.04 h -11.57 z"
               style="fill:#231f20"
               id="XMLID_331_" />
          </g>
          <g
             id="XMLID_323_">
            <path
               inkscape:connector-curvature="0"
               d="m 138.85,695.77 h -0.06 l -3.15,1.7 -0.47,-1.87 3.96,-2.12 h 2.09 v 18.13 h -2.37 v -15.84 z"
               style="fill:#231f20"
               id="XMLID_324_" />
            <path
               inkscape:connector-curvature="0"
               d="m 148.33,708.79 c 0.7,0.45 2.32,1.14 4.02,1.14 3.15,0 4.13,-2.01 4.1,-3.51 -0.03,-2.54 -2.32,-3.63 -4.69,-3.63 h -1.37 v -1.84 h 1.37 c 1.79,0 4.04,-0.92 4.04,-3.07 0,-1.45 -0.92,-2.73 -3.18,-2.73 -1.45,0 -2.85,0.64 -3.63,1.2 l -0.64,-1.79 c 0.95,-0.7 2.79,-1.39 4.74,-1.39 3.57,0 5.19,2.12 5.19,4.32 0,1.87 -1.12,3.46 -3.35,4.27 v 0.06 c 2.23,0.45 4.04,2.12 4.04,4.66 0,2.9 -2.26,5.44 -6.61,5.44 -2.04,0 -3.82,-0.64 -4.71,-1.23 l 0.68,-1.9 z"
               style="fill:#231f20"
               id="XMLID_326_" />
          </g>
          <g
             id="XMLID_317_">
            <path
               inkscape:connector-curvature="0"
               d="m 138.85,734.81 h -0.06 l -3.15,1.7 -0.47,-1.87 3.96,-2.12 h 2.09 v 18.13 h -2.37 v -15.84 z"
               style="fill:#231f20"
               id="XMLID_318_" />
            <path
               inkscape:connector-curvature="0"
               d="m 155.33,750.65 v -4.94 h -8.42 v -1.62 L 155,732.51 h 2.65 v 11.27 h 2.54 v 1.92 h -2.54 v 4.94 h -2.32 z m 0,-6.86 v -6.05 c 0,-0.95 0.03,-1.9 0.08,-2.85 h -0.08 c -0.56,1.06 -1,1.84 -1.51,2.68 l -4.44,6.17 v 0.06 h 5.95 z"
               style="fill:#231f20"
               id="XMLID_320_" />
          </g>
          <g
             id="XMLID_312_">
            <path
               inkscape:connector-curvature="0"
               d="m 138.85,785 h -0.06 l -3.15,1.7 -0.47,-1.87 3.96,-2.12 h 2.09 v 18.13 h -2.37 V 785 z"
               style="fill:#231f20"
               id="XMLID_313_" />
            <path
               inkscape:connector-curvature="0"
               d="m 158.57,784.78 h -6.92 l -0.7,4.66 c 0.42,-0.06 0.81,-0.11 1.48,-0.11 1.39,0 2.79,0.31 3.91,0.98 1.42,0.81 2.59,2.37 2.59,4.66 0,3.54 -2.82,6.19 -6.75,6.19 -1.98,0 -3.65,-0.56 -4.52,-1.12 l 0.61,-1.87 c 0.75,0.45 2.23,1 3.88,1 2.32,0 4.3,-1.51 4.3,-3.93 -0.03,-2.34 -1.59,-4.02 -5.22,-4.02 -1.03,0 -1.84,0.11 -2.51,0.2 l 1.17,-8.7 h 8.67 v 2.06 z"
               style="fill:#231f20"
               id="XMLID_315_" />
          </g>
          <g
             id="XMLID_306_">
            <path
               inkscape:connector-curvature="0"
               d="m 138.85,818.47 h -0.06 l -3.15,1.7 -0.47,-1.87 3.96,-2.12 h 2.09 v 18.13 h -2.37 v -15.84 z"
               style="fill:#231f20"
               id="XMLID_307_" />
            <path
               inkscape:connector-curvature="0"
               d="m 158.1,817.91 c -0.5,-0.03 -1.14,0 -1.84,0.11 -3.85,0.64 -5.89,3.46 -6.3,6.44 h 0.08 c 0.87,-1.14 2.37,-2.09 4.38,-2.09 3.21,0 5.47,2.32 5.47,5.86 0,3.32 -2.26,6.39 -6.03,6.39 -3.88,0 -6.42,-3.01 -6.42,-7.73 0,-3.57 1.28,-6.39 3.07,-8.17 1.51,-1.48 3.51,-2.4 5.8,-2.68 0.73,-0.11 1.34,-0.14 1.79,-0.14 v 2.01 z m -0.7,10.46 c 0,-2.59 -1.48,-4.16 -3.74,-4.16 -1.48,0 -2.85,0.92 -3.51,2.23 -0.17,0.28 -0.28,0.64 -0.28,1.09 0.06,2.98 1.42,5.19 3.99,5.19 2.12,0 3.54,-1.76 3.54,-4.35 z"
               style="fill:#231f20"
               id="XMLID_309_" />
          </g>
          <g
             id="XMLID_301_">
            <path
               inkscape:connector-curvature="0"
               d="m 138.85,868.66 h -0.06 l -3.15,1.7 -0.47,-1.87 3.96,-2.12 h 2.09 v 18.13 h -2.37 v -15.84 z"
               style="fill:#231f20"
               id="XMLID_302_" />
            <path
               inkscape:connector-curvature="0"
               d="M 159.52,866.38 V 868 l -7.89,16.51 h -2.54 l 7.87,-16.04 v -0.06 h -8.87 v -2.04 h 11.43 z"
               style="fill:#231f20"
               id="XMLID_304_" />
          </g>
          <g
             id="XMLID_253_">
            <path
               inkscape:connector-curvature="0"
               d="m 138.85,935.59 h -0.06 l -3.15,1.7 -0.47,-1.87 3.96,-2.12 h 2.09 v 18.13 h -2.37 v -15.84 z"
               style="fill:#231f20"
               id="XMLID_293_" />
            <path
               inkscape:connector-curvature="0"
               d="m 147.52,946.83 c 0,-2.29 1.37,-3.91 3.6,-4.85 l -0.03,-0.08 c -2.01,-0.95 -2.87,-2.51 -2.87,-4.07 0,-2.87 2.43,-4.83 5.61,-4.83 3.51,0 5.27,2.2 5.27,4.46 0,1.53 -0.75,3.18 -2.98,4.24 v 0.08 c 2.26,0.89 3.65,2.48 3.65,4.69 0,3.15 -2.71,5.27 -6.17,5.27 -3.79,0 -6.08,-2.26 -6.08,-4.91 z m 9.77,-0.11 c 0,-2.2 -1.53,-3.26 -3.99,-3.96 -2.12,0.61 -3.26,2.01 -3.26,3.74 -0.08,1.84 1.31,3.46 3.63,3.46 2.19,-0.01 3.62,-1.37 3.62,-3.24 z m -6.75,-9.07 c 0,1.81 1.37,2.79 3.46,3.35 1.56,-0.53 2.76,-1.65 2.76,-3.29 0,-1.45 -0.86,-2.96 -3.07,-2.96 -2.04,0 -3.15,1.34 -3.15,2.9 z"
               style="fill:#231f20"
               id="XMLID_296_" />
          </g>
          <g
             id="XMLID_245_">
            <path
               inkscape:connector-curvature="0"
               d="m 138.85,1013.67 h -0.06 l -3.15,1.7 -0.47,-1.87 3.96,-2.12 h 2.09 v 18.13 h -2.37 v -15.84 z"
               style="fill:#231f20"
               id="XMLID_246_" />
            <path
               inkscape:connector-curvature="0"
               d="m 149.17,1027.78 c 0.53,0.06 1.14,0 1.98,-0.08 1.42,-0.19 2.76,-0.78 3.79,-1.76 1.2,-1.09 2.06,-2.68 2.4,-4.83 h -0.08 c -1,1.23 -2.45,1.95 -4.27,1.95 -3.26,0 -5.36,-2.45 -5.36,-5.55 0,-3.43 2.48,-6.44 6.19,-6.44 3.71,0 6,3.01 6,7.64 0,3.99 -1.34,6.78 -3.12,8.51 -1.39,1.37 -3.32,2.2 -5.27,2.43 -0.89,0.14 -1.67,0.17 -2.26,0.14 v -2.01 z m 0.89,-10.43 c 0,2.26 1.37,3.85 3.49,3.85 1.65,0 2.93,-0.81 3.57,-1.9 0.14,-0.22 0.22,-0.5 0.22,-0.89 0,-3.1 -1.14,-5.47 -3.71,-5.47 -2.09,0.01 -3.57,1.85 -3.57,4.41 z"
               style="fill:#231f20"
               id="XMLID_249_" />
          </g>
          <g
             id="XMLID_239_">
            <path
               inkscape:connector-curvature="0"
               d="m 228.9,114.62 c 0,6.16 -2.29,9.57 -6.3,9.57 -3.54,0 -5.94,-3.32 -6,-9.32 0,-6.08 2.62,-9.43 6.3,-9.43 3.82,0 6,3.4 6,9.18 z m -9.85,0.28 c 0,4.71 1.45,7.39 3.68,7.39 2.51,0 3.71,-2.93 3.71,-7.56 0,-4.46 -1.14,-7.39 -3.68,-7.39 -2.15,0 -3.71,2.62 -3.71,7.56 z"
               style="fill:#231f20"
               id="XMLID_240_" />
          </g>
          <g
             id="XMLID_236_">
            <path
               inkscape:connector-curvature="0"
               d="m 222.17,219.58 h -0.06 l -3.15,1.7 -0.47,-1.87 3.96,-2.12 h 2.09 v 18.13 h -2.37 v -15.84 z"
               style="fill:#231f20"
               id="XMLID_237_" />
          </g>
          <g
             id="XMLID_233_">
            <path
               inkscape:connector-curvature="0"
               d="m 216.85,341.39 v -1.51 l 1.92,-1.87 c 4.63,-4.41 6.72,-6.75 6.75,-9.48 0,-1.84 -0.89,-3.54 -3.6,-3.54 -1.65,0 -3.01,0.84 -3.85,1.53 l -0.78,-1.73 c 1.26,-1.06 3.04,-1.84 5.13,-1.84 3.91,0 5.55,2.68 5.55,5.27 0,3.35 -2.43,6.05 -6.25,9.73 l -1.45,1.34 v 0.06 h 8.15 v 2.04 h -11.57 z"
               style="fill:#231f20"
               id="XMLID_234_" />
          </g>
          <g
             id="XMLID_230_">
            <path
               inkscape:connector-curvature="0"
               d="m 217.43,433.39 c 0.7,0.45 2.32,1.14 4.02,1.14 3.15,0 4.13,-2.01 4.1,-3.51 -0.03,-2.54 -2.32,-3.63 -4.69,-3.63 h -1.37 v -1.84 h 1.37 c 1.79,0 4.04,-0.92 4.04,-3.07 0,-1.45 -0.92,-2.73 -3.18,-2.73 -1.45,0 -2.85,0.64 -3.63,1.2 l -0.64,-1.79 c 0.95,-0.7 2.79,-1.4 4.74,-1.4 3.57,0 5.19,2.12 5.19,4.32 0,1.87 -1.12,3.46 -3.35,4.27 v 0.06 c 2.23,0.45 4.04,2.12 4.04,4.66 0,2.9 -2.26,5.44 -6.61,5.44 -2.04,0 -3.82,-0.64 -4.71,-1.23 l 0.68,-1.89 z"
               style="fill:#231f20"
               id="XMLID_231_" />
          </g>
          <g
             id="XMLID_226_">
            <path
               inkscape:connector-curvature="0"
               d="m 224.43,480.82 v -4.94 h -8.42 v -1.62 l 8.09,-11.58 h 2.65 v 11.27 h 2.54 v 1.92 h -2.54 v 4.94 h -2.32 z m 0,-6.86 v -6.05 c 0,-0.95 0.03,-1.9 0.08,-2.85 h -0.08 c -0.56,1.06 -1,1.84 -1.51,2.68 l -4.44,6.16 v 0.06 h 5.95 z"
               style="fill:#231f20"
               id="XMLID_227_" />
          </g>
          <g
             id="XMLID_223_">
            <path
               inkscape:connector-curvature="0"
               d="m 227.67,537.26 h -6.92 l -0.7,4.66 c 0.42,-0.06 0.81,-0.11 1.48,-0.11 1.39,0 2.79,0.31 3.91,0.98 1.42,0.81 2.59,2.37 2.59,4.66 0,3.54 -2.82,6.19 -6.75,6.19 -1.98,0 -3.65,-0.56 -4.52,-1.12 l 0.61,-1.87 c 0.75,0.45 2.23,1 3.88,1 2.32,0 4.3,-1.51 4.3,-3.93 -0.03,-2.34 -1.59,-4.02 -5.22,-4.02 -1.03,0 -1.84,0.11 -2.51,0.2 l 1.17,-8.7 h 8.67 v 2.06 z"
               style="fill:#231f20"
               id="XMLID_224_" />
          </g>
          <g
             id="XMLID_219_">
            <path
               inkscape:connector-curvature="0"
               d="m 227.2,581.54 c -0.5,-0.03 -1.14,0 -1.84,0.11 -3.85,0.64 -5.89,3.46 -6.3,6.44 h 0.08 c 0.87,-1.14 2.37,-2.09 4.38,-2.09 3.21,0 5.47,2.32 5.47,5.86 0,3.32 -2.26,6.39 -6.03,6.39 -3.88,0 -6.42,-3.01 -6.42,-7.73 0,-3.57 1.28,-6.39 3.07,-8.17 1.51,-1.48 3.51,-2.4 5.8,-2.68 0.73,-0.11 1.34,-0.14 1.79,-0.14 v 2.01 z M 226.5,592 c 0,-2.59 -1.48,-4.16 -3.74,-4.16 -1.48,0 -2.85,0.92 -3.51,2.23 -0.17,0.28 -0.28,0.64 -0.28,1.09 0.06,2.99 1.42,5.19 3.99,5.19 2.12,0.01 3.54,-1.75 3.54,-4.35 z"
               style="fill:#231f20"
               id="XMLID_220_" />
          </g>
          <g
             id="XMLID_216_">
            <path
               inkscape:connector-curvature="0"
               d="m 228.62,658.59 v 1.62 l -7.89,16.51 h -2.54 l 7.87,-16.04 v -0.06 h -8.87 v -2.04 h 11.43 z"
               style="fill:#231f20"
               id="XMLID_217_" />
          </g>
          <g
             id="XMLID_211_">
            <path
               inkscape:connector-curvature="0"
               d="m 216.62,722.32 c 0,-2.29 1.37,-3.91 3.6,-4.85 l -0.03,-0.08 c -2.01,-0.95 -2.87,-2.51 -2.87,-4.07 0,-2.87 2.43,-4.83 5.61,-4.83 3.51,0 5.27,2.2 5.27,4.46 0,1.53 -0.75,3.18 -2.98,4.24 v 0.08 c 2.26,0.89 3.65,2.48 3.65,4.69 0,3.15 -2.71,5.27 -6.17,5.27 -3.79,0 -6.08,-2.26 -6.08,-4.91 z m 9.77,-0.11 c 0,-2.2 -1.53,-3.26 -3.99,-3.96 -2.12,0.61 -3.26,2.01 -3.26,3.74 -0.08,1.84 1.31,3.46 3.63,3.46 2.19,-0.01 3.62,-1.37 3.62,-3.24 z m -6.75,-9.07 c 0,1.81 1.37,2.79 3.46,3.35 1.56,-0.53 2.76,-1.65 2.76,-3.29 0,-1.45 -0.86,-2.96 -3.07,-2.96 -2.04,0 -3.15,1.34 -3.15,2.9 z"
               style="fill:#231f20"
               id="XMLID_212_" />
          </g>
          <g
             id="XMLID_207_">
            <path
               inkscape:connector-curvature="0"
               d="m 218.27,753.08 c 0.53,0.06 1.14,0 1.98,-0.08 1.42,-0.2 2.76,-0.78 3.79,-1.76 1.2,-1.09 2.06,-2.68 2.4,-4.83 h -0.08 c -1,1.23 -2.45,1.95 -4.27,1.95 -3.26,0 -5.36,-2.45 -5.36,-5.55 0,-3.43 2.48,-6.44 6.19,-6.44 3.71,0 6,3.01 6,7.64 0,3.99 -1.34,6.78 -3.12,8.51 -1.39,1.37 -3.32,2.2 -5.27,2.43 -0.89,0.14 -1.67,0.17 -2.26,0.14 v -2.01 z m 0.89,-10.44 c 0,2.26 1.37,3.85 3.49,3.85 1.65,0 2.93,-0.81 3.57,-1.9 0.14,-0.22 0.22,-0.5 0.22,-0.89 0,-3.1 -1.14,-5.47 -3.71,-5.47 -2.09,0.01 -3.57,1.85 -3.57,4.41 z"
               style="fill:#231f20"
               id="XMLID_208_" />
          </g>
          <g
             id="XMLID_201_">
            <path
               inkscape:connector-curvature="0"
               d="m 222.17,811.47 h -0.06 l -3.15,1.7 -0.47,-1.87 3.96,-2.12 h 2.09 v 18.13 h -2.37 v -15.84 z"
               style="fill:#231f20"
               id="XMLID_202_" />
            <path
               inkscape:connector-curvature="0"
               d="m 243.12,818.05 c 0,6.17 -2.29,9.57 -6.3,9.57 -3.54,0 -5.94,-3.32 -6,-9.32 0,-6.08 2.62,-9.43 6.3,-9.43 3.82,0 6,3.41 6,9.18 z m -9.85,0.28 c 0,4.71 1.45,7.39 3.68,7.39 2.51,0 3.71,-2.93 3.71,-7.56 0,-4.46 -1.14,-7.39 -3.68,-7.39 -2.15,0 -3.71,2.62 -3.71,7.56 z"
               style="fill:#231f20"
               id="XMLID_204_" />
          </g>
          <g
             id="XMLID_196_">
            <path
               inkscape:connector-curvature="0"
               d="m 222.17,836.56 h -0.06 l -3.15,1.7 -0.47,-1.87 3.96,-2.12 h 2.09 v 18.13 h -2.37 v -15.84 z"
               style="fill:#231f20"
               id="XMLID_197_" />
            <path
               inkscape:connector-curvature="0"
               d="m 236.4,836.56 h -0.06 l -3.15,1.7 -0.47,-1.87 3.96,-2.12 h 2.09 v 18.13 h -2.37 v -15.84 z"
               style="fill:#231f20"
               id="XMLID_199_" />
          </g>
          <g
             id="XMLID_191_">
            <path
               inkscape:connector-curvature="0"
               d="m 222.17,892.34 h -0.06 l -3.15,1.7 -0.47,-1.87 3.96,-2.12 h 2.09 v 18.13 h -2.37 v -15.84 z"
               style="fill:#231f20"
               id="XMLID_192_" />
            <path
               inkscape:connector-curvature="0"
               d="m 231.07,908.18 v -1.51 l 1.92,-1.87 c 4.63,-4.41 6.72,-6.75 6.75,-9.48 0,-1.84 -0.89,-3.54 -3.6,-3.54 -1.65,0 -3.01,0.84 -3.85,1.53 l -0.78,-1.73 c 1.26,-1.06 3.04,-1.84 5.13,-1.84 3.91,0 5.55,2.68 5.55,5.27 0,3.35 -2.43,6.05 -6.25,9.73 l -1.45,1.34 v 0.06 h 8.14 v 2.04 h -11.56 z"
               style="fill:#231f20"
               id="XMLID_194_" />
          </g>
          <g
             id="XMLID_186_">
            <path
               inkscape:connector-curvature="0"
               d="m 222.17,917.44 h -0.06 l -3.15,1.7 -0.47,-1.87 3.96,-2.12 h 2.09 v 18.13 h -2.37 v -15.84 z"
               style="fill:#231f20"
               id="XMLID_187_" />
            <path
               inkscape:connector-curvature="0"
               d="m 231.65,930.46 c 0.7,0.45 2.32,1.14 4.02,1.14 3.15,0 4.13,-2.01 4.1,-3.51 -0.03,-2.54 -2.32,-3.63 -4.69,-3.63 h -1.37 v -1.84 h 1.37 c 1.79,0 4.04,-0.92 4.04,-3.07 0,-1.45 -0.92,-2.73 -3.18,-2.73 -1.45,0 -2.85,0.64 -3.63,1.2 l -0.64,-1.79 c 0.95,-0.7 2.79,-1.39 4.74,-1.39 3.57,0 5.19,2.12 5.19,4.32 0,1.87 -1.12,3.46 -3.35,4.27 v 0.06 c 2.23,0.45 4.04,2.12 4.04,4.66 0,2.9 -2.26,5.44 -6.61,5.44 -2.04,0 -3.82,-0.64 -4.71,-1.23 l 0.68,-1.9 z"
               style="fill:#231f20"
               id="XMLID_189_" />
          </g>
          <g
             id="XMLID_180_">
            <path
               inkscape:connector-curvature="0"
               d="m 222.17,967.63 h -0.06 l -3.15,1.7 -0.47,-1.87 3.96,-2.12 h 2.09 v 18.13 h -2.37 v -15.84 z"
               style="fill:#231f20"
               id="XMLID_181_" />
            <path
               inkscape:connector-curvature="0"
               d="m 238.66,983.47 v -4.94 h -8.42 v -1.62 l 8.09,-11.58 h 2.65 v 11.27 h 2.54 v 1.92 h -2.54 v 4.94 h -2.32 z m 0,-6.86 v -6.05 c 0,-0.95 0.03,-1.9 0.08,-2.85 h -0.08 c -0.56,1.06 -1,1.84 -1.51,2.68 l -4.43,6.17 v 0.06 h 5.94 z"
               style="fill:#231f20"
               id="XMLID_183_" />
          </g>
          <g
             id="XMLID_174_">
            <path
               inkscape:connector-curvature="0"
               d="m 222.17,1012.25 h -0.06 l -3.15,1.7 -0.47,-1.87 3.96,-2.12 h 2.09 v 18.13 h -2.37 v -15.84 z"
               style="fill:#231f20"
               id="XMLID_175_" />
            <path
               inkscape:connector-curvature="0"
               d="m 241.42,1011.69 c -0.5,-0.03 -1.14,0 -1.84,0.11 -3.85,0.64 -5.89,3.46 -6.3,6.44 h 0.08 c 0.87,-1.14 2.37,-2.09 4.38,-2.09 3.21,0 5.47,2.32 5.47,5.86 0,3.32 -2.26,6.39 -6.02,6.39 -3.88,0 -6.42,-3.01 -6.42,-7.73 0,-3.57 1.28,-6.39 3.07,-8.17 1.51,-1.48 3.51,-2.4 5.8,-2.68 0.73,-0.11 1.34,-0.14 1.79,-0.14 v 2.01 z m -0.7,10.46 c 0,-2.59 -1.48,-4.16 -3.74,-4.16 -1.48,0 -2.85,0.92 -3.51,2.23 -0.17,0.28 -0.28,0.64 -0.28,1.09 0.06,2.99 1.42,5.19 3.99,5.19 2.12,0 3.54,-1.76 3.54,-4.35 z"
               style="fill:#231f20"
               id="XMLID_177_" />
          </g>
          <g
             id="XMLID_170_">
            <path
               inkscape:connector-curvature="0"
               d="m 306.28,114.65 c 0,6.16 -2.29,9.57 -6.3,9.57 -3.54,0 -5.94,-3.32 -6,-9.32 0,-6.08 2.62,-9.43 6.3,-9.43 3.82,0 6,3.4 6,9.18 z m -9.85,0.28 c 0,4.71 1.45,7.39 3.68,7.39 2.51,0 3.71,-2.93 3.71,-7.56 0,-4.46 -1.14,-7.39 -3.68,-7.39 -2.14,0 -3.71,2.62 -3.71,7.56 z"
               style="fill:#231f20"
               id="XMLID_171_" />
          </g>
          <g
             id="XMLID_167_">
            <path
               inkscape:connector-curvature="0"
               d="m 299.56,386.93 h -0.06 l -3.15,1.7 -0.47,-1.87 3.96,-2.12 h 2.09 v 18.13 h -2.37 v -15.84 z"
               style="fill:#231f20"
               id="XMLID_168_" />
          </g>
          <g
             id="XMLID_164_">
            <path
               inkscape:connector-curvature="0"
               d="m 294.23,469.7 v -1.51 l 1.92,-1.87 c 4.63,-4.41 6.72,-6.75 6.75,-9.48 0,-1.84 -0.89,-3.54 -3.6,-3.54 -1.65,0 -3.01,0.84 -3.85,1.53 l -0.78,-1.73 c 1.26,-1.06 3.04,-1.84 5.13,-1.84 3.91,0 5.55,2.68 5.55,5.27 0,3.35 -2.43,6.05 -6.25,9.73 l -1.45,1.34 v 0.06 h 8.15 v 2.04 h -11.57 z"
               style="fill:#231f20"
               id="XMLID_165_" />
          </g>
          <g
             id="XMLID_161_">
            <path
               inkscape:connector-curvature="0"
               d="m 294.82,550.54 c 0.7,0.45 2.32,1.14 4.02,1.14 3.15,0 4.13,-2.01 4.1,-3.51 -0.03,-2.54 -2.32,-3.63 -4.69,-3.63 h -1.37 v -1.84 h 1.37 c 1.79,0 4.04,-0.92 4.04,-3.07 0,-1.45 -0.92,-2.73 -3.18,-2.73 -1.45,0 -2.85,0.64 -3.63,1.2 l -0.64,-1.79 c 0.95,-0.7 2.79,-1.4 4.74,-1.4 3.57,0 5.19,2.12 5.19,4.32 0,1.87 -1.12,3.46 -3.35,4.27 v 0.06 c 2.23,0.45 4.04,2.12 4.04,4.66 0,2.9 -2.26,5.44 -6.61,5.44 -2.04,0 -3.82,-0.64 -4.71,-1.23 l 0.68,-1.89 z"
               style="fill:#231f20"
               id="XMLID_162_" />
          </g>
          <g
             id="XMLID_157_">
            <path
               inkscape:connector-curvature="0"
               d="m 301.82,597.97 v -4.94 h -8.42 v -1.62 l 8.09,-11.58 h 2.65 v 11.27 h 2.54 v 1.92 h -2.54 v 4.94 h -2.32 z m 0,-6.86 v -6.05 c 0,-0.95 0.03,-1.9 0.08,-2.85 h -0.08 c -0.56,1.06 -1,1.84 -1.51,2.68 l -4.44,6.16 v 0.06 h 5.95 z"
               style="fill:#231f20"
               id="XMLID_158_" />
          </g>
          <g
             id="XMLID_154_">
            <path
               inkscape:connector-curvature="0"
               d="m 305.05,648.83 h -6.92 l -0.7,4.66 c 0.42,-0.06 0.81,-0.11 1.48,-0.11 1.39,0 2.79,0.31 3.91,0.98 1.42,0.81 2.59,2.37 2.59,4.66 0,3.54 -2.82,6.19 -6.75,6.19 -1.98,0 -3.65,-0.56 -4.52,-1.12 l 0.61,-1.87 c 0.75,0.45 2.23,1 3.88,1 2.32,0 4.3,-1.51 4.3,-3.93 -0.03,-2.34 -1.59,-4.02 -5.22,-4.02 -1.03,0 -1.84,0.11 -2.51,0.2 l 1.17,-8.7 h 8.67 v 2.06 z"
               style="fill:#231f20"
               id="XMLID_155_" />
          </g>
          <g
             id="XMLID_150_">
            <path
               inkscape:connector-curvature="0"
               d="m 304.58,676.38 c -0.5,-0.03 -1.14,0 -1.84,0.11 -3.85,0.64 -5.89,3.46 -6.3,6.44 h 0.08 c 0.87,-1.14 2.37,-2.09 4.38,-2.09 3.21,0 5.47,2.32 5.47,5.86 0,3.32 -2.26,6.39 -6.03,6.39 -3.88,0 -6.42,-3.01 -6.42,-7.73 0,-3.57 1.28,-6.39 3.07,-8.17 1.51,-1.48 3.51,-2.4 5.8,-2.68 0.73,-0.11 1.34,-0.14 1.79,-0.14 v 2.01 z m -0.7,10.46 c 0,-2.59 -1.48,-4.16 -3.74,-4.16 -1.48,0 -2.85,0.92 -3.51,2.23 -0.17,0.28 -0.28,0.64 -0.28,1.09 0.06,2.99 1.42,5.19 3.99,5.19 2.12,0.01 3.54,-1.75 3.54,-4.35 z"
               style="fill:#231f20"
               id="XMLID_151_" />
          </g>
          <g
             id="XMLID_145_">
            <path
               inkscape:connector-curvature="0"
               d="m 306,731.12 v 1.62 l -7.89,16.51 h -2.54 l 7.87,-16.04 v -0.06 h -8.87 v -2.04 H 306 z"
               style="fill:#231f20"
               id="XMLID_146_" />
          </g>
          <g
             id="XMLID_140_">
            <path
               inkscape:connector-curvature="0"
               d="m 294.01,811.58 c 0,-2.29 1.37,-3.91 3.6,-4.85 l -0.03,-0.08 c -2.01,-0.95 -2.87,-2.51 -2.87,-4.07 0,-2.87 2.43,-4.83 5.61,-4.83 3.51,0 5.27,2.2 5.27,4.46 0,1.53 -0.75,3.18 -2.98,4.24 v 0.08 c 2.26,0.89 3.65,2.48 3.65,4.69 0,3.15 -2.71,5.27 -6.17,5.27 -3.8,0 -6.08,-2.26 -6.08,-4.91 z m 9.76,-0.11 c 0,-2.2 -1.53,-3.26 -3.99,-3.96 -2.12,0.61 -3.26,2.01 -3.26,3.74 -0.08,1.84 1.31,3.46 3.63,3.46 2.2,0 3.62,-1.37 3.62,-3.24 z m -6.75,-9.07 c 0,1.81 1.37,2.79 3.46,3.35 1.56,-0.53 2.76,-1.65 2.76,-3.29 0,-1.45 -0.86,-2.96 -3.07,-2.96 -2.04,0 -3.15,1.34 -3.15,2.9 z"
               style="fill:#231f20"
               id="XMLID_141_" />
          </g>
          <g
             id="XMLID_136_">
            <path
               inkscape:connector-curvature="0"
               d="m 295.65,853.5 c 0.53,0.06 1.14,0 1.98,-0.08 1.42,-0.19 2.76,-0.78 3.79,-1.76 1.2,-1.09 2.06,-2.68 2.4,-4.83 h -0.08 c -1,1.23 -2.45,1.95 -4.27,1.95 -3.26,0 -5.36,-2.45 -5.36,-5.55 0,-3.43 2.48,-6.44 6.19,-6.44 3.71,0 6,3.01 6,7.64 0,3.99 -1.34,6.78 -3.12,8.51 -1.39,1.37 -3.32,2.2 -5.27,2.43 -0.89,0.14 -1.67,0.17 -2.26,0.14 v -2.01 z m 0.89,-10.44 c 0,2.26 1.37,3.85 3.49,3.85 1.65,0 2.93,-0.81 3.57,-1.9 0.14,-0.22 0.22,-0.5 0.22,-0.89 0,-3.1 -1.14,-5.47 -3.71,-5.47 -2.09,0.01 -3.57,1.85 -3.57,4.41 z"
               style="fill:#231f20"
               id="XMLID_137_" />
          </g>
          <g
             id="XMLID_130_">
            <path
               inkscape:connector-curvature="0"
               d="m 299.56,864.48 h -0.06 l -3.15,1.7 -0.47,-1.87 3.96,-2.12 h 2.09 v 18.13 h -2.37 v -15.84 z"
               style="fill:#231f20"
               id="XMLID_131_" />
            <path
               inkscape:connector-curvature="0"
               d="m 320.5,871.06 c 0,6.17 -2.29,9.57 -6.3,9.57 -3.54,0 -5.94,-3.32 -6,-9.32 0,-6.08 2.62,-9.43 6.3,-9.43 3.83,0.01 6,3.41 6,9.18 z m -9.84,0.28 c 0,4.71 1.45,7.39 3.68,7.39 2.51,0 3.71,-2.93 3.71,-7.56 0,-4.46 -1.14,-7.39 -3.68,-7.39 -2.15,0 -3.71,2.63 -3.71,7.56 z"
               style="fill:#231f20"
               id="XMLID_133_" />
          </g>
          <g
             id="XMLID_125_">
            <path
               inkscape:connector-curvature="0"
               d="m 299.56,889.58 h -0.06 l -3.15,1.7 -0.47,-1.87 3.96,-2.12 h 2.09 v 18.13 h -2.37 v -15.84 z"
               style="fill:#231f20"
               id="XMLID_126_" />
            <path
               inkscape:connector-curvature="0"
               d="m 313.78,889.58 h -0.06 l -3.15,1.7 -0.47,-1.87 3.96,-2.12 h 2.09 v 18.13 h -2.37 v -15.84 z"
               style="fill:#231f20"
               id="XMLID_128_" />
          </g>
          <g
             id="XMLID_120_">
            <path
               inkscape:connector-curvature="0"
               d="m 299.56,967.66 h -0.06 l -3.15,1.7 -0.47,-1.87 3.96,-2.12 h 2.09 v 18.13 h -2.37 v -15.84 z"
               style="fill:#231f20"
               id="XMLID_121_" />
            <path
               inkscape:connector-curvature="0"
               d="M 308.45,983.5 V 982 l 1.92,-1.87 c 4.63,-4.41 6.72,-6.75 6.75,-9.48 0,-1.84 -0.89,-3.54 -3.6,-3.54 -1.65,0 -3.01,0.84 -3.85,1.53 l -0.78,-1.73 c 1.26,-1.06 3.04,-1.84 5.13,-1.84 3.91,0 5.55,2.68 5.55,5.27 0,3.35 -2.43,6.05 -6.25,9.73 l -1.45,1.34 v 0.06 h 8.14 v 2.04 h -11.56 z"
               style="fill:#231f20"
               id="XMLID_123_" />
          </g>
          <g
             id="XMLID_114_">
            <path
               inkscape:connector-curvature="0"
               d="m 299.56,1015.06 h -0.06 l -3.15,1.7 -0.47,-1.87 3.96,-2.12 h 2.09 v 18.13 h -2.37 v -15.84 z"
               style="fill:#231f20"
               id="XMLID_115_" />
            <path
               inkscape:connector-curvature="0"
               d="m 316.04,1030.91 v -4.94 h -8.42 v -1.62 l 8.09,-11.58 h 2.65 v 11.27 h 2.54 v 1.92 h -2.54 v 4.94 h -2.32 z m 0,-6.86 V 1018 c 0,-0.95 0.03,-1.9 0.08,-2.85 h -0.08 c -0.56,1.06 -1,1.84 -1.51,2.68 l -4.43,6.16 v 0.06 h 5.94 z"
               style="fill:#231f20"
               id="XMLID_117_" />
          </g>
          <g
             id="XMLID_110_">
            <path
               inkscape:connector-curvature="0"
               d="m 389.66,114.81 c 0,6.16 -2.29,9.57 -6.3,9.57 -3.54,0 -5.94,-3.32 -6,-9.32 0,-6.08 2.62,-9.43 6.3,-9.43 3.83,0.01 6,3.41 6,9.18 z m -9.84,0.28 c 0,4.71 1.45,7.39 3.68,7.39 2.51,0 3.71,-2.93 3.71,-7.56 0,-4.46 -1.14,-7.39 -3.68,-7.39 -2.15,0 -3.71,2.63 -3.71,7.56 z"
               style="fill:#231f20"
               id="XMLID_111_" />
          </g>
          <g
             id="XMLID_107_">
            <path
               inkscape:connector-curvature="0"
               d="m 382.94,247.66 h -0.06 l -3.15,1.7 -0.47,-1.87 3.96,-2.12 h 2.09 v 18.13 h -2.37 v -15.84 z"
               style="fill:#231f20"
               id="XMLID_108_" />
          </g>
          <g
             id="XMLID_104_">
            <path
               inkscape:connector-curvature="0"
               d="m 377.61,402.94 v -1.51 l 1.92,-1.87 c 4.63,-4.41 6.72,-6.75 6.75,-9.48 0,-1.84 -0.89,-3.54 -3.6,-3.54 -1.65,0 -3.01,0.84 -3.85,1.53 l -0.78,-1.73 c 1.26,-1.06 3.04,-1.84 5.13,-1.84 3.91,0 5.55,2.68 5.55,5.27 0,3.35 -2.43,6.05 -6.25,9.73 l -1.45,1.34 v 0.06 h 8.14 v 2.04 h -11.56 z"
               style="fill:#231f20"
               id="XMLID_105_" />
          </g>
          <g
             id="XMLID_101_">
            <path
               inkscape:connector-curvature="0"
               d="m 378.2,467.04 c 0.7,0.45 2.32,1.14 4.02,1.14 3.15,0 4.13,-2.01 4.1,-3.51 -0.03,-2.54 -2.32,-3.63 -4.69,-3.63 h -1.37 v -1.84 h 1.37 c 1.79,0 4.04,-0.92 4.04,-3.07 0,-1.45 -0.92,-2.73 -3.18,-2.73 -1.45,0 -2.85,0.64 -3.63,1.2 l -0.64,-1.79 c 0.95,-0.7 2.79,-1.4 4.74,-1.4 3.57,0 5.19,2.12 5.19,4.32 0,1.87 -1.12,3.46 -3.35,4.27 v 0.06 c 2.23,0.45 4.04,2.12 4.04,4.66 0,2.9 -2.26,5.44 -6.61,5.44 -2.04,0 -3.82,-0.64 -4.71,-1.23 l 0.68,-1.89 z"
               style="fill:#231f20"
               id="XMLID_102_" />
          </g>
          <g
             id="XMLID_97_">
            <path
               inkscape:connector-curvature="0"
               d="m 385.2,503.33 v -4.94 h -8.42 v -1.62 l 8.09,-11.58 h 2.65 v 11.27 h 2.54 v 1.92 h -2.54 v 4.94 h -2.32 z m 0,-6.86 v -6.05 c 0,-0.95 0.03,-1.9 0.08,-2.85 h -0.08 c -0.56,1.06 -1,1.84 -1.51,2.68 l -4.43,6.16 v 0.06 h 5.94 z"
               style="fill:#231f20"
               id="XMLID_98_" />
          </g>
          <g
             id="XMLID_94_">
            <path
               inkscape:connector-curvature="0"
               d="m 388.43,537.46 h -6.92 l -0.7,4.66 c 0.42,-0.06 0.81,-0.11 1.48,-0.11 1.39,0 2.79,0.31 3.91,0.98 1.42,0.81 2.59,2.37 2.59,4.66 0,3.54 -2.82,6.19 -6.75,6.19 -1.98,0 -3.65,-0.56 -4.52,-1.12 l 0.61,-1.87 c 0.75,0.45 2.23,1 3.88,1 2.32,0 4.3,-1.51 4.3,-3.93 -0.03,-2.34 -1.59,-4.02 -5.22,-4.02 -1.03,0 -1.84,0.11 -2.51,0.2 l 1.17,-8.7 h 8.67 v 2.06 z"
               style="fill:#231f20"
               id="XMLID_95_" />
          </g>
          <g
             id="XMLID_90_">
            <path
               inkscape:connector-curvature="0"
               d="m 387.96,581.74 c -0.5,-0.03 -1.14,0 -1.84,0.11 -3.85,0.64 -5.89,3.46 -6.3,6.44 h 0.08 c 0.87,-1.14 2.37,-2.09 4.38,-2.09 3.21,0 5.47,2.32 5.47,5.86 0,3.32 -2.26,6.39 -6.02,6.39 -3.88,0 -6.42,-3.01 -6.42,-7.73 0,-3.57 1.28,-6.39 3.07,-8.17 1.51,-1.48 3.51,-2.4 5.8,-2.68 0.73,-0.11 1.34,-0.14 1.79,-0.14 v 2.01 z m -0.7,10.46 c 0,-2.59 -1.48,-4.16 -3.74,-4.16 -1.48,0 -2.85,0.92 -3.51,2.23 -0.17,0.28 -0.28,0.64 -0.28,1.09 0.06,2.98 1.42,5.19 3.99,5.19 2.12,0 3.54,-1.76 3.54,-4.35 z"
               style="fill:#231f20"
               id="XMLID_91_" />
          </g>
          <g
             id="XMLID_87_">
            <path
               inkscape:connector-curvature="0"
               d="m 389.38,607.89 v 1.62 l -7.89,16.51 h -2.54 l 7.87,-16.04 v -0.06 h -8.87 v -2.04 h 11.43 z"
               style="fill:#231f20"
               id="XMLID_88_" />
          </g>
          <g
             id="XMLID_82_">
            <path
               inkscape:connector-curvature="0"
               d="m 377.39,649.31 c 0,-2.29 1.37,-3.91 3.6,-4.85 l -0.03,-0.08 c -2.01,-0.95 -2.87,-2.51 -2.87,-4.07 0,-2.87 2.43,-4.83 5.61,-4.83 3.51,0 5.27,2.2 5.27,4.46 0,1.53 -0.75,3.18 -2.98,4.24 v 0.08 c 2.26,0.89 3.65,2.48 3.65,4.69 0,3.15 -2.71,5.27 -6.17,5.27 -3.79,0 -6.08,-2.26 -6.08,-4.91 z m 9.76,-0.11 c 0,-2.2 -1.53,-3.26 -3.99,-3.96 -2.12,0.61 -3.26,2.01 -3.26,3.74 -0.08,1.84 1.31,3.46 3.63,3.46 2.2,-0.01 3.62,-1.37 3.62,-3.24 z m -6.75,-9.07 c 0,1.81 1.37,2.79 3.46,3.35 1.56,-0.53 2.76,-1.65 2.76,-3.29 0,-1.45 -0.86,-2.96 -3.07,-2.96 -2.03,0 -3.15,1.34 -3.15,2.9 z"
               style="fill:#231f20"
               id="XMLID_83_" />
          </g>
          <g
             id="XMLID_78_">
            <path
               inkscape:connector-curvature="0"
               d="m 379.03,685.65 c 0.53,0.06 1.14,0 1.98,-0.08 1.42,-0.2 2.76,-0.78 3.79,-1.76 1.2,-1.09 2.06,-2.68 2.4,-4.83 h -0.08 c -1,1.23 -2.45,1.95 -4.27,1.95 -3.26,0 -5.36,-2.45 -5.36,-5.55 0,-3.43 2.48,-6.44 6.19,-6.44 3.71,0 6,3.01 6,7.64 0,3.99 -1.34,6.78 -3.12,8.51 -1.39,1.37 -3.32,2.2 -5.27,2.43 -0.89,0.14 -1.67,0.17 -2.26,0.14 v -2.01 z m 0.9,-10.43 c 0,2.26 1.37,3.85 3.49,3.85 1.65,0 2.93,-0.81 3.57,-1.9 0.14,-0.22 0.22,-0.5 0.22,-0.89 0,-3.1 -1.14,-5.47 -3.71,-5.47 -2.09,0 -3.57,1.84 -3.57,4.41 z"
               style="fill:#231f20"
               id="XMLID_79_" />
          </g>
          <g
             id="XMLID_72_">
            <path
               inkscape:connector-curvature="0"
               d="m 382.94,732.89 h -0.06 l -3.15,1.7 -0.47,-1.87 3.96,-2.12 h 2.09 v 18.13 h -2.37 v -15.84 z"
               style="fill:#231f20"
               id="XMLID_73_" />
            <path
               inkscape:connector-curvature="0"
               d="m 403.88,739.47 c 0,6.17 -2.29,9.57 -6.3,9.57 -3.54,0 -5.94,-3.32 -6,-9.32 0,-6.08 2.62,-9.43 6.3,-9.43 3.83,0 6,3.41 6,9.18 z m -9.84,0.28 c 0,4.71 1.45,7.39 3.68,7.39 2.51,0 3.71,-2.93 3.71,-7.56 0,-4.46 -1.14,-7.39 -3.68,-7.39 -2.15,0 -3.71,2.62 -3.71,7.56 z"
               style="fill:#231f20"
               id="XMLID_75_" />
          </g>
          <g
             id="XMLID_67_">
            <path
               inkscape:connector-curvature="0"
               d="m 382.94,805.39 h -0.06 l -3.15,1.7 -0.47,-1.87 3.96,-2.12 h 2.09 v 18.13 h -2.37 v -15.84 z"
               style="fill:#231f20"
               id="XMLID_68_" />
            <path
               inkscape:connector-curvature="0"
               d="m 397.16,805.39 h -0.06 l -3.15,1.7 -0.47,-1.87 3.96,-2.12 h 2.09 v 18.13 h -2.37 v -15.84 z"
               style="fill:#231f20"
               id="XMLID_70_" />
          </g>
          <g
             id="XMLID_62_">
            <path
               inkscape:connector-curvature="0"
               d="m 382.94,838.85 h -0.06 l -3.15,1.7 -0.47,-1.87 3.96,-2.12 h 2.09 v 18.13 h -2.37 v -15.84 z"
               style="fill:#231f20"
               id="XMLID_63_" />
            <path
               inkscape:connector-curvature="0"
               d="m 391.83,854.7 v -1.51 l 1.92,-1.87 c 4.63,-4.41 6.72,-6.75 6.75,-9.48 0,-1.84 -0.89,-3.54 -3.6,-3.54 -1.65,0 -3.01,0.84 -3.85,1.53 l -0.78,-1.73 c 1.26,-1.06 3.04,-1.84 5.13,-1.84 3.91,0 5.55,2.68 5.55,5.27 0,3.35 -2.43,6.05 -6.25,9.74 l -1.45,1.34 v 0.06 h 8.15 v 2.04 h -11.57 z"
               style="fill:#231f20"
               id="XMLID_65_" />
          </g>
          <g
             id="XMLID_57_">
            <path
               inkscape:connector-curvature="0"
               d="m 382.94,894.63 h -0.06 l -3.15,1.7 -0.47,-1.87 3.96,-2.12 h 2.09 v 18.13 h -2.37 v -15.84 z"
               style="fill:#231f20"
               id="XMLID_58_" />
            <path
               inkscape:connector-curvature="0"
               d="m 392.42,907.65 c 0.7,0.45 2.32,1.14 4.02,1.14 3.15,0 4.13,-2.01 4.1,-3.51 -0.03,-2.54 -2.32,-3.63 -4.69,-3.63 h -1.37 v -1.84 h 1.37 c 1.79,0 4.04,-0.92 4.04,-3.07 0,-1.45 -0.92,-2.73 -3.18,-2.73 -1.45,0 -2.85,0.64 -3.63,1.2 l -0.64,-1.79 c 0.95,-0.7 2.79,-1.39 4.74,-1.39 3.57,0 5.19,2.12 5.19,4.32 0,1.87 -1.12,3.46 -3.35,4.27 v 0.06 c 2.23,0.45 4.04,2.12 4.04,4.66 0,2.9 -2.26,5.44 -6.61,5.44 -2.04,0 -3.82,-0.64 -4.71,-1.23 l 0.68,-1.9 z"
               style="fill:#231f20"
               id="XMLID_60_" />
          </g>
          <g
             id="XMLID_51_">
            <path
               inkscape:connector-curvature="0"
               d="m 382.94,922.51 h -0.06 l -3.15,1.7 -0.47,-1.87 3.96,-2.12 h 2.09 v 18.13 h -2.37 v -15.84 z"
               style="fill:#231f20"
               id="XMLID_52_" />
            <path
               inkscape:connector-curvature="0"
               d="m 399.42,938.35 v -4.94 H 391 v -1.62 l 8.09,-11.58 h 2.65 v 11.27 h 2.54 v 1.92 h -2.54 v 4.94 h -2.32 z m 0,-6.86 v -6.05 c 0,-0.95 0.03,-1.9 0.08,-2.85 h -0.08 c -0.56,1.06 -1,1.84 -1.51,2.68 l -4.44,6.17 v 0.06 h 5.95 z"
               style="fill:#231f20"
               id="XMLID_54_" />
          </g>
          <g
             id="XMLID_46_">
            <path
               inkscape:connector-curvature="0"
               d="m 382.94,983.86 h -0.06 l -3.15,1.7 -0.47,-1.87 3.96,-2.12 h 2.09 v 18.13 h -2.37 v -15.84 z"
               style="fill:#231f20"
               id="XMLID_47_" />
            <path
               inkscape:connector-curvature="0"
               d="m 402.66,983.63 h -6.92 l -0.7,4.66 c 0.42,-0.06 0.81,-0.11 1.48,-0.11 1.39,0 2.79,0.31 3.91,0.98 1.42,0.81 2.59,2.37 2.59,4.66 0,3.54 -2.82,6.19 -6.75,6.19 -1.98,0 -3.65,-0.56 -4.52,-1.12 l 0.61,-1.87 c 0.75,0.45 2.23,1 3.88,1 2.32,0 4.3,-1.51 4.3,-3.93 -0.03,-2.34 -1.59,-4.02 -5.22,-4.02 -1.03,0 -1.84,0.11 -2.51,0.2 l 1.17,-8.7 h 8.67 v 2.06 z"
               style="fill:#231f20"
               id="XMLID_49_" />
          </g>
          <g
             id="XMLID_40_">
            <path
               inkscape:connector-curvature="0"
               d="m 382.94,1011.75 h -0.06 l -3.15,1.7 -0.47,-1.87 3.96,-2.12 h 2.09 v 18.13 h -2.37 v -15.84 z"
               style="fill:#231f20"
               id="XMLID_41_" />
            <path
               inkscape:connector-curvature="0"
               d="m 402.18,1011.19 c -0.5,-0.03 -1.14,0 -1.84,0.11 -3.85,0.64 -5.89,3.46 -6.3,6.44 h 0.08 c 0.87,-1.14 2.37,-2.09 4.38,-2.09 3.21,0 5.47,2.32 5.47,5.86 0,3.32 -2.26,6.39 -6.03,6.39 -3.88,0 -6.42,-3.01 -6.42,-7.73 0,-3.57 1.28,-6.39 3.07,-8.17 1.51,-1.48 3.51,-2.4 5.8,-2.68 0.73,-0.11 1.34,-0.14 1.79,-0.14 v 2.01 z m -0.7,10.46 c 0,-2.59 -1.48,-4.16 -3.74,-4.16 -1.48,0 -2.85,0.92 -3.51,2.23 -0.17,0.28 -0.28,0.64 -0.28,1.09 0.06,2.99 1.42,5.19 3.99,5.19 2.12,0 3.54,-1.76 3.54,-4.35 z"
               style="fill:#231f20"
               id="XMLID_43_" />
          </g>
        </g>
      </g>
    </g>
  </g>
</svg>
