<?xml version="1.0" encoding="UTF-8" standalone="no"?>
<!-- Created with Inkscape (http://www.inkscape.org/) -->

<svg
   xmlns:dc="http://purl.org/dc/elements/1.1/"
   xmlns:cc="http://creativecommons.org/ns#"
   xmlns:rdf="http://www.w3.org/1999/02/22-rdf-syntax-ns#"
   xmlns:svg="http://www.w3.org/2000/svg"
   xmlns="http://www.w3.org/2000/svg"
   xmlns:sodipodi="http://sodipodi.sourceforge.net/DTD/sodipodi-0.dtd"
   xmlns:inkscape="http://www.inkscape.org/namespaces/inkscape"
   width="565"
   height="904"
   id="svg3275"
   version="1.1"
   inkscape:version="0.48.5 r10040"
   sodipodi:docname="Новый документ 2">
  <defs
     id="defs3277" />
  <sodipodi:namedview
     id="base"
     pagecolor="#ffffff"
     bordercolor="#666666"
     borderopacity="1.0"
     inkscape:pageopacity="0.0"
     inkscape:pageshadow="2"
     inkscape:zoom="0.49497475"
     inkscape:cx="883.46288"
     inkscape:cy="386.25371"
     inkscape:document-units="px"
     inkscape:current-layer="layer1"
     showgrid="false"
     inkscape:window-width="1920"
     inkscape:window-height="1020"
     inkscape:window-x="0"
     inkscape:window-y="31"
     inkscape:window-maximized="1" />
  <metadata
     id="metadata3280">
    <rdf:RDF>
      <cc:Work
         rdf:about="">
        <dc:format>image/svg+xml</dc:format>
        <dc:type
           rdf:resource="http://purl.org/dc/dcmitype/StillImage" />
        <dc:title></dc:title>
      </cc:Work>
    </rdf:RDF>
  </metadata>
  <g
     inkscape:label="Layer 1"
     inkscape:groupmode="layer"
     id="layer1"
     transform="translate(0,-148.36218)">
    <g
       transform="matrix(0.80589868,0,0,0.822487,-69.248096,141.94546)"
       id="g3076">
      <path
         d="m 125,922.5 h 623.2 v 136.4 H 125 z"
         id="BottomSection"
         inkscape:connector-curvature="0"
         style="fill:#f2f2f2" />
      <path
         d="m 125.5,658.8 622.4,0 3,-161.3 -622.3,0 z"
         id="MiddleSection"
         inkscape:connector-curvature="0"
         style="fill:#f2f2f2" />
      <path
         d="M 125.5,62 H 747.8 V 234.9 H 125.5 z"
         id="TopSection"
         inkscape:connector-curvature="0"
         style="fill:#f2f2f2" />
      <g
         style="fill:#124c59"
         id="ColumnTitles">
        <path
           inkscape:connector-curvature="0"
           id="path10"
           d="m 236.7,26.6 c 0,6.1 -1.7,10.8 -5.2,14.1 -3.5,3.3 -8.5,4.9 -15.1,4.9 l -10.5,0 0,-37.3 11.7,0 c 6.1,0 10.8,1.6 14.2,4.8 3.2,3.3 4.9,7.8 4.9,13.5 m -8.2,0.2 c 0,-8 -3.5,-12 -10.6,-12 l -4.2,0 0,24.3 3.4,0 c 7.6,0 11.4,-4.1 11.4,-12.3" />
        <path
           inkscape:connector-curvature="0"
           id="path12"
           d="M 361.7,45.6 V 8.3 h 7.9 v 37.3 h -7.9 z" />
        <path
           inkscape:connector-curvature="0"
           id="path14"
           d="m 519.3,35.3 c 0,3.4 -1.2,6 -3.6,8 -2.4,1.9 -5.8,2.9 -10.1,2.9 -4,0 -7.5,-0.7 -10.5,-2.2 l 0,-7.3 c 2.5,1.1 4.6,1.9 6.4,2.4 1.7,0.5 3.3,0.7 4.8,0.7 1.7,0 3.1,-0.3 4,-1 0.9,-0.7 1.4,-1.6 1.4,-3 0,-0.7 -0.2,-1.4 -0.6,-1.9 -0.4,-0.6 -1,-1.1 -1.8,-1.6 -0.8,-0.5 -2.4,-1.4 -4.8,-2.5 -2.3,-1.1 -4,-2.1 -5.1,-3.1 -1.1,-1 -2,-2.1 -2.7,-3.4 -0.7,-1.3 -1,-2.8 -1,-4.6 0,-3.3 1.1,-5.9 3.4,-7.8 2.2,-1.9 5.3,-2.8 9.3,-2.8 1.9,0 3.8,0.2 5.5,0.7 1.8,0.5 3.6,1.1 5.5,1.9 l -2.5,6.1 c -2,-0.8 -3.6,-1.4 -4.9,-1.7 -1.3,-0.3 -2.6,-0.5 -3.8,-0.5 -1.5,0 -2.6,0.3 -3.4,1 -0.8,0.7 -1.2,1.6 -1.2,2.7 0,0.7 0.2,1.3 0.5,1.8 0.3,0.5 0.8,1 1.5,1.5 0.7,0.5 2.4,1.4 5,2.6 3.5,1.7 5.9,3.3 7.2,5 0.9,1.6 1.5,3.6 1.5,6.1" />
        <path
           inkscape:connector-curvature="0"
           id="path16"
           d="m 652.1,14.4 c -3,0 -5.3,1.1 -6.9,3.4 -1.6,2.2 -2.4,5.3 -2.4,9.3 0,8.3 3.1,12.5 9.4,12.5 2.6,0 5.8,-0.7 9.5,-2 l 0,6.6 c -3.1,1.3 -6.5,1.9 -10.2,1.9 -5.4,0 -9.6,-1.6 -12.4,-4.9 -2.9,-3.3 -4.3,-8 -4.3,-14.2 0,-3.9 0.7,-7.3 2.1,-10.2 1.4,-2.9 3.4,-5.1 6.1,-6.7 2.6,-1.6 5.7,-2.3 9.3,-2.3 3.6,0 7.3,0.9 10.9,2.6 l -2.5,6.4 c -1.4,-0.7 -2.8,-1.2 -4.2,-1.7 -1.7,-0.5 -3.1,-0.7 -4.4,-0.7" />
      </g>
      <path
         inkscape:connector-curvature="0"
         style="fill:#e6e6e6"
         id="InnerGrid"
         d="m 747.8,236.5 v -3 H 650.3 V 61.3 h -3 V 233.5 H 508.7 V 61.3 h -3 V 233.5 H 367.1 V 61.3 h -3 V 233.5 H 225.6 V 61.3 h -3 v 172.2 h -97 v 3 h 97 V 496 H 123 v 3 h 99.5 v 78 H 123 v 3 h 99.5 v 78 h -97.7 v 3 h 97.7 v 260 h -97 v 3 h 97 v 136 h 3 V 924 h 138.6 v 136 h 3 V 924 h 138.6 v 136 h 3 V 924 h 138.6 v 136 h 3 V 924 h 97.5 v -3 H 650.3 V 661 h 97.4 v -3 h -97.4 v -78 h 97.5 v -3 h -97.5 v -78 h 97.4 v -3 H 650.3 V 236.5 h 97.5 z m -242.1,0 V 496 H 367.1 V 236.5 H 505.7 z M 367.1,577 v -78 h 138.6 v 78 H 367.1 z m 138.6,3 v 78 H 367.1 V 580 H 505.7 z M 225.6,236.5 H 364.2 V 496 H 225.6 V 236.5 z m 0,262.5 h 138.6 v 78 H 225.6 v -78 z m 0,81 h 138.6 v 78 H 225.6 v -78 z m 0,341 V 661 H 364.2 V 921 H 225.6 z m 141.5,0 V 661 H 505.7 V 921 H 367.1 z m 280.2,0 H 508.7 V 661 h 138.6 v 260 z m 0,-263 H 508.7 v -78 h 138.6 v 78 z m 0,-81 H 508.7 v -78 h 138.6 v 78 z m 0,-81 H 508.7 V 236.5 H 647.3 V 496 z" />
      <path
         inkscape:connector-curvature="0"
         style="fill:#31708f"
         id="OuterGrid"
         d="m 748.92003,1062.48 -627.40002,0 0,-1001.300013 627.30002,0 0,1001.300013 z m -623.40002,-4 619.30002,0 0,-993.300013 -619.30002,0 0,993.300013 z" />
      <g
         id="ScoresRight">
        <g
           style="fill:#124c59"
           id="g21">
          <path
             inkscape:connector-curvature="0"
             id="path23"
             d="m 772.4,73.8 c 0,3.5 -0.7,6.1 -2.2,7.9 -1.5,1.8 -3.7,2.6 -6.7,2.6 -1.1,0 -1.9,-0.1 -2.4,-0.2 l 0,-3 c 0.7,0.2 1.4,0.3 2.1,0.3 1.3,0 2.3,-0.2 3.1,-0.6 0.8,-0.4 1.4,-1 1.9,-1.7 0.4,-0.8 0.7,-1.9 0.7,-3.3 l -0.1,0 c -0.5,0.8 -1,1.3 -1.6,1.6 -0.6,0.3 -1.4,0.5 -2.3,0.5 -1.6,0 -2.8,-0.5 -3.7,-1.5 -0.9,-1 -1.3,-2.4 -1.3,-4.2 0,-1.9 0.5,-3.4 1.6,-4.5 1.1,-1.1 2.6,-1.7 4.4,-1.7 1.3,0 2.5,0.3 3.5,0.9 1,0.6 1.7,1.5 2.3,2.7 0.4,1.2 0.7,2.6 0.7,4.2 M 765.9,69 c -0.8,0 -1.4,0.3 -1.8,0.8 -0.4,0.5 -0.7,1.3 -0.7,2.3 0,0.9 0.2,1.5 0.6,2.1 0.4,0.5 1,0.8 1.8,0.8 0.8,0 1.4,-0.3 2,-0.8 0.5,-0.5 0.8,-1.1 0.8,-1.7 0,-1 -0.3,-1.8 -0.8,-2.5 -0.5,-0.7 -1.1,-1 -1.9,-1" />
          <path
             inkscape:connector-curvature="0"
             id="path25"
             d="m 786.6,73.8 c 0,3.5 -0.7,6.1 -2.2,7.9 -1.5,1.8 -3.7,2.6 -6.7,2.6 -1.1,0 -1.9,-0.1 -2.4,-0.2 l 0,-3 c 0.7,0.2 1.4,0.3 2.1,0.3 1.3,0 2.3,-0.2 3.1,-0.6 0.8,-0.4 1.4,-1 1.9,-1.7 0.4,-0.8 0.7,-1.9 0.7,-3.3 l -0.1,0 c -0.5,0.8 -1,1.3 -1.6,1.6 -0.6,0.3 -1.4,0.5 -2.3,0.5 -1.6,0 -2.8,-0.5 -3.7,-1.5 -0.9,-1 -1.3,-2.4 -1.3,-4.2 0,-1.9 0.5,-3.4 1.6,-4.5 1.1,-1.1 2.6,-1.7 4.4,-1.7 1.3,0 2.5,0.3 3.5,0.9 1,0.6 1.7,1.5 2.3,2.7 0.4,1.2 0.7,2.6 0.7,4.2 M 780.1,69 c -0.8,0 -1.4,0.3 -1.8,0.8 -0.4,0.5 -0.7,1.3 -0.7,2.3 0,0.9 0.2,1.5 0.6,2.1 0.4,0.5 1,0.8 1.8,0.8 0.8,0 1.4,-0.3 2,-0.8 0.5,-0.5 0.8,-1.1 0.8,-1.7 0,-1 -0.3,-1.8 -0.8,-2.5 -0.5,-0.7 -1.1,-1 -1.9,-1" />
          <path
             inkscape:connector-curvature="0"
             id="path27"
             d="m 772.4,221.7 c 0,3.5 -0.7,6.1 -2.2,7.9 -1.5,1.8 -3.7,2.6 -6.7,2.6 -1.1,0 -1.9,-0.1 -2.4,-0.2 l 0,-3 c 0.7,0.2 1.4,0.3 2.1,0.3 1.3,0 2.3,-0.2 3.1,-0.6 0.8,-0.4 1.4,-1 1.9,-1.7 0.4,-0.8 0.7,-1.9 0.7,-3.3 l -0.1,0 c -0.5,0.8 -1,1.3 -1.6,1.6 -0.6,0.3 -1.4,0.5 -2.3,0.5 -1.6,0 -2.8,-0.5 -3.7,-1.5 -0.9,-1 -1.3,-2.4 -1.3,-4.2 0,-1.9 0.5,-3.4 1.6,-4.5 1.1,-1.1 2.6,-1.7 4.4,-1.7 1.3,0 2.5,0.3 3.5,0.9 1,0.6 1.7,1.5 2.3,2.7 0.4,1.2 0.7,2.6 0.7,4.2 m -6.5,-4.8 c -0.8,0 -1.4,0.3 -1.8,0.8 -0.4,0.5 -0.7,1.3 -0.7,2.3 0,0.9 0.2,1.5 0.6,2.1 0.4,0.5 1,0.8 1.8,0.8 0.8,0 1.4,-0.3 2,-0.8 0.5,-0.5 0.8,-1.1 0.8,-1.7 0,-1 -0.3,-1.8 -0.8,-2.5 -0.5,-0.7 -1.1,-1 -1.9,-1" />
          <path
             inkscape:connector-curvature="0"
             id="path29"
             d="m 780.6,220.5 c 1.7,0 3.1,0.5 4.1,1.5 1,1 1.5,2.3 1.5,4 0,2 -0.6,3.5 -1.8,4.6 -1.2,1.1 -3,1.6 -5.3,1.6 -2,0 -3.6,-0.3 -4.8,-1 l 0,-3.2 c 0.6,0.3 1.4,0.6 2.2,0.8 0.9,0.2 1.7,0.3 2.4,0.3 2.3,0 3.5,-0.9 3.5,-2.8 0,-1.8 -1.2,-2.7 -3.6,-2.7 -0.4,0 -0.9,0 -1.4,0.1 -0.5,0.1 -0.9,0.2 -1.3,0.3 l -1.5,-0.8 0.7,-9.1 9.7,0 0,3.2 -6.4,0 -0.3,3.5 0.4,-0.1 c 0.6,-0.1 1.2,-0.2 1.9,-0.2" />
          <path
             inkscape:connector-curvature="0"
             id="path31"
             d="m 772.4,310.9 c 0,3.5 -0.7,6.1 -2.2,7.9 -1.5,1.8 -3.7,2.6 -6.7,2.6 -1.1,0 -1.9,-0.1 -2.4,-0.2 l 0,-3 c 0.7,0.2 1.4,0.3 2.1,0.3 1.3,0 2.3,-0.2 3.1,-0.6 0.8,-0.4 1.4,-1 1.9,-1.7 0.4,-0.8 0.7,-1.9 0.7,-3.3 l -0.1,0 c -0.5,0.8 -1,1.3 -1.6,1.6 -0.6,0.3 -1.4,0.5 -2.3,0.5 -1.6,0 -2.8,-0.5 -3.7,-1.5 -0.9,-1 -1.3,-2.4 -1.3,-4.2 0,-1.9 0.5,-3.4 1.6,-4.5 1.1,-1.1 2.6,-1.7 4.4,-1.7 1.3,0 2.5,0.3 3.5,0.9 1,0.6 1.7,1.5 2.3,2.7 0.4,1.1 0.7,2.5 0.7,4.2 m -6.5,-4.8 c -0.8,0 -1.4,0.3 -1.8,0.8 -0.4,0.5 -0.7,1.3 -0.7,2.3 0,0.9 0.2,1.5 0.6,2.1 0.4,0.5 1,0.8 1.8,0.8 0.8,0 1.4,-0.3 2,-0.8 0.5,-0.5 0.8,-1.1 0.8,-1.7 0,-1 -0.3,-1.8 -0.8,-2.5 -0.5,-0.7 -1.1,-1 -1.9,-1" />
          <path
             inkscape:connector-curvature="0"
             id="path33"
             d="m 786.5,312.2 c 0,3.1 -0.5,5.4 -1.5,6.9 -1,1.5 -2.6,2.2 -4.7,2.2 -2.1,0 -3.6,-0.8 -4.7,-2.3 -1,-1.5 -1.6,-3.8 -1.6,-6.8 0,-3.1 0.5,-5.5 1.5,-7 1,-1.5 2.6,-2.2 4.7,-2.2 2.1,0 3.6,0.8 4.7,2.3 1.1,1.5 1.6,3.9 1.6,6.9 m -8.7,0 c 0,2.2 0.2,3.8 0.6,4.7 0.4,0.9 1,1.4 1.9,1.4 0.9,0 1.5,-0.5 1.9,-1.4 0.4,-1 0.6,-2.5 0.6,-4.7 0,-2.2 -0.2,-3.8 -0.6,-4.7 -0.4,-1 -1,-1.4 -1.9,-1.4 -0.9,0 -1.5,0.5 -1.9,1.4 -0.4,0.9 -0.6,2.5 -0.6,4.7" />
          <path
             inkscape:connector-curvature="0"
             id="path35"
             d="m 766.1,356.9 c 1.7,0 3.1,0.4 4.1,1.2 1,0.8 1.6,1.8 1.6,3.1 0,0.9 -0.3,1.7 -0.8,2.4 -0.5,0.7 -1.3,1.3 -2.4,1.9 1.3,0.7 2.3,1.5 2.9,2.2 0.6,0.8 0.9,1.6 0.9,2.6 0,1.5 -0.6,2.6 -1.7,3.5 -1.1,0.9 -2.7,1.3 -4.5,1.3 -2,0 -3.5,-0.4 -4.6,-1.2 -1.1,-0.8 -1.7,-2 -1.7,-3.5 0,-1 0.3,-1.9 0.8,-2.7 0.5,-0.8 1.4,-1.5 2.6,-2.1 -1,-0.6 -1.8,-1.3 -2.2,-2.1 -0.4,-0.8 -0.7,-1.5 -0.7,-2.4 0,-1.3 0.5,-2.3 1.6,-3.1 1,-0.7 2.4,-1.1 4.1,-1.1 m -2.8,13.3 c 0,0.7 0.2,1.2 0.7,1.6 0.5,0.4 1.2,0.6 2,0.6 0.9,0 1.6,-0.2 2.1,-0.6 0.5,-0.4 0.7,-0.9 0.7,-1.6 0,-0.5 -0.2,-1.1 -0.7,-1.5 -0.5,-0.5 -1.2,-1 -2.2,-1.5 -1.7,0.8 -2.6,1.8 -2.6,3 m 2.8,-10.6 c -0.6,0 -1.2,0.2 -1.6,0.5 -0.4,0.3 -0.6,0.8 -0.6,1.3 0,0.5 0.2,0.9 0.5,1.3 0.3,0.4 0.9,0.8 1.7,1.2 0.8,-0.4 1.4,-0.8 1.7,-1.1 0.3,-0.4 0.5,-0.8 0.5,-1.4 0,-0.6 -0.2,-1 -0.6,-1.3 -0.5,-0.3 -1,-0.5 -1.6,-0.5" />
          <path
             inkscape:connector-curvature="0"
             id="path37"
             d="m 787,371.3 -2.1,0 0,3.7 -3.7,0 0,-3.7 -7.6,0 0,-2.6 7.8,-11.5 3.5,0 0,11.2 2.1,0 0,2.9 m -5.8,-3 0,-3 c 0,-0.5 0,-1.2 0.1,-2.2 0,-1 0.1,-1.5 0.1,-1.7 l -0.1,0 c -0.3,0.7 -0.7,1.3 -1.1,2 l -3.3,4.9 4.3,0" />
          <path
             inkscape:connector-curvature="0"
             id="path39"
             d="m 766.1,401.8 c 1.7,0 3.1,0.4 4.1,1.2 1,0.8 1.6,1.8 1.6,3.1 0,0.9 -0.3,1.7 -0.8,2.4 -0.5,0.7 -1.3,1.3 -2.4,1.9 1.3,0.7 2.3,1.5 2.9,2.2 0.6,0.8 0.9,1.6 0.9,2.6 0,1.5 -0.6,2.6 -1.7,3.5 -1.1,0.9 -2.7,1.3 -4.5,1.3 -2,0 -3.5,-0.4 -4.6,-1.2 -1.1,-0.8 -1.7,-2 -1.7,-3.5 0,-1 0.3,-1.9 0.8,-2.7 0.5,-0.8 1.4,-1.5 2.6,-2.1 -1,-0.6 -1.8,-1.3 -2.2,-2.1 -0.4,-0.8 -0.7,-1.5 -0.7,-2.4 0,-1.3 0.5,-2.3 1.6,-3.1 1,-0.7 2.4,-1.1 4.1,-1.1 m -2.8,13.3 c 0,0.7 0.2,1.2 0.7,1.6 0.5,0.4 1.2,0.6 2,0.6 0.9,0 1.6,-0.2 2.1,-0.6 0.5,-0.4 0.7,-0.9 0.7,-1.6 0,-0.5 -0.2,-1.1 -0.7,-1.5 -0.5,-0.5 -1.2,-1 -2.2,-1.5 -1.7,0.8 -2.6,1.8 -2.6,3 m 2.8,-10.6 c -0.6,0 -1.2,0.2 -1.6,0.5 -0.4,0.3 -0.6,0.8 -0.6,1.3 0,0.5 0.2,0.9 0.5,1.3 0.3,0.4 0.9,0.8 1.7,1.2 0.8,-0.4 1.4,-0.8 1.7,-1.1 0.3,-0.4 0.5,-0.8 0.5,-1.4 0,-0.6 -0.2,-1 -0.6,-1.3 -0.5,-0.3 -1,-0.5 -1.6,-0.5" />
          <path
             inkscape:connector-curvature="0"
             id="path41"
             d="m 786.5,410.9 c 0,3.1 -0.5,5.4 -1.5,6.9 -1,1.5 -2.6,2.2 -4.7,2.2 -2.1,0 -3.6,-0.8 -4.7,-2.3 -1,-1.5 -1.6,-3.8 -1.6,-6.8 0,-3.1 0.5,-5.5 1.5,-7 1,-1.5 2.6,-2.2 4.7,-2.2 2.1,0 3.6,0.8 4.7,2.3 1.1,1.5 1.6,3.9 1.6,6.9 m -8.7,0 c 0,2.2 0.2,3.8 0.6,4.7 0.4,0.9 1,1.4 1.9,1.4 0.9,0 1.5,-0.5 1.9,-1.4 0.4,-1 0.6,-2.5 0.6,-4.7 0,-2.2 -0.2,-3.8 -0.6,-4.7 -0.4,-1 -1,-1.4 -1.9,-1.4 -0.9,0 -1.5,0.5 -1.9,1.4 -0.4,1 -0.6,2.5 -0.6,4.7" />
          <path
             inkscape:connector-curvature="0"
             id="path43"
             d="m 761.7,466.4 6.7,-14.6 h -8.8 v -3.2 h 12.8 v 2.4 l -6.8,15.5 h -3.9 z" />
          <path
             inkscape:connector-curvature="0"
             id="path45"
             d="m 786.5,457.5 c 0,3.1 -0.5,5.4 -1.5,6.9 -1,1.5 -2.6,2.2 -4.7,2.2 -2.1,0 -3.6,-0.8 -4.7,-2.3 -1,-1.5 -1.6,-3.8 -1.6,-6.8 0,-3.1 0.5,-5.5 1.5,-7 1,-1.5 2.6,-2.2 4.7,-2.2 2.1,0 3.6,0.8 4.7,2.3 1.1,1.5 1.6,3.9 1.6,6.9 m -8.7,0 c 0,2.2 0.2,3.8 0.6,4.7 0.4,0.9 1,1.4 1.9,1.4 0.9,0 1.5,-0.5 1.9,-1.4 0.4,-1 0.6,-2.5 0.6,-4.7 0,-2.2 -0.2,-3.8 -0.6,-4.7 -0.4,-1 -1,-1.4 -1.9,-1.4 -0.9,0 -1.5,0.5 -1.9,1.4 -0.4,1 -0.6,2.5 -0.6,4.7" />
          <path
             inkscape:connector-curvature="0"
             id="path47"
             d="m 759.8,527.8 c 0,-3.5 0.7,-6.2 2.2,-7.9 1.5,-1.7 3.7,-2.6 6.7,-2.6 1,0 1.8,0.1 2.4,0.2 l 0,3 c -0.7,-0.2 -1.4,-0.2 -2.1,-0.2 -1.3,0 -2.3,0.2 -3.2,0.6 -0.8,0.4 -1.4,1 -1.8,1.7 -0.4,0.8 -0.6,1.9 -0.7,3.3 l 0.2,0 c 0.8,-1.4 2.1,-2.1 3.9,-2.1 1.6,0 2.8,0.5 3.7,1.5 0.9,1 1.4,2.4 1.4,4.2 0,1.9 -0.5,3.4 -1.6,4.5 -1.1,1.1 -2.6,1.7 -4.5,1.7 -1.3,0 -2.5,-0.3 -3.4,-0.9 -1,-0.6 -1.7,-1.5 -2.3,-2.7 -0.6,-1.2 -0.9,-2.7 -0.9,-4.3 m 6.5,4.8 c 0.8,0 1.4,-0.3 1.9,-0.8 0.4,-0.5 0.6,-1.3 0.6,-2.3 0,-0.9 -0.2,-1.6 -0.6,-2.1 -0.4,-0.5 -1,-0.8 -1.8,-0.8 -0.8,0 -1.4,0.2 -2,0.7 -0.5,0.5 -0.8,1.1 -0.8,1.7 0,1 0.3,1.8 0.8,2.5 0.5,0.8 1.1,1.1 1.9,1.1" />
          <path
             inkscape:connector-curvature="0"
             id="path49"
             d="m 786.5,526.4 c 0,3.1 -0.5,5.4 -1.5,6.9 -1,1.5 -2.6,2.2 -4.7,2.2 -2.1,0 -3.6,-0.8 -4.7,-2.3 -1,-1.5 -1.6,-3.8 -1.6,-6.8 0,-3.1 0.5,-5.5 1.5,-7 1,-1.5 2.6,-2.2 4.7,-2.2 2.1,0 3.6,0.8 4.7,2.3 1.1,1.5 1.6,3.9 1.6,6.9 m -8.7,0 c 0,2.2 0.2,3.8 0.6,4.7 0.4,0.9 1,1.4 1.9,1.4 0.9,0 1.5,-0.5 1.9,-1.4 0.4,-1 0.6,-2.5 0.6,-4.7 0,-2.2 -0.2,-3.8 -0.6,-4.7 -0.4,-1 -1,-1.4 -1.9,-1.4 -0.9,0 -1.5,0.5 -1.9,1.4 -0.4,1 -0.6,2.6 -0.6,4.7" />
          <path
             inkscape:connector-curvature="0"
             id="path51"
             d="m 766.5,575.8 c 1.7,0 3.1,0.5 4.1,1.5 1,1 1.5,2.3 1.5,4 0,2 -0.6,3.5 -1.8,4.6 -1.2,1.1 -3,1.6 -5.3,1.6 -2,0 -3.6,-0.3 -4.8,-1 l 0,-3.3 c 0.6,0.3 1.4,0.6 2.2,0.8 0.9,0.2 1.7,0.3 2.4,0.3 2.3,0 3.5,-0.9 3.5,-2.8 0,-1.8 -1.2,-2.7 -3.6,-2.7 -0.4,0 -0.9,0 -1.4,0.1 -0.5,0.1 -0.9,0.2 -1.3,0.3 l -1.5,-0.8 0.7,-9.1 9.7,0 0,3.2 -6.4,0 -0.3,3.5 0.4,-0.1 c 0.5,0 1.1,-0.1 1.9,-0.1" />
          <path
             inkscape:connector-curvature="0"
             id="path53"
             d="m 786.5,578.3 c 0,3.1 -0.5,5.4 -1.5,6.9 -1,1.5 -2.6,2.2 -4.7,2.2 -2.1,0 -3.6,-0.8 -4.7,-2.3 -1,-1.5 -1.6,-3.8 -1.6,-6.8 0,-3.1 0.5,-5.5 1.5,-7 1,-1.5 2.6,-2.2 4.7,-2.2 2.1,0 3.6,0.8 4.7,2.3 1.1,1.5 1.6,3.9 1.6,6.9 m -8.7,0 c 0,2.2 0.2,3.8 0.6,4.7 0.4,0.9 1,1.4 1.9,1.4 0.9,0 1.5,-0.5 1.9,-1.4 0.4,-1 0.6,-2.5 0.6,-4.7 0,-2.2 -0.2,-3.8 -0.6,-4.7 -0.4,-1 -1,-1.4 -1.9,-1.4 -0.9,0 -1.5,0.5 -1.9,1.4 -0.4,1 -0.6,2.5 -0.6,4.7" />
          <path
             inkscape:connector-curvature="0"
             id="path55"
             d="m 772.8,627.4 h -2.1 v 3.7 H 767 v -3.7 h -7.6 v -2.6 l 7.8,-11.5 h 3.5 v 11.2 h 2.1 v 2.9 z m -5.8,-2.9 v -3 c 0,-0.5 0,-1.2 0.1,-2.2 0,-1 0.1,-1.5 0.1,-1.7 h -0.1 c -0.3,0.7 -0.7,1.3 -1.1,2 l -3.3,4.9 h 4.3 z" />
          <path
             inkscape:connector-curvature="0"
             id="path57"
             d="m 786.5,622.2 c 0,3.1 -0.5,5.4 -1.5,6.9 -1,1.5 -2.6,2.2 -4.7,2.2 -2.1,0 -3.6,-0.8 -4.7,-2.3 -1.1,-1.5 -1.6,-3.8 -1.6,-6.8 0,-3.1 0.5,-5.5 1.5,-7 1,-1.5 2.6,-2.2 4.7,-2.2 2.1,0 3.6,0.8 4.7,2.3 1.1,1.6 1.6,3.9 1.6,6.9 m -8.7,0 c 0,2.2 0.2,3.8 0.6,4.7 0.4,0.9 1,1.4 1.9,1.4 0.9,0 1.5,-0.5 1.9,-1.4 0.4,-1 0.6,-2.5 0.6,-4.7 0,-2.2 -0.2,-3.8 -0.6,-4.7 -0.4,-1 -1,-1.4 -1.9,-1.4 -0.9,0 -1.5,0.5 -1.9,1.4 -0.4,0.9 -0.6,2.5 -0.6,4.7" />
          <path
             inkscape:connector-curvature="0"
             id="path59"
             d="m 771.7,691.9 c 0,1.1 -0.3,2.1 -1,2.8 -0.7,0.7 -1.6,1.3 -2.8,1.6 l 0,0.1 c 1.4,0.2 2.5,0.6 3.3,1.3 0.7,0.7 1.1,1.6 1.1,2.8 0,1.7 -0.6,3.1 -1.9,4 -1.2,1 -3,1.4 -5.3,1.4 -1.9,0 -3.7,-0.3 -5.2,-1 l 0,-3.2 c 0.7,0.3 1.5,0.6 2.3,0.9 0.8,0.3 1.7,0.3 2.5,0.3 1.2,0 2.2,-0.2 2.8,-0.6 0.6,-0.4 0.9,-1.1 0.9,-2 0,-0.8 -0.3,-1.4 -1,-1.8 -0.7,-0.4 -1.8,-0.5 -3.3,-0.5 l -1.4,0 0,-2.9 1.4,0 c 1.4,0 2.4,-0.2 3,-0.5 0.6,-0.3 1,-1 1,-1.9 0,-1.4 -0.8,-2 -2.5,-2 -0.6,0 -1.2,0.1 -1.8,0.3 -0.6,0.2 -1.3,0.5 -2,1 l -1.7,-2.6 c 1.6,-1.2 3.6,-1.8 5.8,-1.8 1.8,0 3.3,0.4 4.4,1.1 0.9,0.8 1.4,1.9 1.4,3.2" />
          <path
             inkscape:connector-curvature="0"
             id="path61"
             d="m 786.5,696.8 c 0,3.1 -0.5,5.4 -1.5,6.9 -1,1.5 -2.6,2.2 -4.7,2.2 -2.1,0 -3.6,-0.8 -4.7,-2.3 -1.1,-1.5 -1.6,-3.8 -1.6,-6.8 0,-3.1 0.5,-5.5 1.5,-7 1,-1.5 2.6,-2.2 4.7,-2.2 2.1,0 3.6,0.8 4.7,2.3 1.1,1.5 1.6,3.9 1.6,6.9 m -8.7,0 c 0,2.2 0.2,3.8 0.6,4.7 0.4,0.9 1,1.4 1.9,1.4 0.9,0 1.5,-0.5 1.9,-1.4 0.4,-1 0.6,-2.5 0.6,-4.7 0,-2.2 -0.2,-3.8 -0.6,-4.7 -0.4,-1 -1,-1.4 -1.9,-1.4 -0.9,0 -1.5,0.5 -1.9,1.4 -0.4,1 -0.6,2.6 -0.6,4.7" />
          <path
             inkscape:connector-curvature="0"
             id="path63"
             d="m 772.4,769.7 -12.4,0 0,-2.6 4.5,-4.5 c 1.3,-1.4 2.2,-2.3 2.6,-2.8 0.4,-0.5 0.7,-1 0.9,-1.5 0.2,-0.4 0.3,-0.9 0.3,-1.4 0,-0.7 -0.2,-1.2 -0.6,-1.6 -0.4,-0.3 -0.9,-0.5 -1.6,-0.5 -0.7,0 -1.4,0.2 -2,0.5 -0.7,0.3 -1.3,0.8 -2,1.4 l -2.1,-2.4 c 0.9,-0.7 1.6,-1.3 2.2,-1.6 0.6,-0.3 1.2,-0.5 1.9,-0.7 0.7,-0.2 1.4,-0.3 2.3,-0.3 1.1,0 2.1,0.2 3,0.6 0.9,0.4 1.5,1 2,1.7 0.5,0.7 0.7,1.6 0.7,2.5 0,0.8 -0.1,1.6 -0.4,2.3 -0.3,0.7 -0.7,1.5 -1.3,2.2 -0.6,0.8 -1.7,1.8 -3.2,3.2 l -2.3,2.2 0,0.2 7.8,0 0,3.1 z" />
          <path
             inkscape:connector-curvature="0"
             id="path65"
             d="m 786.5,760.8 c 0,3.1 -0.5,5.4 -1.5,6.9 -1,1.5 -2.6,2.2 -4.7,2.2 -2.1,0 -3.6,-0.8 -4.7,-2.3 -1.1,-1.5 -1.6,-3.8 -1.6,-6.8 0,-3.1 0.5,-5.5 1.5,-7 1,-1.5 2.6,-2.2 4.7,-2.2 2.1,0 3.6,0.8 4.7,2.3 1.1,1.5 1.6,3.9 1.6,6.9 m -8.7,0 c 0,2.2 0.2,3.8 0.6,4.7 0.4,0.9 1,1.4 1.9,1.4 0.9,0 1.5,-0.5 1.9,-1.4 0.4,-1 0.6,-2.5 0.6,-4.7 0,-2.2 -0.2,-3.8 -0.6,-4.7 -0.4,-1 -1,-1.4 -1.9,-1.4 -0.9,0 -1.5,0.5 -1.9,1.4 -0.4,1 -0.6,2.5 -0.6,4.7" />
          <path
             inkscape:connector-curvature="0"
             id="path67"
             d="m 769.3,820.2 -3.8,0 0,-10.3 0,-1.7 0.1,-1.9 c -0.6,0.6 -1.1,1 -1.3,1.2 l -2.1,1.6 -1.8,-2.3 5.8,-4.6 3.1,0 0,18" />
          <path
             inkscape:connector-curvature="0"
             id="path69"
             d="m 774,812.7 c 0,-3.5 0.7,-6.2 2.2,-7.9 1.5,-1.7 3.7,-2.6 6.7,-2.6 1,0 1.8,0.1 2.4,0.2 l 0,3 c -0.7,-0.2 -1.4,-0.2 -2.1,-0.2 -1.3,0 -2.3,0.2 -3.2,0.6 -0.8,0.4 -1.4,1 -1.8,1.7 -0.4,0.8 -0.6,1.9 -0.7,3.3 l 0.2,0 c 0.8,-1.4 2.1,-2.1 3.9,-2.1 1.6,0 2.8,0.5 3.7,1.5 0.9,1 1.4,2.4 1.4,4.2 0,1.9 -0.5,3.4 -1.6,4.5 -1.1,1.1 -2.6,1.7 -4.5,1.7 -1.3,0 -2.5,-0.3 -3.4,-0.9 -1,-0.6 -1.7,-1.5 -2.3,-2.7 -0.6,-1.3 -0.9,-2.7 -0.9,-4.3 m 6.5,4.8 c 0.8,0 1.4,-0.3 1.9,-0.8 0.4,-0.5 0.6,-1.3 0.6,-2.3 0,-0.9 -0.2,-1.6 -0.6,-2.1 -0.4,-0.5 -1,-0.8 -1.8,-0.8 -0.8,0 -1.4,0.2 -2,0.7 -0.5,0.5 -0.8,1.1 -0.8,1.7 0,1 0.3,1.8 0.8,2.5 0.4,0.7 1.1,1.1 1.9,1.1" />
          <path
             inkscape:connector-curvature="0"
             id="path71"
             d="m 769.3,869.8 -3.8,0 0,-10.3 0,-1.7 0.1,-1.9 c -0.6,0.6 -1.1,1 -1.3,1.2 l -2.1,1.6 -1.8,-2.3 5.8,-4.6 3.1,0 0,18" />
          <path
             inkscape:connector-curvature="0"
             id="path73"
             d="m 786.5,860.9 c 0,3.1 -0.5,5.4 -1.5,6.9 -1,1.5 -2.6,2.2 -4.7,2.2 -2.1,0 -3.6,-0.8 -4.7,-2.3 -1.1,-1.5 -1.6,-3.8 -1.6,-6.8 0,-3.1 0.5,-5.5 1.5,-7 1,-1.5 2.6,-2.2 4.7,-2.2 2.1,0 3.6,0.8 4.7,2.3 1.1,1.5 1.6,3.9 1.6,6.9 m -8.7,0 c 0,2.2 0.2,3.8 0.6,4.7 0.4,0.9 1,1.4 1.9,1.4 0.9,0 1.5,-0.5 1.9,-1.4 0.4,-1 0.6,-2.5 0.6,-4.7 0,-2.2 -0.2,-3.8 -0.6,-4.7 -0.4,-1 -1,-1.4 -1.9,-1.4 -0.9,0 -1.5,0.5 -1.9,1.4 -0.4,1 -0.6,2.5 -0.6,4.7" />
        </g>
        <g
           id="g75">
          <path
             inkscape:connector-curvature="0"
             style="fill:#124c59"
             id="path77"
             d="m 766.5,917.1 c 1.7,0 3.1,0.5 4.1,1.5 1,1 1.5,2.3 1.5,4 0,2 -0.6,3.5 -1.8,4.6 -1.2,1.1 -3,1.6 -5.3,1.6 -2,0 -3.6,-0.3 -4.8,-1 l 0,-3.3 c 0.6,0.3 1.4,0.6 2.2,0.8 0.9,0.2 1.7,0.3 2.4,0.3 2.3,0 3.5,-0.9 3.5,-2.8 0,-1.8 -1.2,-2.7 -3.6,-2.7 -0.4,0 -0.9,0 -1.4,0.1 -0.5,0.1 -0.9,0.2 -1.3,0.3 l -1.5,-0.8 0.7,-9.1 9.7,0 0,3.2 -6.4,0 -0.3,3.5 0.4,-0.1 c 0.5,0 1.1,-0.1 1.9,-0.1" />
        </g>
        <g
           id="g79">
          <path
             inkscape:connector-curvature="0"
             style="fill:#124c59"
             id="path81"
             d="m 769.3,1043.7 -3.8,0 0,-10.3 0,-1.7 0.1,-1.9 c -0.6,0.6 -1.1,1 -1.3,1.2 l -2.1,1.6 -1.8,-2.3 5.8,-4.6 3.1,0 0,18" />
        </g>
      </g>
      <g
         id="ScoresLeft">
        <g
           style="fill:#124c59"
           id="g84">
          <path
             inkscape:connector-curvature="0"
             id="path86"
             d="m 98.9,73.8 c 0,3.5 -0.7,6.1 -2.2,7.9 -1.5,1.7 -3.7,2.6 -6.7,2.6 -1.1,0 -1.9,-0.1 -2.4,-0.2 l 0,-3 c 0.7,0.2 1.4,0.3 2.1,0.3 1.3,0 2.3,-0.2 3.1,-0.6 0.8,-0.4 1.4,-1 1.9,-1.7 0.4,-0.8 0.7,-1.9 0.7,-3.3 l -0.1,0 c -0.5,0.8 -1,1.3 -1.6,1.6 -0.6,0.3 -1.4,0.5 -2.3,0.5 -1.6,0 -2.8,-0.5 -3.7,-1.5 -0.9,-1 -1.3,-2.4 -1.3,-4.2 0,-1.9 0.5,-3.4 1.6,-4.5 1.1,-1.1 2.6,-1.7 4.4,-1.7 1.3,0 2.5,0.3 3.5,0.9 1,0.6 1.7,1.5 2.3,2.7 0.4,1.2 0.7,2.6 0.7,4.2 M 92.4,69 c -0.8,0 -1.4,0.3 -1.8,0.8 -0.4,0.5 -0.7,1.3 -0.7,2.3 0,0.9 0.2,1.5 0.6,2.1 0.4,0.5 1,0.8 1.8,0.8 0.8,0 1.4,-0.3 2,-0.8 0.5,-0.5 0.8,-1.1 0.8,-1.7 0,-1 -0.3,-1.8 -0.8,-2.5 -0.4,-0.6 -1.1,-1 -1.9,-1" />
          <path
             inkscape:connector-curvature="0"
             id="path88"
             d="m 113.1,73.8 c 0,3.5 -0.7,6.1 -2.2,7.9 -1.5,1.8 -3.7,2.6 -6.7,2.6 -1.1,0 -1.9,-0.1 -2.4,-0.2 l 0,-3 c 0.7,0.2 1.4,0.3 2.1,0.3 1.3,0 2.3,-0.2 3.1,-0.6 0.8,-0.4 1.4,-1 1.9,-1.7 0.4,-0.8 0.7,-1.9 0.7,-3.3 l -0.1,0 c -0.5,0.8 -1,1.3 -1.6,1.6 -0.6,0.3 -1.4,0.5 -2.3,0.5 -1.6,0 -2.8,-0.5 -3.7,-1.5 -0.9,-1 -1.3,-2.4 -1.3,-4.2 0,-1.9 0.5,-3.4 1.6,-4.5 1.1,-1.1 2.6,-1.7 4.4,-1.7 1.3,0 2.5,0.3 3.5,0.9 1,0.6 1.7,1.5 2.3,2.7 0.4,1.2 0.7,2.6 0.7,4.2 M 106.6,69 c -0.8,0 -1.4,0.3 -1.8,0.8 -0.4,0.5 -0.7,1.3 -0.7,2.3 0,0.9 0.2,1.5 0.6,2.1 0.4,0.5 1,0.8 1.8,0.8 0.8,0 1.4,-0.3 2,-0.8 0.5,-0.5 0.8,-1.1 0.8,-1.7 0,-1 -0.3,-1.8 -0.8,-2.5 -0.5,-0.6 -1.1,-1 -1.9,-1" />
          <path
             inkscape:connector-curvature="0"
             id="path90"
             d="m 98.9,221.7 c 0,3.5 -0.7,6.1 -2.2,7.9 -1.5,1.7 -3.7,2.6 -6.7,2.6 -1.1,0 -1.9,-0.1 -2.4,-0.2 l 0,-3 c 0.7,0.2 1.4,0.3 2.1,0.3 1.3,0 2.3,-0.2 3.1,-0.6 0.8,-0.4 1.4,-1 1.9,-1.7 0.4,-0.8 0.7,-1.9 0.7,-3.3 l -0.1,0 c -0.5,0.8 -1,1.3 -1.6,1.6 -0.6,0.3 -1.4,0.5 -2.3,0.5 -1.6,0 -2.8,-0.5 -3.7,-1.5 -0.9,-1 -1.3,-2.4 -1.3,-4.2 0,-1.9 0.5,-3.4 1.6,-4.5 1.1,-1.1 2.6,-1.7 4.4,-1.7 1.3,0 2.5,0.3 3.5,0.9 1,0.6 1.7,1.5 2.3,2.7 0.4,1.2 0.7,2.6 0.7,4.2 m -6.5,-4.8 c -0.8,0 -1.4,0.3 -1.8,0.8 -0.4,0.5 -0.7,1.3 -0.7,2.3 0,0.9 0.2,1.5 0.6,2.1 0.4,0.5 1,0.8 1.8,0.8 0.8,0 1.4,-0.3 2,-0.8 0.5,-0.5 0.8,-1.1 0.8,-1.7 0,-1 -0.3,-1.8 -0.8,-2.5 -0.4,-0.6 -1.1,-1 -1.9,-1" />
          <path
             inkscape:connector-curvature="0"
             id="path92"
             d="m 107.2,220.6 c 1.7,0 3.1,0.5 4.1,1.5 1,1 1.5,2.3 1.5,4 0,2 -0.6,3.5 -1.8,4.6 -1.2,1.1 -3,1.6 -5.3,1.6 -2,0 -3.6,-0.3 -4.8,-1 l 0,-3.3 c 0.6,0.3 1.4,0.6 2.2,0.8 0.9,0.2 1.7,0.3 2.4,0.3 2.3,0 3.5,-0.9 3.5,-2.8 0,-1.8 -1.2,-2.7 -3.6,-2.7 -0.4,0 -0.9,0 -1.4,0.1 -0.5,0.1 -0.9,0.2 -1.3,0.3 l -1.5,-0.8 0.7,-9.1 9.7,0 0,3.2 -6.4,0 -0.3,3.5 0.4,-0.1 c 0.5,-0.1 1.1,-0.1 1.9,-0.1" />
          <path
             inkscape:connector-curvature="0"
             id="path94"
             d="m 98.9,310.9 c 0,3.5 -0.7,6.1 -2.2,7.9 -1.5,1.7 -3.7,2.6 -6.7,2.6 -1.1,0 -1.9,-0.1 -2.4,-0.2 l 0,-3 c 0.7,0.2 1.4,0.3 2.1,0.3 1.3,0 2.3,-0.2 3.1,-0.6 0.8,-0.4 1.4,-1 1.9,-1.7 0.4,-0.8 0.7,-1.9 0.7,-3.3 l -0.1,0 c -0.5,0.8 -1,1.3 -1.6,1.6 -0.6,0.3 -1.4,0.5 -2.3,0.5 -1.6,0 -2.8,-0.5 -3.7,-1.5 -0.9,-1 -1.3,-2.4 -1.3,-4.2 0,-1.9 0.5,-3.4 1.6,-4.5 1.1,-1.1 2.6,-1.7 4.4,-1.7 1.3,0 2.5,0.3 3.5,0.9 1,0.6 1.7,1.5 2.3,2.7 0.4,1.2 0.7,2.6 0.7,4.2 m -6.5,-4.8 c -0.8,0 -1.4,0.3 -1.8,0.8 -0.4,0.5 -0.7,1.3 -0.7,2.3 0,0.9 0.2,1.5 0.6,2.1 0.4,0.5 1,0.8 1.8,0.8 0.8,0 1.4,-0.3 2,-0.8 0.5,-0.5 0.8,-1.1 0.8,-1.7 0,-1 -0.3,-1.8 -0.8,-2.5 -0.4,-0.7 -1.1,-1 -1.9,-1" />
          <path
             inkscape:connector-curvature="0"
             id="path96"
             d="m 113,312.2 c 0,3.1 -0.5,5.4 -1.5,6.9 -1,1.5 -2.6,2.2 -4.7,2.2 -2.1,0 -3.6,-0.8 -4.7,-2.3 -1,-1.5 -1.6,-3.8 -1.6,-6.8 0,-3.1 0.5,-5.5 1.5,-7 1,-1.5 2.6,-2.2 4.7,-2.2 2.1,0 3.6,0.8 4.7,2.3 1.1,1.6 1.6,3.9 1.6,6.9 m -8.7,0 c 0,2.2 0.2,3.8 0.6,4.7 0.4,0.9 1,1.4 1.9,1.4 0.9,0 1.5,-0.5 1.9,-1.4 0.4,-1 0.6,-2.5 0.6,-4.7 0,-2.2 -0.2,-3.8 -0.6,-4.7 -0.4,-1 -1,-1.4 -1.9,-1.4 -0.9,0 -1.5,0.5 -1.9,1.4 -0.4,0.9 -0.6,2.5 -0.6,4.7" />
          <path
             inkscape:connector-curvature="0"
             id="path98"
             d="m 92.6,356.9 c 1.7,0 3.1,0.4 4.1,1.2 1,0.8 1.6,1.8 1.6,3.1 0,0.9 -0.3,1.7 -0.8,2.4 -0.5,0.7 -1.3,1.3 -2.4,1.9 1.3,0.7 2.3,1.5 2.9,2.2 0.6,0.8 0.9,1.6 0.9,2.6 0,1.5 -0.6,2.6 -1.7,3.5 -1.1,0.9 -2.7,1.3 -4.5,1.3 -2,0 -3.5,-0.4 -4.6,-1.2 -1.1,-0.8 -1.7,-2 -1.7,-3.5 0,-1 0.3,-1.9 0.8,-2.7 0.5,-0.8 1.4,-1.5 2.6,-2.1 -1,-0.6 -1.8,-1.3 -2.2,-2.1 -0.4,-0.7 -0.7,-1.5 -0.7,-2.4 0,-1.3 0.5,-2.3 1.6,-3.1 1,-0.7 2.4,-1.1 4.1,-1.1 m -2.8,13.4 c 0,0.7 0.2,1.2 0.7,1.6 0.5,0.4 1.2,0.6 2,0.6 0.9,0 1.6,-0.2 2.1,-0.6 0.5,-0.4 0.7,-0.9 0.7,-1.6 0,-0.5 -0.2,-1.1 -0.7,-1.5 -0.5,-0.5 -1.2,-1 -2.2,-1.5 -1.7,0.7 -2.6,1.7 -2.6,3 m 2.8,-10.6 c -0.6,0 -1.2,0.2 -1.6,0.5 -0.4,0.3 -0.6,0.8 -0.6,1.3 0,0.5 0.2,0.9 0.5,1.3 0.3,0.4 0.9,0.8 1.7,1.2 0.8,-0.4 1.4,-0.8 1.7,-1.1 0.3,-0.3 0.5,-0.8 0.5,-1.4 0,-0.6 -0.2,-1 -0.6,-1.3 -0.4,-0.4 -1,-0.5 -1.6,-0.5" />
          <path
             inkscape:connector-curvature="0"
             id="path100"
             d="m 113.5,371.3 -2.1,0 0,3.7 -3.7,0 0,-3.7 -7.6,0 0,-2.6 7.8,-11.5 3.5,0 0,11.2 2.1,0 0,2.9 m -5.8,-2.9 0,-3 c 0,-0.5 0,-1.2 0.1,-2.2 0,-1 0.1,-1.5 0.1,-1.7 l -0.1,0 c -0.3,0.7 -0.7,1.3 -1.1,2 l -3.3,4.9 4.3,0" />
          <path
             inkscape:connector-curvature="0"
             id="path102"
             d="m 92.6,401.8 c 1.7,0 3.1,0.4 4.1,1.2 1,0.8 1.6,1.8 1.6,3.1 0,0.9 -0.3,1.7 -0.8,2.4 -0.5,0.7 -1.3,1.3 -2.4,1.9 1.3,0.7 2.3,1.5 2.9,2.2 0.6,0.8 0.9,1.6 0.9,2.6 0,1.5 -0.6,2.6 -1.7,3.5 -1.1,0.9 -2.7,1.3 -4.5,1.3 -2,0 -3.5,-0.4 -4.6,-1.2 -1.1,-0.8 -1.7,-2 -1.7,-3.5 0,-1 0.3,-1.9 0.8,-2.7 0.5,-0.8 1.4,-1.5 2.6,-2.1 -1,-0.6 -1.8,-1.3 -2.2,-2.1 -0.4,-0.7 -0.7,-1.5 -0.7,-2.4 0,-1.3 0.5,-2.3 1.6,-3.1 1,-0.7 2.4,-1.1 4.1,-1.1 m -2.8,13.3 c 0,0.7 0.2,1.2 0.7,1.6 0.5,0.4 1.2,0.6 2,0.6 0.9,0 1.6,-0.2 2.1,-0.6 0.5,-0.4 0.7,-0.9 0.7,-1.6 0,-0.5 -0.2,-1.1 -0.7,-1.5 -0.5,-0.5 -1.2,-1 -2.2,-1.5 -1.7,0.8 -2.6,1.8 -2.6,3 m 2.8,-10.5 c -0.6,0 -1.2,0.2 -1.6,0.5 -0.4,0.3 -0.6,0.8 -0.6,1.3 0,0.5 0.2,0.9 0.5,1.3 0.3,0.4 0.9,0.8 1.7,1.2 0.8,-0.4 1.4,-0.8 1.7,-1.1 0.3,-0.3 0.5,-0.8 0.5,-1.4 0,-0.6 -0.2,-1 -0.6,-1.3 -0.4,-0.4 -1,-0.5 -1.6,-0.5" />
          <path
             inkscape:connector-curvature="0"
             id="path104"
             d="m 113,411 c 0,3.1 -0.5,5.4 -1.5,6.9 -1,1.5 -2.6,2.2 -4.7,2.2 -2.1,0 -3.6,-0.8 -4.7,-2.3 -1,-1.5 -1.6,-3.8 -1.6,-6.8 0,-3.1 0.5,-5.5 1.5,-7 1,-1.5 2.6,-2.2 4.7,-2.2 2.1,0 3.6,0.8 4.7,2.3 1.1,1.6 1.6,3.8 1.6,6.9 m -8.7,0 c 0,2.2 0.2,3.8 0.6,4.7 0.4,0.9 1,1.4 1.9,1.4 0.9,0 1.5,-0.5 1.9,-1.4 0.4,-1 0.6,-2.5 0.6,-4.7 0,-2.2 -0.2,-3.8 -0.6,-4.7 -0.4,-1 -1,-1.4 -1.9,-1.4 -0.9,0 -1.5,0.5 -1.9,1.4 -0.4,0.9 -0.6,2.5 -0.6,4.7" />
          <path
             inkscape:connector-curvature="0"
             id="path106"
             d="m 88.2,466.5 6.7,-14.6 h -8.8 v -3.2 h 12.8 v 2.4 l -6.8,15.5 h -3.9 z" />
          <path
             inkscape:connector-curvature="0"
             id="path108"
             d="m 113,457.6 c 0,3.1 -0.5,5.4 -1.5,6.9 -1,1.5 -2.6,2.2 -4.7,2.2 -2.1,0 -3.6,-0.8 -4.7,-2.3 -1,-1.5 -1.6,-3.8 -1.6,-6.8 0,-3.1 0.5,-5.5 1.5,-7 1,-1.5 2.6,-2.2 4.7,-2.2 2.1,0 3.6,0.8 4.7,2.3 1.1,1.6 1.6,3.8 1.6,6.9 m -8.7,0 c 0,2.2 0.2,3.8 0.6,4.7 0.4,0.9 1,1.4 1.9,1.4 0.9,0 1.5,-0.5 1.9,-1.4 0.4,-1 0.6,-2.5 0.6,-4.7 0,-2.2 -0.2,-3.8 -0.6,-4.7 -0.4,-1 -1,-1.4 -1.9,-1.4 -0.9,0 -1.5,0.5 -1.9,1.4 -0.4,0.9 -0.6,2.5 -0.6,4.7" />
          <path
             inkscape:connector-curvature="0"
             id="path110"
             d="m 86.3,527.8 c 0,-3.5 0.7,-6.2 2.2,-7.9 1.5,-1.7 3.7,-2.6 6.7,-2.6 1,0 1.8,0.1 2.4,0.2 l 0,3 c -0.7,-0.2 -1.4,-0.2 -2.1,-0.2 -1.3,0 -2.3,0.2 -3.2,0.6 -0.8,0.4 -1.4,1 -1.8,1.7 -0.4,0.8 -0.6,1.9 -0.7,3.3 l 0.2,0 c 0.8,-1.4 2.1,-2.1 3.9,-2.1 1.6,0 2.8,0.5 3.7,1.5 0.9,1 1.4,2.4 1.4,4.2 0,1.9 -0.5,3.4 -1.6,4.5 -1.1,1.1 -2.6,1.7 -4.5,1.7 -1.3,0 -2.5,-0.3 -3.4,-0.9 -1,-0.6 -1.7,-1.5 -2.3,-2.7 -0.6,-1.2 -0.9,-2.6 -0.9,-4.3 m 6.5,4.8 c 0.8,0 1.4,-0.3 1.9,-0.8 0.4,-0.5 0.6,-1.3 0.6,-2.3 0,-0.9 -0.2,-1.6 -0.6,-2.1 -0.4,-0.5 -1,-0.8 -1.8,-0.8 -0.8,0 -1.4,0.2 -2,0.7 -0.5,0.5 -0.8,1.1 -0.8,1.7 0,1 0.3,1.8 0.8,2.5 0.5,0.8 1.1,1.1 1.9,1.1" />
          <path
             inkscape:connector-curvature="0"
             id="path112"
             d="m 113,526.5 c 0,3.1 -0.5,5.4 -1.5,6.9 -1,1.5 -2.6,2.2 -4.7,2.2 -2.1,0 -3.6,-0.8 -4.7,-2.3 -1,-1.5 -1.6,-3.8 -1.6,-6.8 0,-3.1 0.5,-5.5 1.5,-7 1,-1.5 2.6,-2.2 4.7,-2.2 2.1,0 3.6,0.8 4.7,2.3 1.1,1.6 1.6,3.9 1.6,6.9 m -8.7,0 c 0,2.2 0.2,3.8 0.6,4.7 0.4,0.9 1,1.4 1.9,1.4 0.9,0 1.5,-0.5 1.9,-1.4 0.4,-1 0.6,-2.5 0.6,-4.7 0,-2.2 -0.2,-3.8 -0.6,-4.7 -0.4,-1 -1,-1.4 -1.9,-1.4 -0.9,0 -1.5,0.5 -1.9,1.4 -0.4,0.9 -0.6,2.5 -0.6,4.7" />
          <path
             inkscape:connector-curvature="0"
             id="path114"
             d="m 93,575.9 c 1.7,0 3.1,0.5 4.1,1.5 1,1 1.5,2.3 1.5,4 0,2 -0.6,3.5 -1.8,4.6 -1.2,1.1 -3,1.6 -5.3,1.6 -2,0 -3.6,-0.3 -4.8,-1 l 0,-3.3 c 0.6,0.3 1.4,0.6 2.2,0.8 0.9,0.2 1.7,0.3 2.4,0.3 2.3,0 3.5,-0.9 3.5,-2.8 0,-1.8 -1.2,-2.7 -3.6,-2.7 -0.4,0 -0.9,0 -1.4,0.1 -0.5,0.1 -0.9,0.2 -1.3,0.3 l -1.5,-0.8 0.7,-9.1 9.7,0 0,3.2 -6.4,0 -0.3,3.5 0.4,-0.1 c 0.5,-0.1 1.1,-0.1 1.9,-0.1" />
          <path
             inkscape:connector-curvature="0"
             id="path116"
             d="m 113,578.3 c 0,3.1 -0.5,5.4 -1.5,6.9 -1,1.5 -2.6,2.2 -4.7,2.2 -2.1,0 -3.6,-0.8 -4.7,-2.3 -1,-1.5 -1.6,-3.8 -1.6,-6.8 0,-3.1 0.5,-5.5 1.5,-7 1,-1.5 2.6,-2.2 4.7,-2.2 2.1,0 3.6,0.8 4.7,2.3 1.1,1.7 1.6,3.9 1.6,6.9 m -8.7,0 c 0,2.2 0.2,3.8 0.6,4.7 0.4,0.9 1,1.4 1.9,1.4 0.9,0 1.5,-0.5 1.9,-1.4 0.4,-1 0.6,-2.5 0.6,-4.7 0,-2.2 -0.2,-3.8 -0.6,-4.7 -0.4,-1 -1,-1.4 -1.9,-1.4 -0.9,0 -1.5,0.5 -1.9,1.4 -0.4,1 -0.6,2.6 -0.6,4.7" />
          <path
             inkscape:connector-curvature="0"
             id="path118"
             d="m 99.3,627.4 -2.1,0 0,3.7 -3.7,0 0,-3.7 -7.6,0 0,-2.6 7.8,-11.5 3.5,0 0,11.2 2.1,0 0,2.9 m -5.8,-2.9 0,-3 c 0,-0.5 0,-1.2 0.1,-2.2 0,-1 0.1,-1.5 0.1,-1.7 l -0.1,0 c -0.3,0.7 -0.7,1.3 -1.1,2 l -3.3,4.9 4.3,0" />
          <path
             inkscape:connector-curvature="0"
             id="path120"
             d="m 113,622.2 c 0,3.1 -0.5,5.4 -1.5,6.9 -1,1.5 -2.6,2.2 -4.7,2.2 -2.1,0 -3.6,-0.8 -4.7,-2.3 -1,-1.5 -1.6,-3.8 -1.6,-6.8 0,-3.1 0.5,-5.5 1.5,-7 1,-1.5 2.6,-2.2 4.7,-2.2 2.1,0 3.6,0.8 4.7,2.3 1.1,1.6 1.6,3.9 1.6,6.9 m -8.7,0 c 0,2.2 0.2,3.8 0.6,4.7 0.4,0.9 1,1.4 1.9,1.4 0.9,0 1.5,-0.5 1.9,-1.4 0.4,-1 0.6,-2.5 0.6,-4.7 0,-2.2 -0.2,-3.8 -0.6,-4.7 -0.4,-1 -1,-1.4 -1.9,-1.4 -0.9,0 -1.5,0.5 -1.9,1.4 -0.4,1 -0.6,2.5 -0.6,4.7" />
          <path
             inkscape:connector-curvature="0"
             id="path122"
             d="m 98.2,691.9 c 0,1.1 -0.3,2.1 -1,2.8 -0.7,0.8 -1.6,1.3 -2.8,1.6 l 0,0.1 c 1.4,0.2 2.5,0.6 3.3,1.3 0.7,0.7 1.1,1.6 1.1,2.8 0,1.7 -0.6,3.1 -1.9,4 -1.2,1 -3,1.4 -5.3,1.4 -1.9,0 -3.7,-0.3 -5.2,-1 l 0,-3.2 c 0.7,0.3 1.5,0.6 2.3,0.9 0.8,0.3 1.7,0.3 2.5,0.3 1.2,0 2.2,-0.2 2.8,-0.6 0.6,-0.4 0.9,-1.1 0.9,-2 0,-0.8 -0.3,-1.4 -1,-1.8 -0.7,-0.4 -1.8,-0.5 -3.3,-0.5 l -1.4,0 0,-2.9 1.4,0 c 1.4,0 2.4,-0.2 3,-0.5 0.6,-0.3 1,-1 1,-1.9 0,-1.4 -0.8,-2 -2.5,-2 -0.6,0 -1.2,0.1 -1.8,0.3 -0.6,0.2 -1.3,0.5 -2,1 l -1.7,-2.6 c 1.6,-1.2 3.6,-1.8 5.8,-1.8 1.8,0 3.3,0.4 4.4,1.1 0.9,0.9 1.4,1.9 1.4,3.2" />
          <path
             inkscape:connector-curvature="0"
             id="path124"
             d="m 113,696.9 c 0,3.1 -0.5,5.4 -1.5,6.9 -1,1.5 -2.6,2.2 -4.7,2.2 -2.1,0 -3.6,-0.8 -4.7,-2.3 -1,-1.5 -1.6,-3.8 -1.6,-6.8 0,-3.1 0.5,-5.5 1.5,-7 1,-1.5 2.6,-2.2 4.7,-2.2 2.1,0 3.6,0.8 4.7,2.3 1.1,1.6 1.6,3.9 1.6,6.9 m -8.7,0 c 0,2.2 0.2,3.8 0.6,4.7 0.4,0.9 1,1.4 1.9,1.4 0.9,0 1.5,-0.5 1.9,-1.4 0.4,-1 0.6,-2.5 0.6,-4.7 0,-2.2 -0.2,-3.8 -0.6,-4.7 -0.4,-1 -1,-1.4 -1.9,-1.4 -0.9,0 -1.5,0.5 -1.9,1.4 -0.4,0.9 -0.6,2.5 -0.6,4.7" />
          <path
             inkscape:connector-curvature="0"
             id="path126"
             d="m 98.9,769.8 -12.4,0 0,-2.6 4.5,-4.5 c 1.3,-1.4 2.2,-2.3 2.6,-2.8 0.4,-0.5 0.7,-1 0.9,-1.5 0.2,-0.4 0.3,-0.9 0.3,-1.4 0,-0.7 -0.2,-1.2 -0.6,-1.6 -0.4,-0.3 -0.9,-0.5 -1.6,-0.5 -0.7,0 -1.4,0.2 -2,0.5 -0.6,0.3 -1.3,0.8 -2,1.4 l -2.1,-2.4 c 0.9,-0.7 1.6,-1.3 2.2,-1.6 0.6,-0.3 1.2,-0.5 1.9,-0.7 0.7,-0.2 1.4,-0.3 2.3,-0.3 1.1,0 2.1,0.2 3,0.6 0.9,0.4 1.5,1 2,1.7 0.5,0.7 0.7,1.6 0.7,2.5 0,0.8 -0.1,1.6 -0.4,2.3 -0.3,0.7 -0.7,1.5 -1.3,2.2 -0.6,0.8 -1.7,1.8 -3.2,3.2 l -2.3,2.2 0,0.2 7.8,0 0,3.1 z" />
          <path
             inkscape:connector-curvature="0"
             id="path128"
             d="m 113,760.8 c 0,3.1 -0.5,5.4 -1.5,6.9 -1,1.5 -2.6,2.2 -4.7,2.2 -2.1,0 -3.6,-0.8 -4.7,-2.3 -1,-1.5 -1.6,-3.8 -1.6,-6.8 0,-3.1 0.5,-5.5 1.5,-7 1,-1.5 2.6,-2.2 4.7,-2.2 2.1,0 3.6,0.8 4.7,2.3 1.1,1.7 1.6,3.9 1.6,6.9 m -8.7,0 c 0,2.2 0.2,3.8 0.6,4.7 0.4,0.9 1,1.4 1.9,1.4 0.9,0 1.5,-0.5 1.9,-1.4 0.4,-1 0.6,-2.5 0.6,-4.7 0,-2.2 -0.2,-3.8 -0.6,-4.7 -0.4,-1 -1,-1.4 -1.9,-1.4 -0.9,0 -1.5,0.5 -1.9,1.4 -0.4,1 -0.6,2.6 -0.6,4.7" />
          <path
             inkscape:connector-curvature="0"
             id="path130"
             d="M 95.8,820.3 H 92 V 810 l 0,-1.7 0.1,-1.9 c -0.6,0.6 -1.1,1 -1.3,1.2 l -2.1,1.6 -1.8,-2.3 5.8,-4.6 h 3.1 v 18 z" />
          <path
             inkscape:connector-curvature="0"
             id="path132"
             d="m 100.5,812.7 c 0,-3.5 0.7,-6.2 2.2,-7.9 1.5,-1.7 3.7,-2.6 6.7,-2.6 1,0 1.8,0.1 2.4,0.2 l 0,3 c -0.7,-0.2 -1.4,-0.2 -2.1,-0.2 -1.3,0 -2.4,0.2 -3.2,0.6 -0.8,0.4 -1.4,1 -1.8,1.7 -0.4,0.8 -0.6,1.9 -0.7,3.3 l 0.2,0 c 0.8,-1.4 2.1,-2.1 3.9,-2.1 1.6,0 2.8,0.5 3.7,1.5 0.9,1 1.4,2.4 1.4,4.2 0,1.9 -0.5,3.4 -1.6,4.5 -1.1,1.1 -2.6,1.7 -4.5,1.7 -1.3,0 -2.5,-0.3 -3.4,-0.9 -1,-0.6 -1.7,-1.5 -2.3,-2.7 -0.6,-1.2 -0.9,-2.7 -0.9,-4.3 m 6.5,4.8 c 0.8,0 1.4,-0.3 1.9,-0.8 0.4,-0.5 0.6,-1.3 0.6,-2.3 0,-0.9 -0.2,-1.6 -0.6,-2.1 -0.4,-0.5 -1,-0.8 -1.8,-0.8 -0.8,0 -1.4,0.2 -2,0.7 -0.6,0.5 -0.8,1.1 -0.8,1.7 0,1 0.3,1.8 0.8,2.5 0.5,0.8 1.1,1.1 1.9,1.1" />
          <path
             inkscape:connector-curvature="0"
             id="path134"
             d="m 95.8,869.9 -3.8,0 0,-10.3 0,-1.7 0.1,-1.9 c -0.6,0.6 -1.1,1 -1.3,1.2 l -2.1,1.6 -1.8,-2.3 5.8,-4.6 3.1,0 0,18" />
          <path
             inkscape:connector-curvature="0"
             id="path136"
             d="m 113,861 c 0,3.1 -0.5,5.4 -1.5,6.9 -1,1.5 -2.6,2.2 -4.7,2.2 -2.1,0 -3.6,-0.8 -4.7,-2.3 -1,-1.5 -1.6,-3.8 -1.6,-6.8 0,-3.1 0.5,-5.5 1.5,-7 1,-1.5 2.6,-2.2 4.7,-2.2 2.1,0 3.6,0.8 4.7,2.3 1.1,1.6 1.6,3.9 1.6,6.9 m -8.7,0 c 0,2.2 0.2,3.8 0.6,4.7 0.4,0.9 1,1.4 1.9,1.4 0.9,0 1.5,-0.5 1.9,-1.4 0.4,-1 0.6,-2.5 0.6,-4.7 0,-2.2 -0.2,-3.8 -0.6,-4.7 -0.4,-1 -1,-1.4 -1.9,-1.4 -0.9,0 -1.5,0.5 -1.9,1.4 -0.4,0.9 -0.6,2.5 -0.6,4.7" />
        </g>
        <g
           id="g138">
          <path
             inkscape:connector-curvature="0"
             style="fill:#124c59"
             id="path140"
             d="m 107.2,917.1 c 1.7,0 3.1,0.5 4.1,1.5 1,1 1.5,2.3 1.5,4 0,2 -0.6,3.5 -1.8,4.6 -1.2,1.1 -3,1.6 -5.3,1.6 -2,0 -3.6,-0.3 -4.8,-1 l 0,-3.3 c 0.6,0.3 1.4,0.6 2.2,0.8 0.9,0.2 1.7,0.3 2.4,0.3 2.3,0 3.5,-0.9 3.5,-2.8 0,-1.8 -1.2,-2.7 -3.6,-2.7 -0.4,0 -0.9,0 -1.4,0.1 -0.5,0.1 -0.9,0.2 -1.3,0.3 l -1.5,-0.8 0.7,-9.1 9.7,0 0,3.2 -6.4,0 -0.3,3.5 0.4,-0.1 c 0.5,0 1.1,-0.1 1.9,-0.1" />
        </g>
        <g
           id="g142">
          <path
             inkscape:connector-curvature="0"
             style="fill:#124c59"
             id="path144"
             d="m 110,1043.7 -3.8,0 0,-10.3 0,-1.7 0.1,-1.9 c -0.6,0.6 -1.1,1 -1.3,1.2 l -2.1,1.6 -1.8,-2.3 5.7,-4.6 3.1,0 0,18 z" />
        </g>
      </g>
      <path
         inkscape:connector-curvature="0"
         style="fill:#2290ba"
         id="path148"
         d="m 225.21981,1083.4202 c 0,3.4 -1.1,6.1 -3.4,7.9 -2.3,1.8 -5.4,2.7 -9.6,2.7 l -3.4,0 0,12.3 -5.4,0 0,-32.8 9.5,0 c 4.1,0 7.2,0.8 9.2,2.5 2.1,1.7 3.1,4.2 3.1,7.4 m -16.3,6.1 2.9,0 c 2.8,0 4.8,-0.5 6.1,-1.4 1.3,-0.9 1.9,-2.5 1.9,-4.5 0,-1.9 -0.6,-3.3 -1.7,-4.2 -1.1,-0.9 -3,-1.4 -5.4,-1.4 l -3.7,0 0,11.5 z" />
      <path
         inkscape:connector-curvature="0"
         style="fill:#2290ba"
         id="path150"
         d="m 260.11981,1089.9202 c 0,5.3 -1.3,9.5 -4,12.5 -2.7,3 -6.5,4.4 -11.4,4.4 -5,0 -8.8,-1.5 -11.4,-4.4 -2.7,-2.9 -4,-7.1 -4,-12.5 0,-5.4 1.3,-9.6 4,-12.5 2.7,-2.9 6.5,-4.4 11.4,-4.4 4.9,0 8.7,1.5 11.3,4.4 2.6,2.9 4.1,7.1 4.1,12.5 m -25.1,0 c 0,4 0.8,7.1 2.4,9.2 1.6,2.1 4.1,3.1 7.3,3.1 3.2,0 5.6,-1 7.2,-3.1 1.6,-2.1 2.4,-5.1 2.4,-9.2 0,-4 -0.8,-7.1 -2.4,-9.2 -1.6,-2.1 -4,-3.1 -7.2,-3.1 -3.2,0 -5.6,1 -7.3,3.1 -1.6,2.1 -2.4,5.1 -2.4,9.2" />
      <path
         inkscape:connector-curvature="0"
         style="fill:#2290ba"
         id="path152"
         d="m 285.21981,1097.4202 c 0,2.9 -1.1,5.2 -3.2,6.9 -2.1,1.7 -5,2.5 -8.7,2.5 -3.7,0 -6.8,-0.6 -9.1,-1.7 l 0,-5.1 c 1.5,0.7 3.1,1.3 4.8,1.7 1.7,0.4 3.3,0.6 4.7,0.6 2.1,0 3.7,-0.4 4.7,-1.2 1,-0.8 1.5,-1.9 1.5,-3.3 0,-1.2 -0.5,-2.3 -1.4,-3.1 -0.9,-0.8 -2.8,-1.9 -5.8,-3 -3,-1.2 -5.1,-2.6 -6.3,-4.2 -1.2,-1.6 -1.8,-3.4 -1.8,-5.6 0,-2.7 1,-4.9 2.9,-6.5 1.9,-1.6 4.6,-2.4 7.8,-2.4 3.1,0 6.3,0.7 9.4,2.1 l -1.7,4.4 c -2.9,-1.2 -5.5,-1.8 -7.8,-1.8 -1.7,0 -3.1,0.4 -4,1.1 -0.9,0.8 -1.3,1.8 -1.3,3 0,0.9 0.2,1.6 0.5,2.2 0.4,0.6 1,1.2 1.8,1.7 0.8,0.5 2.3,1.2 4.4,2.1 2.4,1 4.2,1.9 5.3,2.8 1.1,0.9 1.9,1.8 2.5,2.9 0.6,1.1 0.8,2.4 0.8,3.9" />
      <path
         inkscape:connector-curvature="0"
         style="fill:#2290ba"
         id="path154"
         d="m 309.61981,1097.4202 c 0,2.9 -1.1,5.2 -3.2,6.9 -2.1,1.7 -5,2.5 -8.7,2.5 -3.7,0 -6.8,-0.6 -9.1,-1.7 l 0,-5.1 c 1.5,0.7 3.1,1.3 4.8,1.7 1.7,0.4 3.3,0.6 4.7,0.6 2.1,0 3.7,-0.4 4.7,-1.2 1,-0.8 1.5,-1.9 1.5,-3.3 0,-1.2 -0.5,-2.3 -1.4,-3.1 -0.9,-0.8 -2.8,-1.9 -5.8,-3 -3,-1.2 -5.1,-2.6 -6.3,-4.2 -1.2,-1.6 -1.8,-3.4 -1.8,-5.6 0,-2.7 1,-4.9 2.9,-6.5 1.9,-1.6 4.6,-2.4 7.8,-2.4 3.1,0 6.3,0.7 9.4,2.1 l -1.7,4.4 c -2.9,-1.2 -5.5,-1.8 -7.8,-1.8 -1.7,0 -3.1,0.4 -4,1.1 -0.9,0.8 -1.3,1.8 -1.3,3 0,0.9 0.2,1.6 0.5,2.2 0.4,0.6 1,1.2 1.8,1.7 0.8,0.5 2.3,1.2 4.4,2.1 2.4,1 4.2,1.9 5.3,2.8 1.1,0.9 1.9,1.8 2.5,2.9 0.6,1.1 0.8,2.4 0.8,3.9" />
      <path
         inkscape:connector-curvature="0"
         style="fill:#2290ba"
         id="path156"
         d="m 315.11981,1106.3202 v -32.8 h 5.4 v 32.8 h -5.4 z" />
      <path
         inkscape:connector-curvature="0"
         style="fill:#2290ba"
         id="path158"
         d="m 328.31981,1073.5202 9.7,0 c 4.5,0 7.8,0.7 9.8,2 2,1.3 3,3.4 3,6.2 0,1.9 -0.5,3.5 -1.5,4.8 -1,1.3 -2.4,2.1 -4.3,2.4 l 0,0.2 c 2.3,0.4 4,1.3 5.1,2.6 1.1,1.3 1.6,3 1.6,5.2 0,3 -1,5.3 -3.1,6.9 -2.1,1.7 -4.9,2.5 -8.6,2.5 l -11.9,0 0,-32.8 z m 5.3,13.6 5.2,0 c 2.2,0 3.9,-0.4 4.9,-1.1 1,-0.7 1.5,-1.9 1.5,-3.6 0,-1.5 -0.6,-2.7 -1.7,-3.3 -1.1,-0.7 -2.9,-1 -5.3,-1 l -4.6,0 0,9 m 0,4.3 0,10.4 5.7,0 c 2.2,0 3.9,-0.4 5.1,-1.3 1.1,-0.9 1.7,-2.2 1.7,-4.1 0,-1.7 -0.6,-3 -1.8,-3.8 -1.2,-0.8 -2.9,-1.2 -5.3,-1.2 l -5.4,0" />
      <path
         inkscape:connector-curvature="0"
         style="fill:#2290ba"
         id="path160"
         d="m 357.81981,1106.3202 v -32.8 h 5.4 v 28.2 h 13.9 v 4.6 h -19.3 z" />
      <path
         inkscape:connector-curvature="0"
         style="fill:#2290ba"
         id="path162"
         d="m 400.41981,1106.3202 h -18.6 v -32.8 h 18.6 v 4.5 h -13.2 v 8.9 h 12.4 v 4.5 h -12.4 v 10.3 h 13.2 v 4.6 z" />
      <path
         inkscape:connector-curvature="0"
         style="fill:#2290ba"
         id="path164"
         d="m 448.01981,1106.3202 -5.8,0 -5.6,-19.6 c -0.2,-0.9 -0.5,-2.1 -0.9,-3.7 -0.4,-1.6 -0.6,-2.7 -0.7,-3.4 -0.1,1 -0.4,2.2 -0.7,3.7 -0.3,1.5 -0.6,2.7 -0.8,3.4 l -5.4,19.5 -5.8,0 -4.2,-16.4 -4.3,-16.4 5.5,0 4.7,19.1 c 0.7,3.1 1.3,5.8 1.6,8.1 0.2,-1.3 0.4,-2.7 0.7,-4.3 0.3,-1.6 0.6,-2.8 0.9,-3.8 l 5.3,-19.2 5.3,0 5.5,19.3 c 0.5,1.8 1.1,4.4 1.7,8 0.2,-2.1 0.8,-4.9 1.6,-8.2 l 4.7,-19.1 5.4,0 -8.7,33" />
      <path
         inkscape:connector-curvature="0"
         style="fill:#2290ba"
         id="path166"
         d="m 478.91981,1106.3202 h -18.6 v -32.8 h 18.6 v 4.5 h -13.2 v 8.9 h 12.4 v 4.5 h -12.4 v 10.3 h 13.2 v 4.6 z" />
      <path
         inkscape:connector-curvature="0"
         style="fill:#2290ba"
         id="path168"
         d="m 505.51981,1106.3202 -3.3,-9.1 -12.6,0 -3.2,9.1 -5.7,0 12.3,-33 5.8,0 12.3,33 -5.6,0 m -4.7,-13.7 -3.1,-8.9 c -0.2,-0.6 -0.5,-1.5 -0.9,-2.8 -0.4,-1.3 -0.7,-2.2 -0.8,-2.8 -0.4,1.8 -1,3.9 -1.8,6 l -3,8.6 9.6,0 z" />
      <path
         inkscape:connector-curvature="0"
         style="fill:#2290ba"
         id="path170"
         d="m 539.71981,1106.3202 h -6.2 l -10.3,-14.9 -3.2,2.6 v 12.3 h -5.4 v -32.8 h 5.4 v 15.7 c 1.5,-1.8 2.9,-3.5 4.4,-5.2 l 8.9,-10.5 h 6.1 c -5.7,6.7 -9.8,11.5 -12.3,14.4 l 12.6,18.4 z" />
      <path
         inkscape:connector-curvature="0"
         style="fill:#2290ba"
         id="path172"
         d="m 570.51981,1106.3202 -6.6,0 -16.1,-26.2 -0.2,0 0.1,1.5 c 0.2,2.8 0.3,5.3 0.3,7.6 l 0,17.1 -4.9,0 0,-32.8 6.5,0 16.1,26 0.1,0 c 0,-0.3 -0.1,-1.6 -0.2,-3.8 -0.1,-2.2 -0.1,-3.9 -0.1,-5.1 l 0,-17.2 4.9,0 0,32.9 z" />
      <path
         inkscape:connector-curvature="0"
         style="fill:#2290ba"
         id="path174"
         d="m 596.91981,1106.3202 h -18.6 v -32.8 h 18.6 v 4.5 h -13.2 v 8.9 h 12.4 v 4.5 h -12.4 v 10.3 h 13.2 v 4.6 z" />
      <path
         inkscape:connector-curvature="0"
         style="fill:#2290ba"
         id="path176"
         d="m 622.11981,1097.4202 c 0,2.9 -1.1,5.2 -3.2,6.9 -2.1,1.7 -5,2.5 -8.7,2.5 -3.7,0 -6.8,-0.6 -9.1,-1.7 l 0,-5.1 c 1.5,0.7 3.1,1.3 4.8,1.7 1.7,0.4 3.3,0.6 4.7,0.6 2.1,0 3.7,-0.4 4.7,-1.2 1,-0.8 1.5,-1.9 1.5,-3.3 0,-1.2 -0.5,-2.3 -1.4,-3.1 -0.9,-0.8 -2.8,-1.9 -5.8,-3 -3,-1.2 -5.1,-2.6 -6.3,-4.2 -1.2,-1.6 -1.8,-3.4 -1.8,-5.6 0,-2.7 1,-4.9 2.9,-6.5 1.9,-1.6 4.6,-2.4 7.8,-2.4 3.1,0 6.3,0.7 9.4,2.1 l -1.7,4.4 c -2.9,-1.2 -5.5,-1.8 -7.8,-1.8 -1.7,0 -3.1,0.4 -4,1.1 -0.9,0.8 -1.3,1.8 -1.3,3 0,0.9 0.2,1.6 0.5,2.2 0.4,0.6 1,1.2 1.8,1.7 0.8,0.5 2.3,1.2 4.4,2.1 2.4,1 4.2,1.9 5.3,2.8 1.1,0.9 1.9,1.8 2.5,2.9 0.6,1.1 0.8,2.4 0.8,3.9" />
      <path
         inkscape:connector-curvature="0"
         style="fill:#2290ba"
         id="path178"
         d="m 646.51981,1097.4202 c 0,2.9 -1.1,5.2 -3.2,6.9 -2.1,1.7 -5,2.5 -8.7,2.5 -3.7,0 -6.8,-0.6 -9.1,-1.7 l 0,-5.1 c 1.5,0.7 3.1,1.3 4.8,1.7 1.7,0.4 3.3,0.6 4.7,0.6 2.1,0 3.7,-0.4 4.7,-1.2 1,-0.8 1.5,-1.9 1.5,-3.3 0,-1.2 -0.5,-2.3 -1.4,-3.1 -0.9,-0.8 -2.8,-1.9 -5.8,-3 -3,-1.2 -5.1,-2.6 -6.3,-4.2 -1.2,-1.6 -1.8,-3.4 -1.8,-5.6 0,-2.7 1,-4.9 2.9,-6.5 1.9,-1.6 4.6,-2.4 7.8,-2.4 3.1,0 6.3,0.7 9.4,2.1 l -1.7,4.4 c -2.9,-1.2 -5.5,-1.8 -7.8,-1.8 -1.7,0 -3.1,0.4 -4,1.1 -0.9,0.8 -1.3,1.8 -1.3,3 0,0.9 0.2,1.6 0.5,2.2 0.4,0.6 1,1.2 1.8,1.7 0.8,0.5 2.3,1.2 4.4,2.1 2.4,1 4.2,1.9 5.3,2.8 1.1,0.9 1.9,1.8 2.5,2.9 0.6,1.1 0.8,2.4 0.8,3.9" />
      <path
         inkscape:connector-curvature="0"
         style="fill:#2290ba"
         id="path180"
         d="m 670.51981,1106.3202 h -18.6 v -32.8 h 18.6 v 4.5 h -13.2 v 8.9 h 12.4 v 4.5 h -12.4 v 10.3 h 13.2 v 4.6 z" />
      <path
         inkscape:connector-curvature="0"
         style="fill:#2290ba"
         id="path182"
         d="m 695.71981,1097.4202 c 0,2.9 -1.1,5.2 -3.2,6.9 -2.1,1.7 -5,2.5 -8.7,2.5 -3.7,0 -6.8,-0.6 -9.1,-1.7 l 0,-5.1 c 1.5,0.7 3.1,1.3 4.8,1.7 1.7,0.4 3.3,0.6 4.7,0.6 2.1,0 3.7,-0.4 4.7,-1.2 1,-0.8 1.5,-1.9 1.5,-3.3 0,-1.2 -0.5,-2.3 -1.4,-3.1 -0.9,-0.8 -2.8,-1.9 -5.8,-3 -3,-1.2 -5.1,-2.6 -6.3,-4.2 -1.2,-1.6 -1.8,-3.4 -1.8,-5.6 0,-2.7 1,-4.9 2.9,-6.5 1.9,-1.6 4.6,-2.4 7.8,-2.4 3.1,0 6.3,0.7 9.4,2.1 l -1.7,4.4 c -2.9,-1.2 -5.5,-1.8 -7.8,-1.8 -1.7,0 -3.1,0.4 -4,1.1 -0.9,0.8 -1.3,1.8 -1.3,3 0,0.9 0.2,1.6 0.5,2.2 0.4,0.6 1,1.2 1.8,1.7 0.8,0.5 2.3,1.2 4.4,2.1 2.4,1 4.2,1.9 5.3,2.8 1.1,0.9 1.9,1.8 2.5,2.9 0.6,1.1 0.8,2.4 0.8,3.9" />
      <path
         inkscape:connector-curvature="0"
         id="path3073"
         d="m 123.16619,578.13537 621.70762,0"
         style="fill:#31708f;fill-opacity:1;stroke:#31708f;stroke-width:3.59014726;stroke-linecap:butt;stroke-linejoin:miter;stroke-miterlimit:4;stroke-opacity:1;stroke-dasharray:none" />
    </g>
  </g>
</svg>
