<?xml version="1.0" encoding="utf-8"?>
<!-- Generator: Adobe Illustrator 19.0.0, SVG Export Plug-In . SVG Version: 6.00 Build 0)  -->
<svg version="1.1" xmlns="http://www.w3.org/2000/svg" xmlns:xlink="http://www.w3.org/1999/xlink" x="0px" y="0px"
	 viewBox="0 0 443.57 1188.67" style="enable-background:new 0 0 443.57 1188.67;" xml:space="preserve">
<g id="Layer_1">
	<g id="XMLID_98_">
		<rect id="XMLID_427_" x="44.75" y="915.14" style="opacity:0.21;fill:#2290BA;" width="398.82" height="139.36"/>
	</g>
	<rect id="XMLID_100_" x="44.81" y="490.6" style="fill:#2290BA;fill-opacity:0.21;" width="398.36" height="161.15"/>
	<rect id="XMLID_99_" x="47.01" y="53.5" style="fill:#2290BA;fill-opacity:0.21;" width="396.56" height="172.9"/>
	<g id="XMLID_97_">
		<g id="XMLID_229_">
			<path id="XMLID_230_" style="fill:#31708F;" d="M439.57,57.5v993.07H48.81V57.5H439.57 M443.57,53.5H44.81v1001.07h398.76V53.5
				L443.57,53.5z"/>
		</g>
	</g>
	
		<line id="XMLID_96_" style="fill:none;stroke:#31708F;stroke-width:4;stroke-miterlimit:10;" x1="123.53" y1="53.5" x2="123.53" y2="1053.57"/>
	
		<line id="XMLID_95_" style="fill:none;stroke:#31708F;stroke-width:4;stroke-miterlimit:10;" x1="203.84" y1="53.5" x2="203.84" y2="1053.57"/>
	
		<line id="XMLID_94_" style="fill:none;stroke:#31708F;stroke-width:4;stroke-miterlimit:10;" x1="284.15" y1="53.5" x2="284.15" y2="1053.57"/>
	
		<line id="XMLID_93_" style="fill:none;stroke:#31708F;stroke-width:4;stroke-miterlimit:10;" x1="364.46" y1="53.5" x2="364.46" y2="1053.57"/>
	
		<line id="XMLID_92_" style="fill:none;stroke:#31708F;stroke-width:4;stroke-miterlimit:10;" x1="46.16" y1="572.16" x2="443.57" y2="572.16"/>
	
		<line id="XMLID_88_" style="fill:none;stroke:#31708F;stroke-width:4;stroke-miterlimit:10;" x1="46.22" y1="227.5" x2="443.57" y2="227.5"/>
	
		<line id="XMLID_1_" style="fill:none;stroke:#31708F;stroke-width:4;stroke-miterlimit:10;" x1="46.25" y1="914.94" x2="443.57" y2="914.94"/>
	
		<line id="XMLID_89_" style="fill:none;stroke:#31708F;stroke-width:4;stroke-miterlimit:10;" x1="46.25" y1="651.26" x2="443.57" y2="651.26"/>
	
		<line id="XMLID_90_" style="fill:none;stroke:#31708F;stroke-width:4;stroke-miterlimit:10;" x1="46.25" y1="491.39" x2="443.57" y2="491.39"/>
	<g id="XMLID_3_">
		<g id="XMLID_612_">
			<path id="XMLID_613_" style="fill:#124C59;" d="M17.85,112.22c0,4.71-0.99,8.22-2.97,10.54c-1.98,2.32-4.98,3.48-9,3.48
				c-1.42,0-2.49-0.08-3.22-0.23v-4.05c0.91,0.23,1.87,0.34,2.88,0.34c1.69,0,3.08-0.25,4.17-0.74s1.92-1.27,2.5-2.34
				s0.91-2.52,1-4.39h-0.2c-0.63,1.02-1.36,1.74-2.19,2.16c-0.83,0.41-1.86,0.62-3.1,0.62c-2.08,0-3.72-0.67-4.92-2
				c-1.2-1.33-1.8-3.19-1.8-5.56c0-2.56,0.73-4.58,2.18-6.07s3.43-2.23,5.94-2.23c1.76,0,3.31,0.41,4.63,1.24s2.34,2.03,3.05,3.6
				S17.85,110.04,17.85,112.22z M9.2,105.8c-1.04,0-1.86,0.36-2.45,1.08c-0.59,0.72-0.88,1.75-0.88,3.1c0,1.15,0.27,2.07,0.8,2.74
				c0.53,0.68,1.35,1.01,2.43,1.01c1.02,0,1.9-0.33,2.63-1c0.73-0.67,1.09-1.44,1.09-2.31c0-1.3-0.34-2.39-1.02-3.28
				S10.26,105.8,9.2,105.8z"/>
			<path id="XMLID_616_" style="fill:#124C59;" d="M36.84,112.22c0,4.71-0.99,8.22-2.97,10.54c-1.98,2.32-4.98,3.48-9,3.48
				c-1.42,0-2.49-0.08-3.22-0.23v-4.05c0.91,0.23,1.87,0.34,2.88,0.34c1.69,0,3.08-0.25,4.17-0.74s1.92-1.27,2.5-2.34
				s0.91-2.52,1-4.39h-0.2c-0.63,1.02-1.36,1.74-2.19,2.16c-0.83,0.41-1.86,0.62-3.1,0.62c-2.08,0-3.72-0.67-4.92-2
				c-1.2-1.33-1.8-3.19-1.8-5.56c0-2.56,0.73-4.58,2.18-6.07s3.43-2.23,5.94-2.23c1.76,0,3.31,0.41,4.63,1.24s2.34,2.03,3.05,3.6
				S36.84,110.04,36.84,112.22z M28.2,105.8c-1.04,0-1.86,0.36-2.45,1.08c-0.59,0.72-0.88,1.75-0.88,3.1c0,1.15,0.27,2.07,0.8,2.74
				c0.53,0.68,1.35,1.01,2.43,1.01c1.02,0,1.9-0.33,2.63-1c0.73-0.67,1.09-1.44,1.09-2.31c0-1.3-0.34-2.39-1.02-3.28
				S29.26,105.8,28.2,105.8z"/>
		</g>
		<g id="XMLID_606_">
			<path id="XMLID_607_" style="fill:#124C59;" d="M17.85,224.44c0,4.71-0.99,8.22-2.97,10.54c-1.98,2.32-4.98,3.48-9,3.48
				c-1.42,0-2.49-0.08-3.22-0.23v-4.05c0.91,0.23,1.87,0.34,2.88,0.34c1.69,0,3.08-0.25,4.17-0.74s1.92-1.27,2.5-2.34
				s0.91-2.52,1-4.39h-0.2c-0.63,1.02-1.36,1.74-2.19,2.16c-0.83,0.41-1.86,0.62-3.1,0.62c-2.08,0-3.72-0.67-4.92-2
				c-1.2-1.33-1.8-3.19-1.8-5.56c0-2.56,0.73-4.58,2.18-6.07s3.43-2.23,5.94-2.23c1.76,0,3.31,0.41,4.63,1.24s2.34,2.03,3.05,3.6
				S17.85,222.26,17.85,224.44z M9.2,218.02c-1.04,0-1.86,0.36-2.45,1.08c-0.59,0.72-0.88,1.75-0.88,3.1c0,1.15,0.27,2.07,0.8,2.74
				c0.53,0.68,1.35,1.01,2.43,1.01c1.02,0,1.9-0.33,2.63-1c0.73-0.67,1.09-1.44,1.09-2.31c0-1.3-0.34-2.39-1.02-3.28
				S10.26,218.02,9.2,218.02z"/>
			<path id="XMLID_610_" style="fill:#124C59;" d="M28.94,222.87c2.31,0,4.15,0.65,5.51,1.94c1.37,1.3,2.05,3.07,2.05,5.33
				c0,2.67-0.82,4.72-2.47,6.16c-1.64,1.44-4,2.16-7.06,2.16c-2.66,0-4.8-0.43-6.44-1.29v-4.36c0.86,0.46,1.86,0.83,3.01,1.12
				s2.23,0.43,3.25,0.43c3.08,0,4.62-1.26,4.62-3.79c0-2.41-1.6-3.61-4.79-3.61c-0.58,0-1.21,0.06-1.91,0.17
				c-0.7,0.11-1.26,0.24-1.7,0.37l-2.01-1.08l0.9-12.17h12.96v4.28h-8.53l-0.44,4.69l0.57-0.11
				C27.13,222.95,27.96,222.87,28.94,222.87z"/>
		</g>
		<g id="XMLID_599_">
			<path id="XMLID_600_" style="fill:#124C59;" d="M17.85,308.09c0,4.71-0.99,8.22-2.97,10.54c-1.98,2.32-4.98,3.48-9,3.48
				c-1.42,0-2.49-0.08-3.22-0.23v-4.05c0.91,0.23,1.87,0.34,2.88,0.34c1.69,0,3.08-0.25,4.17-0.74s1.92-1.27,2.5-2.34
				s0.91-2.52,1-4.39h-0.2c-0.63,1.02-1.36,1.74-2.19,2.16c-0.83,0.41-1.86,0.62-3.1,0.62c-2.08,0-3.72-0.67-4.92-2
				c-1.2-1.33-1.8-3.19-1.8-5.56c0-2.56,0.73-4.58,2.18-6.07s3.43-2.23,5.94-2.23c1.76,0,3.31,0.41,4.63,1.24s2.34,2.03,3.05,3.6
				S17.85,305.92,17.85,308.09z M9.2,301.67c-1.04,0-1.86,0.36-2.45,1.08c-0.59,0.72-0.88,1.75-0.88,3.1c0,1.15,0.27,2.07,0.8,2.74
				c0.53,0.68,1.35,1.01,2.43,1.01c1.02,0,1.9-0.33,2.63-1c0.73-0.67,1.09-1.44,1.09-2.31c0-1.3-0.34-2.39-1.02-3.28
				S10.26,301.67,9.2,301.67z"/>
			<path id="XMLID_603_" style="fill:#124C59;" d="M36.81,309.84c0,4.17-0.68,7.26-2.05,9.26c-1.37,2-3.47,3.01-6.31,3.01
				c-2.76,0-4.83-1.03-6.23-3.1s-2.1-5.12-2.1-9.17c0-4.22,0.68-7.32,2.04-9.32c1.36-2,3.46-3,6.29-3c2.76,0,4.84,1.05,6.25,3.14
				C36.11,302.75,36.81,305.81,36.81,309.84z M25.13,309.84c0,2.93,0.25,5.03,0.76,6.3s1.36,1.9,2.56,1.9
				c1.18,0,2.03-0.64,2.55-1.93c0.52-1.28,0.78-3.38,0.78-6.27c0-2.93-0.26-5.03-0.79-6.31s-1.38-1.92-2.54-1.92
				c-1.19,0-2.04,0.64-2.55,1.92C25.39,304.81,25.13,306.91,25.13,309.84z"/>
		</g>
		<g id="XMLID_590_">
			<path id="XMLID_591_" style="fill:#124C59;" d="M9.48,342.19c2.29,0,4.13,0.52,5.53,1.56c1.4,1.04,2.1,2.44,2.1,4.21
				c0,1.22-0.34,2.31-1.01,3.26c-0.67,0.95-1.76,1.81-3.27,2.56c1.79,0.96,3.07,1.96,3.85,3c0.78,1.04,1.17,2.18,1.17,3.42
				c0,1.96-0.77,3.54-2.3,4.73c-1.54,1.19-3.56,1.79-6.06,1.79c-2.61,0-4.67-0.56-6.16-1.67c-1.49-1.11-2.24-2.68-2.24-4.72
				c0-1.36,0.36-2.57,1.09-3.63c0.72-1.06,1.89-1.99,3.49-2.79c-1.36-0.86-2.34-1.78-2.94-2.76c-0.6-0.98-0.9-2.05-0.9-3.22
				c0-1.71,0.71-3.09,2.12-4.15S7.2,342.19,9.48,342.19z M5.76,360.03c0,0.94,0.33,1.67,0.98,2.19c0.65,0.52,1.55,0.78,2.68,0.78
				c1.25,0,2.19-0.27,2.81-0.81c0.62-0.54,0.93-1.25,0.93-2.13c0-0.73-0.31-1.41-0.92-2.05c-0.62-0.64-1.62-1.32-3-2.03
				C6.92,357.04,5.76,358.39,5.76,360.03z M9.45,345.88c-0.86,0-1.55,0.22-2.08,0.66s-0.79,1.03-0.79,1.77
				c0,0.65,0.21,1.24,0.63,1.76c0.42,0.52,1.18,1.05,2.28,1.59c1.07-0.5,1.81-1.01,2.24-1.54c0.42-0.52,0.64-1.13,0.64-1.81
				c0-0.75-0.27-1.34-0.82-1.78C10.99,346.1,10.3,345.88,9.45,345.88z"/>
			<path id="XMLID_595_" style="fill:#124C59;" d="M37.48,361.43h-2.88v4.95h-4.93v-4.95H19.48v-3.51l10.47-15.42h4.66v15.01h2.88
				V361.43z M29.67,357.51v-4.05c0-0.68,0.03-1.66,0.08-2.94c0.05-1.29,0.1-2.03,0.13-2.24h-0.13c-0.4,0.89-0.89,1.76-1.45,2.61
				l-4.38,6.62H29.67z"/>
		</g>
		<g id="XMLID_582_">
			<path id="XMLID_583_" style="fill:#124C59;" d="M9.48,386.79c2.29,0,4.13,0.52,5.53,1.56c1.4,1.04,2.1,2.44,2.1,4.21
				c0,1.22-0.34,2.31-1.01,3.26c-0.67,0.95-1.76,1.81-3.27,2.56c1.79,0.96,3.07,1.96,3.85,3c0.78,1.04,1.17,2.18,1.17,3.42
				c0,1.96-0.77,3.54-2.3,4.73c-1.54,1.19-3.56,1.79-6.06,1.79c-2.61,0-4.67-0.56-6.16-1.67c-1.49-1.11-2.24-2.68-2.24-4.72
				c0-1.36,0.36-2.57,1.09-3.63c0.72-1.06,1.89-1.99,3.49-2.79c-1.36-0.86-2.34-1.78-2.94-2.76c-0.6-0.98-0.9-2.05-0.9-3.22
				c0-1.71,0.71-3.09,2.12-4.15S7.2,386.79,9.48,386.79z M5.76,404.63c0,0.94,0.33,1.67,0.98,2.19c0.65,0.52,1.55,0.78,2.68,0.78
				c1.25,0,2.19-0.27,2.81-0.81c0.62-0.54,0.93-1.25,0.93-2.13c0-0.73-0.31-1.41-0.92-2.05c-0.62-0.64-1.62-1.32-3-2.03
				C6.92,401.65,5.76,403,5.76,404.63z M9.45,390.49c-0.86,0-1.55,0.22-2.08,0.66s-0.79,1.03-0.79,1.77c0,0.65,0.21,1.24,0.63,1.76
				c0.42,0.52,1.18,1.05,2.28,1.59c1.07-0.5,1.81-1.01,2.24-1.54c0.42-0.52,0.64-1.13,0.64-1.81c0-0.75-0.27-1.34-0.82-1.78
				C10.99,390.7,10.3,390.49,9.45,390.49z"/>
			<path id="XMLID_587_" style="fill:#124C59;" d="M36.81,399.05c0,4.17-0.68,7.26-2.05,9.26c-1.37,2-3.47,3.01-6.31,3.01
				c-2.76,0-4.83-1.03-6.23-3.1s-2.1-5.12-2.1-9.17c0-4.22,0.68-7.32,2.04-9.32c1.36-2,3.46-3,6.29-3c2.76,0,4.84,1.05,6.25,3.14
				C36.11,391.96,36.81,395.02,36.81,399.05z M25.13,399.05c0,2.93,0.25,5.03,0.76,6.3s1.36,1.9,2.56,1.9
				c1.18,0,2.03-0.64,2.55-1.93c0.52-1.28,0.78-3.38,0.78-6.27c0-2.93-0.26-5.03-0.79-6.31s-1.38-1.92-2.54-1.92
				c-1.19,0-2.04,0.64-2.55,1.92C25.39,394.01,25.13,396.12,25.13,399.05z"/>
		</g>
		<g id="XMLID_576_">
			<path id="XMLID_577_" style="fill:#124C59;" d="M3.62,467.47l8.97-19.61H0.81v-4.25h17.14v3.17l-9.04,20.68H3.62z"/>
			<path id="XMLID_579_" style="fill:#124C59;" d="M36.81,455.52c0,4.17-0.68,7.26-2.05,9.26c-1.37,2-3.47,3.01-6.31,3.01
				c-2.76,0-4.83-1.03-6.23-3.1s-2.1-5.12-2.1-9.17c0-4.22,0.68-7.32,2.04-9.32c1.36-2,3.46-3,6.29-3c2.76,0,4.84,1.05,6.25,3.14
				C36.11,448.43,36.81,451.5,36.81,455.52z M25.13,455.52c0,2.93,0.25,5.03,0.76,6.3s1.36,1.9,2.56,1.9c1.18,0,2.03-0.64,2.55-1.93
				c0.52-1.28,0.78-3.38,0.78-6.27c0-2.93-0.26-5.03-0.79-6.31s-1.38-1.92-2.54-1.92c-1.19,0-2.04,0.64-2.55,1.92
				C25.39,450.49,25.13,452.6,25.13,455.52z"/>
		</g>
		<g id="XMLID_569_">
			<path id="XMLID_570_" style="fill:#124C59;" d="M1.08,529.83c0-4.73,1-8.24,3-10.55c2-2.31,4.99-3.46,8.98-3.46
				c1.36,0,2.43,0.08,3.2,0.25v4.04c-0.97-0.22-1.93-0.33-2.88-0.33c-1.73,0-3.14,0.26-4.24,0.78c-1.09,0.52-1.92,1.3-2.46,2.32
				c-0.54,1.02-0.87,2.48-0.96,4.36h0.21c1.08-1.85,2.8-2.78,5.18-2.78c2.13,0,3.81,0.67,5.02,2.01c1.21,1.34,1.81,3.19,1.81,5.55
				c0,2.55-0.72,4.57-2.16,6.05c-1.44,1.49-3.43,2.23-5.98,2.23c-1.76,0-3.3-0.41-4.62-1.23s-2.33-2.01-3.04-3.58
				C1.44,533.93,1.08,532.04,1.08,529.83z M9.71,536.26c1.08,0,1.91-0.36,2.48-1.09c0.58-0.72,0.87-1.76,0.87-3.1
				c0-1.17-0.27-2.08-0.81-2.75c-0.54-0.67-1.35-1-2.44-1c-1.02,0-1.9,0.33-2.62,1c-0.72,0.66-1.09,1.44-1.09,2.32
				c0,1.3,0.34,2.39,1.02,3.28S8.66,536.26,9.71,536.26z"/>
			<path id="XMLID_573_" style="fill:#124C59;" d="M36.81,528.03c0,4.17-0.68,7.26-2.05,9.26c-1.37,2-3.47,3.01-6.31,3.01
				c-2.76,0-4.83-1.03-6.23-3.1s-2.1-5.12-2.1-9.17c0-4.22,0.68-7.32,2.04-9.32c1.36-2,3.46-3,6.29-3c2.76,0,4.84,1.05,6.25,3.14
				C36.11,520.94,36.81,524,36.81,528.03z M25.13,528.03c0,2.93,0.25,5.03,0.76,6.3s1.36,1.9,2.56,1.9c1.18,0,2.03-0.64,2.55-1.93
				c0.52-1.28,0.78-3.38,0.78-6.27c0-2.93-0.26-5.03-0.79-6.31s-1.38-1.92-2.54-1.92c-1.19,0-2.04,0.64-2.55,1.92
				C25.39,523,25.13,525.1,25.13,528.03z"/>
		</g>
		<g id="XMLID_563_">
			<path id="XMLID_564_" style="fill:#124C59;" d="M9.94,564.46c2.31,0,4.15,0.65,5.51,1.94c1.37,1.3,2.05,3.07,2.05,5.33
				c0,2.67-0.82,4.72-2.47,6.16c-1.64,1.44-4,2.16-7.06,2.16c-2.66,0-4.8-0.43-6.44-1.29v-4.36c0.86,0.46,1.86,0.83,3.01,1.12
				s2.23,0.43,3.25,0.43c3.08,0,4.62-1.26,4.62-3.79c0-2.41-1.6-3.61-4.79-3.61c-0.58,0-1.21,0.06-1.91,0.17
				c-0.7,0.11-1.26,0.24-1.7,0.37l-2.01-1.08l0.9-12.17h12.96v4.28H7.34l-0.44,4.69l0.57-0.11C8.14,564.54,8.96,564.46,9.94,564.46z
				"/>
			<path id="XMLID_566_" style="fill:#124C59;" d="M36.81,567.78c0,4.17-0.68,7.26-2.05,9.26c-1.37,2-3.47,3.01-6.31,3.01
				c-2.76,0-4.83-1.03-6.23-3.1s-2.1-5.12-2.1-9.17c0-4.22,0.68-7.32,2.04-9.32c1.36-2,3.46-3,6.29-3c2.76,0,4.84,1.05,6.25,3.14
				C36.11,560.69,36.81,563.75,36.81,567.78z M25.13,567.78c0,2.93,0.25,5.03,0.76,6.3s1.36,1.9,2.56,1.9
				c1.18,0,2.03-0.64,2.55-1.93c0.52-1.28,0.78-3.38,0.78-6.27c0-2.93-0.26-5.03-0.79-6.31s-1.38-1.92-2.54-1.92
				c-1.19,0-2.04,0.64-2.55,1.92C25.39,562.75,25.13,564.85,25.13,567.78z"/>
		</g>
		<g id="XMLID_556_">
			<path id="XMLID_557_" style="fill:#124C59;" d="M18.48,614.53h-2.88v4.95h-4.93v-4.95H0.48v-3.51l10.47-15.42h4.66v15.01h2.88
				V614.53z M10.67,610.61v-4.05c0-0.68,0.03-1.66,0.08-2.94c0.05-1.29,0.1-2.03,0.13-2.24h-0.13c-0.4,0.89-0.89,1.76-1.45,2.61
				l-4.38,6.62H10.67z"/>
			<path id="XMLID_560_" style="fill:#124C59;" d="M36.81,607.53c0,4.17-0.68,7.26-2.05,9.26c-1.37,2-3.47,3.01-6.31,3.01
				c-2.76,0-4.83-1.04-6.23-3.1s-2.1-5.12-2.1-9.17c0-4.21,0.68-7.32,2.04-9.32c1.36-2,3.46-3,6.29-3c2.76,0,4.84,1.05,6.25,3.14
				C36.11,600.44,36.81,603.5,36.81,607.53z M25.13,607.53c0,2.93,0.25,5.03,0.76,6.3s1.36,1.9,2.56,1.9c1.18,0,2.03-0.64,2.55-1.93
				s0.78-3.38,0.78-6.27c0-2.93-0.26-5.03-0.79-6.31c-0.53-1.28-1.38-1.92-2.54-1.92c-1.19,0-2.04,0.64-2.55,1.92
				C25.39,602.5,25.13,604.6,25.13,607.53z"/>
		</g>
		<g id="XMLID_550_">
			<path id="XMLID_551_" style="fill:#124C59;" d="M17.01,680.4c0,1.49-0.45,2.76-1.36,3.81c-0.9,1.04-2.17,1.76-3.81,2.16v0.1
				c1.93,0.24,3.39,0.83,4.38,1.76c0.99,0.93,1.49,2.19,1.49,3.77c0,2.3-0.83,4.09-2.5,5.37c-1.67,1.28-4.05,1.92-7.14,1.92
				c-2.59,0-4.89-0.43-6.89-1.29v-4.3c0.93,0.47,1.94,0.85,3.05,1.14c1.11,0.29,2.21,0.44,3.3,0.44c1.67,0,2.9-0.28,3.69-0.85
				s1.19-1.48,1.19-2.73c0-1.12-0.46-1.92-1.37-2.39c-0.92-0.47-2.38-0.7-4.38-0.7H4.86v-3.87H6.7c1.85,0,3.2-0.24,4.06-0.73
				c0.85-0.49,1.28-1.32,1.28-2.49c0-1.81-1.13-2.71-3.4-2.71c-0.78,0-1.58,0.13-2.39,0.39c-0.81,0.26-1.71,0.71-2.7,1.36
				l-2.34-3.48c2.18-1.57,4.78-2.35,7.79-2.35c2.47,0,4.42,0.5,5.86,1.5S17.01,678.61,17.01,680.4z"/>
			<path id="XMLID_553_" style="fill:#124C59;" d="M36.81,687c0,4.17-0.68,7.26-2.05,9.26c-1.37,2-3.47,3.01-6.31,3.01
				c-2.76,0-4.83-1.04-6.23-3.1s-2.1-5.12-2.1-9.17c0-4.21,0.68-7.32,2.04-9.32c1.36-2,3.46-3,6.29-3c2.76,0,4.84,1.05,6.25,3.14
				C36.11,679.91,36.81,682.97,36.81,687z M25.13,687c0,2.93,0.25,5.03,0.76,6.3s1.36,1.9,2.56,1.9c1.18,0,2.03-0.64,2.55-1.93
				s0.78-3.38,0.78-6.27c0-2.93-0.26-5.03-0.79-6.31c-0.53-1.28-1.38-1.92-2.54-1.92c-1.19,0-2.04,0.64-2.55,1.92
				C25.39,681.97,25.13,684.07,25.13,687z"/>
		</g>
		<g id="XMLID_544_">
			<path id="XMLID_545_" style="fill:#124C59;" d="M17.94,760.98H1.25v-3.51l6-6.06c1.78-1.82,2.93-3.08,3.48-3.78
				c0.54-0.7,0.94-1.35,1.18-1.95c0.24-0.6,0.36-1.22,0.36-1.86c0-0.96-0.26-1.67-0.79-2.14c-0.53-0.47-1.23-0.7-2.12-0.7
				c-0.93,0-1.82,0.21-2.7,0.64c-0.87,0.42-1.78,1.03-2.73,1.81l-2.75-3.25c1.18-1,2.15-1.71,2.92-2.12
				c0.77-0.41,1.62-0.73,2.53-0.96c0.92-0.22,1.94-0.33,3.07-0.33c1.49,0,2.81,0.27,3.95,0.82c1.14,0.54,2.03,1.31,2.66,2.29
				c0.63,0.98,0.95,2.1,0.95,3.37c0,1.1-0.19,2.13-0.58,3.1s-0.99,1.95-1.8,2.96c-0.81,1.01-2.24,2.46-4.29,4.33l-3.07,2.89v0.23
				h10.41V760.98z"/>
			<path id="XMLID_547_" style="fill:#124C59;" d="M36.81,749.03c0,4.17-0.68,7.26-2.05,9.26c-1.37,2-3.47,3.01-6.31,3.01
				c-2.76,0-4.83-1.04-6.23-3.1s-2.1-5.12-2.1-9.17c0-4.21,0.68-7.32,2.04-9.32c1.36-2,3.46-3,6.29-3c2.76,0,4.84,1.05,6.25,3.14
				C36.11,741.94,36.81,745,36.81,749.03z M25.13,749.03c0,2.93,0.25,5.03,0.76,6.3s1.36,1.9,2.56,1.9c1.18,0,2.03-0.64,2.55-1.93
				s0.78-3.38,0.78-6.27c0-2.93-0.26-5.03-0.79-6.31c-0.53-1.28-1.38-1.92-2.54-1.92c-1.19,0-2.04,0.64-2.55,1.92
				C25.39,744,25.13,746.1,25.13,749.03z"/>
		</g>
		<g id="XMLID_538_">
			<path id="XMLID_539_" style="fill:#124C59;" d="M13.73,800.73H8.68v-13.82l0.05-2.27l0.08-2.48c-0.84,0.84-1.42,1.39-1.75,1.65
				l-2.75,2.21l-2.43-3.04l7.7-6.13h4.15V800.73z"/>
			<path id="XMLID_541_" style="fill:#124C59;" d="M20.08,790.58c0-4.73,1-8.25,3-10.55c2-2.31,4.99-3.46,8.98-3.46
				c1.36,0,2.43,0.08,3.2,0.25v4.04c-0.97-0.22-1.93-0.33-2.88-0.33c-1.73,0-3.14,0.26-4.24,0.78c-1.09,0.52-1.92,1.3-2.46,2.32
				c-0.54,1.02-0.87,2.48-0.96,4.36h0.21c1.08-1.85,2.8-2.78,5.18-2.78c2.13,0,3.81,0.67,5.02,2.01c1.21,1.34,1.81,3.19,1.81,5.56
				c0,2.55-0.72,4.57-2.16,6.05c-1.44,1.49-3.43,2.23-5.98,2.23c-1.76,0-3.3-0.41-4.62-1.23c-1.31-0.82-2.33-2.01-3.04-3.58
				C20.44,794.68,20.08,792.79,20.08,790.58z M28.71,797.02c1.08,0,1.91-0.36,2.48-1.09s0.87-1.76,0.87-3.1
				c0-1.17-0.27-2.08-0.81-2.75c-0.54-0.67-1.35-1-2.44-1c-1.02,0-1.9,0.33-2.62,1c-0.72,0.67-1.09,1.44-1.09,2.32
				c0,1.3,0.34,2.39,1.02,3.28C26.8,796.57,27.66,797.02,28.71,797.02z"/>
		</g>
		<g id="XMLID_532_">
			<path id="XMLID_533_" style="fill:#124C59;" d="M13.73,839.77H8.68v-13.82l0.05-2.27l0.08-2.48c-0.84,0.84-1.42,1.39-1.75,1.65
				l-2.75,2.21l-2.43-3.04l7.7-6.13h4.15V839.77z"/>
			<path id="XMLID_535_" style="fill:#124C59;" d="M36.81,827.83c0,4.17-0.68,7.26-2.05,9.26c-1.37,2-3.47,3.01-6.31,3.01
				c-2.76,0-4.83-1.04-6.23-3.1s-2.1-5.12-2.1-9.17c0-4.21,0.68-7.32,2.04-9.32c1.36-2,3.46-3,6.29-3c2.76,0,4.84,1.05,6.25,3.14
				C36.11,820.74,36.81,823.8,36.81,827.83z M25.13,827.83c0,2.93,0.25,5.03,0.76,6.3s1.36,1.9,2.56,1.9c1.18,0,2.03-0.64,2.55-1.93
				s0.78-3.38,0.78-6.27c0-2.93-0.26-5.03-0.79-6.31c-0.53-1.28-1.38-1.92-2.54-1.92c-1.19,0-2.04,0.64-2.55,1.92
				C25.39,822.8,25.13,824.9,25.13,827.83z"/>
		</g>
		<g id="XMLID_529_">
			<path id="XMLID_530_" style="fill:#124C59;" d="M28.94,903.98c2.31,0,4.15,0.65,5.51,1.94c1.37,1.3,2.05,3.07,2.05,5.33
				c0,2.67-0.82,4.72-2.47,6.16s-4,2.16-7.06,2.16c-2.66,0-4.8-0.43-6.44-1.29v-4.36c0.86,0.46,1.86,0.83,3.01,1.12
				c1.14,0.29,2.23,0.43,3.25,0.43c3.08,0,4.62-1.26,4.62-3.79c0-2.41-1.6-3.61-4.79-3.61c-0.58,0-1.21,0.06-1.91,0.17
				c-0.7,0.12-1.26,0.24-1.7,0.37l-2.01-1.08l0.9-12.17h12.96v4.28h-8.53l-0.44,4.69l0.57-0.12
				C27.13,904.06,27.96,903.98,28.94,903.98z"/>
		</g>
		<g id="XMLID_526_">
			<path id="XMLID_527_" style="fill:#124C59;" d="M32.73,1026.61h-5.05v-13.82l0.05-2.27l0.08-2.48c-0.84,0.84-1.42,1.39-1.75,1.65
				l-2.75,2.21l-2.43-3.04l7.7-6.13h4.15V1026.61z"/>
		</g>
	</g>
	<g id="XMLID_522_">
		<path id="XMLID_523_" style="fill:#124C59;" d="M142.25,23.81c0,7.05-2.01,12.45-6.02,16.2s-9.81,5.62-17.39,5.62h-12.13V2.81
			h13.45c6.99,0,12.42,1.85,16.29,5.54S142.25,17.19,142.25,23.81z M132.82,24.05c0-9.2-4.06-13.8-12.19-13.8h-4.83v27.89h3.9
			C128.44,38.14,132.82,33.44,132.82,24.05z"/>
	</g>
	<g id="XMLID_519_">
		<path id="XMLID_520_" style="fill:#124C59;" d="M200.59,45.64V2.81h9.08v42.83H200.59z"/>
	</g>
	<g id="XMLID_516_">
		<path id="XMLID_517_" style="fill:#124C59;" d="M298.76,33.75c0,3.87-1.39,6.91-4.17,9.14s-6.66,3.34-11.62,3.34
			c-4.57,0-8.61-0.86-12.13-2.58v-8.44c2.89,1.29,5.34,2.2,7.34,2.72s3.83,0.79,5.49,0.79c1.99,0,3.52-0.38,4.58-1.14
			s1.6-1.89,1.6-3.4c0-0.84-0.23-1.59-0.7-2.24c-0.47-0.65-1.16-1.28-2.07-1.89c-0.91-0.6-2.76-1.57-5.55-2.9
			c-2.62-1.23-4.58-2.41-5.89-3.54c-1.31-1.13-2.35-2.45-3.13-3.96c-0.78-1.5-1.17-3.26-1.17-5.27c0-3.79,1.28-6.77,3.85-8.94
			s6.12-3.25,10.65-3.25c2.23,0,4.35,0.26,6.37,0.79s4.14,1.27,6.34,2.23l-2.93,7.06c-2.29-0.94-4.17-1.59-5.67-1.96
			c-1.49-0.37-2.96-0.56-4.41-0.56c-1.72,0-3.04,0.4-3.96,1.2c-0.92,0.8-1.38,1.85-1.38,3.13c0,0.8,0.19,1.5,0.56,2.09
			c0.37,0.6,0.96,1.17,1.77,1.73s2.73,1.56,5.76,3c4,1.91,6.75,3.83,8.23,5.76C298.02,28.59,298.76,30.95,298.76,33.75z"/>
	</g>
	<g id="XMLID_513_">
		<path id="XMLID_514_" style="fill:#124C59;" d="M369.84,9.75c-3.42,0-6.06,1.28-7.94,3.85c-1.88,2.57-2.81,6.15-2.81,10.74
			c0,9.55,3.58,14.33,10.75,14.33c3.01,0,6.65-0.75,10.93-2.26v7.62c-3.52,1.46-7.44,2.2-11.78,2.2c-6.23,0-11-1.89-14.3-5.67
			s-4.95-9.2-4.95-16.27c0-4.45,0.81-8.35,2.43-11.7c1.62-3.35,3.95-5.92,6.99-7.71s6.6-2.68,10.68-2.68
			c4.16,0,8.34,1.01,12.54,3.02l-2.93,7.38c-1.6-0.76-3.21-1.43-4.83-1.99C373,10.04,371.41,9.75,369.84,9.75z"/>
	</g>
</g>
<g id="Most">
	<g id="XMLID_4_">
		<g id="XMLID_508_">
			<path id="XMLID_509_" style="fill:#231F20;" d="M138.64,65.37h-0.06l-3.15,1.7l-0.47-1.87l3.96-2.12h2.09v18.13h-2.37V65.37z"/>
			<path id="XMLID_511_" style="fill:#231F20;" d="M159.3,63.08v1.62l-7.89,16.51h-2.54l7.87-16.04v-0.06h-8.87v-2.04H159.3z"/>
		</g>
		<g id="XMLID_502_">
			<path id="XMLID_503_" style="fill:#231F20;" d="M138.64,89.35h-0.06l-3.15,1.7l-0.47-1.87l3.96-2.12h2.09v18.13h-2.37V89.35z"/>
			<path id="XMLID_505_" style="fill:#231F20;" d="M157.88,88.79c-0.5-0.03-1.14,0-1.84,0.11c-3.85,0.64-5.89,3.46-6.3,6.44h0.08
				c0.87-1.14,2.37-2.09,4.38-2.09c3.21,0,5.47,2.32,5.47,5.86c0,3.32-2.26,6.39-6.03,6.39c-3.88,0-6.42-3.01-6.42-7.73
				c0-3.57,1.28-6.39,3.07-8.17c1.51-1.48,3.51-2.4,5.8-2.68c0.73-0.11,1.34-0.14,1.79-0.14V88.79z M157.18,99.25
				c0-2.59-1.48-4.16-3.74-4.16c-1.48,0-2.85,0.92-3.51,2.23c-0.17,0.28-0.28,0.64-0.28,1.09c0.06,2.98,1.42,5.19,3.99,5.19
				C155.76,103.6,157.18,101.85,157.18,99.25z"/>
		</g>
		<g id="XMLID_497_">
			<path id="XMLID_498_" style="fill:#231F20;" d="M138.64,113.33h-0.06l-3.15,1.7l-0.47-1.87l3.96-2.12h2.09v18.13h-2.37V113.33z"
				/>
			<path id="XMLID_500_" style="fill:#231F20;" d="M158.35,113.11h-6.92l-0.7,4.66c0.42-0.06,0.81-0.11,1.48-0.11
				c1.39,0,2.79,0.31,3.91,0.98c1.42,0.81,2.59,2.37,2.59,4.66c0,3.54-2.82,6.19-6.75,6.19c-1.98,0-3.65-0.56-4.52-1.12l0.61-1.87
				c0.75,0.45,2.23,1,3.88,1c2.32,0,4.3-1.51,4.3-3.93c-0.03-2.34-1.59-4.02-5.22-4.02c-1.03,0-1.84,0.11-2.51,0.2l1.17-8.7h8.67
				V113.11z"/>
		</g>
		<g id="XMLID_487_">
			<path id="XMLID_490_" style="fill:#231F20;" d="M138.64,169.11h-0.06l-3.15,1.7l-0.47-1.87l3.96-2.12h2.09v18.13h-2.37V169.11z"
				/>
			<path id="XMLID_494_" style="fill:#231F20;" d="M155.12,184.95v-4.94h-8.42v-1.62l8.09-11.58h2.65v11.27h2.54v1.92h-2.54v4.94
				H155.12z M155.12,178.09v-6.05c0-0.95,0.03-1.9,0.08-2.85h-0.08c-0.56,1.06-1,1.84-1.51,2.68l-4.44,6.16v0.06H155.12z"/>
		</g>
		<g id="XMLID_480_">
			<path id="XMLID_481_" style="fill:#231F20;" d="M138.64,224.88h-0.06l-3.15,1.7l-0.47-1.87l3.96-2.12h2.09v18.13h-2.37V224.88z"
				/>
			<path id="XMLID_483_" style="fill:#231F20;" d="M147.53,240.72v-1.51l1.92-1.87c4.63-4.41,6.72-6.75,6.75-9.48
				c0-1.84-0.89-3.54-3.6-3.54c-1.65,0-3.01,0.84-3.85,1.53l-0.78-1.73c1.26-1.06,3.04-1.84,5.13-1.84c3.91,0,5.55,2.68,5.55,5.27
				c0,3.35-2.43,6.05-6.25,9.73l-1.45,1.34v0.06h8.15v2.04H147.53z"/>
		</g>
		<g id="XMLID_475_">
			<path id="XMLID_476_" style="fill:#231F20;" d="M138.64,252.76h-0.06l-3.15,1.7l-0.47-1.87l3.96-2.12h2.09v18.13h-2.37V252.76z"
				/>
			<path id="XMLID_478_" style="fill:#231F20;" d="M152.86,252.76h-0.06l-3.15,1.7l-0.47-1.87l3.96-2.12h2.09v18.13h-2.37V252.76z"
				/>
		</g>
		<g id="XMLID_469_">
			<path id="XMLID_470_" style="fill:#231F20;" d="M138.64,297.38h-0.06l-3.15,1.7l-0.47-1.87l3.96-2.12h2.09v18.13h-2.37V297.38z"
				/>
			<path id="XMLID_472_" style="fill:#231F20;" d="M159.58,303.96c0,6.16-2.29,9.57-6.3,9.57c-3.54,0-5.94-3.32-6-9.32
				c0-6.08,2.62-9.43,6.3-9.43C157.4,294.79,159.58,298.19,159.58,303.96z M149.73,304.24c0,4.71,1.45,7.39,3.68,7.39
				c2.51,0,3.71-2.93,3.71-7.56c0-4.46-1.14-7.39-3.68-7.39C151.3,296.68,149.73,299.31,149.73,304.24z"/>
		</g>
		<g id="XMLID_465_">
			<path id="XMLID_466_" style="fill:#231F20;" d="M134.73,336.59c0.53,0.06,1.14,0,1.98-0.08c1.42-0.2,2.76-0.78,3.79-1.76
				c1.2-1.09,2.06-2.68,2.4-4.83h-0.08c-1,1.23-2.45,1.95-4.27,1.95c-3.26,0-5.36-2.45-5.36-5.55c0-3.43,2.48-6.44,6.19-6.44
				s6,3.01,6,7.64c0,3.99-1.34,6.78-3.12,8.51c-1.39,1.37-3.32,2.2-5.27,2.43c-0.89,0.14-1.67,0.17-2.26,0.14V336.59z
				 M135.62,326.16c0,2.26,1.37,3.85,3.49,3.85c1.65,0,2.93-0.81,3.57-1.9c0.14-0.22,0.22-0.5,0.22-0.89c0-3.1-1.14-5.47-3.71-5.47
				C137.1,321.75,135.62,323.59,135.62,326.16z"/>
		</g>
		<g id="XMLID_460_">
			<path id="XMLID_461_" style="fill:#231F20;" d="M133.09,378.34c0-2.29,1.37-3.9,3.6-4.85l-0.03-0.08
				c-2.01-0.95-2.87-2.51-2.87-4.07c0-2.87,2.43-4.83,5.61-4.83c3.51,0,5.27,2.2,5.27,4.46c0,1.53-0.75,3.18-2.98,4.24v0.08
				c2.26,0.89,3.65,2.48,3.65,4.69c0,3.15-2.71,5.27-6.17,5.27C135.37,383.25,133.09,380.99,133.09,378.34z M142.85,378.23
				c0-2.2-1.53-3.26-3.99-3.96c-2.12,0.61-3.26,2.01-3.26,3.74c-0.08,1.84,1.31,3.46,3.63,3.46
				C141.43,381.46,142.85,380.09,142.85,378.23z M136.1,369.16c0,1.81,1.37,2.79,3.46,3.35c1.56-0.53,2.76-1.65,2.76-3.29
				c0-1.45-0.86-2.96-3.07-2.96C137.21,366.26,136.1,367.6,136.1,369.16z"/>
		</g>
		<g id="XMLID_457_">
			<path id="XMLID_458_" style="fill:#231F20;" d="M145.08,420.58v1.62l-7.89,16.51h-2.54l7.87-16.04v-0.06h-8.87v-2.04H145.08z"/>
		</g>
		<g id="XMLID_453_">
			<path id="XMLID_454_" style="fill:#231F20;" d="M143.66,450.2c-0.5-0.03-1.14,0-1.84,0.11c-3.85,0.64-5.89,3.46-6.3,6.44h0.08
				c0.87-1.14,2.37-2.09,4.38-2.09c3.21,0,5.47,2.32,5.47,5.86c0,3.32-2.26,6.39-6.02,6.39c-3.88,0-6.42-3.01-6.42-7.73
				c0-3.57,1.28-6.39,3.07-8.17c1.51-1.48,3.51-2.4,5.8-2.68c0.73-0.11,1.34-0.14,1.79-0.14V450.2z M142.96,460.66
				c0-2.59-1.48-4.16-3.74-4.16c-1.48,0-2.85,0.92-3.51,2.23c-0.17,0.28-0.28,0.64-0.28,1.09c0.06,2.98,1.42,5.19,3.99,5.19
				C141.54,465.01,142.96,463.25,142.96,460.66z"/>
		</g>
		<g id="XMLID_450_">
			<path id="XMLID_451_" style="fill:#231F20;" d="M144.13,478.42h-6.92l-0.7,4.66c0.42-0.06,0.81-0.11,1.48-0.11
				c1.39,0,2.79,0.31,3.91,0.98c1.42,0.81,2.59,2.37,2.59,4.66c0,3.54-2.82,6.19-6.75,6.19c-1.98,0-3.65-0.56-4.52-1.12l0.61-1.87
				c0.75,0.45,2.23,1,3.88,1c2.32,0,4.3-1.51,4.3-3.93c-0.03-2.34-1.59-4.02-5.22-4.02c-1.03,0-1.84,0.11-2.51,0.2l1.17-8.7h8.67
				V478.42z"/>
		</g>
		<g id="XMLID_444_">
			<path id="XMLID_445_" style="fill:#231F20;" d="M140.9,550.26v-4.94h-8.42v-1.62l8.09-11.58h2.65v11.27h2.54v1.92h-2.54v4.94
				H140.9z M140.9,543.4v-6.05c0-0.95,0.03-1.9,0.08-2.85h-0.08c-0.56,1.06-1,1.84-1.51,2.68l-4.43,6.16v0.06H140.9z"/>
		</g>
		<g id="XMLID_441_">
			<path id="XMLID_442_" style="fill:#231F20;" d="M133.89,597.64c0.7,0.45,2.32,1.14,4.02,1.14c3.15,0,4.13-2.01,4.1-3.51
				c-0.03-2.54-2.32-3.63-4.69-3.63h-1.37v-1.84h1.37c1.79,0,4.04-0.92,4.04-3.07c0-1.45-0.92-2.73-3.18-2.73
				c-1.45,0-2.85,0.64-3.63,1.2l-0.64-1.79c0.95-0.7,2.79-1.4,4.74-1.4c3.57,0,5.19,2.12,5.19,4.32c0,1.87-1.12,3.46-3.35,4.27v0.06
				c2.23,0.45,4.04,2.12,4.04,4.66c0,2.9-2.26,5.44-6.61,5.44c-2.04,0-3.82-0.64-4.71-1.23L133.89,597.64z"/>
		</g>
		<g id="XMLID_438_">
			<path id="XMLID_439_" style="fill:#231F20;" d="M133.31,661.8v-1.51l1.92-1.87c4.63-4.41,6.72-6.75,6.75-9.48
				c0-1.84-0.89-3.54-3.6-3.54c-1.65,0-3.01,0.84-3.85,1.53l-0.78-1.73c1.26-1.06,3.04-1.84,5.13-1.84c3.91,0,5.55,2.68,5.55,5.27
				c0,3.35-2.43,6.05-6.25,9.74l-1.45,1.34v0.06h8.14v2.04H133.31z"/>
		</g>
		<g id="XMLID_435_">
			<path id="XMLID_436_" style="fill:#231F20;" d="M138.64,729.62h-0.06l-3.15,1.7l-0.47-1.87l3.96-2.12h2.09v18.13h-2.37V729.62z"
				/>
		</g>
		<g id="XMLID_429_">
			<path id="XMLID_432_" style="fill:#231F20;" d="M145.36,831.01c0,6.17-2.29,9.57-6.3,9.57c-3.54,0-5.94-3.32-6-9.32
				c0-6.08,2.62-9.43,6.3-9.43C143.18,821.83,145.36,825.24,145.36,831.01z M135.51,831.29c0,4.71,1.45,7.39,3.68,7.39
				c2.51,0,3.71-2.93,3.71-7.56c0-4.46-1.14-7.39-3.68-7.39C137.07,823.73,135.51,826.35,135.51,831.29z"/>
		</g>
	</g>
	<g id="XMLID_91_">
		<g id="XMLID_410_">
			<path id="XMLID_415_" style="fill:#231F20;" d="M221.96,109.49h-0.06l-3.15,1.7l-0.47-1.87l3.96-2.12h2.09v18.13h-2.37V109.49z"
				/>
			<path id="XMLID_417_" style="fill:#231F20;" d="M242.62,107.2v1.62l-7.89,16.51h-2.54l7.87-16.04v-0.06h-8.87v-2.04H242.62z"/>
		</g>
		<g id="XMLID_402_">
			<path id="XMLID_403_" style="fill:#231F20;" d="M221.96,134.59h-0.06l-3.15,1.7l-0.47-1.87l3.96-2.12h2.09v18.13h-2.37V134.59z"
				/>
			<path id="XMLID_405_" style="fill:#231F20;" d="M241.2,134.03c-0.5-0.03-1.14,0-1.84,0.11c-3.85,0.64-5.89,3.46-6.3,6.44h0.08
				c0.87-1.14,2.37-2.09,4.38-2.09c3.21,0,5.47,2.32,5.47,5.86c0,3.32-2.26,6.39-6.02,6.39c-3.88,0-6.42-3.01-6.42-7.73
				c0-3.57,1.28-6.39,3.07-8.17c1.51-1.48,3.51-2.4,5.8-2.68c0.73-0.11,1.34-0.14,1.79-0.14V134.03z M240.5,144.49
				c0-2.59-1.48-4.16-3.74-4.16c-1.48,0-2.85,0.92-3.51,2.23c-0.17,0.28-0.28,0.64-0.28,1.09c0.06,2.98,1.42,5.19,3.99,5.19
				C239.08,148.84,240.5,147.08,240.5,144.49z"/>
		</g>
		<g id="XMLID_397_">
			<path id="XMLID_398_" style="fill:#231F20;" d="M221.96,159.68h-0.06l-3.15,1.7l-0.47-1.87l3.96-2.12h2.09v18.13h-2.37V159.68z"
				/>
			<path id="XMLID_400_" style="fill:#231F20;" d="M241.68,159.46h-6.92l-0.7,4.66c0.42-0.06,0.81-0.11,1.48-0.11
				c1.39,0,2.79,0.31,3.91,0.98c1.42,0.81,2.59,2.37,2.59,4.66c0,3.54-2.82,6.19-6.75,6.19c-1.98,0-3.65-0.56-4.52-1.12l0.61-1.87
				c0.75,0.45,2.23,1,3.88,1c2.32,0,4.3-1.51,4.3-3.93c-0.03-2.34-1.59-4.02-5.22-4.02c-1.03,0-1.84,0.11-2.51,0.2l1.17-8.7h8.67
				V159.46z"/>
		</g>
		<g id="XMLID_392_">
			<path id="XMLID_393_" style="fill:#231F20;" d="M221.96,200.39h-0.06l-3.15,1.7l-0.47-1.87l3.96-2.12h2.09v18.13h-2.37V200.39z"
				/>
			<path id="XMLID_395_" style="fill:#231F20;" d="M231.44,213.42c0.7,0.45,2.32,1.14,4.02,1.14c3.15,0,4.13-2.01,4.1-3.51
				c-0.03-2.54-2.32-3.63-4.69-3.63h-1.37v-1.84h1.37c1.79,0,4.04-0.92,4.04-3.07c0-1.45-0.92-2.73-3.18-2.73
				c-1.45,0-2.85,0.64-3.63,1.2l-0.64-1.79c0.95-0.7,2.79-1.4,4.74-1.4c3.57,0,5.19,2.12,5.19,4.32c0,1.87-1.12,3.46-3.35,4.27v0.06
				c2.23,0.45,4.04,2.12,4.04,4.66c0,2.9-2.26,5.44-6.61,5.44c-2.04,0-3.82-0.64-4.71-1.23L231.44,213.42z"/>
		</g>
		<g id="XMLID_387_">
			<path id="XMLID_388_" style="fill:#231F20;" d="M221.96,225.49h-0.06l-3.15,1.7l-0.47-1.87l3.96-2.12h2.09v18.13h-2.37V225.49z"
				/>
			<path id="XMLID_390_" style="fill:#231F20;" d="M230.85,241.33v-1.51l1.92-1.87c4.63-4.41,6.72-6.75,6.75-9.48
				c0-1.84-0.89-3.54-3.6-3.54c-1.65,0-3.01,0.84-3.85,1.53l-0.78-1.73c1.26-1.06,3.04-1.84,5.13-1.84c3.91,0,5.55,2.68,5.55,5.27
				c0,3.35-2.43,6.05-6.25,9.73l-1.45,1.34v0.06h8.14v2.04H230.85z"/>
		</g>
		<g id="XMLID_382_">
			<path id="XMLID_383_" style="fill:#231F20;" d="M221.96,298h-0.06l-3.15,1.7l-0.47-1.87l3.96-2.12h2.09v18.13h-2.37V298z"/>
			<path id="XMLID_385_" style="fill:#231F20;" d="M236.18,298h-0.06l-3.15,1.7l-0.47-1.87l3.96-2.12h2.09v18.13h-2.37V298z"/>
		</g>
		<g id="XMLID_376_">
			<path id="XMLID_377_" style="fill:#231F20;" d="M221.96,325.88h-0.06l-3.15,1.7l-0.47-1.87l3.96-2.12h2.09v18.13h-2.37V325.88z"
				/>
			<path id="XMLID_379_" style="fill:#231F20;" d="M242.9,332.47c0,6.16-2.29,9.57-6.3,9.57c-3.54,0-5.94-3.32-6-9.32
				c0-6.08,2.62-9.43,6.3-9.43C240.73,323.29,242.9,326.69,242.9,332.47z M233.06,332.75c0,4.71,1.45,7.39,3.68,7.39
				c2.51,0,3.71-2.93,3.71-7.56c0-4.46-1.14-7.39-3.68-7.39C234.62,325.19,233.06,327.81,233.06,332.75z"/>
		</g>
		<g id="XMLID_372_">
			<path id="XMLID_373_" style="fill:#231F20;" d="M218.05,384.62c0.53,0.06,1.14,0,1.98-0.08c1.42-0.2,2.76-0.78,3.79-1.76
				c1.2-1.09,2.06-2.68,2.4-4.83h-0.08c-1,1.23-2.45,1.95-4.27,1.95c-3.26,0-5.36-2.45-5.36-5.55c0-3.43,2.48-6.44,6.19-6.44
				s6,3.01,6,7.64c0,3.99-1.34,6.78-3.12,8.51c-1.39,1.37-3.32,2.2-5.27,2.43c-0.89,0.14-1.67,0.17-2.26,0.14V384.62z
				 M218.95,374.18c0,2.26,1.37,3.85,3.49,3.85c1.65,0,2.93-0.81,3.57-1.9c0.14-0.22,0.22-0.5,0.22-0.89c0-3.1-1.14-5.47-3.71-5.47
				C220.43,369.78,218.95,371.62,218.95,374.18z"/>
		</g>
		<g id="XMLID_367_">
			<path id="XMLID_368_" style="fill:#231F20;" d="M216.41,437.51c0-2.29,1.37-3.9,3.6-4.85l-0.03-0.08
				c-2.01-0.95-2.87-2.51-2.87-4.07c0-2.87,2.43-4.83,5.61-4.83c3.51,0,5.27,2.2,5.27,4.46c0,1.53-0.75,3.18-2.98,4.24v0.08
				c2.26,0.89,3.65,2.48,3.65,4.69c0,3.15-2.71,5.27-6.17,5.27C218.7,442.42,216.41,440.16,216.41,437.51z M226.17,437.4
				c0-2.2-1.53-3.26-3.99-3.96c-2.12,0.61-3.26,2.01-3.26,3.74c-0.08,1.84,1.31,3.46,3.63,3.46
				C224.75,440.64,226.17,439.27,226.17,437.4z M219.42,428.33c0,1.81,1.37,2.79,3.46,3.35c1.56-0.53,2.76-1.65,2.76-3.29
				c0-1.45-0.86-2.96-3.07-2.96C220.54,425.43,219.42,426.77,219.42,428.33z"/>
		</g>
		<g id="XMLID_364_">
			<path id="XMLID_365_" style="fill:#231F20;" d="M228.4,463.03v1.62l-7.89,16.51h-2.54l7.87-16.04v-0.06h-8.87v-2.04H228.4z"/>
		</g>
		<g id="XMLID_360_">
			<path id="XMLID_361_" style="fill:#231F20;" d="M226.98,487.06c-0.5-0.03-1.14,0-1.84,0.11c-3.85,0.64-5.89,3.46-6.3,6.44h0.08
				c0.87-1.14,2.37-2.09,4.38-2.09c3.21,0,5.47,2.32,5.47,5.86c0,3.32-2.26,6.39-6.03,6.39c-3.88,0-6.42-3.01-6.42-7.73
				c0-3.57,1.28-6.39,3.07-8.17c1.51-1.48,3.51-2.4,5.8-2.68c0.73-0.11,1.34-0.14,1.79-0.14V487.06z M226.28,497.52
				c0-2.59-1.48-4.16-3.74-4.16c-1.48,0-2.85,0.92-3.51,2.23c-0.17,0.28-0.28,0.64-0.28,1.09c0.06,2.98,1.42,5.19,3.99,5.19
				C224.86,501.88,226.28,500.12,226.28,497.52z"/>
		</g>
		<g id="XMLID_357_">
			<path id="XMLID_358_" style="fill:#231F20;" d="M227.45,515.28h-6.92l-0.7,4.66c0.42-0.06,0.81-0.11,1.48-0.11
				c1.39,0,2.79,0.31,3.91,0.98c1.42,0.81,2.59,2.37,2.59,4.66c0,3.54-2.82,6.19-6.75,6.19c-1.98,0-3.65-0.56-4.52-1.12l0.61-1.87
				c0.75,0.45,2.23,1,3.88,1c2.32,0,4.3-1.51,4.3-3.93c-0.03-2.34-1.59-4.02-5.22-4.02c-1.03,0-1.84,0.11-2.51,0.2l1.17-8.7h8.67
				V515.28z"/>
		</g>
		<g id="XMLID_353_">
			<path id="XMLID_354_" style="fill:#231F20;" d="M224.22,564.81v-4.94h-8.42v-1.62l8.09-11.58h2.65v11.27h2.54v1.92h-2.54v4.94
				H224.22z M224.22,557.95v-6.05c0-0.95,0.03-1.9,0.08-2.85h-0.08c-0.56,1.06-1,1.84-1.51,2.68l-4.44,6.16v0.06H224.22z"/>
		</g>
		<g id="XMLID_350_">
			<path id="XMLID_351_" style="fill:#231F20;" d="M217.22,601.04c0.7,0.45,2.32,1.14,4.02,1.14c3.15,0,4.13-2.01,4.1-3.51
				c-0.03-2.54-2.32-3.63-4.69-3.63h-1.37v-1.84h1.37c1.79,0,4.04-0.92,4.04-3.07c0-1.45-0.92-2.73-3.18-2.73
				c-1.45,0-2.85,0.64-3.63,1.2l-0.64-1.78c0.95-0.7,2.79-1.4,4.74-1.4c3.57,0,5.19,2.12,5.19,4.32c0,1.87-1.12,3.46-3.35,4.27v0.06
				c2.23,0.45,4.04,2.12,4.04,4.66c0,2.9-2.26,5.44-6.61,5.44c-2.04,0-3.82-0.64-4.71-1.23L217.22,601.04z"/>
		</g>
		<g id="XMLID_347_">
			<path id="XMLID_348_" style="fill:#231F20;" d="M216.63,670.78v-1.51l1.92-1.87c4.63-4.41,6.72-6.75,6.75-9.48
				c0-1.84-0.89-3.54-3.6-3.54c-1.65,0-3.01,0.84-3.85,1.53l-0.78-1.73c1.26-1.06,3.04-1.84,5.13-1.84c3.91,0,5.55,2.68,5.55,5.27
				c0,3.35-2.43,6.05-6.25,9.73l-1.45,1.34v0.06h8.15v2.04H216.63z"/>
		</g>
		<g id="XMLID_344_">
			<path id="XMLID_345_" style="fill:#231F20;" d="M221.96,738.6h-0.06l-3.15,1.7l-0.47-1.87l3.96-2.12h2.09v18.13h-2.37V738.6z"/>
		</g>
		<g id="XMLID_340_">
			<path id="XMLID_341_" style="fill:#231F20;" d="M228.68,856.73c0,6.17-2.29,9.57-6.3,9.57c-3.54,0-5.94-3.32-6-9.32
				c0-6.08,2.62-9.43,6.3-9.43C226.51,847.55,228.68,850.95,228.68,856.73z M218.84,857c0,4.71,1.45,7.39,3.68,7.39
				c2.51,0,3.71-2.93,3.71-7.56c0-4.46-1.14-7.39-3.68-7.39C220.4,849.45,218.84,852.07,218.84,857z"/>
		</g>
	</g>
	<g id="XMLID_105_">
		<g id="XMLID_335_">
			<path id="XMLID_336_" style="fill:#231F20;" d="M299.34,109.51h-0.06l-3.15,1.7l-0.47-1.87l3.96-2.12h2.09v18.13h-2.37V109.51z"
				/>
			<path id="XMLID_338_" style="fill:#231F20;" d="M320.01,107.23v1.62l-7.89,16.51h-2.54l7.87-16.04v-0.06h-8.87v-2.04H320.01z"/>
		</g>
		<g id="XMLID_329_">
			<path id="XMLID_330_" style="fill:#231F20;" d="M299.34,198.75h-0.06l-3.15,1.7l-0.47-1.87l3.96-2.12h2.09v18.13h-2.37V198.75z"
				/>
			<path id="XMLID_332_" style="fill:#231F20;" d="M318.59,198.19c-0.5-0.03-1.14,0-1.84,0.11c-3.85,0.64-5.89,3.46-6.3,6.44h0.08
				c0.87-1.14,2.37-2.09,4.38-2.09c3.21,0,5.47,2.32,5.47,5.86c0,3.32-2.26,6.39-6.02,6.39c-3.88,0-6.42-3.01-6.42-7.73
				c0-3.57,1.28-6.39,3.07-8.17c1.51-1.48,3.51-2.4,5.8-2.68c0.73-0.11,1.34-0.14,1.79-0.14V198.19z M317.89,208.65
				c0-2.59-1.48-4.16-3.74-4.16c-1.48,0-2.85,0.92-3.51,2.23c-0.17,0.28-0.28,0.64-0.28,1.09c0.06,2.98,1.42,5.19,3.99,5.19
				C316.47,213,317.89,211.25,317.89,208.65z"/>
		</g>
		<g id="XMLID_324_">
			<path id="XMLID_325_" style="fill:#231F20;" d="M299.34,248.94h-0.06l-3.15,1.7l-0.47-1.87l3.96-2.12h2.09v18.13h-2.37V248.94z"
				/>
			<path id="XMLID_327_" style="fill:#231F20;" d="M319.06,248.72h-6.92l-0.7,4.66c0.42-0.06,0.81-0.11,1.48-0.11
				c1.39,0,2.79,0.31,3.91,0.98c1.42,0.81,2.59,2.37,2.59,4.66c0,3.54-2.82,6.19-6.75,6.19c-1.98,0-3.65-0.56-4.52-1.12l0.61-1.87
				c0.75,0.45,2.23,1,3.88,1c2.32,0,4.3-1.51,4.3-3.93c-0.03-2.34-1.59-4.02-5.22-4.02c-1.03,0-1.84,0.11-2.51,0.2l1.17-8.7h8.67
				V248.72z"/>
		</g>
		<g id="XMLID_318_">
			<path id="XMLID_319_" style="fill:#231F20;" d="M299.34,310.29h-0.06l-3.15,1.7l-0.47-1.87l3.96-2.12h2.09v18.13h-2.37V310.29z"
				/>
			<path id="XMLID_321_" style="fill:#231F20;" d="M315.82,326.14v-4.94h-8.42v-1.62l8.09-11.58h2.65v11.27h2.54v1.92h-2.54v4.94
				H315.82z M315.82,319.28v-6.05c0-0.95,0.03-1.9,0.08-2.85h-0.08c-0.56,1.06-1,1.84-1.51,2.68l-4.43,6.16v0.06H315.82z"/>
		</g>
		<g id="XMLID_313_">
			<path id="XMLID_314_" style="fill:#231F20;" d="M299.34,360.49h-0.06l-3.15,1.7l-0.47-1.87l3.96-2.12h2.09v18.13h-2.37V360.49z"
				/>
			<path id="XMLID_316_" style="fill:#231F20;" d="M308.82,373.51c0.7,0.45,2.32,1.14,4.02,1.14c3.15,0,4.13-2.01,4.1-3.51
				c-0.03-2.54-2.32-3.63-4.69-3.63h-1.37v-1.84h1.37c1.79,0,4.04-0.92,4.04-3.07c0-1.45-0.92-2.73-3.18-2.73
				c-1.45,0-2.85,0.64-3.63,1.2l-0.64-1.79c0.95-0.7,2.79-1.4,4.74-1.4c3.57,0,5.19,2.12,5.19,4.32c0,1.87-1.12,3.46-3.35,4.27v0.06
				c2.23,0.45,4.04,2.12,4.04,4.66c0,2.9-2.26,5.44-6.61,5.44c-2.04,0-3.82-0.64-4.71-1.23L308.82,373.51z"/>
		</g>
		<g id="XMLID_308_">
			<path id="XMLID_309_" style="fill:#231F20;" d="M299.34,416.26h-0.06l-3.15,1.7l-0.47-1.87l3.96-2.12h2.09v18.13h-2.37V416.26z"
				/>
			<path id="XMLID_311_" style="fill:#231F20;" d="M308.24,432.1v-1.51l1.92-1.87c4.63-4.41,6.72-6.75,6.75-9.48
				c0-1.84-0.89-3.54-3.6-3.54c-1.65,0-3.01,0.84-3.85,1.53l-0.78-1.73c1.26-1.06,3.04-1.84,5.13-1.84c3.91,0,5.55,2.68,5.55,5.27
				c0,3.35-2.43,6.05-6.25,9.73l-1.45,1.34v0.06h8.14v2.04H308.24z"/>
		</g>
		<g id="XMLID_303_">
			<path id="XMLID_304_" style="fill:#231F20;" d="M299.34,441.36h-0.06l-3.15,1.7l-0.47-1.87l3.96-2.12h2.09v18.13h-2.37V441.36z"
				/>
			<path id="XMLID_306_" style="fill:#231F20;" d="M313.57,441.36h-0.06l-3.15,1.7l-0.47-1.87l3.96-2.12h2.09v18.13h-2.37V441.36z"
				/>
		</g>
		<g id="XMLID_297_">
			<path id="XMLID_298_" style="fill:#231F20;" d="M299.34,469.24h-0.06l-3.15,1.7l-0.47-1.87l3.96-2.12h2.09v18.13h-2.37V469.24z"
				/>
			<path id="XMLID_300_" style="fill:#231F20;" d="M320.29,475.83c0,6.16-2.29,9.57-6.3,9.57c-3.54,0-5.94-3.32-6-9.32
				c0-6.08,2.62-9.43,6.3-9.43C318.11,466.65,320.29,470.05,320.29,475.83z M310.44,476.1c0,4.71,1.45,7.39,3.68,7.39
				c2.51,0,3.71-2.93,3.71-7.56c0-4.46-1.14-7.39-3.68-7.39C312,468.55,310.44,471.17,310.44,476.1z"/>
		</g>
		<g id="XMLID_293_">
			<path id="XMLID_294_" style="fill:#231F20;" d="M295.44,544.71c0.53,0.06,1.14,0,1.98-0.08c1.42-0.2,2.76-0.78,3.79-1.76
				c1.2-1.09,2.06-2.68,2.4-4.83h-0.08c-1,1.23-2.45,1.95-4.27,1.95c-3.26,0-5.36-2.45-5.36-5.55c0-3.43,2.48-6.44,6.19-6.44
				s6,3.01,6,7.64c0,3.99-1.34,6.78-3.12,8.51c-1.39,1.37-3.32,2.2-5.27,2.43c-0.89,0.14-1.67,0.17-2.26,0.14V544.71z
				 M296.33,534.28c0,2.26,1.37,3.85,3.49,3.85c1.65,0,2.93-0.81,3.57-1.9c0.14-0.22,0.22-0.5,0.22-0.89c0-3.1-1.14-5.47-3.71-5.47
				C297.81,529.87,296.33,531.71,296.33,534.28z"/>
		</g>
		<g id="XMLID_286_">
			<path id="XMLID_287_" style="fill:#231F20;" d="M293.79,566.93c0-2.29,1.37-3.9,3.6-4.85l-0.03-0.08
				c-2.01-0.95-2.87-2.51-2.87-4.07c0-2.87,2.43-4.83,5.61-4.83c3.51,0,5.27,2.2,5.27,4.46c0,1.53-0.75,3.18-2.98,4.24v0.08
				c2.26,0.89,3.65,2.48,3.65,4.69c0,3.15-2.71,5.27-6.17,5.27C296.08,571.84,293.79,569.58,293.79,566.93z M303.56,566.82
				c0-2.2-1.53-3.26-3.99-3.96c-2.12,0.61-3.26,2.01-3.26,3.74c-0.08,1.84,1.31,3.46,3.63,3.46
				C302.13,570.05,303.56,568.69,303.56,566.82z M296.81,557.75c0,1.81,1.37,2.79,3.46,3.35c1.56-0.53,2.76-1.65,2.76-3.29
				c0-1.45-0.86-2.96-3.07-2.96C297.92,554.85,296.81,556.19,296.81,557.75z"/>
		</g>
		<g id="XMLID_283_">
			<path id="XMLID_284_" style="fill:#231F20;" d="M305.79,578.5v1.62l-7.89,16.51h-2.54l7.87-16.04v-0.06h-8.87v-2.04H305.79z"/>
		</g>
		<g id="XMLID_279_">
			<path id="XMLID_280_" style="fill:#231F20;" d="M304.36,608.12c-0.5-0.03-1.14,0-1.84,0.11c-3.85,0.64-5.89,3.46-6.3,6.44h0.08
				c0.87-1.14,2.37-2.09,4.38-2.09c3.21,0,5.47,2.32,5.47,5.86c0,3.32-2.26,6.39-6.03,6.39c-3.88,0-6.42-3.01-6.42-7.73
				c0-3.57,1.28-6.39,3.07-8.17c1.51-1.48,3.51-2.4,5.8-2.68c0.73-0.11,1.34-0.14,1.79-0.14V608.12z M303.67,618.58
				c0-2.59-1.48-4.16-3.74-4.16c-1.48,0-2.85,0.92-3.51,2.23c-0.17,0.28-0.28,0.64-0.28,1.09c0.06,2.99,1.42,5.19,3.99,5.19
				C302.24,622.93,303.67,621.17,303.67,618.58z"/>
		</g>
		<g id="XMLID_276_">
			<path id="XMLID_277_" style="fill:#231F20;" d="M304.84,647.49h-6.92l-0.7,4.66c0.42-0.06,0.81-0.11,1.48-0.11
				c1.39,0,2.79,0.31,3.91,0.98c1.42,0.81,2.59,2.37,2.59,4.66c0,3.54-2.82,6.19-6.75,6.19c-1.98,0-3.65-0.56-4.52-1.12l0.61-1.87
				c0.75,0.45,2.23,1,3.88,1c2.32,0,4.3-1.51,4.3-3.93c-0.03-2.34-1.59-4.02-5.22-4.02c-1.03,0-1.84,0.11-2.51,0.2l1.17-8.7h8.67
				V647.49z"/>
		</g>
		<g id="XMLID_272_">
			<path id="XMLID_273_" style="fill:#231F20;" d="M301.6,708.18v-4.94h-8.42v-1.62l8.09-11.58h2.65v11.27h2.54v1.92h-2.54v4.94
				H301.6z M301.6,701.31v-6.05c0-0.95,0.03-1.9,0.08-2.85h-0.08c-0.56,1.06-1,1.84-1.51,2.68l-4.44,6.16v0.06H301.6z"/>
		</g>
		<g id="XMLID_269_">
			<path id="XMLID_270_" style="fill:#231F20;" d="M294.6,755.55c0.7,0.45,2.32,1.14,4.02,1.14c3.15,0,4.13-2.01,4.1-3.51
				c-0.03-2.54-2.32-3.63-4.69-3.63h-1.37v-1.84h1.37c1.79,0,4.04-0.92,4.04-3.07c0-1.45-0.92-2.73-3.18-2.73
				c-1.45,0-2.85,0.64-3.63,1.2l-0.64-1.79c0.95-0.7,2.79-1.39,4.74-1.39c3.57,0,5.19,2.12,5.19,4.32c0,1.87-1.12,3.46-3.35,4.27
				v0.06c2.23,0.45,4.04,2.12,4.04,4.66c0,2.9-2.26,5.44-6.61,5.44c-2.04,0-3.82-0.64-4.71-1.23L294.6,755.55z"/>
		</g>
		<g id="XMLID_266_">
			<path id="XMLID_267_" style="fill:#231F20;" d="M294.02,819.72v-1.51l1.92-1.87c4.63-4.41,6.72-6.75,6.75-9.48
				c0-1.84-0.89-3.54-3.6-3.54c-1.65,0-3.01,0.84-3.85,1.53l-0.78-1.73c1.26-1.06,3.04-1.84,5.13-1.84c3.91,0,5.55,2.68,5.55,5.27
				c0,3.35-2.43,6.05-6.25,9.74l-1.45,1.34v0.06h8.15v2.04H294.02z"/>
		</g>
		<g id="XMLID_263_">
			<path id="XMLID_264_" style="fill:#231F20;" d="M299.34,848.49h-0.06l-3.15,1.7l-0.47-1.87l3.96-2.12h2.09v18.13h-2.37V848.49z"
				/>
		</g>
		<g id="XMLID_259_">
			<path id="XMLID_260_" style="fill:#231F20;" d="M306.07,949.89c0,6.17-2.29,9.57-6.3,9.57c-3.54,0-5.94-3.32-6-9.32
				c0-6.08,2.62-9.43,6.3-9.43C303.89,940.71,306.07,944.12,306.07,949.89z M296.22,950.17c0,4.71,1.45,7.39,3.68,7.39
				c2.51,0,3.71-2.93,3.71-7.56c0-4.46-1.14-7.39-3.68-7.39C297.78,942.61,296.22,945.23,296.22,950.17z"/>
		</g>
	</g>
	<g id="XMLID_106_">
		<g id="XMLID_253_">
			<path id="XMLID_254_" style="fill:#231F20;" d="M382.72,109.65h-0.06l-3.15,1.7l-0.47-1.87l3.96-2.12h2.09v18.13h-2.37V109.65z"
				/>
			<path id="XMLID_256_" style="fill:#231F20;" d="M399.2,125.5v-4.94h-8.42v-1.62l8.09-11.58h2.65v11.27h2.54v1.92h-2.54v4.94
				H399.2z M399.2,118.63v-6.05c0-0.95,0.03-1.9,0.08-2.85h-0.08c-0.56,1.06-1,1.84-1.51,2.68l-4.44,6.16v0.06H399.2z"/>
		</g>
		<g id="XMLID_246_">
			<path id="XMLID_248_" style="fill:#231F20;" d="M382.72,134.75h-0.06l-3.15,1.7l-0.47-1.87l3.96-2.12h2.09v18.13h-2.37V134.75z"
				/>
			<path id="XMLID_250_" style="fill:#231F20;" d="M392.2,147.77c0.7,0.45,2.32,1.14,4.02,1.14c3.15,0,4.13-2.01,4.1-3.51
				c-0.03-2.54-2.32-3.63-4.69-3.63h-1.37v-1.84h1.37c1.79,0,4.04-0.92,4.04-3.07c0-1.45-0.92-2.73-3.18-2.73
				c-1.45,0-2.85,0.64-3.63,1.2l-0.64-1.79c0.95-0.7,2.79-1.4,4.74-1.4c3.57,0,5.19,2.12,5.19,4.32c0,1.87-1.12,3.46-3.35,4.27v0.06
				c2.23,0.45,4.04,2.12,4.04,4.66c0,2.9-2.26,5.44-6.61,5.44c-2.04,0-3.82-0.64-4.71-1.23L392.2,147.77z"/>
		</g>
		<g id="XMLID_239_">
			<path id="XMLID_240_" style="fill:#231F20;" d="M382.72,173.79h-0.06l-3.15,1.7l-0.47-1.87l3.96-2.12h2.09v18.13h-2.37V173.79z"
				/>
			<path id="XMLID_244_" style="fill:#231F20;" d="M391.62,189.63v-1.51l1.92-1.87c4.63-4.41,6.72-6.75,6.75-9.48
				c0-1.84-0.89-3.54-3.6-3.54c-1.65,0-3.01,0.84-3.85,1.53l-0.78-1.73c1.26-1.06,3.04-1.84,5.13-1.84c3.91,0,5.55,2.68,5.55,5.27
				c0,3.35-2.43,6.05-6.25,9.73l-1.45,1.34v0.06h8.15v2.04H391.62z"/>
		</g>
		<g id="XMLID_233_">
			<path id="XMLID_234_" style="fill:#231F20;" d="M382.72,274.18h-0.06l-3.15,1.7l-0.47-1.87l3.96-2.12h2.09v18.13h-2.37V274.18z"
				/>
			<path id="XMLID_237_" style="fill:#231F20;" d="M396.94,274.18h-0.06l-3.15,1.7l-0.47-1.87l3.96-2.12h2.09v18.13h-2.37V274.18z"
				/>
		</g>
		<g id="XMLID_221_">
			<path id="XMLID_223_" style="fill:#231F20;" d="M382.72,329.95h-0.06l-3.15,1.7l-0.47-1.87l3.96-2.12h2.09v18.13h-2.37V329.95z"
				/>
			<path id="XMLID_225_" style="fill:#231F20;" d="M403.67,336.54c0,6.16-2.29,9.57-6.3,9.57c-3.54,0-5.94-3.32-6-9.32
				c0-6.08,2.62-9.43,6.3-9.43C401.49,327.36,403.67,330.76,403.67,336.54z M393.82,336.82c0,4.71,1.45,7.39,3.68,7.39
				c2.51,0,3.71-2.93,3.71-7.56c0-4.46-1.14-7.39-3.68-7.39C395.38,329.26,393.82,331.88,393.82,336.82z"/>
		</g>
		<g id="XMLID_217_">
			<path id="XMLID_218_" style="fill:#231F20;" d="M378.82,388.69c0.53,0.06,1.14,0,1.98-0.08c1.42-0.2,2.76-0.78,3.79-1.76
				c1.2-1.09,2.06-2.68,2.4-4.83h-0.08c-1,1.23-2.45,1.95-4.27,1.95c-3.26,0-5.36-2.45-5.36-5.55c0-3.43,2.48-6.44,6.19-6.44
				s6,3.01,6,7.64c0,3.99-1.34,6.78-3.12,8.51c-1.39,1.37-3.32,2.2-5.27,2.43c-0.89,0.14-1.67,0.17-2.26,0.14V388.69z
				 M379.71,378.25c0,2.26,1.37,3.85,3.49,3.85c1.65,0,2.93-0.81,3.57-1.9c0.14-0.22,0.22-0.5,0.22-0.89c0-3.1-1.14-5.47-3.71-5.47
				C381.19,373.85,379.71,375.69,379.71,378.25z"/>
		</g>
		<g id="XMLID_211_">
			<path id="XMLID_213_" style="fill:#231F20;" d="M377.17,452.74c0-2.29,1.37-3.9,3.6-4.85l-0.03-0.08
				c-2.01-0.95-2.87-2.51-2.87-4.07c0-2.87,2.43-4.83,5.61-4.83c3.51,0,5.27,2.2,5.27,4.46c0,1.53-0.75,3.18-2.98,4.24v0.08
				c2.26,0.89,3.65,2.48,3.65,4.69c0,3.15-2.71,5.27-6.17,5.27C379.46,457.65,377.17,455.39,377.17,452.74z M386.93,452.63
				c0-2.2-1.53-3.26-3.99-3.96c-2.12,0.61-3.26,2.01-3.26,3.74c-0.08,1.84,1.31,3.46,3.63,3.46
				C385.51,455.86,386.93,454.5,386.93,452.63z M380.18,443.56c0,1.81,1.37,2.79,3.46,3.35c1.56-0.53,2.76-1.65,2.76-3.29
				c0-1.45-0.86-2.96-3.07-2.96C381.3,440.66,380.18,442,380.18,443.56z"/>
		</g>
		<g id="XMLID_208_">
			<path id="XMLID_209_" style="fill:#231F20;" d="M389.17,467.1v1.62l-7.89,16.51h-2.54l7.87-16.04v-0.06h-8.87v-2.04H389.17z"/>
		</g>
		<g id="XMLID_204_">
			<path id="XMLID_205_" style="fill:#231F20;" d="M387.74,530.18c-0.5-0.03-1.14,0-1.84,0.11c-3.85,0.64-5.89,3.46-6.3,6.44h0.08
				c0.87-1.14,2.37-2.09,4.38-2.09c3.21,0,5.47,2.32,5.47,5.86c0,3.32-2.26,6.39-6.02,6.39c-3.88,0-6.42-3.01-6.42-7.73
				c0-3.57,1.28-6.39,3.07-8.17c1.51-1.48,3.51-2.4,5.8-2.68c0.73-0.11,1.34-0.14,1.79-0.14V530.18z M387.05,540.64
				c0-2.59-1.48-4.16-3.74-4.16c-1.48,0-2.85,0.92-3.51,2.23c-0.17,0.28-0.28,0.64-0.28,1.09c0.06,2.98,1.42,5.19,3.99,5.19
				C385.62,544.99,387.05,543.23,387.05,540.64z"/>
		</g>
		<g id="XMLID_201_">
			<path id="XMLID_202_" style="fill:#231F20;" d="M388.22,586.28h-6.92l-0.7,4.66c0.42-0.06,0.81-0.11,1.48-0.11
				c1.39,0,2.79,0.31,3.91,0.98c1.42,0.81,2.59,2.37,2.59,4.66c0,3.54-2.82,6.19-6.75,6.19c-1.98,0-3.65-0.56-4.52-1.12l0.61-1.87
				c0.75,0.45,2.23,1,3.88,1c2.32,0,4.3-1.51,4.3-3.93c-0.03-2.34-1.59-4.02-5.22-4.02c-1.03,0-1.84,0.11-2.51,0.2l1.17-8.7h8.67
				V586.28z"/>
		</g>
		<g id="XMLID_197_">
			<path id="XMLID_198_" style="fill:#231F20;" d="M384.98,630.24v-4.94h-8.42v-1.62l8.09-11.58h2.65v11.27h2.54v1.92h-2.54v4.94
				H384.98z M384.98,623.37v-6.05c0-0.95,0.03-1.9,0.08-2.85h-0.08c-0.56,1.06-1,1.84-1.51,2.68l-4.43,6.17v0.06H384.98z"/>
		</g>
		<g id="XMLID_194_">
			<path id="XMLID_195_" style="fill:#231F20;" d="M377.98,733.39c0.7,0.45,2.32,1.14,4.02,1.14c3.15,0,4.13-2.01,4.1-3.51
				c-0.03-2.54-2.32-3.63-4.69-3.63h-1.37v-1.84h1.37c1.79,0,4.04-0.92,4.04-3.07c0-1.45-0.92-2.73-3.18-2.73
				c-1.45,0-2.85,0.64-3.63,1.2l-0.64-1.79c0.95-0.7,2.79-1.39,4.74-1.39c3.57,0,5.19,2.12,5.19,4.32c0,1.87-1.12,3.46-3.35,4.27
				v0.06c2.23,0.45,4.04,2.12,4.04,4.66c0,2.9-2.26,5.44-6.61,5.44c-2.04,0-3.82-0.64-4.71-1.23L377.98,733.39z"/>
		</g>
		<g id="XMLID_191_">
			<path id="XMLID_192_" style="fill:#231F20;" d="M377.39,797.56v-1.51l1.92-1.87c4.63-4.41,6.72-6.75,6.75-9.48
				c0-1.84-0.89-3.54-3.6-3.54c-1.65,0-3.01,0.84-3.85,1.53l-0.78-1.73c1.26-1.06,3.04-1.84,5.13-1.84c3.91,0,5.55,2.68,5.55,5.27
				c0,3.35-2.43,6.05-6.25,9.73l-1.45,1.34v0.06h8.14v2.04H377.39z"/>
		</g>
		<g id="XMLID_188_">
			<path id="XMLID_189_" style="fill:#231F20;" d="M382.72,837.48h-0.06l-3.15,1.7l-0.47-1.87l3.96-2.12h2.09v18.13h-2.37V837.48z"
				/>
		</g>
		<g id="XMLID_184_">
			<path id="XMLID_185_" style="fill:#231F20;" d="M389.44,1000.23c0,6.17-2.29,9.57-6.3,9.57c-3.54,0-5.94-3.32-6-9.32
				c0-6.08,2.62-9.43,6.3-9.43C387.27,991.05,389.44,994.45,389.44,1000.23z M379.6,1000.51c0,4.71,1.45,7.39,3.68,7.39
				c2.51,0,3.71-2.93,3.71-7.56c0-4.46-1.14-7.39-3.68-7.39C381.16,992.95,379.6,995.57,379.6,1000.51z"/>
		</g>
	</g>
	<g id="XMLID_174_">
		<path id="XMLID_175_" style="fill:#2290BA;" d="M182.77,1122.02l-14.98-39.15h-0.24c0.28,3.1,0.42,6.79,0.42,11.06v28.09h-4.74
			v-44.16h7.73l13.99,36.43h0.24l14.11-36.43h7.67v44.16h-5.13v-28.46c0-3.26,0.14-6.81,0.42-10.63h-0.24l-15.1,39.09H182.77z"/>
		<path id="XMLID_177_" style="fill:#2290BA;" d="M258.71,1099.88c0,7.07-1.79,12.63-5.36,16.67c-3.57,4.05-8.54,6.07-14.91,6.07
			c-6.5,0-11.52-1.99-15.06-5.97c-3.53-3.98-5.3-9.59-5.3-16.84c0-7.19,1.77-12.76,5.32-16.72c3.54-3.96,8.58-5.94,15.1-5.94
			c6.34,0,11.3,2.01,14.86,6.04C256.93,1087.23,258.71,1092.79,258.71,1099.88z M223.52,1099.88c0,5.98,1.27,10.52,3.82,13.61
			c2.55,3.09,6.25,4.64,11.1,4.64c4.89,0,8.59-1.54,11.09-4.62s3.75-7.62,3.75-13.62c0-5.94-1.24-10.45-3.73-13.52
			c-2.49-3.07-6.17-4.61-11.04-4.61c-4.89,0-8.61,1.55-11.16,4.64C224.79,1089.48,223.52,1093.98,223.52,1099.88z"/>
		<path id="XMLID_180_" style="fill:#2290BA;" d="M294.78,1110.27c0,3.89-1.41,6.92-4.23,9.09s-6.65,3.26-11.48,3.26
			c-5.24,0-9.26-0.67-12.08-2.02v-4.95c1.81,0.77,3.79,1.37,5.92,1.81c2.13,0.44,4.25,0.67,6.34,0.67c3.42,0,6-0.65,7.73-1.95
			c1.73-1.3,2.6-3.11,2.6-5.42c0-1.53-0.31-2.78-0.92-3.76s-1.64-1.88-3.08-2.7c-1.44-0.83-3.63-1.76-6.57-2.81
			c-4.11-1.47-7.04-3.21-8.81-5.23c-1.76-2.01-2.64-4.64-2.64-7.88c0-3.4,1.28-6.11,3.84-8.12c2.56-2.01,5.94-3.02,10.15-3.02
			c4.39,0,8.43,0.81,12.11,2.42l-1.6,4.47c-3.65-1.53-7.19-2.3-10.63-2.3c-2.72,0-4.84,0.58-6.37,1.75c-1.53,1.17-2.3,2.79-2.3,4.86
			c0,1.53,0.28,2.78,0.85,3.76c0.56,0.98,1.51,1.87,2.85,2.69c1.34,0.82,3.39,1.72,6.15,2.7c4.63,1.65,7.82,3.42,9.56,5.32
			C293.91,1104.79,294.78,1107.25,294.78,1110.27z"/>
		<path id="XMLID_182_" style="fill:#2290BA;" d="M318.7,1122.02h-5.13v-39.6h-13.99v-4.56h33.11v4.56H318.7V1122.02z"/>
	</g>
	<g id="XMLID_131_">
		<path id="XMLID_132_" style="fill:#124C59;" d="M57.86,1177.63v-25.29h6.87v25.29H57.86z"/>
		<path id="XMLID_134_" style="fill:#124C59;" d="M67.56,1174.76c0-1.06,0.31-1.88,0.94-2.46c0.63-0.58,1.54-0.86,2.74-0.86
			c1.14,0,2.02,0.29,2.63,0.86c0.61,0.58,0.92,1.4,0.92,2.46c0,1.04-0.31,1.85-0.94,2.43c-0.63,0.58-1.5,0.87-2.6,0.87
			c-1.14,0-2.04-0.29-2.7-0.87C67.89,1176.63,67.56,1175.81,67.56,1174.76z"/>
		<path id="XMLID_136_" style="fill:#124C59;" d="M103.05,1160.39c0,2.83-0.83,5.01-2.5,6.55c-1.67,1.54-4.03,2.31-7.1,2.31h-1.92
			v8.39H84.7v-25.29h8.75c3.19,0,5.59,0.7,7.2,2.09C102.25,1155.84,103.05,1157.82,103.05,1160.39z M91.53,1163.68h1.25
			c1.03,0,1.84-0.29,2.45-0.86c0.6-0.58,0.91-1.37,0.91-2.39c0-1.71-0.95-2.56-2.84-2.56h-1.76V1163.68z"/>
		<path id="XMLID_139_" style="fill:#124C59;" d="M112.53,1168.43v9.2h-6.83v-25.29h8.28c6.87,0,10.31,2.49,10.31,7.47
			c0,2.93-1.43,5.19-4.29,6.8l7.37,11.02h-7.75l-5.36-9.2H112.53z M112.53,1163.3h1.28c2.39,0,3.58-1.06,3.58-3.17
			c0-1.74-1.17-2.61-3.51-2.61h-1.35V1163.3z"/>
		<path id="XMLID_142_" style="fill:#124C59;" d="M151.95,1164.96c0,4.25-1.04,7.49-3.13,9.7c-2.09,2.21-5.14,3.32-9.17,3.32
			c-3.97,0-7.01-1.11-9.12-3.34c-2.12-2.22-3.17-5.46-3.17-9.72c0-4.21,1.05-7.42,3.16-9.64c2.1-2.22,5.16-3.33,9.17-3.33
			c4.02,0,7.07,1.1,9.15,3.3S151.95,1160.69,151.95,1164.96z M134.55,1164.96c0,4.89,1.7,7.33,5.1,7.33c1.73,0,3.01-0.59,3.85-1.78
			s1.25-3.04,1.25-5.55c0-2.53-0.42-4.39-1.27-5.59s-2.11-1.81-3.8-1.81C136.26,1157.56,134.55,1160.02,134.55,1164.96z"/>
		<path id="XMLID_145_" style="fill:#124C59;" d="M153.15,1185.57c-1.25,0-2.43-0.12-3.55-0.36v-5.31c0.37,0.07,0.76,0.15,1.18,0.23
			c0.42,0.09,0.87,0.13,1.35,0.13c1.13,0,1.94-0.34,2.42-1.02c0.48-0.68,0.73-1.84,0.73-3.49v-23.4h6.87v22.81
			c0,3.42-0.75,6.01-2.25,7.77C158.39,1184.69,156.14,1185.57,153.15,1185.57z"/>
		<path id="XMLID_147_" style="fill:#124C59;" d="M181.23,1177.63h-15.01v-25.29h15.01v5.48h-8.18v3.98h7.58v5.48h-7.58v4.77h8.18
			V1177.63z"/>
		<path id="XMLID_149_" style="fill:#124C59;" d="M195.54,1157.59c-1.63,0-2.89,0.67-3.8,2s-1.37,3.17-1.37,5.51
			c0,4.87,1.85,7.3,5.55,7.3c1.12,0,2.2-0.16,3.25-0.47s2.1-0.69,3.17-1.12v5.78c-2.11,0.93-4.5,1.4-7.16,1.4
			c-3.82,0-6.74-1.11-8.78-3.32c-2.04-2.21-3.05-5.41-3.05-9.6c0-2.62,0.49-4.92,1.48-6.9s2.4-3.51,4.25-4.57s4.03-1.6,6.53-1.6
			c2.73,0,5.34,0.59,7.83,1.78l-2.09,5.38c-0.93-0.44-1.87-0.81-2.8-1.11C197.61,1157.74,196.61,1157.59,195.54,1157.59z"/>
		<path id="XMLID_151_" style="fill:#124C59;" d="M217.04,1177.63h-6.83v-19.7h-6.17v-5.59h19.16v5.59h-6.16V1177.63z"/>
		<path id="XMLID_153_" style="fill:#124C59;" d="M240.44,1177.63h-15.01v-25.29h15.01v5.48h-8.18v3.98h7.58v5.48h-7.58v4.77h8.18
			V1177.63z"/>
		<path id="XMLID_155_" style="fill:#124C59;" d="M264.95,1164.46c0,4.22-1.16,7.47-3.49,9.75c-2.32,2.28-5.59,3.42-9.8,3.42h-8.18
			v-25.29h8.75c4.06,0,7.19,1.04,9.4,3.11C263.85,1157.54,264.95,1160.54,264.95,1164.46z M257.86,1164.7
			c0-2.32-0.46-4.04-1.38-5.15c-0.92-1.12-2.31-1.68-4.18-1.68h-1.99v14.16h1.52c2.08,0,3.6-0.6,4.57-1.81
			C257.37,1169.02,257.86,1167.18,257.86,1164.7z"/>
		<path id="XMLID_158_" style="fill:#124C59;" d="M288.52,1157.59c-1.63,0-2.89,0.67-3.8,2s-1.37,3.17-1.37,5.51
			c0,4.87,1.85,7.3,5.55,7.3c1.12,0,2.2-0.16,3.25-0.47s2.1-0.69,3.17-1.12v5.78c-2.11,0.93-4.5,1.4-7.16,1.4
			c-3.82,0-6.74-1.11-8.78-3.32c-2.04-2.21-3.05-5.41-3.05-9.6c0-2.62,0.49-4.92,1.48-6.9s2.4-3.51,4.25-4.57s4.03-1.6,6.53-1.6
			c2.73,0,5.34,0.59,7.83,1.78l-2.09,5.38c-0.93-0.44-1.87-0.81-2.8-1.11C290.6,1157.74,289.6,1157.59,288.52,1157.59z"/>
		<path id="XMLID_160_" style="fill:#124C59;" d="M322.53,1164.96c0,4.25-1.04,7.49-3.13,9.7c-2.09,2.21-5.14,3.32-9.17,3.32
			c-3.97,0-7.01-1.11-9.12-3.34c-2.12-2.22-3.17-5.46-3.17-9.72c0-4.21,1.05-7.42,3.16-9.64c2.1-2.22,5.16-3.33,9.17-3.33
			c4.02,0,7.07,1.1,9.15,3.3S322.53,1160.69,322.53,1164.96z M305.13,1164.96c0,4.89,1.7,7.33,5.1,7.33c1.73,0,3.01-0.59,3.85-1.78
			s1.25-3.04,1.25-5.55c0-2.53-0.42-4.39-1.27-5.59s-2.11-1.81-3.8-1.81C306.84,1157.56,305.13,1160.02,305.13,1164.96z"/>
		<path id="XMLID_163_" style="fill:#124C59;" d="M349.79,1177.63h-8.96l-9.24-17.81h-0.16c0.22,2.8,0.33,4.94,0.33,6.42v11.4h-6.05
			v-25.29h8.92l9.2,17.57h0.1c-0.16-2.55-0.24-4.59-0.24-6.14v-11.43h6.09V1177.63z"/>
		<path id="XMLID_165_" style="fill:#124C59;" d="M365.13,1157.59c-1.63,0-2.89,0.67-3.8,2s-1.37,3.17-1.37,5.51
			c0,4.87,1.85,7.3,5.55,7.3c1.12,0,2.2-0.16,3.25-0.47s2.1-0.69,3.17-1.12v5.78c-2.11,0.93-4.5,1.4-7.16,1.4
			c-3.82,0-6.74-1.11-8.78-3.32c-2.04-2.21-3.05-5.41-3.05-9.6c0-2.62,0.49-4.92,1.48-6.9s2.4-3.51,4.25-4.57s4.03-1.6,6.53-1.6
			c2.73,0,5.34,0.59,7.83,1.78l-2.09,5.38c-0.93-0.44-1.87-0.81-2.8-1.11C367.2,1157.74,366.2,1157.59,365.13,1157.59z"/>
		<path id="XMLID_167_" style="fill:#124C59;" d="M390.48,1177.63h-15.01v-25.29h15.01v5.48h-8.18v3.98h7.58v5.48h-7.58v4.77h8.18
			V1177.63z"/>
		<path id="XMLID_169_" style="fill:#124C59;" d="M411.88,1160.39c0,2.83-0.83,5.01-2.5,6.55c-1.67,1.54-4.03,2.31-7.1,2.31h-1.92
			v8.39h-6.83v-25.29h8.75c3.19,0,5.59,0.7,7.2,2.09C411.08,1155.84,411.88,1157.82,411.88,1160.39z M400.36,1163.68h1.25
			c1.03,0,1.84-0.29,2.45-0.86c0.6-0.58,0.91-1.37,0.91-2.39c0-1.71-0.95-2.56-2.84-2.56h-1.76V1163.68z"/>
		<path id="XMLID_172_" style="fill:#124C59;" d="M425.68,1177.63h-6.83v-19.7h-6.17v-5.59h19.16v5.59h-6.16V1177.63z"/>
	</g>
</g>
<g id="Least">
</g>
<g id="Layer_4">
</g>
</svg>
