<?xml version="1.0" encoding="utf-8"?>
<!-- Generator: Adobe Illustrator 19.0.0, SVG Export Plug-In . SVG Version: 6.00 Build 0)  -->
<svg version="1.1" xmlns="http://www.w3.org/2000/svg" xmlns:xlink="http://www.w3.org/1999/xlink" x="0px" y="0px"
	 viewBox="0 0 443.57 1188.67" style="enable-background:new 0 0 443.57 1188.67;" xml:space="preserve">
<g id="Layer_1">
	<g id="XMLID_490_">
		<rect id="XMLID_415_" x="44.75" y="915.14" style="opacity:0.21;fill:#2290BA;" width="398.82" height="139.36"/>
	</g>
	<rect id="XMLID_487_" x="44.81" y="490.6" style="fill:#2290BA;fill-opacity:0.21;" width="398.36" height="161.15"/>
	<rect id="XMLID_484_" x="47.01" y="53.5" style="fill:#2290BA;fill-opacity:0.21;" width="396.56" height="172.9"/>
	<g id="XMLID_478_">
		<g id="XMLID_480_">
			<path id="XMLID_481_" style="fill:#31708F;" d="M439.57,57.5v993.07H48.81V57.5H439.57 M443.57,53.5H44.81v1001.07h398.76V53.5
				L443.57,53.5z"/>
		</g>
	</g>
	
		<line id="XMLID_477_" style="fill:none;stroke:#31708F;stroke-width:4;stroke-miterlimit:10;" x1="123.53" y1="53.5" x2="123.53" y2="1053.57"/>
	
		<line id="XMLID_476_" style="fill:none;stroke:#31708F;stroke-width:4;stroke-miterlimit:10;" x1="203.84" y1="53.5" x2="203.84" y2="1053.57"/>
	
		<line id="XMLID_475_" style="fill:none;stroke:#31708F;stroke-width:4;stroke-miterlimit:10;" x1="284.15" y1="53.5" x2="284.15" y2="1053.57"/>
	
		<line id="XMLID_474_" style="fill:none;stroke:#31708F;stroke-width:4;stroke-miterlimit:10;" x1="364.46" y1="53.5" x2="364.46" y2="1053.57"/>
	
		<line id="XMLID_473_" style="fill:none;stroke:#31708F;stroke-width:4;stroke-miterlimit:10;" x1="46.16" y1="572.16" x2="443.57" y2="572.16"/>
	
		<line id="XMLID_472_" style="fill:none;stroke:#31708F;stroke-width:4;stroke-miterlimit:10;" x1="46.22" y1="227.5" x2="443.57" y2="227.5"/>
	
		<line id="XMLID_471_" style="fill:none;stroke:#31708F;stroke-width:4;stroke-miterlimit:10;" x1="46.25" y1="914.94" x2="443.57" y2="914.94"/>
	
		<line id="XMLID_470_" style="fill:none;stroke:#31708F;stroke-width:4;stroke-miterlimit:10;" x1="46.25" y1="651.26" x2="443.57" y2="651.26"/>
	
		<line id="XMLID_469_" style="fill:none;stroke:#31708F;stroke-width:4;stroke-miterlimit:10;" x1="46.25" y1="491.39" x2="443.57" y2="491.39"/>
	<g id="XMLID_453_">
		<g id="XMLID_923_">
			<path id="XMLID_924_" style="fill:#124C59;" d="M17.85,112.22c0,4.71-0.99,8.22-2.97,10.54c-1.98,2.32-4.98,3.48-9,3.48
				c-1.42,0-2.49-0.08-3.22-0.23v-4.05c0.91,0.23,1.87,0.34,2.87,0.34c1.69,0,3.08-0.25,4.17-0.74s1.92-1.27,2.5-2.34
				s0.91-2.52,1-4.39h-0.2c-0.63,1.02-1.36,1.74-2.19,2.16c-0.83,0.41-1.86,0.62-3.1,0.62c-2.08,0-3.72-0.67-4.92-2
				c-1.2-1.33-1.8-3.19-1.8-5.56c0-2.56,0.73-4.58,2.18-6.07s3.43-2.23,5.94-2.23c1.76,0,3.31,0.41,4.63,1.24s2.34,2.03,3.05,3.6
				S17.85,110.04,17.85,112.22z M9.2,105.8c-1.04,0-1.86,0.36-2.45,1.08c-0.59,0.72-0.88,1.75-0.88,3.1c0,1.15,0.27,2.07,0.8,2.74
				c0.53,0.68,1.35,1.01,2.43,1.01c1.02,0,1.9-0.33,2.63-1c0.73-0.67,1.09-1.44,1.09-2.31c0-1.3-0.34-2.39-1.02-3.28
				S10.26,105.8,9.2,105.8z"/>
			<path id="XMLID_927_" style="fill:#124C59;" d="M36.84,112.22c0,4.71-0.99,8.22-2.97,10.54c-1.98,2.32-4.98,3.48-9,3.48
				c-1.42,0-2.49-0.08-3.22-0.23v-4.05c0.91,0.23,1.87,0.34,2.88,0.34c1.69,0,3.08-0.25,4.17-0.74s1.92-1.27,2.5-2.34
				s0.91-2.52,1-4.39h-0.2c-0.63,1.02-1.36,1.74-2.19,2.16c-0.83,0.41-1.86,0.62-3.1,0.62c-2.08,0-3.72-0.67-4.92-2
				c-1.2-1.33-1.8-3.19-1.8-5.56c0-2.56,0.73-4.58,2.18-6.07s3.43-2.23,5.94-2.23c1.76,0,3.31,0.41,4.63,1.24s2.34,2.03,3.05,3.6
				S36.84,110.04,36.84,112.22z M28.2,105.8c-1.04,0-1.86,0.36-2.45,1.08c-0.59,0.72-0.88,1.75-0.88,3.1c0,1.15,0.27,2.07,0.8,2.74
				c0.53,0.68,1.35,1.01,2.43,1.01c1.02,0,1.9-0.33,2.63-1c0.73-0.67,1.09-1.44,1.09-2.31c0-1.3-0.34-2.39-1.02-3.28
				S29.26,105.8,28.2,105.8z"/>
		</g>
		<g id="XMLID_917_">
			<path id="XMLID_918_" style="fill:#124C59;" d="M17.85,224.44c0,4.71-0.99,8.22-2.97,10.54c-1.98,2.32-4.98,3.48-9,3.48
				c-1.42,0-2.49-0.08-3.22-0.23v-4.05c0.91,0.23,1.87,0.34,2.87,0.34c1.69,0,3.08-0.25,4.17-0.74s1.92-1.27,2.5-2.34
				s0.91-2.52,1-4.39h-0.2c-0.63,1.02-1.36,1.74-2.19,2.16c-0.83,0.41-1.86,0.62-3.1,0.62c-2.08,0-3.72-0.67-4.92-2
				c-1.2-1.33-1.8-3.19-1.8-5.56c0-2.56,0.73-4.58,2.18-6.07s3.43-2.23,5.94-2.23c1.76,0,3.31,0.41,4.63,1.24s2.34,2.03,3.05,3.6
				S17.85,222.26,17.85,224.44z M9.2,218.02c-1.04,0-1.86,0.36-2.45,1.08c-0.59,0.72-0.88,1.75-0.88,3.1c0,1.15,0.27,2.07,0.8,2.74
				c0.53,0.68,1.35,1.01,2.43,1.01c1.02,0,1.9-0.33,2.63-1c0.73-0.67,1.09-1.44,1.09-2.31c0-1.3-0.34-2.39-1.02-3.28
				S10.26,218.02,9.2,218.02z"/>
			<path id="XMLID_921_" style="fill:#124C59;" d="M28.94,222.87c2.31,0,4.15,0.65,5.51,1.94c1.37,1.3,2.05,3.07,2.05,5.33
				c0,2.67-0.82,4.72-2.47,6.16c-1.64,1.44-4,2.16-7.06,2.16c-2.66,0-4.8-0.43-6.44-1.29v-4.36c0.86,0.46,1.86,0.83,3.01,1.12
				s2.23,0.43,3.25,0.43c3.08,0,4.62-1.26,4.62-3.79c0-2.41-1.6-3.61-4.79-3.61c-0.58,0-1.21,0.06-1.91,0.17
				c-0.7,0.11-1.26,0.24-1.7,0.37l-2.01-1.08l0.9-12.17h12.96v4.28h-8.53l-0.44,4.69l0.57-0.11
				C27.13,222.95,27.96,222.87,28.94,222.87z"/>
		</g>
		<g id="XMLID_910_">
			<path id="XMLID_911_" style="fill:#124C59;" d="M17.85,308.09c0,4.71-0.99,8.22-2.97,10.54c-1.98,2.32-4.98,3.48-9,3.48
				c-1.42,0-2.49-0.08-3.22-0.23v-4.05c0.91,0.23,1.87,0.34,2.87,0.34c1.69,0,3.08-0.25,4.17-0.74s1.92-1.27,2.5-2.34
				s0.91-2.52,1-4.39h-0.2c-0.63,1.02-1.36,1.74-2.19,2.16c-0.83,0.41-1.86,0.62-3.1,0.62c-2.08,0-3.72-0.67-4.92-2
				c-1.2-1.33-1.8-3.19-1.8-5.56c0-2.56,0.73-4.58,2.18-6.07s3.43-2.23,5.94-2.23c1.76,0,3.31,0.41,4.63,1.24s2.34,2.03,3.05,3.6
				S17.85,305.92,17.85,308.09z M9.2,301.67c-1.04,0-1.86,0.36-2.45,1.08c-0.59,0.72-0.88,1.75-0.88,3.1c0,1.15,0.27,2.07,0.8,2.74
				c0.53,0.68,1.35,1.01,2.43,1.01c1.02,0,1.9-0.33,2.63-1c0.73-0.67,1.09-1.44,1.09-2.31c0-1.3-0.34-2.39-1.02-3.28
				S10.26,301.67,9.2,301.67z"/>
			<path id="XMLID_914_" style="fill:#124C59;" d="M36.81,309.84c0,4.17-0.68,7.26-2.05,9.26c-1.37,2-3.47,3.01-6.31,3.01
				c-2.76,0-4.83-1.03-6.23-3.1s-2.1-5.12-2.1-9.17c0-4.22,0.68-7.32,2.04-9.32c1.36-2,3.46-3,6.29-3c2.76,0,4.84,1.05,6.25,3.14
				C36.11,302.75,36.81,305.81,36.81,309.84z M25.13,309.84c0,2.93,0.25,5.03,0.76,6.3s1.36,1.9,2.56,1.9
				c1.18,0,2.03-0.64,2.55-1.93c0.52-1.28,0.78-3.38,0.78-6.27c0-2.93-0.26-5.03-0.79-6.31s-1.38-1.92-2.54-1.92
				c-1.19,0-2.04,0.64-2.55,1.92C25.39,304.81,25.13,306.91,25.13,309.84z"/>
		</g>
		<g id="XMLID_902_">
			<path id="XMLID_903_" style="fill:#124C59;" d="M9.48,342.19c2.29,0,4.13,0.52,5.53,1.56c1.4,1.04,2.1,2.44,2.1,4.21
				c0,1.22-0.34,2.31-1.01,3.26c-0.67,0.95-1.76,1.81-3.27,2.56c1.79,0.96,3.07,1.96,3.85,3c0.78,1.04,1.17,2.18,1.17,3.42
				c0,1.96-0.77,3.54-2.3,4.73c-1.54,1.19-3.56,1.79-6.06,1.79c-2.61,0-4.67-0.56-6.16-1.67c-1.49-1.11-2.24-2.68-2.24-4.72
				c0-1.36,0.36-2.57,1.09-3.63c0.72-1.06,1.89-1.99,3.49-2.79c-1.36-0.86-2.34-1.78-2.94-2.76c-0.6-0.98-0.9-2.05-0.9-3.22
				c0-1.71,0.71-3.09,2.12-4.15S7.2,342.19,9.48,342.19z M5.76,360.03c0,0.94,0.33,1.67,0.98,2.19c0.65,0.52,1.55,0.78,2.68,0.78
				c1.25,0,2.19-0.27,2.81-0.81c0.62-0.54,0.93-1.25,0.93-2.13c0-0.73-0.31-1.41-0.92-2.05c-0.62-0.64-1.62-1.32-3-2.03
				C6.92,357.04,5.76,358.39,5.76,360.03z M9.45,345.88c-0.86,0-1.55,0.22-2.08,0.66s-0.79,1.03-0.79,1.77
				c0,0.65,0.21,1.24,0.63,1.76c0.42,0.52,1.18,1.05,2.28,1.59c1.07-0.5,1.81-1.01,2.24-1.54c0.42-0.52,0.64-1.13,0.64-1.81
				c0-0.75-0.27-1.34-0.82-1.78C10.99,346.1,10.3,345.88,9.45,345.88z"/>
			<path id="XMLID_907_" style="fill:#124C59;" d="M37.48,361.43H34.6v4.95h-4.93v-4.95H19.48v-3.51l10.47-15.42h4.66v15.01h2.88
				V361.43z M29.67,357.51v-4.05c0-0.68,0.03-1.66,0.08-2.94c0.05-1.29,0.1-2.03,0.13-2.24h-0.13c-0.4,0.89-0.89,1.76-1.45,2.61
				l-4.38,6.62H29.67z"/>
		</g>
		<g id="XMLID_894_">
			<path id="XMLID_895_" style="fill:#124C59;" d="M9.48,386.79c2.29,0,4.13,0.52,5.53,1.56c1.4,1.04,2.1,2.44,2.1,4.21
				c0,1.22-0.34,2.31-1.01,3.26c-0.67,0.95-1.76,1.81-3.27,2.56c1.79,0.96,3.07,1.96,3.85,3c0.78,1.04,1.17,2.18,1.17,3.42
				c0,1.96-0.77,3.54-2.3,4.73c-1.54,1.19-3.56,1.79-6.06,1.79c-2.61,0-4.67-0.56-6.16-1.67c-1.49-1.11-2.24-2.68-2.24-4.72
				c0-1.36,0.36-2.57,1.09-3.63c0.72-1.06,1.89-1.99,3.49-2.79c-1.36-0.86-2.34-1.78-2.94-2.76c-0.6-0.98-0.9-2.05-0.9-3.22
				c0-1.71,0.71-3.09,2.12-4.15S7.2,386.79,9.48,386.79z M5.76,404.63c0,0.94,0.33,1.67,0.98,2.19c0.65,0.52,1.55,0.78,2.68,0.78
				c1.25,0,2.19-0.27,2.81-0.81c0.62-0.54,0.93-1.25,0.93-2.13c0-0.73-0.31-1.41-0.92-2.05c-0.62-0.64-1.62-1.32-3-2.03
				C6.92,401.65,5.76,403,5.76,404.63z M9.45,390.49c-0.86,0-1.55,0.22-2.08,0.66s-0.79,1.03-0.79,1.77c0,0.65,0.21,1.24,0.63,1.76
				c0.42,0.52,1.18,1.05,2.28,1.59c1.07-0.5,1.81-1.01,2.24-1.54c0.42-0.52,0.64-1.13,0.64-1.81c0-0.75-0.27-1.34-0.82-1.78
				C10.99,390.7,10.3,390.49,9.45,390.49z"/>
			<path id="XMLID_899_" style="fill:#124C59;" d="M36.81,399.05c0,4.17-0.68,7.26-2.05,9.26c-1.37,2-3.47,3.01-6.31,3.01
				c-2.76,0-4.83-1.03-6.23-3.1s-2.1-5.12-2.1-9.17c0-4.22,0.68-7.32,2.04-9.32c1.36-2,3.46-3,6.29-3c2.76,0,4.84,1.05,6.25,3.14
				C36.11,391.96,36.81,395.02,36.81,399.05z M25.13,399.05c0,2.93,0.25,5.03,0.76,6.3s1.36,1.9,2.56,1.9
				c1.18,0,2.03-0.64,2.55-1.93c0.52-1.28,0.78-3.38,0.78-6.27c0-2.93-0.26-5.03-0.79-6.31s-1.38-1.92-2.54-1.92
				c-1.19,0-2.04,0.64-2.55,1.92C25.39,394.01,25.13,396.12,25.13,399.05z"/>
		</g>
		<g id="XMLID_888_">
			<path id="XMLID_889_" style="fill:#124C59;" d="M3.62,467.47l8.97-19.61H0.81v-4.25h17.14v3.17l-9.04,20.68H3.62z"/>
			<path id="XMLID_891_" style="fill:#124C59;" d="M36.81,455.52c0,4.17-0.68,7.26-2.05,9.26c-1.37,2-3.47,3.01-6.31,3.01
				c-2.76,0-4.83-1.03-6.23-3.1s-2.1-5.12-2.1-9.17c0-4.22,0.68-7.32,2.04-9.32c1.36-2,3.46-3,6.29-3c2.76,0,4.84,1.05,6.25,3.14
				C36.11,448.43,36.81,451.5,36.81,455.52z M25.13,455.52c0,2.93,0.25,5.03,0.76,6.3s1.36,1.9,2.56,1.9c1.18,0,2.03-0.64,2.55-1.93
				c0.52-1.28,0.78-3.38,0.78-6.27c0-2.93-0.26-5.03-0.79-6.31s-1.38-1.92-2.54-1.92c-1.19,0-2.04,0.64-2.55,1.92
				C25.39,450.49,25.13,452.6,25.13,455.52z"/>
		</g>
		<g id="XMLID_881_">
			<path id="XMLID_882_" style="fill:#124C59;" d="M1.08,529.83c0-4.73,1-8.24,3-10.55c2-2.31,4.99-3.46,8.98-3.46
				c1.36,0,2.43,0.08,3.2,0.25v4.04c-0.97-0.22-1.93-0.33-2.88-0.33c-1.73,0-3.14,0.26-4.24,0.78c-1.09,0.52-1.92,1.3-2.46,2.32
				c-0.54,1.02-0.87,2.48-0.96,4.36h0.21c1.08-1.85,2.8-2.78,5.18-2.78c2.13,0,3.81,0.67,5.02,2.01c1.21,1.34,1.81,3.19,1.81,5.55
				c0,2.55-0.72,4.57-2.16,6.05c-1.44,1.49-3.43,2.23-5.98,2.23c-1.76,0-3.3-0.41-4.62-1.23s-2.33-2.01-3.04-3.58
				C1.44,533.93,1.08,532.04,1.08,529.83z M9.71,536.26c1.08,0,1.91-0.36,2.48-1.09c0.58-0.72,0.87-1.76,0.87-3.1
				c0-1.17-0.27-2.08-0.81-2.75c-0.54-0.67-1.35-1-2.44-1c-1.02,0-1.9,0.33-2.62,1c-0.72,0.66-1.09,1.44-1.09,2.32
				c0,1.3,0.34,2.39,1.02,3.28S8.66,536.26,9.71,536.26z"/>
			<path id="XMLID_885_" style="fill:#124C59;" d="M36.81,528.03c0,4.17-0.68,7.26-2.05,9.26c-1.37,2-3.47,3.01-6.31,3.01
				c-2.76,0-4.83-1.03-6.23-3.1s-2.1-5.12-2.1-9.17c0-4.22,0.68-7.32,2.04-9.32c1.36-2,3.46-3,6.29-3c2.76,0,4.84,1.05,6.25,3.14
				C36.11,520.94,36.81,524,36.81,528.03z M25.13,528.03c0,2.93,0.25,5.03,0.76,6.3s1.36,1.9,2.56,1.9c1.18,0,2.03-0.64,2.55-1.93
				c0.52-1.28,0.78-3.38,0.78-6.27c0-2.93-0.26-5.03-0.79-6.31s-1.38-1.92-2.54-1.92c-1.19,0-2.04,0.64-2.55,1.92
				C25.39,523,25.13,525.1,25.13,528.03z"/>
		</g>
		<g id="XMLID_875_">
			<path id="XMLID_876_" style="fill:#124C59;" d="M9.94,564.46c2.31,0,4.15,0.65,5.51,1.94c1.37,1.3,2.05,3.07,2.05,5.33
				c0,2.67-0.82,4.72-2.47,6.16c-1.64,1.44-4,2.16-7.06,2.16c-2.66,0-4.8-0.43-6.44-1.29v-4.36c0.86,0.46,1.86,0.83,3.01,1.12
				s2.23,0.43,3.25,0.43c3.08,0,4.62-1.26,4.62-3.79c0-2.41-1.6-3.61-4.79-3.61c-0.58,0-1.21,0.06-1.91,0.17
				c-0.7,0.11-1.26,0.24-1.7,0.37l-2.01-1.08l0.9-12.17h12.96v4.28H7.34l-0.44,4.69l0.57-0.11C8.14,564.54,8.96,564.46,9.94,564.46z
				"/>
			<path id="XMLID_878_" style="fill:#124C59;" d="M36.81,567.78c0,4.17-0.68,7.26-2.05,9.26c-1.37,2-3.47,3.01-6.31,3.01
				c-2.76,0-4.83-1.03-6.23-3.1s-2.1-5.12-2.1-9.17c0-4.22,0.68-7.32,2.04-9.32c1.36-2,3.46-3,6.29-3c2.76,0,4.84,1.05,6.25,3.14
				C36.11,560.69,36.81,563.75,36.81,567.78z M25.13,567.78c0,2.93,0.25,5.03,0.76,6.3s1.36,1.9,2.56,1.9
				c1.18,0,2.03-0.64,2.55-1.93c0.52-1.28,0.78-3.38,0.78-6.27c0-2.93-0.26-5.03-0.79-6.31s-1.38-1.92-2.54-1.92
				c-1.19,0-2.04,0.64-2.55,1.92C25.39,562.75,25.13,564.85,25.13,567.78z"/>
		</g>
		<g id="XMLID_868_">
			<path id="XMLID_869_" style="fill:#124C59;" d="M18.48,614.53h-2.88v4.95h-4.93v-4.95H0.48v-3.51l10.47-15.42h4.66v15.01h2.88
				V614.53z M10.67,610.61v-4.05c0-0.68,0.03-1.66,0.08-2.94c0.05-1.29,0.1-2.03,0.13-2.24h-0.13c-0.4,0.89-0.89,1.76-1.45,2.61
				l-4.38,6.62H10.67z"/>
			<path id="XMLID_872_" style="fill:#124C59;" d="M36.81,607.53c0,4.17-0.68,7.26-2.05,9.26c-1.37,2-3.47,3.01-6.31,3.01
				c-2.76,0-4.83-1.04-6.23-3.1s-2.1-5.12-2.1-9.17c0-4.21,0.68-7.32,2.04-9.32c1.36-2,3.46-3,6.29-3c2.76,0,4.84,1.05,6.25,3.14
				C36.11,600.44,36.81,603.5,36.81,607.53z M25.13,607.53c0,2.93,0.25,5.03,0.76,6.3s1.36,1.9,2.56,1.9c1.18,0,2.03-0.64,2.55-1.93
				s0.78-3.38,0.78-6.27c0-2.93-0.26-5.03-0.79-6.31c-0.53-1.28-1.38-1.92-2.54-1.92c-1.19,0-2.04,0.64-2.55,1.92
				C25.39,602.5,25.13,604.6,25.13,607.53z"/>
		</g>
		<g id="XMLID_862_">
			<path id="XMLID_863_" style="fill:#124C59;" d="M17.01,680.4c0,1.49-0.45,2.76-1.36,3.81c-0.9,1.04-2.17,1.76-3.81,2.16v0.1
				c1.93,0.24,3.39,0.83,4.38,1.76c0.99,0.93,1.49,2.19,1.49,3.77c0,2.3-0.83,4.09-2.5,5.37c-1.67,1.28-4.05,1.92-7.14,1.92
				c-2.59,0-4.89-0.43-6.89-1.29v-4.3c0.93,0.47,1.94,0.85,3.05,1.14c1.11,0.29,2.21,0.44,3.3,0.44c1.67,0,2.9-0.28,3.69-0.85
				s1.19-1.48,1.19-2.73c0-1.12-0.46-1.92-1.37-2.39c-0.92-0.47-2.38-0.7-4.38-0.7H4.86v-3.87H6.7c1.85,0,3.2-0.24,4.06-0.73
				c0.85-0.49,1.28-1.32,1.28-2.49c0-1.81-1.13-2.71-3.4-2.71c-0.78,0-1.58,0.13-2.39,0.39c-0.81,0.26-1.71,0.71-2.7,1.36
				l-2.34-3.48c2.18-1.57,4.78-2.35,7.79-2.35c2.47,0,4.42,0.5,5.86,1.5S17.01,678.61,17.01,680.4z"/>
			<path id="XMLID_865_" style="fill:#124C59;" d="M36.81,687c0,4.17-0.68,7.26-2.05,9.26c-1.37,2-3.47,3.01-6.31,3.01
				c-2.76,0-4.83-1.04-6.23-3.1s-2.1-5.12-2.1-9.17c0-4.21,0.68-7.32,2.04-9.32c1.36-2,3.46-3,6.29-3c2.76,0,4.84,1.05,6.25,3.14
				C36.11,679.91,36.81,682.97,36.81,687z M25.13,687c0,2.93,0.25,5.03,0.76,6.3s1.36,1.9,2.56,1.9c1.18,0,2.03-0.64,2.55-1.93
				s0.78-3.38,0.78-6.27c0-2.93-0.26-5.03-0.79-6.31c-0.53-1.28-1.38-1.92-2.54-1.92c-1.19,0-2.04,0.64-2.55,1.92
				C25.39,681.97,25.13,684.07,25.13,687z"/>
		</g>
		<g id="XMLID_856_">
			<path id="XMLID_857_" style="fill:#124C59;" d="M17.94,760.98H1.25v-3.51l6-6.06c1.78-1.82,2.93-3.08,3.48-3.78
				c0.54-0.7,0.94-1.35,1.18-1.95c0.24-0.6,0.36-1.22,0.36-1.86c0-0.96-0.26-1.67-0.79-2.14c-0.53-0.47-1.23-0.7-2.12-0.7
				c-0.93,0-1.82,0.21-2.7,0.64c-0.87,0.42-1.78,1.03-2.73,1.81l-2.75-3.25c1.18-1,2.15-1.71,2.92-2.12
				c0.77-0.41,1.62-0.73,2.53-0.96c0.92-0.22,1.94-0.33,3.07-0.33c1.49,0,2.81,0.27,3.95,0.82c1.14,0.54,2.03,1.31,2.66,2.29
				c0.63,0.98,0.95,2.1,0.95,3.37c0,1.1-0.19,2.13-0.58,3.1s-0.99,1.95-1.8,2.96c-0.81,1.01-2.24,2.46-4.29,4.33l-3.07,2.89v0.23
				h10.41V760.98z"/>
			<path id="XMLID_859_" style="fill:#124C59;" d="M36.81,749.03c0,4.17-0.68,7.26-2.05,9.26c-1.37,2-3.47,3.01-6.31,3.01
				c-2.76,0-4.83-1.04-6.23-3.1s-2.1-5.12-2.1-9.17c0-4.21,0.68-7.32,2.04-9.32c1.36-2,3.46-3,6.29-3c2.76,0,4.84,1.05,6.25,3.14
				C36.11,741.94,36.81,745,36.81,749.03z M25.13,749.03c0,2.93,0.25,5.03,0.76,6.3s1.36,1.9,2.56,1.9c1.18,0,2.03-0.64,2.55-1.93
				s0.78-3.38,0.78-6.27c0-2.93-0.26-5.03-0.79-6.31c-0.53-1.28-1.38-1.92-2.54-1.92c-1.19,0-2.04,0.64-2.55,1.92
				C25.39,744,25.13,746.1,25.13,749.03z"/>
		</g>
		<g id="XMLID_850_">
			<path id="XMLID_851_" style="fill:#124C59;" d="M13.73,800.73H8.68v-13.82l0.05-2.27l0.08-2.48c-0.84,0.84-1.42,1.39-1.75,1.65
				l-2.75,2.21l-2.43-3.04l7.7-6.13h4.15V800.73z"/>
			<path id="XMLID_853_" style="fill:#124C59;" d="M20.08,790.58c0-4.73,1-8.25,3-10.55c2-2.31,4.99-3.46,8.98-3.46
				c1.36,0,2.43,0.08,3.2,0.25v4.04c-0.97-0.22-1.93-0.33-2.88-0.33c-1.73,0-3.14,0.26-4.24,0.78c-1.09,0.52-1.92,1.3-2.46,2.32
				c-0.54,1.02-0.87,2.48-0.96,4.36h0.21c1.08-1.85,2.8-2.78,5.18-2.78c2.13,0,3.81,0.67,5.02,2.01c1.21,1.34,1.81,3.19,1.81,5.56
				c0,2.55-0.72,4.57-2.16,6.05c-1.44,1.49-3.43,2.23-5.98,2.23c-1.76,0-3.3-0.41-4.62-1.23c-1.31-0.82-2.33-2.01-3.04-3.58
				C20.44,794.68,20.08,792.79,20.08,790.58z M28.71,797.02c1.08,0,1.91-0.36,2.48-1.09s0.87-1.76,0.87-3.1
				c0-1.17-0.27-2.08-0.81-2.75c-0.54-0.67-1.35-1-2.44-1c-1.02,0-1.9,0.33-2.62,1c-0.72,0.67-1.09,1.44-1.09,2.32
				c0,1.3,0.34,2.39,1.02,3.28C26.8,796.57,27.66,797.02,28.71,797.02z"/>
		</g>
		<g id="XMLID_844_">
			<path id="XMLID_845_" style="fill:#124C59;" d="M13.73,839.77H8.68v-13.82l0.05-2.27l0.08-2.48c-0.84,0.84-1.42,1.39-1.75,1.65
				l-2.75,2.21l-2.43-3.04l7.7-6.13h4.15V839.77z"/>
			<path id="XMLID_847_" style="fill:#124C59;" d="M36.81,827.83c0,4.17-0.68,7.26-2.05,9.26c-1.37,2-3.47,3.01-6.31,3.01
				c-2.76,0-4.83-1.04-6.23-3.1s-2.1-5.12-2.1-9.17c0-4.21,0.68-7.32,2.04-9.32c1.36-2,3.46-3,6.29-3c2.76,0,4.84,1.05,6.25,3.14
				C36.11,820.74,36.81,823.8,36.81,827.83z M25.13,827.83c0,2.93,0.25,5.03,0.76,6.3s1.36,1.9,2.56,1.9c1.18,0,2.03-0.64,2.55-1.93
				s0.78-3.38,0.78-6.27c0-2.93-0.26-5.03-0.79-6.31c-0.53-1.28-1.38-1.92-2.54-1.92c-1.19,0-2.04,0.64-2.55,1.92
				C25.39,822.8,25.13,824.9,25.13,827.83z"/>
		</g>
		<g id="XMLID_841_">
			<path id="XMLID_842_" style="fill:#124C59;" d="M28.94,903.98c2.31,0,4.15,0.65,5.51,1.94c1.37,1.3,2.05,3.07,2.05,5.33
				c0,2.67-0.82,4.72-2.47,6.16s-4,2.16-7.06,2.16c-2.66,0-4.8-0.43-6.44-1.29v-4.36c0.86,0.46,1.86,0.83,3.01,1.12
				c1.14,0.29,2.23,0.43,3.25,0.43c3.08,0,4.62-1.26,4.62-3.79c0-2.41-1.6-3.61-4.79-3.61c-0.58,0-1.21,0.06-1.91,0.17
				c-0.7,0.12-1.26,0.24-1.7,0.37l-2.01-1.08l0.9-12.17h12.96v4.28h-8.53l-0.44,4.69l0.57-0.12
				C27.13,904.06,27.96,903.98,28.94,903.98z"/>
		</g>
		<g id="XMLID_838_">
			<path id="XMLID_839_" style="fill:#124C59;" d="M32.73,1026.61h-5.05v-13.82l0.05-2.27l0.08-2.48c-0.84,0.84-1.42,1.39-1.75,1.65
				l-2.75,2.21l-2.43-3.04l7.7-6.13h4.15V1026.61z"/>
		</g>
	</g>
	<g id="XMLID_834_">
		<path id="XMLID_835_" style="fill:#124C59;" d="M142.25,23.81c0,7.05-2.01,12.45-6.02,16.2s-9.81,5.62-17.39,5.62h-12.13V2.81
			h13.45c6.99,0,12.42,1.85,16.29,5.54S142.25,17.19,142.25,23.81z M132.82,24.05c0-9.2-4.06-13.8-12.19-13.8h-4.83v27.89h3.9
			C128.44,38.14,132.82,33.44,132.82,24.05z"/>
	</g>
	<g id="XMLID_831_">
		<path id="XMLID_832_" style="fill:#124C59;" d="M200.59,45.64V2.81h9.08v42.83H200.59z"/>
	</g>
	<g id="XMLID_828_">
		<path id="XMLID_829_" style="fill:#124C59;" d="M298.76,33.75c0,3.87-1.39,6.91-4.17,9.14s-6.66,3.34-11.62,3.34
			c-4.57,0-8.61-0.86-12.13-2.58v-8.44c2.89,1.29,5.34,2.2,7.34,2.72s3.83,0.79,5.49,0.79c1.99,0,3.52-0.38,4.58-1.14
			s1.6-1.89,1.6-3.4c0-0.84-0.23-1.59-0.7-2.24c-0.47-0.65-1.16-1.28-2.07-1.89c-0.91-0.6-2.76-1.57-5.55-2.9
			c-2.62-1.23-4.58-2.41-5.89-3.54c-1.31-1.13-2.35-2.45-3.13-3.96c-0.78-1.5-1.17-3.26-1.17-5.27c0-3.79,1.28-6.77,3.85-8.94
			s6.12-3.25,10.65-3.25c2.23,0,4.35,0.26,6.37,0.79s4.14,1.27,6.34,2.23l-2.93,7.06c-2.29-0.94-4.17-1.59-5.67-1.96
			c-1.49-0.37-2.96-0.56-4.41-0.56c-1.72,0-3.04,0.4-3.96,1.2c-0.92,0.8-1.38,1.85-1.38,3.13c0,0.8,0.19,1.5,0.56,2.09
			c0.37,0.6,0.96,1.17,1.77,1.73s2.73,1.56,5.76,3c4,1.91,6.75,3.83,8.23,5.76C298.02,28.59,298.76,30.95,298.76,33.75z"/>
	</g>
	<g id="XMLID_825_">
		<path id="XMLID_826_" style="fill:#124C59;" d="M369.84,9.75c-3.42,0-6.06,1.28-7.94,3.85c-1.88,2.57-2.81,6.15-2.81,10.74
			c0,9.55,3.58,14.33,10.75,14.33c3.01,0,6.65-0.75,10.93-2.26v7.62c-3.52,1.46-7.44,2.2-11.78,2.2c-6.23,0-11-1.89-14.3-5.67
			s-4.95-9.2-4.95-16.27c0-4.45,0.81-8.35,2.43-11.7c1.62-3.35,3.95-5.92,6.99-7.71s6.6-2.68,10.68-2.68
			c4.16,0,8.34,1.01,12.54,3.02l-2.93,7.38c-1.6-0.76-3.21-1.43-4.83-1.99C373,10.04,371.41,9.75,369.84,9.75z"/>
	</g>
</g>
<g id="Most">
	<g id="XMLID_803_">
		<path id="XMLID_804_" style="fill:#2290BA;" d="M90.83,1081.81c-4.85,0-8.68,1.62-11.49,4.85c-2.81,3.23-4.21,7.66-4.21,13.28
			c0,5.78,1.35,10.25,4.06,13.4c2.71,3.15,6.57,4.73,11.58,4.73c3.08,0,6.59-0.55,10.54-1.66v4.5c-3.06,1.15-6.84,1.72-11.33,1.72
			c-6.5,0-11.52-1.97-15.06-5.92c-3.53-3.95-5.3-9.56-5.3-16.83c0-4.55,0.85-8.54,2.55-11.96c1.7-3.42,4.16-6.06,7.37-7.91
			c3.21-1.85,6.99-2.78,11.34-2.78c4.63,0,8.68,0.85,12.14,2.54l-2.17,4.41C97.52,1082.6,94.18,1081.81,90.83,1081.81z"/>
		<path id="XMLID_806_" style="fill:#2290BA;" d="M150.58,1099.88c0,7.07-1.79,12.63-5.36,16.67c-3.57,4.05-8.54,6.07-14.91,6.07
			c-6.5,0-11.52-1.99-15.06-5.97c-3.53-3.98-5.3-9.59-5.3-16.84c0-7.19,1.77-12.76,5.32-16.72c3.54-3.96,8.58-5.94,15.1-5.94
			c6.34,0,11.3,2.01,14.86,6.04S150.58,1092.79,150.58,1099.88z M115.39,1099.88c0,5.98,1.27,10.52,3.82,13.61
			c2.55,3.09,6.25,4.64,11.1,4.64c4.89,0,8.59-1.54,11.09-4.62s3.75-7.62,3.75-13.62c0-5.94-1.24-10.45-3.73-13.52
			c-2.49-3.07-6.17-4.61-11.04-4.61c-4.89,0-8.61,1.55-11.16,4.64C116.67,1089.48,115.39,1093.98,115.39,1099.88z"/>
		<path id="XMLID_809_" style="fill:#2290BA;" d="M181.27,1122.02l-14.98-39.15h-0.24c0.28,3.1,0.42,6.79,0.42,11.06v28.09h-4.74
			v-44.16h7.73l13.99,36.43h0.24l14.11-36.43h7.67v44.16h-5.13v-28.46c0-3.26,0.14-6.81,0.42-10.63h-0.24l-15.1,39.09H181.27z"/>
		<path id="XMLID_811_" style="fill:#2290BA;" d="M246.88,1090.73c0,4.47-1.53,7.91-4.58,10.32s-7.42,3.61-13.09,3.61h-5.2v17.37
			h-5.14v-44.16h11.45C241.37,1077.86,246.88,1082.15,246.88,1090.73z M224.02,1100.24h4.62c4.55,0,7.84-0.73,9.88-2.21
			c2.03-1.47,3.05-3.83,3.05-7.07c0-2.92-0.96-5.09-2.87-6.52s-4.89-2.14-8.94-2.14h-5.74V1100.24z"/>
		<path id="XMLID_814_" style="fill:#2290BA;" d="M295.76,1099.88c0,7.07-1.79,12.63-5.36,16.67c-3.57,4.05-8.54,6.07-14.91,6.07
			c-6.5,0-11.52-1.99-15.06-5.97c-3.53-3.98-5.3-9.59-5.3-16.84c0-7.19,1.77-12.76,5.32-16.72c3.54-3.96,8.58-5.94,15.1-5.94
			c6.34,0,11.3,2.01,14.86,6.04S295.76,1092.79,295.76,1099.88z M260.57,1099.88c0,5.98,1.27,10.52,3.82,13.61
			c2.55,3.09,6.25,4.64,11.1,4.64c4.89,0,8.59-1.54,11.09-4.62s3.75-7.62,3.75-13.62c0-5.94-1.24-10.45-3.73-13.52
			c-2.49-3.07-6.17-4.61-11.04-4.61c-4.89,0-8.61,1.55-11.16,4.64C261.84,1089.48,260.57,1093.98,260.57,1099.88z"/>
		<path id="XMLID_817_" style="fill:#2290BA;" d="M331.83,1110.27c0,3.89-1.41,6.92-4.23,9.09s-6.65,3.26-11.48,3.26
			c-5.24,0-9.26-0.67-12.08-2.02v-4.95c1.81,0.77,3.79,1.37,5.92,1.81c2.13,0.44,4.25,0.67,6.34,0.67c3.42,0,6-0.65,7.73-1.95
			c1.73-1.3,2.6-3.11,2.6-5.42c0-1.53-0.31-2.78-0.92-3.76s-1.64-1.88-3.08-2.7c-1.44-0.83-3.63-1.76-6.57-2.81
			c-4.11-1.47-7.04-3.21-8.81-5.23c-1.76-2.01-2.64-4.64-2.64-7.88c0-3.4,1.28-6.11,3.84-8.12c2.56-2.01,5.94-3.02,10.15-3.02
			c4.39,0,8.43,0.81,12.11,2.42l-1.6,4.47c-3.65-1.53-7.19-2.3-10.63-2.3c-2.72,0-4.84,0.58-6.37,1.75c-1.53,1.17-2.3,2.79-2.3,4.86
			c0,1.53,0.28,2.78,0.85,3.76c0.56,0.98,1.51,1.87,2.85,2.69c1.34,0.82,3.39,1.72,6.15,2.7c4.63,1.65,7.82,3.42,9.56,5.32
			C330.95,1104.79,331.83,1107.25,331.83,1110.27z"/>
		<path id="XMLID_819_" style="fill:#2290BA;" d="M342.16,1122.02v-44.16h5.14v44.16H342.16z"/>
		<path id="XMLID_821_" style="fill:#2290BA;" d="M374.3,1122.02h-5.13v-39.6h-13.99v-4.56h33.11v4.56H374.3V1122.02z"/>
		<path id="XMLID_823_" style="fill:#2290BA;" d="M420.85,1122.02h-24.62v-44.16h24.62v4.56h-19.48v14.23h18.3v4.53h-18.3v16.25
			h19.48V1122.02z"/>
	</g>
	<g id="XMLID_763_">
		<path id="XMLID_764_" style="fill:#124C59;" d="M72.22,1177.63v-25.29h6.87v25.29H72.22z"/>
		<path id="XMLID_766_" style="fill:#124C59;" d="M83.88,1177.63v-25.29h6.87v25.29H83.88z"/>
		<path id="XMLID_768_" style="fill:#124C59;" d="M95.53,1177.63v-25.29h6.87v25.29H95.53z"/>
		<path id="XMLID_770_" style="fill:#124C59;" d="M105.95,1174.76c0-1.06,0.31-1.88,0.94-2.46c0.63-0.58,1.54-0.86,2.74-0.86
			c1.14,0,2.02,0.29,2.63,0.86c0.61,0.58,0.92,1.4,0.92,2.46c0,1.04-0.31,1.85-0.94,2.43c-0.63,0.58-1.5,0.87-2.6,0.87
			c-1.14,0-2.04-0.29-2.7-0.87C106.28,1176.63,105.95,1175.81,105.95,1174.76z"/>
		<path id="XMLID_772_" style="fill:#124C59;" d="M142.86,1160.39c0,2.83-0.83,5.01-2.5,6.55c-1.67,1.54-4.03,2.31-7.1,2.31h-1.92
			v8.39h-6.83v-25.29h8.75c3.19,0,5.59,0.7,7.2,2.09C142.05,1155.84,142.86,1157.82,142.86,1160.39z M131.34,1163.68h1.25
			c1.03,0,1.84-0.29,2.45-0.86c0.6-0.58,0.91-1.37,0.91-2.39c0-1.71-0.95-2.56-2.84-2.56h-1.76V1163.68z"/>
		<path id="XMLID_775_" style="fill:#124C59;" d="M167.71,1152.35v15.22c0,3.31-0.94,5.87-2.81,7.69c-1.87,1.82-4.58,2.72-8.1,2.72
			c-3.45,0-6.1-0.88-7.95-2.65c-1.85-1.76-2.78-4.3-2.78-7.61v-15.38h6.87v14.84c0,1.79,0.33,3.08,1,3.89
			c0.67,0.81,1.65,1.21,2.96,1.21c1.39,0,2.41-0.4,3.04-1.2c0.63-0.8,0.94-2.11,0.94-3.93v-14.8H167.71z"/>
		<path id="XMLID_777_" style="fill:#124C59;" d="M172.35,1152.35h8.82c3.44,0,5.99,0.51,7.65,1.53c1.67,1.02,2.5,2.61,2.5,4.76
			c0,1.42-0.36,2.63-1.09,3.63s-1.68,1.65-2.87,1.94v0.17c1.57,0.42,2.7,1.11,3.41,2.08c0.7,0.97,1.05,2.22,1.05,3.77
			c0,2.29-0.86,4.1-2.58,5.42s-4.07,1.98-7.05,1.98h-9.84V1152.35z M179.18,1162.05h2.06c0.98,0,1.74-0.2,2.27-0.61s0.8-1,0.8-1.8
			c0-1.42-1.07-2.13-3.22-2.13h-1.92V1162.05z M179.18,1167.05v5.31h2.4c2.13,0,3.2-0.9,3.2-2.7c0-0.84-0.29-1.49-0.86-1.94
			c-0.57-0.45-1.4-0.67-2.48-0.67H179.18z"/>
		<path id="XMLID_781_" style="fill:#124C59;" d="M195.54,1177.63v-25.29h6.83v19.77h9.74v5.52H195.54z"/>
		<path id="XMLID_783_" style="fill:#124C59;" d="M215.48,1177.63v-25.29h6.87v25.29H215.48z"/>
		<path id="XMLID_785_" style="fill:#124C59;" d="M238.4,1157.59c-1.63,0-2.89,0.67-3.8,2s-1.37,3.17-1.37,5.51
			c0,4.87,1.85,7.3,5.55,7.3c1.12,0,2.2-0.16,3.25-0.47s2.1-0.69,3.17-1.12v5.78c-2.11,0.93-4.5,1.4-7.16,1.4
			c-3.82,0-6.74-1.11-8.78-3.32c-2.04-2.21-3.05-5.41-3.05-9.6c0-2.62,0.49-4.92,1.48-6.9s2.4-3.51,4.25-4.57s4.03-1.6,6.53-1.6
			c2.73,0,5.34,0.59,7.83,1.78l-2.09,5.38c-0.93-0.44-1.87-0.81-2.8-1.11C240.47,1157.74,239.47,1157.59,238.4,1157.59z"/>
		<path id="XMLID_787_" style="fill:#124C59;" d="M269.91,1157.59c-1.63,0-2.89,0.67-3.8,2s-1.37,3.17-1.37,5.51
			c0,4.87,1.85,7.3,5.55,7.3c1.12,0,2.2-0.16,3.25-0.47s2.1-0.69,3.17-1.12v5.78c-2.11,0.93-4.5,1.4-7.16,1.4
			c-3.82,0-6.74-1.11-8.78-3.32c-2.04-2.21-3.05-5.41-3.05-9.6c0-2.62,0.49-4.92,1.48-6.9s2.4-3.51,4.25-4.57s4.03-1.6,6.53-1.6
			c2.73,0,5.34,0.59,7.83,1.78l-2.09,5.38c-0.93-0.44-1.87-0.81-2.8-1.11C271.99,1157.74,270.98,1157.59,269.91,1157.59z"/>
		<path id="XMLID_789_" style="fill:#124C59;" d="M304.62,1164.96c0,4.25-1.04,7.49-3.13,9.7c-2.09,2.21-5.14,3.32-9.17,3.32
			c-3.97,0-7.01-1.11-9.12-3.34c-2.12-2.22-3.17-5.46-3.17-9.72c0-4.21,1.05-7.42,3.16-9.64c2.1-2.22,5.16-3.33,9.17-3.33
			c4.02,0,7.07,1.1,9.15,3.3S304.62,1160.69,304.62,1164.96z M287.22,1164.96c0,4.89,1.7,7.33,5.1,7.33c1.73,0,3.01-0.59,3.85-1.78
			s1.25-3.04,1.25-5.55c0-2.53-0.42-4.39-1.27-5.59s-2.11-1.81-3.8-1.81C288.94,1157.56,287.22,1160.02,287.22,1164.96z"/>
		<path id="XMLID_792_" style="fill:#124C59;" d="M332.59,1177.63h-8.96l-9.24-17.81h-0.16c0.22,2.8,0.33,4.94,0.33,6.42v11.4h-6.05
			v-25.29h8.92l9.2,17.57h0.1c-0.16-2.55-0.24-4.59-0.24-6.14v-11.43h6.09V1177.63z"/>
		<path id="XMLID_794_" style="fill:#124C59;" d="M348.64,1157.59c-1.63,0-2.89,0.67-3.8,2s-1.37,3.17-1.37,5.51
			c0,4.87,1.85,7.3,5.55,7.3c1.12,0,2.2-0.16,3.25-0.47s2.1-0.69,3.17-1.12v5.78c-2.11,0.93-4.5,1.4-7.16,1.4
			c-3.82,0-6.74-1.11-8.78-3.32c-2.04-2.21-3.05-5.41-3.05-9.6c0-2.62,0.49-4.92,1.48-6.9s2.4-3.51,4.25-4.57s4.03-1.6,6.53-1.6
			c2.73,0,5.34,0.59,7.83,1.78l-2.09,5.38c-0.93-0.44-1.87-0.81-2.8-1.11C350.72,1157.74,349.71,1157.59,348.64,1157.59z"/>
		<path id="XMLID_796_" style="fill:#124C59;" d="M374.71,1177.63h-15.01v-25.29h15.01v5.48h-8.18v3.98h7.58v5.48h-7.58v4.77h8.18
			V1177.63z"/>
		<path id="XMLID_798_" style="fill:#124C59;" d="M396.81,1160.39c0,2.83-0.83,5.01-2.5,6.55c-1.67,1.54-4.03,2.31-7.1,2.31h-1.92
			v8.39h-6.83v-25.29h8.75c3.19,0,5.59,0.7,7.2,2.09C396.01,1155.84,396.81,1157.82,396.81,1160.39z M385.29,1163.68h1.25
			c1.03,0,1.84-0.29,2.45-0.86c0.6-0.58,0.91-1.37,0.91-2.39c0-1.71-0.95-2.56-2.84-2.56h-1.76V1163.68z"/>
		<path id="XMLID_801_" style="fill:#124C59;" d="M411.32,1177.63h-6.83v-19.7h-6.17v-5.59h19.16v5.59h-6.16V1177.63z"/>
	</g>
</g>
<g id="Least">
</g>
<g id="Layer_4">
	<g id="XMLID_149_">
		<g id="XMLID_758_">
			<path id="XMLID_759_" style="fill:#231F20;" d="M138.86,75.07h-0.06l-3.15,1.7l-0.47-1.87l3.96-2.12h2.09v18.12h-2.37V75.07z"/>
			<path id="XMLID_761_" style="fill:#231F20;" d="M158.57,74.85h-6.91l-0.7,4.66c0.42-0.06,0.81-0.11,1.48-0.11
				c1.39,0,2.79,0.31,3.9,0.98c1.42,0.81,2.59,2.37,2.59,4.66c0,3.54-2.82,6.19-6.75,6.19c-1.98,0-3.65-0.56-4.52-1.12l0.61-1.87
				c0.75,0.45,2.23,1,3.88,1c2.31,0,4.29-1.51,4.29-3.93c-0.03-2.34-1.59-4.01-5.21-4.01c-1.03,0-1.84,0.11-2.51,0.19l1.17-8.7h8.67
				V74.85z"/>
		</g>
		<g id="XMLID_752_">
			<path id="XMLID_753_" style="fill:#231F20;" d="M138.86,108.54h-0.06l-3.15,1.7l-0.47-1.87l3.96-2.12h2.09v18.12h-2.37V108.54z"
				/>
			<path id="XMLID_755_" style="fill:#231F20;" d="M155.34,124.37v-4.93h-8.42v-1.62l8.08-11.57h2.65v11.26h2.54v1.92h-2.54v4.93
				H155.34z M155.34,117.51v-6.05c0-0.95,0.03-1.9,0.08-2.84h-0.08c-0.56,1.06-1,1.84-1.5,2.68l-4.43,6.16v0.06H155.34z"/>
		</g>
		<g id="XMLID_747_">
			<path id="XMLID_748_" style="fill:#231F20;" d="M138.86,133.64h-0.06l-3.15,1.7l-0.47-1.87l3.96-2.12h2.09v18.12h-2.37V133.64z"
				/>
			<path id="XMLID_750_" style="fill:#231F20;" d="M148.34,146.65c0.7,0.45,2.31,1.14,4.01,1.14c3.15,0,4.13-2.01,4.1-3.51
				c-0.03-2.54-2.31-3.62-4.68-3.62h-1.37v-1.84h1.37c1.78,0,4.04-0.92,4.04-3.07c0-1.45-0.92-2.73-3.18-2.73
				c-1.45,0-2.84,0.64-3.62,1.2l-0.64-1.78c0.95-0.7,2.79-1.39,4.74-1.39c3.57,0,5.18,2.12,5.18,4.32c0,1.87-1.12,3.46-3.34,4.27
				v0.06c2.23,0.45,4.04,2.12,4.04,4.66c0,2.9-2.26,5.44-6.61,5.44c-2.04,0-3.82-0.64-4.71-1.23L148.34,146.65z"/>
		</g>
		<g id="XMLID_742_">
			<path id="XMLID_743_" style="fill:#231F20;" d="M138.86,194.98h-0.06l-3.15,1.7l-0.47-1.87l3.96-2.12h2.09v18.12h-2.37V194.98z"
				/>
			<path id="XMLID_745_" style="fill:#231F20;" d="M147.76,210.81v-1.51l1.92-1.87c4.63-4.4,6.72-6.75,6.75-9.48
				c0-1.84-0.89-3.54-3.6-3.54c-1.64,0-3.01,0.84-3.85,1.53l-0.78-1.73c1.25-1.06,3.04-1.84,5.13-1.84c3.9,0,5.55,2.68,5.55,5.27
				c0,3.35-2.43,6.05-6.25,9.73l-1.45,1.34v0.06h8.14v2.04H147.76z"/>
		</g>
		<g id="XMLID_737_">
			<path id="XMLID_738_" style="fill:#231F20;" d="M138.86,220.07h-0.06l-3.15,1.7l-0.47-1.87l3.96-2.12h2.09v18.12h-2.37V220.07z"
				/>
			<path id="XMLID_740_" style="fill:#231F20;" d="M153.08,220.07h-0.06l-3.15,1.7l-0.47-1.87l3.96-2.12h2.09v18.12h-2.37V220.07z"
				/>
		</g>
		<g id="XMLID_733_">
			<path id="XMLID_734_" style="fill:#231F20;" d="M134.96,262.07c0.53,0.06,1.14,0,1.98-0.08c1.42-0.2,2.76-0.78,3.79-1.76
				c1.2-1.09,2.06-2.68,2.4-4.82h-0.08c-1,1.23-2.45,1.95-4.27,1.95c-3.26,0-5.35-2.45-5.35-5.55c0-3.43,2.48-6.44,6.19-6.44
				s5.99,3.01,5.99,7.64c0,3.99-1.34,6.77-3.12,8.5c-1.39,1.37-3.32,2.2-5.27,2.43c-0.89,0.14-1.67,0.17-2.26,0.14V262.07z
				 M135.85,251.64c0,2.26,1.37,3.85,3.48,3.85c1.65,0,2.93-0.81,3.57-1.9c0.14-0.22,0.22-0.5,0.22-0.89c0-3.09-1.14-5.46-3.71-5.46
				C137.33,247.24,135.85,249.08,135.85,251.64z"/>
		</g>
		<g id="XMLID_730_">
			<path id="XMLID_731_" style="fill:#231F20;" d="M145.3,301.44v1.62l-7.89,16.5h-2.54l7.86-16.03v-0.06h-8.87v-2.04H145.3z"/>
		</g>
		<g id="XMLID_727_">
			<path id="XMLID_728_" style="fill:#231F20;" d="M144.35,331.39h-6.91l-0.7,4.66c0.42-0.06,0.81-0.11,1.48-0.11
				c1.39,0,2.79,0.31,3.9,0.98c1.42,0.81,2.59,2.37,2.59,4.66c0,3.54-2.82,6.19-6.75,6.19c-1.98,0-3.65-0.56-4.52-1.12l0.61-1.87
				c0.75,0.45,2.23,1,3.88,1c2.31,0,4.29-1.51,4.29-3.93c-0.03-2.34-1.59-4.01-5.21-4.01c-1.03,0-1.84,0.11-2.51,0.19l1.17-8.7h8.67
				V331.39z"/>
		</g>
		<g id="XMLID_724_">
			<path id="XMLID_725_" style="fill:#231F20;" d="M134.12,405.98c0.7,0.45,2.31,1.14,4.01,1.14c3.15,0,4.13-2.01,4.1-3.51
				c-0.03-2.54-2.31-3.62-4.68-3.62h-1.37v-1.84h1.37c1.78,0,4.04-0.92,4.04-3.07c0-1.45-0.92-2.73-3.18-2.73
				c-1.45,0-2.84,0.64-3.62,1.2l-0.64-1.78c0.95-0.7,2.79-1.39,4.74-1.39c3.57,0,5.18,2.12,5.18,4.32c0,1.87-1.12,3.46-3.34,4.27
				v0.06c2.23,0.45,4.04,2.12,4.04,4.66c0,2.9-2.26,5.44-6.61,5.44c-2.04,0-3.82-0.64-4.71-1.23L134.12,405.98z"/>
		</g>
		<g id="XMLID_721_">
			<path id="XMLID_722_" style="fill:#231F20;" d="M138.86,418.06h-0.06l-3.15,1.7l-0.47-1.87l3.96-2.12h2.09v18.12h-2.37V418.06z"
				/>
		</g>
		<g id="XMLID_707_">
			<path id="XMLID_718_" style="fill:#231F20;" d="M145.58,449.74c0,6.16-2.29,9.56-6.3,9.56c-3.54,0-5.94-3.32-5.99-9.31
				c0-6.08,2.62-9.42,6.3-9.42C143.4,440.56,145.58,443.97,145.58,449.74z M135.74,450.02c0,4.71,1.45,7.39,3.68,7.39
				c2.51,0,3.71-2.93,3.71-7.56c0-4.46-1.14-7.39-3.68-7.39C137.3,442.46,135.74,445.08,135.74,450.02z"/>
		</g>
		<g id="XMLID_702_">
			<path id="XMLID_703_" style="fill:#231F20;" d="M140,475.64v1.81h-6.89v-1.81H140z"/>
			<path id="XMLID_705_" style="fill:#231F20;" d="M147.34,468.25h-0.06l-3.15,1.7l-0.47-1.87l3.96-2.12h2.09v18.12h-2.37V468.25z"
				/>
		</g>
		<g id="XMLID_697_">
			<path id="XMLID_698_" style="fill:#231F20;" d="M140,514.68v1.81h-6.89v-1.81H140z"/>
			<path id="XMLID_700_" style="fill:#231F20;" d="M142.6,520.31c0.7,0.45,2.31,1.14,4.01,1.14c3.15,0,4.13-2.01,4.1-3.51
				c-0.03-2.54-2.31-3.62-4.68-3.62h-1.37v-1.84h1.37c1.78,0,4.04-0.92,4.04-3.07c0-1.45-0.92-2.73-3.18-2.73
				c-1.45,0-2.84,0.64-3.62,1.2l-0.64-1.78c0.95-0.7,2.79-1.39,4.74-1.39c3.57,0,5.18,2.12,5.18,4.32c0,1.87-1.12,3.46-3.34,4.27
				v0.06c2.23,0.45,4.04,2.12,4.04,4.66c0,2.9-2.26,5.44-6.61,5.44c-2.04,0-3.82-0.64-4.71-1.23L142.6,520.31z"/>
		</g>
		<g id="XMLID_663_">
			<path id="XMLID_664_" style="fill:#231F20;" d="M140,553.72v1.81h-6.89v-1.81H140z"/>
			<path id="XMLID_695_" style="fill:#231F20;" d="M152.83,546.11h-6.91l-0.7,4.66c0.42-0.06,0.81-0.11,1.48-0.11
				c1.39,0,2.79,0.31,3.9,0.98c1.42,0.81,2.59,2.37,2.59,4.66c0,3.54-2.82,6.19-6.75,6.19c-1.98,0-3.65-0.56-4.52-1.12l0.61-1.87
				c0.75,0.45,2.23,1,3.88,1c2.31,0,4.29-1.51,4.29-3.93c-0.03-2.34-1.59-4.01-5.21-4.01c-1.03,0-1.84,0.11-2.51,0.19l1.17-8.7h8.67
				V546.11z"/>
		</g>
		<g id="XMLID_657_">
			<path id="XMLID_658_" style="fill:#231F20;" d="M140,581.61v1.81h-6.89v-1.81H140z"/>
			<path id="XMLID_660_" style="fill:#231F20;" d="M152.36,573.66c-0.5-0.03-1.14,0-1.84,0.11c-3.85,0.64-5.88,3.46-6.3,6.44h0.08
				c0.86-1.14,2.37-2.09,4.38-2.09c3.21,0,5.46,2.31,5.46,5.85c0,3.32-2.26,6.38-6.02,6.38c-3.88,0-6.41-3.01-6.41-7.72
				c0-3.57,1.28-6.38,3.07-8.17c1.5-1.48,3.51-2.4,5.8-2.68c0.73-0.11,1.34-0.14,1.79-0.14V573.66z M151.66,584.11
				c0-2.59-1.48-4.15-3.74-4.15c-1.48,0-2.84,0.92-3.51,2.23c-0.17,0.28-0.28,0.64-0.28,1.09c0.06,2.98,1.42,5.19,3.99,5.19
				C150.24,588.46,151.66,586.71,151.66,584.11z"/>
		</g>
		<g id="XMLID_650_">
			<path id="XMLID_651_" style="fill:#231F20;" d="M140,609.49v1.81h-6.89v-1.81H140z"/>
			<path id="XMLID_653_" style="fill:#231F20;" d="M141.79,613.34c0-2.29,1.37-3.9,3.6-4.85l-0.03-0.08
				c-2.01-0.95-2.87-2.51-2.87-4.07c0-2.87,2.42-4.82,5.6-4.82c3.51,0,5.27,2.2,5.27,4.46c0,1.53-0.75,3.18-2.98,4.24v0.08
				c2.26,0.89,3.65,2.48,3.65,4.68c0,3.15-2.7,5.27-6.16,5.27C144.08,618.24,141.79,615.98,141.79,613.34z M151.55,613.22
				c0-2.2-1.53-3.26-3.99-3.96c-2.12,0.61-3.26,2.01-3.26,3.74c-0.08,1.84,1.31,3.46,3.62,3.46
				C150.13,616.46,151.55,615.09,151.55,613.22z M144.8,604.16c0,1.81,1.37,2.79,3.46,3.34c1.56-0.53,2.76-1.64,2.76-3.29
				c0-1.45-0.86-2.96-3.07-2.96C145.92,601.26,144.8,602.6,144.8,604.16z"/>
		</g>
		<g id="XMLID_644_">
			<path id="XMLID_645_" style="fill:#231F20;" d="M140,648.53v1.81h-6.89v-1.81H140z"/>
			<path id="XMLID_647_" style="fill:#231F20;" d="M143.43,655.25c0.53,0.06,1.14,0,1.98-0.08c1.42-0.19,2.76-0.78,3.79-1.76
				c1.2-1.09,2.06-2.68,2.4-4.82h-0.08c-1,1.23-2.45,1.95-4.27,1.95c-3.26,0-5.35-2.45-5.35-5.55c0-3.43,2.48-6.44,6.19-6.44
				s5.99,3.01,5.99,7.64c0,3.99-1.34,6.77-3.12,8.5c-1.39,1.37-3.32,2.2-5.27,2.43c-0.89,0.14-1.67,0.17-2.26,0.14V655.25z
				 M144.33,644.83c0,2.26,1.37,3.85,3.48,3.85c1.65,0,2.93-0.81,3.57-1.9c0.14-0.22,0.22-0.5,0.22-0.89c0-3.09-1.14-5.46-3.71-5.46
				C145.8,640.42,144.33,642.26,144.33,644.83z"/>
		</g>
		<g id="XMLID_637_">
			<path id="XMLID_638_" style="fill:#231F20;" d="M140,693.15v1.81h-6.89v-1.81H140z"/>
			<path id="XMLID_640_" style="fill:#231F20;" d="M147.34,685.76h-0.06l-3.15,1.7l-0.47-1.87l3.96-2.12h2.09v18.12h-2.37V685.76z"
				/>
			<path id="XMLID_642_" style="fill:#231F20;" d="M161.56,685.76h-0.06l-3.15,1.7l-0.47-1.87l3.96-2.12h2.09v18.12h-2.37V685.76z"
				/>
		</g>
		<g id="XMLID_630_">
			<path id="XMLID_631_" style="fill:#231F20;" d="M140,718.24v1.81h-6.89v-1.81H140z"/>
			<path id="XMLID_633_" style="fill:#231F20;" d="M147.34,710.86h-0.06l-3.15,1.7l-0.47-1.87l3.96-2.12h2.09v18.12h-2.37V710.86z"
				/>
			<path id="XMLID_635_" style="fill:#231F20;" d="M156.23,726.69v-1.51l1.92-1.87c4.63-4.41,6.72-6.75,6.75-9.48
				c0-1.84-0.89-3.54-3.6-3.54c-1.64,0-3.01,0.84-3.85,1.53l-0.78-1.73c1.25-1.06,3.04-1.84,5.13-1.84c3.9,0,5.55,2.68,5.55,5.27
				c0,3.34-2.43,6.05-6.25,9.73l-1.45,1.34v0.06h8.14v2.04H156.23z"/>
		</g>
		<g id="XMLID_623_">
			<path id="XMLID_624_" style="fill:#231F20;" d="M140,746.13v1.81h-6.89v-1.81H140z"/>
			<path id="XMLID_626_" style="fill:#231F20;" d="M147.34,738.74h-0.06l-3.15,1.7l-0.47-1.87l3.96-2.12h2.09v18.12h-2.37V738.74z"
				/>
			<path id="XMLID_628_" style="fill:#231F20;" d="M156.82,751.76c0.7,0.45,2.31,1.14,4.01,1.14c3.15,0,4.13-2.01,4.1-3.51
				c-0.03-2.54-2.31-3.62-4.68-3.62h-1.37v-1.84h1.37c1.78,0,4.04-0.92,4.04-3.07c0-1.45-0.92-2.73-3.18-2.73
				c-1.45,0-2.84,0.64-3.62,1.2l-0.64-1.78c0.95-0.7,2.79-1.39,4.74-1.39c3.57,0,5.18,2.12,5.18,4.32c0,1.87-1.12,3.46-3.34,4.27
				v0.06c2.23,0.45,4.04,2.12,4.04,4.66c0,2.9-2.26,5.44-6.61,5.44c-2.04,0-3.82-0.64-4.71-1.23L156.82,751.76z"/>
		</g>
		<g id="XMLID_615_">
			<path id="XMLID_616_" style="fill:#231F20;" d="M140,774.01v1.81h-6.89v-1.81H140z"/>
			<path id="XMLID_618_" style="fill:#231F20;" d="M147.34,766.62h-0.06l-3.15,1.7l-0.47-1.87l3.96-2.12h2.09v18.12h-2.37V766.62z"
				/>
			<path id="XMLID_620_" style="fill:#231F20;" d="M163.82,782.46v-4.93h-8.42v-1.62l8.08-11.57h2.65v11.26h2.54v1.92h-2.54v4.93
				H163.82z M163.82,775.6v-6.05c0-0.95,0.03-1.9,0.08-2.84h-0.08c-0.56,1.06-1,1.84-1.5,2.68l-4.43,6.16v0.06H163.82z"/>
		</g>
		<g id="XMLID_608_">
			<path id="XMLID_609_" style="fill:#231F20;" d="M140,807.47v1.81h-6.89v-1.81H140z"/>
			<path id="XMLID_611_" style="fill:#231F20;" d="M147.34,800.09h-0.06l-3.15,1.7l-0.47-1.87l3.96-2.12h2.09v18.12h-2.37V800.09z"
				/>
			<path id="XMLID_613_" style="fill:#231F20;" d="M167.05,799.86h-6.91l-0.7,4.66c0.42-0.06,0.81-0.11,1.48-0.11
				c1.39,0,2.79,0.31,3.9,0.98c1.42,0.81,2.59,2.37,2.59,4.66c0,3.54-2.82,6.19-6.75,6.19c-1.98,0-3.65-0.56-4.52-1.12l0.61-1.87
				c0.75,0.45,2.23,1,3.88,1c2.31,0,4.29-1.5,4.29-3.93c-0.03-2.34-1.59-4.01-5.21-4.01c-1.03,0-1.84,0.11-2.51,0.2l1.17-8.7h8.67
				V799.86z"/>
		</g>
		<g id="XMLID_600_">
			<path id="XMLID_601_" style="fill:#231F20;" d="M140,868.82v1.81h-6.89v-1.81H140z"/>
			<path id="XMLID_603_" style="fill:#231F20;" d="M147.34,861.43h-0.06l-3.15,1.7l-0.47-1.87l3.96-2.12h2.09v18.12h-2.37V861.43z"
				/>
			<path id="XMLID_605_" style="fill:#231F20;" d="M166.58,860.87c-0.5-0.03-1.14,0-1.84,0.11c-3.85,0.64-5.88,3.46-6.3,6.44h0.08
				c0.86-1.14,2.37-2.09,4.38-2.09c3.21,0,5.46,2.31,5.46,5.85c0,3.32-2.26,6.38-6.02,6.38c-3.88,0-6.41-3.01-6.41-7.72
				c0-3.57,1.28-6.38,3.07-8.17c1.5-1.48,3.51-2.4,5.8-2.68c0.72-0.11,1.34-0.14,1.78-0.14V860.87z M165.88,871.33
				c0-2.59-1.48-4.15-3.74-4.15c-1.48,0-2.84,0.92-3.51,2.23c-0.17,0.28-0.28,0.64-0.28,1.09c0.06,2.98,1.42,5.19,3.99,5.19
				C164.46,875.68,165.88,873.92,165.88,871.33z"/>
		</g>
		<g id="XMLID_592_">
			<path id="XMLID_593_" style="fill:#231F20;" d="M222.18,108.04h-0.06l-3.15,1.7l-0.47-1.87l3.96-2.12h2.09v18.12h-2.37V108.04z"
				/>
			<path id="XMLID_595_" style="fill:#231F20;" d="M230.85,119.27c0-2.29,1.37-3.9,3.6-4.85l-0.03-0.08
				c-2.01-0.95-2.87-2.51-2.87-4.07c0-2.87,2.42-4.82,5.6-4.82c3.51,0,5.27,2.2,5.27,4.46c0,1.53-0.75,3.18-2.98,4.24v0.08
				c2.26,0.89,3.65,2.48,3.65,4.68c0,3.15-2.7,5.27-6.16,5.27C233.14,124.18,230.85,121.92,230.85,119.27z M240.61,119.16
				c0-2.2-1.53-3.26-3.99-3.96c-2.12,0.61-3.26,2.01-3.26,3.74c-0.08,1.84,1.31,3.46,3.62,3.46
				C239.19,122.39,240.61,121.03,240.61,119.16z M233.87,110.1c0,1.81,1.37,2.79,3.46,3.35c1.56-0.53,2.76-1.65,2.76-3.29
				c0-1.45-0.86-2.96-3.07-2.96C234.98,107.2,233.87,108.54,233.87,110.1z"/>
		</g>
		<g id="XMLID_586_">
			<path id="XMLID_587_" style="fill:#231F20;" d="M222.18,135.92h-0.06l-3.15,1.7l-0.47-1.87l3.96-2.12h2.09v18.12h-2.37V135.92z"
				/>
			<path id="XMLID_589_" style="fill:#231F20;" d="M241.42,135.36c-0.5-0.03-1.14,0-1.84,0.11c-3.85,0.64-5.88,3.46-6.3,6.44h0.08
				c0.86-1.14,2.37-2.09,4.38-2.09c3.21,0,5.46,2.31,5.46,5.85c0,3.32-2.26,6.38-6.02,6.38c-3.88,0-6.41-3.01-6.41-7.72
				c0-3.57,1.28-6.38,3.07-8.17c1.5-1.48,3.51-2.4,5.8-2.68c0.72-0.11,1.34-0.14,1.78-0.14V135.36z M240.72,145.82
				c0-2.59-1.48-4.15-3.74-4.15c-1.48,0-2.84,0.92-3.51,2.23c-0.17,0.28-0.28,0.64-0.28,1.09c0.06,2.98,1.42,5.19,3.99,5.19
				C239.3,150.17,240.72,148.41,240.72,145.82z"/>
		</g>
		<g id="XMLID_579_">
			<path id="XMLID_580_" style="fill:#231F20;" d="M222.18,163.81h-0.06l-3.15,1.7l-0.47-1.87l3.96-2.12h2.09v18.12h-2.37V163.81z"
				/>
			<path id="XMLID_582_" style="fill:#231F20;" d="M238.66,179.64v-4.93h-8.42v-1.62l8.08-11.57h2.65v11.26h2.54v1.92h-2.54v4.93
				H238.66z M238.66,172.78v-6.05c0-0.95,0.03-1.9,0.08-2.84h-0.08c-0.56,1.06-1,1.84-1.5,2.68l-4.43,6.16v0.06H238.66z"/>
		</g>
		<g id="XMLID_574_">
			<path id="XMLID_575_" style="fill:#231F20;" d="M222.18,191.69h-0.06l-3.15,1.7l-0.47-1.87l3.96-2.12h2.09v18.12h-2.37V191.69z"
				/>
			<path id="XMLID_577_" style="fill:#231F20;" d="M231.08,207.52v-1.51l1.92-1.87c4.63-4.4,6.72-6.75,6.75-9.48
				c0-1.84-0.89-3.54-3.6-3.54c-1.64,0-3.01,0.84-3.85,1.53l-0.78-1.73c1.25-1.06,3.04-1.84,5.13-1.84c3.9,0,5.55,2.68,5.55,5.27
				c0,3.35-2.43,6.05-6.25,9.73l-1.45,1.34v0.06h8.14v2.04H231.08z"/>
		</g>
		<g id="XMLID_569_">
			<path id="XMLID_570_" style="fill:#231F20;" d="M222.18,216.78h-0.06l-3.15,1.7l-0.47-1.87l3.96-2.12h2.09v18.12h-2.37V216.78z"
				/>
			<path id="XMLID_572_" style="fill:#231F20;" d="M236.4,216.78h-0.06l-3.15,1.7l-0.47-1.87l3.96-2.12h2.09v18.12h-2.37V216.78z"/>
		</g>
		<g id="XMLID_565_">
			<path id="XMLID_566_" style="fill:#231F20;" d="M218.28,269.93c0.53,0.06,1.14,0,1.98-0.08c1.42-0.2,2.76-0.78,3.79-1.76
				c1.2-1.09,2.06-2.68,2.4-4.82h-0.08c-1,1.23-2.45,1.95-4.27,1.95c-3.26,0-5.35-2.45-5.35-5.55c0-3.43,2.48-6.44,6.19-6.44
				s5.99,3.01,5.99,7.64c0,3.99-1.34,6.77-3.12,8.5c-1.39,1.37-3.32,2.2-5.27,2.43c-0.89,0.14-1.67,0.17-2.26,0.14V269.93z
				 M219.17,259.51c0,2.26,1.37,3.85,3.48,3.85c1.65,0,2.93-0.81,3.57-1.9c0.14-0.22,0.22-0.5,0.22-0.89c0-3.09-1.14-5.46-3.71-5.46
				C220.65,255.1,219.17,256.94,219.17,259.51z"/>
		</g>
		<g id="XMLID_560_">
			<path id="XMLID_561_" style="fill:#231F20;" d="M216.63,322.83c0-2.29,1.37-3.9,3.6-4.85l-0.03-0.08
				c-2.01-0.95-2.87-2.51-2.87-4.07c0-2.87,2.42-4.82,5.6-4.82c3.51,0,5.27,2.2,5.27,4.46c0,1.53-0.75,3.18-2.98,4.24v0.08
				c2.26,0.89,3.65,2.48,3.65,4.68c0,3.15-2.7,5.27-6.16,5.27C218.92,327.73,216.63,325.48,216.63,322.83z M226.39,322.72
				c0-2.2-1.53-3.26-3.99-3.96c-2.12,0.61-3.26,2.01-3.26,3.74c-0.08,1.84,1.31,3.46,3.62,3.46
				C224.97,325.95,226.39,324.58,226.39,322.72z M219.64,313.66c0,1.81,1.37,2.79,3.46,3.35c1.56-0.53,2.76-1.65,2.76-3.29
				c0-1.45-0.86-2.96-3.07-2.96C220.76,310.76,219.64,312.09,219.64,313.66z"/>
		</g>
		<g id="XMLID_557_">
			<path id="XMLID_558_" style="fill:#231F20;" d="M228.62,337.2v1.62l-7.89,16.5h-2.54l7.86-16.03v-0.06h-8.87v-2.04H228.62z"/>
		</g>
		<g id="XMLID_553_">
			<path id="XMLID_554_" style="fill:#231F20;" d="M227.2,389.12c-0.5-0.03-1.14,0-1.84,0.11c-3.85,0.64-5.88,3.46-6.3,6.44h0.08
				c0.86-1.14,2.37-2.09,4.38-2.09c3.21,0,5.46,2.31,5.46,5.85c0,3.32-2.26,6.38-6.02,6.38c-3.88,0-6.41-3.01-6.41-7.72
				c0-3.57,1.28-6.38,3.07-8.17c1.5-1.48,3.51-2.4,5.8-2.68c0.72-0.11,1.34-0.14,1.78-0.14V389.12z M226.5,399.57
				c0-2.59-1.48-4.15-3.74-4.15c-1.48,0-2.84,0.92-3.51,2.23c-0.17,0.28-0.28,0.64-0.28,1.09c0.06,2.98,1.42,5.19,3.99,5.19
				C225.08,403.92,226.5,402.17,226.5,399.57z"/>
		</g>
		<g id="XMLID_549_">
			<path id="XMLID_550_" style="fill:#231F20;" d="M224.44,444.55v-4.93h-8.42V438l8.08-11.57h2.65v11.26h2.54v1.92h-2.54v4.93
				H224.44z M224.44,437.69v-6.05c0-0.95,0.03-1.9,0.08-2.84h-0.08c-0.56,1.06-1,1.84-1.5,2.68l-4.43,6.16v0.06H224.44z"/>
		</g>
		<g id="XMLID_546_">
			<path id="XMLID_547_" style="fill:#231F20;" d="M216.86,494.74v-1.51l1.92-1.87c4.63-4.4,6.72-6.75,6.75-9.48
				c0-1.84-0.89-3.54-3.6-3.54c-1.64,0-3.01,0.84-3.85,1.53l-0.78-1.73c1.25-1.06,3.04-1.84,5.13-1.84c3.9,0,5.55,2.68,5.55,5.27
				c0,3.35-2.43,6.05-6.25,9.73l-1.45,1.34v0.06h8.14v2.04H216.86z"/>
		</g>
		<g id="XMLID_542_">
			<path id="XMLID_543_" style="fill:#231F20;" d="M228.9,518.95c0,6.16-2.29,9.56-6.3,9.56c-3.54,0-5.94-3.32-5.99-9.31
				c0-6.08,2.62-9.42,6.3-9.42C226.73,509.78,228.9,513.18,228.9,518.95z M219.06,519.23c0,4.71,1.45,7.39,3.68,7.39
				c2.51,0,3.71-2.93,3.71-7.56c0-4.46-1.14-7.39-3.68-7.39C220.62,511.67,219.06,514.29,219.06,519.23z"/>
		</g>
		<g id="XMLID_537_">
			<path id="XMLID_538_" style="fill:#231F20;" d="M223.32,553.22v1.81h-6.89v-1.81H223.32z"/>
			<path id="XMLID_540_" style="fill:#231F20;" d="M230.66,545.83h-0.06l-3.15,1.7l-0.47-1.87l3.96-2.12h2.09v18.12h-2.37V545.83z"
				/>
		</g>
		<g id="XMLID_532_">
			<path id="XMLID_533_" style="fill:#231F20;" d="M223.32,592.26v1.81h-6.89v-1.81H223.32z"/>
			<path id="XMLID_535_" style="fill:#231F20;" d="M225.92,597.89c0.7,0.45,2.31,1.14,4.01,1.14c3.15,0,4.13-2.01,4.1-3.51
				c-0.03-2.54-2.31-3.62-4.68-3.62h-1.37v-1.84h1.37c1.78,0,4.04-0.92,4.04-3.07c0-1.45-0.92-2.73-3.18-2.73
				c-1.45,0-2.84,0.64-3.62,1.2l-0.64-1.78c0.95-0.7,2.79-1.39,4.74-1.39c3.57,0,5.18,2.12,5.18,4.32c0,1.87-1.12,3.46-3.34,4.27
				v0.06c2.23,0.45,4.04,2.12,4.04,4.66c0,2.9-2.26,5.44-6.61,5.44c-2.04,0-3.82-0.64-4.71-1.23L225.92,597.89z"/>
		</g>
		<g id="XMLID_526_">
			<path id="XMLID_527_" style="fill:#231F20;" d="M223.32,631.3v1.81h-6.89v-1.81H223.32z"/>
			<path id="XMLID_529_" style="fill:#231F20;" d="M232.92,639.74v-4.93h-8.42v-1.62l8.08-11.57h2.65v11.26h2.54v1.92h-2.54v4.93
				H232.92z M232.92,632.89v-6.05c0-0.95,0.03-1.9,0.08-2.84h-0.08c-0.56,1.06-1,1.84-1.5,2.68l-4.43,6.16v0.06H232.92z"/>
		</g>
		<g id="XMLID_521_">
			<path id="XMLID_522_" style="fill:#231F20;" d="M223.32,670.34v1.81h-6.89v-1.81H223.32z"/>
			<path id="XMLID_524_" style="fill:#231F20;" d="M236.15,662.73h-6.91l-0.7,4.66c0.42-0.06,0.81-0.11,1.48-0.11
				c1.39,0,2.79,0.31,3.9,0.98c1.42,0.81,2.59,2.37,2.59,4.66c0,3.54-2.82,6.19-6.75,6.19c-1.98,0-3.65-0.56-4.52-1.12l0.61-1.87
				c0.75,0.45,2.23,1,3.88,1c2.31,0,4.29-1.5,4.29-3.93c-0.03-2.34-1.59-4.01-5.21-4.01c-1.03,0-1.84,0.11-2.51,0.2l1.17-8.7h8.67
				V662.73z"/>
		</g>
		<g id="XMLID_515_">
			<path id="XMLID_516_" style="fill:#231F20;" d="M223.32,703.8v1.81h-6.89v-1.81H223.32z"/>
			<path id="XMLID_518_" style="fill:#231F20;" d="M235.68,695.85c-0.5-0.03-1.14,0-1.84,0.11c-3.85,0.64-5.88,3.46-6.3,6.44h0.08
				c0.86-1.14,2.37-2.09,4.38-2.09c3.21,0,5.46,2.31,5.46,5.85c0,3.32-2.26,6.38-6.02,6.38c-3.88,0-6.41-3.01-6.41-7.72
				c0-3.57,1.28-6.38,3.07-8.17c1.5-1.48,3.51-2.4,5.8-2.68c0.72-0.11,1.34-0.14,1.78-0.14V695.85z M234.98,706.31
				c0-2.59-1.48-4.15-3.74-4.15c-1.48,0-2.84,0.92-3.51,2.23c-0.17,0.28-0.28,0.64-0.28,1.09c0.06,2.98,1.42,5.19,3.99,5.19
				C233.56,710.66,234.98,708.9,234.98,706.31z"/>
		</g>
		<g id="XMLID_510_">
			<path id="XMLID_511_" style="fill:#231F20;" d="M223.32,753.99v1.81h-6.89v-1.81H223.32z"/>
			<path id="XMLID_513_" style="fill:#231F20;" d="M237.1,744.32v1.62l-7.89,16.5h-2.54l7.86-16.03v-0.06h-8.87v-2.03H237.1z"/>
		</g>
		<g id="XMLID_503_">
			<path id="XMLID_504_" style="fill:#231F20;" d="M223.32,804.18V806h-6.89v-1.81H223.32z"/>
			<path id="XMLID_506_" style="fill:#231F20;" d="M225.11,808.03c0-2.29,1.37-3.9,3.6-4.85l-0.03-0.08
				c-2.01-0.95-2.87-2.51-2.87-4.07c0-2.87,2.42-4.82,5.6-4.82c3.51,0,5.27,2.2,5.27,4.46c0,1.53-0.75,3.18-2.98,4.24v0.08
				c2.26,0.89,3.65,2.48,3.65,4.68c0,3.15-2.7,5.27-6.16,5.27C227.4,812.94,225.11,810.68,225.11,808.03z M234.87,807.92
				c0-2.2-1.53-3.26-3.99-3.96c-2.12,0.61-3.26,2.01-3.26,3.74c-0.08,1.84,1.31,3.46,3.62,3.46
				C233.45,811.15,234.87,809.79,234.87,807.92z M228.12,798.86c0,1.81,1.37,2.79,3.46,3.34c1.56-0.53,2.76-1.64,2.76-3.29
				c0-1.45-0.86-2.96-3.07-2.96C229.24,795.96,228.12,797.3,228.12,798.86z"/>
		</g>
		<g id="XMLID_497_">
			<path id="XMLID_498_" style="fill:#231F20;" d="M223.32,854.38v1.81h-6.89v-1.81H223.32z"/>
			<path id="XMLID_500_" style="fill:#231F20;" d="M226.76,861.1c0.53,0.06,1.14,0,1.98-0.08c1.42-0.19,2.76-0.78,3.79-1.76
				c1.2-1.09,2.06-2.68,2.4-4.82h-0.08c-1,1.23-2.45,1.95-4.27,1.95c-3.26,0-5.35-2.45-5.35-5.55c0-3.43,2.48-6.44,6.19-6.44
				s5.99,3.01,5.99,7.64c0,3.99-1.34,6.77-3.12,8.5c-1.39,1.37-3.32,2.2-5.27,2.43c-0.89,0.14-1.67,0.17-2.26,0.14V861.1z
				 M227.65,850.67c0,2.26,1.37,3.85,3.48,3.85c1.65,0,2.93-0.81,3.57-1.9c0.14-0.22,0.22-0.5,0.22-0.89c0-3.09-1.14-5.46-3.71-5.46
				C229.13,846.26,227.65,848.1,227.65,850.67z"/>
		</g>
		<g id="XMLID_444_">
			<path id="XMLID_445_" style="fill:#231F20;" d="M223.32,893.41v1.81h-6.89v-1.81H223.32z"/>
			<path id="XMLID_493_" style="fill:#231F20;" d="M230.66,886.02h-0.06l-3.15,1.7l-0.47-1.87l3.96-2.12h2.09v18.12h-2.37V886.02z"
				/>
			<path id="XMLID_495_" style="fill:#231F20;" d="M244.88,886.02h-0.06l-3.15,1.7l-0.47-1.87l3.96-2.12h2.09v18.12h-2.37V886.02z"
				/>
		</g>
		<g id="XMLID_437_">
			<path id="XMLID_438_" style="fill:#231F20;" d="M223.32,918.51v1.81h-6.89v-1.81H223.32z"/>
			<path id="XMLID_440_" style="fill:#231F20;" d="M230.66,911.13h-0.06l-3.15,1.7l-0.47-1.87l3.96-2.12h2.09v18.12h-2.37V911.13z"
				/>
			<path id="XMLID_442_" style="fill:#231F20;" d="M239.56,926.96v-1.51l1.92-1.87c4.63-4.41,6.72-6.75,6.75-9.48
				c0-1.84-0.89-3.54-3.6-3.54c-1.64,0-3.01,0.84-3.85,1.53l-0.78-1.73c1.25-1.06,3.04-1.84,5.13-1.84c3.9,0,5.55,2.68,5.55,5.27
				c0,3.35-2.43,6.05-6.25,9.73l-1.45,1.34v0.06h8.14v2.04H239.56z"/>
		</g>
		<g id="XMLID_427_">
			<path id="XMLID_429_" style="fill:#231F20;" d="M223.32,957.55v1.81h-6.89v-1.81H223.32z"/>
			<path id="XMLID_433_" style="fill:#231F20;" d="M230.66,950.16h-0.06l-3.15,1.7l-0.47-1.87l3.96-2.12h2.09V966h-2.37V950.16z"/>
			<path id="XMLID_435_" style="fill:#231F20;" d="M240.14,963.18c0.7,0.45,2.31,1.14,4.01,1.14c3.15,0,4.13-2.01,4.1-3.51
				c-0.03-2.54-2.31-3.62-4.68-3.62h-1.37v-1.84h1.37c1.78,0,4.04-0.92,4.04-3.07c0-1.45-0.92-2.73-3.18-2.73
				c-1.45,0-2.84,0.64-3.62,1.2l-0.64-1.78c0.95-0.7,2.79-1.39,4.74-1.39c3.57,0,5.18,2.12,5.18,4.32c0,1.87-1.12,3.46-3.34,4.27
				v0.06c2.23,0.45,4.04,2.12,4.04,4.66c0,2.9-2.26,5.44-6.61,5.44c-2.04,0-3.82-0.64-4.71-1.23L240.14,963.18z"/>
		</g>
		<g id="XMLID_408_">
			<path id="XMLID_409_" style="fill:#231F20;" d="M223.32,985.43v1.81h-6.89v-1.81H223.32z"/>
			<path id="XMLID_413_" style="fill:#231F20;" d="M230.66,978.04h-0.06l-3.15,1.7l-0.47-1.87l3.96-2.12h2.09v18.12h-2.37V978.04z"
				/>
			<path id="XMLID_417_" style="fill:#231F20;" d="M247.14,993.88v-4.93h-8.42v-1.62l8.08-11.57h2.65v11.26h2.54v1.92h-2.54v4.93
				H247.14z M247.14,987.02v-6.05c0-0.95,0.03-1.9,0.08-2.84h-0.08c-0.56,1.06-1,1.84-1.5,2.68l-4.43,6.16v0.06H247.14z"/>
		</g>
		<g id="XMLID_399_">
			<path id="XMLID_400_" style="fill:#231F20;" d="M223.32,1024.48v1.81h-6.89v-1.81H223.32z"/>
			<path id="XMLID_402_" style="fill:#231F20;" d="M230.66,1017.09h-0.06l-3.15,1.7l-0.47-1.87l3.96-2.12h2.09v18.12h-2.37V1017.09z
				"/>
			<path id="XMLID_405_" style="fill:#231F20;" d="M249.9,1016.53c-0.5-0.03-1.14,0-1.84,0.11c-3.85,0.64-5.88,3.46-6.3,6.44h0.08
				c0.86-1.14,2.37-2.09,4.38-2.09c3.21,0,5.46,2.31,5.46,5.85c0,3.32-2.26,6.38-6.02,6.38c-3.88,0-6.41-3.01-6.41-7.72
				c0-3.57,1.28-6.38,3.07-8.17c1.5-1.48,3.51-2.4,5.8-2.68c0.73-0.11,1.34-0.14,1.79-0.14V1016.53z M249.2,1026.99
				c0-2.59-1.48-4.15-3.74-4.15c-1.48,0-2.84,0.92-3.51,2.23c-0.17,0.28-0.28,0.64-0.28,1.09c0.06,2.98,1.42,5.19,3.99,5.19
				C247.78,1031.33,249.2,1029.58,249.2,1026.99z"/>
		</g>
		<g id="XMLID_394_">
			<path id="XMLID_395_" style="fill:#231F20;" d="M299.56,108.09h-0.06l-3.15,1.7l-0.47-1.87l3.96-2.12h2.09v18.12h-2.37V108.09z"
				/>
			<path id="XMLID_397_" style="fill:#231F20;" d="M320.22,105.81v1.62l-7.89,16.5h-2.54l7.86-16.03v-0.06h-8.87v-2.04H320.22z"/>
		</g>
		<g id="XMLID_388_">
			<path id="XMLID_389_" style="fill:#231F20;" d="M299.56,163.86h-0.06l-3.15,1.7l-0.47-1.87l3.96-2.12h2.09v18.12h-2.37V163.86z"
				/>
			<path id="XMLID_391_" style="fill:#231F20;" d="M318.8,163.3c-0.5-0.03-1.14,0-1.84,0.11c-3.85,0.64-5.88,3.46-6.3,6.44h0.08
				c0.86-1.14,2.37-2.09,4.38-2.09c3.21,0,5.46,2.31,5.46,5.85c0,3.32-2.26,6.38-6.02,6.38c-3.88,0-6.41-3.01-6.41-7.72
				c0-3.57,1.28-6.38,3.07-8.17c1.5-1.48,3.51-2.4,5.8-2.68c0.73-0.11,1.34-0.14,1.79-0.14V163.3z M318.1,173.75
				c0-2.59-1.48-4.15-3.74-4.15c-1.48,0-2.84,0.92-3.51,2.23c-0.17,0.28-0.28,0.64-0.28,1.09c0.06,2.98,1.42,5.19,3.99,5.19
				C316.68,178.1,318.1,176.35,318.1,173.75z"/>
		</g>
		<g id="XMLID_383_">
			<path id="XMLID_384_" style="fill:#231F20;" d="M299.56,219.63h-0.06l-3.15,1.7l-0.47-1.87l3.96-2.12h2.09v18.12h-2.37V219.63z"
				/>
			<path id="XMLID_386_" style="fill:#231F20;" d="M319.27,219.41h-6.91l-0.7,4.66c0.42-0.06,0.81-0.11,1.48-0.11
				c1.39,0,2.79,0.31,3.9,0.98c1.42,0.81,2.59,2.37,2.59,4.66c0,3.54-2.82,6.19-6.75,6.19c-1.98,0-3.65-0.56-4.52-1.12l0.61-1.87
				c0.75,0.45,2.23,1,3.88,1c2.31,0,4.29-1.51,4.29-3.93c-0.03-2.34-1.59-4.01-5.21-4.01c-1.03,0-1.84,0.11-2.51,0.19l1.17-8.7h8.67
				V219.41z"/>
		</g>
		<g id="XMLID_375_">
			<path id="XMLID_378_" style="fill:#231F20;" d="M299.56,247.51h-0.06l-3.15,1.7l-0.47-1.87l3.96-2.12h2.09v18.12h-2.37V247.51z"
				/>
			<path id="XMLID_380_" style="fill:#231F20;" d="M316.04,263.35v-4.93h-8.42v-1.62l8.08-11.57h2.65v11.26h2.54v1.92h-2.54v4.93
				H316.04z M316.04,256.49v-6.05c0-0.95,0.03-1.9,0.08-2.84h-0.08c-0.56,1.06-1,1.84-1.5,2.68l-4.43,6.16v0.06H316.04z"/>
		</g>
		<g id="XMLID_370_">
			<path id="XMLID_371_" style="fill:#231F20;" d="M299.56,325.6h-0.06l-3.15,1.7l-0.47-1.87l3.96-2.12h2.09v18.12h-2.37V325.6z"/>
			<path id="XMLID_373_" style="fill:#231F20;" d="M309.04,338.62c0.7,0.45,2.31,1.14,4.01,1.14c3.15,0,4.13-2.01,4.1-3.51
				c-0.03-2.54-2.31-3.62-4.68-3.62h-1.37v-1.84h1.37c1.78,0,4.04-0.92,4.04-3.07c0-1.45-0.92-2.73-3.18-2.73
				c-1.45,0-2.84,0.64-3.62,1.2l-0.64-1.78c0.95-0.7,2.79-1.39,4.74-1.39c3.57,0,5.18,2.12,5.18,4.32c0,1.87-1.12,3.46-3.34,4.27
				v0.06c2.23,0.45,4.04,2.12,4.04,4.66c0,2.9-2.26,5.44-6.61,5.44c-2.04,0-3.82-0.64-4.71-1.23L309.04,338.62z"/>
		</g>
		<g id="XMLID_365_">
			<path id="XMLID_366_" style="fill:#231F20;" d="M299.56,375.79h-0.06l-3.15,1.7l-0.47-1.87l3.96-2.12h2.09v18.12h-2.37V375.79z"
				/>
			<path id="XMLID_368_" style="fill:#231F20;" d="M308.46,391.62v-1.51l1.92-1.87c4.63-4.4,6.72-6.75,6.75-9.48
				c0-1.84-0.89-3.54-3.6-3.54c-1.64,0-3.01,0.84-3.85,1.53l-0.78-1.73c1.25-1.06,3.04-1.84,5.13-1.84c3.9,0,5.55,2.68,5.55,5.27
				c0,3.35-2.43,6.05-6.25,9.73l-1.45,1.34v0.06h8.14v2.04H308.46z"/>
		</g>
		<g id="XMLID_359_">
			<path id="XMLID_360_" style="fill:#231F20;" d="M299.56,409.25h-0.06l-3.15,1.7l-0.47-1.87l3.96-2.12h2.09v18.12h-2.37V409.25z"
				/>
			<path id="XMLID_362_" style="fill:#231F20;" d="M320.5,415.83c0,6.16-2.29,9.56-6.3,9.56c-3.54,0-5.94-3.32-5.99-9.31
				c0-6.08,2.62-9.42,6.3-9.42C318.32,406.65,320.5,410.05,320.5,415.83z M310.66,416.1c0,4.71,1.45,7.39,3.68,7.39
				c2.51,0,3.71-2.93,3.71-7.56c0-4.46-1.14-7.39-3.68-7.39C312.22,408.55,310.66,411.17,310.66,416.1z"/>
		</g>
		<g id="XMLID_355_">
			<path id="XMLID_356_" style="fill:#231F20;" d="M295.66,456.82c0.53,0.06,1.14,0,1.98-0.08c1.42-0.2,2.76-0.78,3.79-1.76
				c1.2-1.09,2.06-2.68,2.4-4.82h-0.08c-1,1.23-2.45,1.95-4.27,1.95c-3.26,0-5.35-2.45-5.35-5.55c0-3.43,2.48-6.44,6.19-6.44
				s5.99,3.01,5.99,7.64c0,3.99-1.34,6.77-3.12,8.5c-1.39,1.37-3.32,2.2-5.27,2.43c-0.89,0.14-1.67,0.17-2.26,0.14V456.82z
				 M296.55,446.39c0,2.26,1.37,3.85,3.48,3.85c1.65,0,2.93-0.81,3.57-1.9c0.14-0.22,0.22-0.5,0.22-0.89c0-3.09-1.14-5.46-3.71-5.46
				C298.03,441.99,296.55,443.83,296.55,446.39z"/>
		</g>
		<g id="XMLID_352_">
			<path id="XMLID_353_" style="fill:#231F20;" d="M306,496.2v1.62l-7.89,16.5h-2.54l7.86-16.03v-0.06h-8.87v-2.04H306z"/>
		</g>
		<g id="XMLID_349_">
			<path id="XMLID_350_" style="fill:#231F20;" d="M305.05,542.87h-6.91l-0.7,4.66c0.42-0.06,0.81-0.11,1.48-0.11
				c1.39,0,2.79,0.31,3.9,0.98c1.42,0.81,2.59,2.37,2.59,4.66c0,3.54-2.82,6.19-6.75,6.19c-1.98,0-3.65-0.56-4.52-1.12l0.61-1.87
				c0.75,0.45,2.23,1,3.88,1c2.31,0,4.29-1.51,4.29-3.93c-0.03-2.34-1.59-4.01-5.21-4.01c-1.03,0-1.84,0.11-2.51,0.19l1.17-8.7h8.67
				V542.87z"/>
		</g>
		<g id="XMLID_346_">
			<path id="XMLID_347_" style="fill:#231F20;" d="M294.82,589.58c0.7,0.45,2.31,1.14,4.01,1.14c3.15,0,4.13-2.01,4.1-3.51
				c-0.03-2.54-2.31-3.62-4.68-3.62h-1.37v-1.84h1.37c1.78,0,4.04-0.92,4.04-3.07c0-1.45-0.92-2.73-3.18-2.73
				c-1.45,0-2.84,0.64-3.62,1.2l-0.64-1.78c0.95-0.7,2.79-1.39,4.74-1.39c3.57,0,5.18,2.12,5.18,4.32c0,1.87-1.12,3.46-3.34,4.27
				v0.06c2.23,0.45,4.04,2.12,4.04,4.66c0,2.9-2.26,5.44-6.61,5.44c-2.04,0-3.82-0.64-4.71-1.23L294.82,589.58z"/>
		</g>
		<g id="XMLID_343_">
			<path id="XMLID_344_" style="fill:#231F20;" d="M299.56,604.44h-0.06l-3.15,1.7l-0.47-1.87l3.96-2.12h2.09v18.12h-2.37V604.44z"
				/>
		</g>
		<g id="XMLID_339_">
			<path id="XMLID_340_" style="fill:#231F20;" d="M306.28,655.64c0,6.16-2.29,9.56-6.3,9.56c-3.54,0-5.94-3.32-5.99-9.31
				c0-6.08,2.62-9.42,6.3-9.42C304.1,646.47,306.28,649.87,306.28,655.64z M296.44,655.92c0,4.71,1.45,7.39,3.68,7.39
				c2.51,0,3.71-2.93,3.71-7.55c0-4.46-1.14-7.39-3.68-7.39C298,648.37,296.44,650.99,296.44,655.92z"/>
		</g>
		<g id="XMLID_334_">
			<path id="XMLID_335_" style="fill:#231F20;" d="M300.7,684.33v1.81h-6.89v-1.81H300.7z"/>
			<path id="XMLID_337_" style="fill:#231F20;" d="M308.04,676.94h-0.06l-3.15,1.7l-0.47-1.87l3.96-2.12h2.09v18.12h-2.37V676.94z"
				/>
		</g>
		<g id="XMLID_329_">
			<path id="XMLID_330_" style="fill:#231F20;" d="M300.7,712.22v1.81h-6.89v-1.81H300.7z"/>
			<path id="XMLID_332_" style="fill:#231F20;" d="M302.71,720.67v-1.51l1.92-1.87c4.63-4.41,6.72-6.75,6.75-9.48
				c0-1.84-0.89-3.54-3.6-3.54c-1.64,0-3.01,0.84-3.85,1.53l-0.78-1.73c1.25-1.06,3.04-1.84,5.13-1.84c3.9,0,5.55,2.68,5.55,5.27
				c0,3.35-2.43,6.05-6.25,9.73l-1.45,1.34v0.06h8.14v2.04H302.71z"/>
		</g>
		<g id="XMLID_323_">
			<path id="XMLID_324_" style="fill:#231F20;" d="M300.7,740.1v1.81h-6.89v-1.81H300.7z"/>
			<path id="XMLID_326_" style="fill:#231F20;" d="M310.29,748.55v-4.93h-8.42V742l8.08-11.57h2.65v11.26h2.54v1.92h-2.54v4.93
				H310.29z M310.29,741.69v-6.05c0-0.95,0.03-1.9,0.08-2.84h-0.08c-0.56,1.06-1,1.84-1.5,2.68l-4.43,6.16v0.06H310.29z"/>
		</g>
		<g id="XMLID_318_">
			<path id="XMLID_319_" style="fill:#231F20;" d="M300.7,790.3v1.81h-6.89v-1.81H300.7z"/>
			<path id="XMLID_321_" style="fill:#231F20;" d="M313.53,782.69h-6.91l-0.7,4.66c0.42-0.06,0.81-0.11,1.48-0.11
				c1.39,0,2.79,0.31,3.9,0.98c1.42,0.81,2.59,2.37,2.59,4.66c0,3.54-2.82,6.19-6.75,6.19c-1.98,0-3.65-0.56-4.52-1.12l0.61-1.87
				c0.75,0.45,2.23,1,3.88,1c2.31,0,4.29-1.5,4.29-3.93c-0.03-2.34-1.59-4.01-5.21-4.01c-1.03,0-1.84,0.11-2.51,0.2l1.17-8.7h8.67
				V782.69z"/>
		</g>
		<g id="XMLID_312_">
			<path id="XMLID_313_" style="fill:#231F20;" d="M300.7,823.76v1.81h-6.89v-1.81H300.7z"/>
			<path id="XMLID_315_" style="fill:#231F20;" d="M313.06,815.81c-0.5-0.03-1.14,0-1.84,0.11c-3.85,0.64-5.88,3.46-6.3,6.44H305
				c0.86-1.14,2.37-2.09,4.38-2.09c3.21,0,5.46,2.31,5.46,5.85c0,3.32-2.26,6.38-6.02,6.38c-3.88,0-6.41-3.01-6.41-7.72
				c0-3.57,1.28-6.38,3.07-8.17c1.5-1.48,3.51-2.4,5.8-2.68c0.73-0.11,1.34-0.14,1.79-0.14V815.81z M312.36,826.27
				c0-2.59-1.48-4.15-3.74-4.15c-1.48,0-2.84,0.92-3.51,2.23c-0.17,0.28-0.28,0.64-0.28,1.09c0.06,2.98,1.42,5.19,3.99,5.19
				C310.94,830.62,312.36,828.86,312.36,826.27z"/>
		</g>
		<g id="XMLID_305_">
			<path id="XMLID_306_" style="fill:#231F20;" d="M300.7,851.64v1.81h-6.89v-1.81H300.7z"/>
			<path id="XMLID_308_" style="fill:#231F20;" d="M302.49,855.49c0-2.29,1.37-3.9,3.6-4.85l-0.03-0.08
				c-2.01-0.95-2.87-2.51-2.87-4.07c0-2.87,2.42-4.82,5.6-4.82c3.51,0,5.27,2.2,5.27,4.46c0,1.53-0.75,3.18-2.98,4.24v0.08
				c2.26,0.89,3.65,2.48,3.65,4.68c0,3.15-2.7,5.27-6.16,5.27C304.77,860.4,302.49,858.14,302.49,855.49z M312.25,855.38
				c0-2.2-1.53-3.26-3.99-3.96c-2.12,0.61-3.26,2.01-3.26,3.74c-0.08,1.84,1.31,3.46,3.62,3.46
				C310.82,858.61,312.25,857.25,312.25,855.38z M305.5,846.32c0,1.81,1.37,2.79,3.46,3.34c1.56-0.53,2.76-1.64,2.76-3.29
				c0-1.45-0.86-2.96-3.07-2.96C306.61,843.42,305.5,844.76,305.5,846.32z"/>
		</g>
		<g id="XMLID_299_">
			<path id="XMLID_300_" style="fill:#231F20;" d="M300.7,890.68v1.81h-6.89v-1.81H300.7z"/>
			<path id="XMLID_302_" style="fill:#231F20;" d="M304.13,897.4c0.53,0.06,1.14,0,1.98-0.08c1.42-0.19,2.76-0.78,3.79-1.76
				c1.2-1.09,2.06-2.68,2.4-4.82h-0.08c-1,1.23-2.45,1.95-4.27,1.95c-3.26,0-5.35-2.45-5.35-5.55c0-3.43,2.48-6.44,6.19-6.44
				s5.99,3.01,5.99,7.64c0,3.99-1.34,6.77-3.12,8.5c-1.39,1.37-3.32,2.2-5.27,2.43c-0.89,0.14-1.67,0.17-2.26,0.14V897.4z
				 M305.03,886.97c0,2.26,1.37,3.85,3.48,3.85c1.65,0,2.93-0.81,3.57-1.9c0.14-0.22,0.22-0.5,0.22-0.89c0-3.09-1.14-5.46-3.71-5.46
				C306.5,882.57,305.03,884.41,305.03,886.97z"/>
		</g>
		<g id="XMLID_286_">
			<path id="XMLID_287_" style="fill:#231F20;" d="M300.7,957.61v1.81h-6.89v-1.81H300.7z"/>
			<path id="XMLID_289_" style="fill:#231F20;" d="M308.04,950.22h-0.06l-3.15,1.7l-0.47-1.87l3.96-2.12h2.09v18.12h-2.37V950.22z"
				/>
			<path id="XMLID_295_" style="fill:#231F20;" d="M328.98,956.8c0,6.16-2.29,9.56-6.3,9.56c-3.54,0-5.94-3.32-5.99-9.31
				c0-6.08,2.62-9.42,6.3-9.42C326.8,947.63,328.98,951.03,328.98,956.8z M319.14,957.08c0,4.71,1.45,7.39,3.68,7.39
				c2.51,0,3.71-2.93,3.71-7.55c0-4.46-1.14-7.39-3.68-7.39C320.7,949.52,319.14,952.14,319.14,957.08z"/>
		</g>
		<g id="XMLID_279_">
			<path id="XMLID_280_" style="fill:#231F20;" d="M300.7,982.7v1.81h-6.89v-1.81H300.7z"/>
			<path id="XMLID_282_" style="fill:#231F20;" d="M308.04,975.31h-0.06l-3.15,1.7l-0.47-1.87l3.96-2.12h2.09v18.12h-2.37V975.31z"
				/>
			<path id="XMLID_284_" style="fill:#231F20;" d="M316.93,991.15v-1.51l1.92-1.87c4.63-4.41,6.72-6.75,6.75-9.48
				c0-1.84-0.89-3.54-3.6-3.54c-1.64,0-3.01,0.84-3.85,1.53l-0.78-1.73c1.25-1.06,3.04-1.84,5.13-1.84c3.9,0,5.55,2.68,5.55,5.27
				c0,3.34-2.43,6.05-6.25,9.73l-1.45,1.34v0.06h8.14v2.04H316.93z"/>
		</g>
		<g id="XMLID_272_">
			<path id="XMLID_273_" style="fill:#231F20;" d="M300.7,1024.53v1.81h-6.89v-1.81H300.7z"/>
			<path id="XMLID_275_" style="fill:#231F20;" d="M308.04,1017.14h-0.06l-3.15,1.7l-0.47-1.87l3.96-2.12h2.09v18.12h-2.37V1017.14z
				"/>
			<path id="XMLID_277_" style="fill:#231F20;" d="M317.52,1030.16c0.7,0.45,2.31,1.14,4.01,1.14c3.15,0,4.13-2.01,4.1-3.51
				c-0.03-2.54-2.31-3.62-4.68-3.62h-1.37v-1.84h1.37c1.78,0,4.04-0.92,4.04-3.07c0-1.45-0.92-2.73-3.18-2.73
				c-1.45,0-2.84,0.64-3.62,1.2l-0.64-1.78c0.95-0.7,2.79-1.39,4.74-1.39c3.57,0,5.18,2.12,5.18,4.32c0,1.87-1.12,3.46-3.34,4.27
				v0.06c2.23,0.45,4.04,2.12,4.04,4.66c0,2.9-2.26,5.44-6.61,5.44c-2.04,0-3.82-0.64-4.71-1.23L317.52,1030.16z"/>
		</g>
		<g id="XMLID_267_">
			<path id="XMLID_268_" style="fill:#231F20;" d="M382.94,108.23h-0.06l-3.15,1.7l-0.47-1.87l3.96-2.12h2.09v18.12h-2.37V108.23z"
				/>
			<path id="XMLID_270_" style="fill:#231F20;" d="M392.42,121.25c0.7,0.45,2.31,1.14,4.01,1.14c3.15,0,4.13-2.01,4.1-3.51
				c-0.03-2.54-2.31-3.62-4.68-3.62h-1.37v-1.84h1.37c1.78,0,4.04-0.92,4.04-3.07c0-1.45-0.92-2.73-3.18-2.73
				c-1.45,0-2.84,0.64-3.62,1.2l-0.64-1.78c0.95-0.7,2.79-1.39,4.74-1.39c3.57,0,5.18,2.12,5.18,4.32c0,1.87-1.12,3.46-3.34,4.27
				v0.06c2.23,0.45,4.04,2.12,4.04,4.66c0,2.9-2.26,5.44-6.61,5.44c-2.04,0-3.82-0.64-4.71-1.23L392.42,121.25z"/>
		</g>
		<g id="XMLID_262_">
			<path id="XMLID_263_" style="fill:#231F20;" d="M382.94,133.33h-0.06l-3.15,1.7l-0.47-1.87l3.96-2.12h2.09v18.12h-2.37V133.33z"
				/>
			<path id="XMLID_265_" style="fill:#231F20;" d="M391.84,149.16v-1.51l1.92-1.87c4.63-4.4,6.72-6.75,6.75-9.48
				c0-1.84-0.89-3.54-3.6-3.54c-1.64,0-3.01,0.84-3.85,1.53l-0.78-1.73c1.25-1.06,3.04-1.84,5.13-1.84c3.9,0,5.55,2.68,5.55,5.27
				c0,3.35-2.43,6.05-6.25,9.73l-1.45,1.34v0.06h8.14v2.04H391.84z"/>
		</g>
		<g id="XMLID_257_">
			<path id="XMLID_258_" style="fill:#231F20;" d="M382.94,194.67h-0.06l-3.15,1.7l-0.47-1.87l3.96-2.12h2.09v18.12h-2.37V194.67z"
				/>
			<path id="XMLID_260_" style="fill:#231F20;" d="M397.16,194.67h-0.06l-3.15,1.7l-0.47-1.87l3.96-2.12h2.09v18.12h-2.37V194.67z"
				/>
		</g>
		<g id="XMLID_233_">
			<path id="XMLID_234_" style="fill:#231F20;" d="M382.94,244.87h-0.06l-3.15,1.7l-0.47-1.87l3.96-2.12h2.09v18.12h-2.37V244.87z"
				/>
			<path id="XMLID_254_" style="fill:#231F20;" d="M403.88,251.45c0,6.16-2.29,9.56-6.3,9.56c-3.54,0-5.94-3.32-5.99-9.31
				c0-6.08,2.62-9.42,6.3-9.42C401.7,242.27,403.88,245.67,403.88,251.45z M394.04,251.72c0,4.71,1.45,7.39,3.68,7.39
				c2.51,0,3.71-2.93,3.71-7.56c0-4.46-1.14-7.39-3.68-7.39C395.6,244.17,394.04,246.79,394.04,251.72z"/>
		</g>
		<g id="XMLID_229_">
			<path id="XMLID_230_" style="fill:#231F20;" d="M379.04,325.9c0.53,0.06,1.14,0,1.98-0.08c1.42-0.2,2.76-0.78,3.79-1.76
				c1.2-1.09,2.06-2.68,2.4-4.82h-0.08c-1,1.23-2.45,1.95-4.27,1.95c-3.26,0-5.35-2.45-5.35-5.55c0-3.43,2.48-6.44,6.19-6.44
				s5.99,3.01,5.99,7.64c0,3.99-1.34,6.77-3.12,8.5c-1.39,1.37-3.32,2.2-5.27,2.43c-0.89,0.14-1.67,0.17-2.26,0.14V325.9z
				 M379.93,315.47c0,2.26,1.37,3.85,3.48,3.85c1.65,0,2.93-0.81,3.57-1.9c0.14-0.22,0.22-0.5,0.22-0.89c0-3.09-1.14-5.46-3.71-5.46
				C381.41,311.06,379.93,312.9,379.93,315.47z"/>
		</g>
		<g id="XMLID_224_">
			<path id="XMLID_225_" style="fill:#231F20;" d="M377.39,350.91c0-2.29,1.37-3.9,3.6-4.85l-0.03-0.08
				c-2.01-0.95-2.87-2.51-2.87-4.07c0-2.87,2.42-4.82,5.6-4.82c3.51,0,5.27,2.2,5.27,4.46c0,1.53-0.75,3.18-2.98,4.24v0.08
				c2.26,0.89,3.65,2.48,3.65,4.68c0,3.15-2.7,5.27-6.16,5.27C379.68,355.82,377.39,353.56,377.39,350.91z M387.15,350.8
				c0-2.2-1.53-3.26-3.99-3.96c-2.12,0.61-3.26,2.01-3.26,3.74c-0.08,1.84,1.31,3.46,3.62,3.46
				C385.73,354.03,387.15,352.67,387.15,350.8z M380.4,341.74c0,1.81,1.37,2.79,3.46,3.35c1.56-0.53,2.76-1.65,2.76-3.29
				c0-1.45-0.86-2.96-3.07-2.96C381.52,338.84,380.4,340.18,380.4,341.74z"/>
		</g>
		<g id="XMLID_221_">
			<path id="XMLID_222_" style="fill:#231F20;" d="M389.38,365.28v1.62l-7.89,16.5h-2.54l7.86-16.03v-0.06h-8.87v-2.04H389.38z"/>
		</g>
		<g id="XMLID_217_">
			<path id="XMLID_218_" style="fill:#231F20;" d="M387.96,394.89c-0.5-0.03-1.14,0-1.84,0.11c-3.85,0.64-5.88,3.46-6.3,6.44h0.08
				c0.86-1.14,2.37-2.09,4.38-2.09c3.21,0,5.46,2.31,5.46,5.85c0,3.32-2.26,6.38-6.02,6.38c-3.88,0-6.41-3.01-6.41-7.72
				c0-3.57,1.28-6.38,3.07-8.17c1.5-1.48,3.51-2.4,5.8-2.68c0.72-0.11,1.34-0.14,1.78-0.14V394.89z M387.26,405.34
				c0-2.59-1.48-4.15-3.74-4.15c-1.48,0-2.84,0.92-3.51,2.23c-0.17,0.28-0.28,0.64-0.28,1.09c0.06,2.98,1.42,5.19,3.99,5.19
				C385.84,409.69,387.26,407.94,387.26,405.34z"/>
		</g>
		<g id="XMLID_214_">
			<path id="XMLID_215_" style="fill:#231F20;" d="M388.43,423.11h-6.91l-0.7,4.66c0.42-0.06,0.81-0.11,1.48-0.11
				c1.39,0,2.79,0.31,3.9,0.98c1.42,0.81,2.59,2.37,2.59,4.66c0,3.54-2.82,6.19-6.75,6.19c-1.98,0-3.65-0.56-4.52-1.12l0.61-1.87
				c0.75,0.45,2.23,1,3.88,1c2.31,0,4.29-1.51,4.29-3.93c-0.03-2.34-1.59-4.01-5.21-4.01c-1.03,0-1.84,0.11-2.51,0.19l1.17-8.7h8.67
				V423.11z"/>
		</g>
		<g id="XMLID_197_">
			<path id="XMLID_211_" style="fill:#231F20;" d="M385.2,467.05v-4.93h-8.42v-1.62l8.08-11.57h2.65v11.26h2.54v1.92h-2.54v4.93
				H385.2z M385.2,460.19v-6.05c0-0.95,0.03-1.9,0.08-2.84h-0.08c-0.56,1.06-1,1.84-1.5,2.68l-4.43,6.16v0.06H385.2z"/>
		</g>
		<g id="XMLID_192_">
			<path id="XMLID_194_" style="fill:#231F20;" d="M378.2,492.12c0.7,0.45,2.31,1.14,4.01,1.14c3.15,0,4.13-2.01,4.1-3.51
				c-0.03-2.54-2.31-3.62-4.68-3.62h-1.37v-1.84h1.37c1.78,0,4.04-0.92,4.04-3.07c0-1.45-0.92-2.73-3.18-2.73
				c-1.45,0-2.84,0.64-3.62,1.2l-0.64-1.78c0.95-0.7,2.79-1.39,4.74-1.39c3.57,0,5.18,2.12,5.18,4.32c0,1.87-1.12,3.46-3.34,4.27
				v0.06c2.23,0.45,4.04,2.12,4.04,4.66c0,2.9-2.26,5.44-6.61,5.44c-2.04,0-3.82-0.64-4.71-1.23L378.2,492.12z"/>
		</g>
		<g id="XMLID_150_">
			<path id="XMLID_151_" style="fill:#231F20;" d="M377.62,522.82v-1.51l1.92-1.87c4.63-4.4,6.72-6.75,6.75-9.48
				c0-1.84-0.89-3.54-3.6-3.54c-1.64,0-3.01,0.84-3.85,1.53l-0.78-1.73c1.25-1.06,3.04-1.84,5.13-1.84c3.9,0,5.55,2.68,5.55,5.27
				c0,3.35-2.43,6.05-6.25,9.73l-1.45,1.34v0.06h8.14v2.04H377.62z"/>
		</g>
		<g id="XMLID_146_">
			<path id="XMLID_147_" style="fill:#231F20;" d="M382.94,540.45h-0.06l-3.15,1.7l-0.47-1.87l3.96-2.12h2.09v18.12h-2.37V540.45z"
				/>
		</g>
		<g id="XMLID_142_">
			<path id="XMLID_143_" style="fill:#231F20;" d="M389.66,586.07c0,6.16-2.29,9.56-6.3,9.56c-3.54,0-5.94-3.32-5.99-9.31
				c0-6.08,2.62-9.42,6.3-9.42C387.48,576.89,389.66,580.29,389.66,586.07z M379.82,586.34c0,4.71,1.45,7.39,3.68,7.39
				c2.51,0,3.71-2.93,3.71-7.56c0-4.46-1.14-7.39-3.68-7.39C381.38,578.79,379.82,581.41,379.82,586.34z"/>
		</g>
		<g id="XMLID_137_">
			<path id="XMLID_138_" style="fill:#231F20;" d="M384.08,614.76v1.81h-6.89v-1.81H384.08z"/>
			<path id="XMLID_140_" style="fill:#231F20;" d="M391.42,607.37h-0.06l-3.15,1.7l-0.47-1.87l3.96-2.12h2.09v18.12h-2.37V607.37z"
				/>
		</g>
		<g id="XMLID_132_">
			<path id="XMLID_133_" style="fill:#231F20;" d="M384.08,639.86v1.81h-6.89v-1.81H384.08z"/>
			<path id="XMLID_135_" style="fill:#231F20;" d="M386.68,645.49c0.7,0.45,2.31,1.14,4.01,1.14c3.15,0,4.13-2.01,4.1-3.51
				c-0.03-2.54-2.31-3.62-4.68-3.62h-1.37v-1.84h1.37c1.78,0,4.04-0.92,4.04-3.07c0-1.45-0.92-2.73-3.18-2.73
				c-1.45,0-2.84,0.64-3.62,1.2l-0.64-1.78c0.95-0.7,2.79-1.39,4.74-1.39c3.57,0,5.18,2.12,5.18,4.32c0,1.87-1.12,3.46-3.34,4.27
				v0.06c2.23,0.45,4.04,2.12,4.04,4.66c0,2.9-2.26,5.44-6.61,5.44c-2.04,0-3.82-0.64-4.71-1.23L386.68,645.49z"/>
		</g>
		<g id="XMLID_126_">
			<path id="XMLID_127_" style="fill:#231F20;" d="M384.08,664.95v1.81h-6.89v-1.81H384.08z"/>
			<path id="XMLID_129_" style="fill:#231F20;" d="M393.67,673.4v-4.93h-8.42v-1.62l8.08-11.57h2.65v11.26h2.54v1.92h-2.54v4.93
				H393.67z M393.67,666.54v-6.05c0-0.95,0.03-1.9,0.08-2.84h-0.08c-0.56,1.06-1,1.84-1.5,2.68l-4.43,6.16v0.06H393.67z"/>
		</g>
		<g id="XMLID_121_">
			<path id="XMLID_122_" style="fill:#231F20;" d="M384.08,690.05v1.81h-6.89v-1.81H384.08z"/>
			<path id="XMLID_124_" style="fill:#231F20;" d="M396.91,682.44h-6.91l-0.7,4.66c0.42-0.06,0.81-0.11,1.48-0.11
				c1.39,0,2.79,0.31,3.9,0.98c1.42,0.81,2.59,2.37,2.59,4.66c0,3.54-2.82,6.19-6.75,6.19c-1.98,0-3.65-0.56-4.52-1.12l0.61-1.87
				c0.75,0.45,2.23,1,3.88,1c2.31,0,4.29-1.5,4.29-3.93c-0.03-2.34-1.59-4.01-5.21-4.01c-1.03,0-1.84,0.11-2.51,0.2l1.17-8.7h8.67
				V682.44z"/>
		</g>
		<g id="XMLID_115_">
			<path id="XMLID_116_" style="fill:#231F20;" d="M384.08,715.15v1.81h-6.89v-1.81H384.08z"/>
			<path id="XMLID_118_" style="fill:#231F20;" d="M396.43,707.2c-0.5-0.03-1.14,0-1.84,0.11c-3.85,0.64-5.88,3.46-6.3,6.44h0.08
				c0.86-1.14,2.37-2.09,4.38-2.09c3.21,0,5.46,2.31,5.46,5.85c0,3.32-2.26,6.38-6.02,6.38c-3.88,0-6.41-3.01-6.41-7.72
				c0-3.57,1.28-6.38,3.07-8.17c1.5-1.48,3.51-2.4,5.8-2.68c0.72-0.11,1.34-0.14,1.78-0.14V707.2z M395.74,717.66
				c0-2.59-1.48-4.15-3.74-4.15c-1.48,0-2.84,0.92-3.51,2.23c-0.17,0.28-0.28,0.64-0.28,1.09c0.06,2.98,1.42,5.19,3.99,5.19
				C394.32,722.01,395.74,720.25,395.74,717.66z"/>
		</g>
		<g id="XMLID_110_">
			<path id="XMLID_111_" style="fill:#231F20;" d="M384.08,740.24v1.81h-6.89v-1.81H384.08z"/>
			<path id="XMLID_113_" style="fill:#231F20;" d="M397.86,730.57v1.62l-7.89,16.5h-2.54l7.86-16.03v-0.06h-8.87v-2.03H397.86z"/>
		</g>
		<g id="XMLID_103_">
			<path id="XMLID_104_" style="fill:#231F20;" d="M384.08,784.86v1.81h-6.89v-1.81H384.08z"/>
			<path id="XMLID_106_" style="fill:#231F20;" d="M385.87,788.71c0-2.29,1.37-3.9,3.6-4.85l-0.03-0.08
				c-2.01-0.95-2.87-2.51-2.87-4.07c0-2.87,2.42-4.82,5.6-4.82c3.51,0,5.27,2.2,5.27,4.46c0,1.53-0.75,3.18-2.98,4.24v0.08
				c2.26,0.89,3.65,2.48,3.65,4.68c0,3.15-2.7,5.27-6.16,5.27C388.15,793.61,385.87,791.36,385.87,788.71z M395.63,788.6
				c0-2.2-1.53-3.26-3.99-3.96c-2.12,0.61-3.26,2.01-3.26,3.74c-0.08,1.84,1.31,3.46,3.62,3.46
				C394.2,791.83,395.63,790.46,395.63,788.6z M388.88,779.54c0,1.81,1.37,2.79,3.46,3.34c1.56-0.53,2.76-1.64,2.76-3.29
				c0-1.45-0.86-2.96-3.07-2.96C389.99,776.64,388.88,777.97,388.88,779.54z"/>
		</g>
		<g id="XMLID_97_">
			<path id="XMLID_98_" style="fill:#231F20;" d="M384.08,823.9v1.81h-6.89v-1.81H384.08z"/>
			<path id="XMLID_100_" style="fill:#231F20;" d="M387.51,830.62c0.53,0.06,1.14,0,1.98-0.08c1.42-0.19,2.76-0.78,3.79-1.76
				c1.2-1.09,2.06-2.68,2.4-4.82h-0.08c-1,1.23-2.45,1.95-4.27,1.95c-3.26,0-5.35-2.45-5.35-5.55c0-3.43,2.48-6.44,6.19-6.44
				s5.99,3.01,5.99,7.64c0,3.99-1.34,6.77-3.12,8.5c-1.39,1.37-3.32,2.2-5.27,2.43c-0.89,0.14-1.67,0.17-2.26,0.14V830.62z
				 M388.41,820.19c0,2.26,1.37,3.85,3.48,3.85c1.65,0,2.93-0.81,3.57-1.9c0.14-0.22,0.22-0.5,0.22-0.89c0-3.09-1.14-5.46-3.71-5.46
				C389.88,815.78,388.41,817.62,388.41,820.19z"/>
		</g>
		<g id="XMLID_89_">
			<path id="XMLID_90_" style="fill:#231F20;" d="M384.08,846.21v1.81h-6.89v-1.81H384.08z"/>
			<path id="XMLID_92_" style="fill:#231F20;" d="M391.42,838.82h-0.06l-3.15,1.7l-0.47-1.87l3.96-2.12h2.09v18.12h-2.37V838.82z"/>
			<path id="XMLID_94_" style="fill:#231F20;" d="M412.36,845.4c0,6.16-2.29,9.56-6.3,9.56c-3.54,0-5.94-3.32-5.99-9.31
				c0-6.08,2.62-9.42,6.3-9.42C410.18,836.23,412.36,839.63,412.36,845.4z M402.52,845.68c0,4.71,1.45,7.39,3.68,7.39
				c2.51,0,3.71-2.93,3.71-7.55c0-4.46-1.14-7.39-3.68-7.39C404.08,838.12,402.52,840.74,402.52,845.68z"/>
		</g>
		<g id="XMLID_82_">
			<path id="XMLID_83_" style="fill:#231F20;" d="M384.08,874.09v1.81h-6.89v-1.81H384.08z"/>
			<path id="XMLID_85_" style="fill:#231F20;" d="M391.42,866.7h-0.06l-3.15,1.7l-0.47-1.87l3.96-2.12h2.09v18.12h-2.37V866.7z"/>
			<path id="XMLID_87_" style="fill:#231F20;" d="M405.64,866.7h-0.06l-3.15,1.7l-0.47-1.87l3.96-2.12h2.09v18.12h-2.37V866.7z"/>
		</g>
		<g id="XMLID_75_">
			<path id="XMLID_76_" style="fill:#231F20;" d="M384.08,918.71v1.81h-6.89v-1.81H384.08z"/>
			<path id="XMLID_78_" style="fill:#231F20;" d="M391.42,911.32h-0.06l-3.15,1.7l-0.47-1.87l3.96-2.12h2.09v18.12h-2.37V911.32z"/>
			<path id="XMLID_80_" style="fill:#231F20;" d="M400.31,927.16v-1.51l1.92-1.87c4.63-4.41,6.72-6.75,6.75-9.48
				c0-1.84-0.89-3.54-3.6-3.54c-1.64,0-3.01,0.84-3.85,1.53l-0.78-1.73c1.25-1.06,3.04-1.84,5.13-1.84c3.9,0,5.55,2.68,5.55,5.27
				c0,3.34-2.43,6.05-6.25,9.73l-1.45,1.34v0.06h8.14v2.04H400.31z"/>
		</g>
		<g id="XMLID_68_">
			<path id="XMLID_69_" style="fill:#231F20;" d="M384.08,946.59v1.81h-6.89v-1.81H384.08z"/>
			<path id="XMLID_71_" style="fill:#231F20;" d="M391.42,939.21h-0.06l-3.15,1.7l-0.47-1.87l3.96-2.12h2.09v18.12h-2.37V939.21z"/>
			<path id="XMLID_73_" style="fill:#231F20;" d="M400.9,952.22c0.7,0.45,2.31,1.14,4.01,1.14c3.15,0,4.13-2.01,4.1-3.51
				c-0.03-2.54-2.31-3.62-4.68-3.62h-1.37v-1.84h1.37c1.78,0,4.04-0.92,4.04-3.07c0-1.45-0.92-2.73-3.18-2.73
				c-1.45,0-2.84,0.64-3.62,1.2l-0.64-1.78c0.95-0.7,2.79-1.39,4.74-1.39c3.57,0,5.18,2.12,5.18,4.32c0,1.87-1.12,3.46-3.34,4.27
				v0.06c2.23,0.45,4.04,2.12,4.04,4.66c0,2.9-2.26,5.44-6.61,5.44c-2.04,0-3.82-0.64-4.71-1.23L400.9,952.22z"/>
		</g>
		<g id="XMLID_60_">
			<path id="XMLID_61_" style="fill:#231F20;" d="M384.08,996.78v1.81h-6.89v-1.81H384.08z"/>
			<path id="XMLID_63_" style="fill:#231F20;" d="M391.42,989.4h-0.06l-3.15,1.7l-0.47-1.87l3.96-2.12h2.09v18.12h-2.37V989.4z"/>
			<path id="XMLID_65_" style="fill:#231F20;" d="M407.9,1005.23v-4.93h-8.42v-1.62l8.08-11.57h2.65v11.26h2.54v1.92h-2.54v4.93
				H407.9z M407.9,998.37v-6.05c0-0.95,0.03-1.9,0.08-2.84h-0.08c-0.56,1.06-1,1.84-1.5,2.68l-4.43,6.16v0.06H407.9z"/>
		</g>
		<g id="XMLID_53_">
			<path id="XMLID_54_" style="fill:#231F20;" d="M384.08,1024.67v1.81h-6.89v-1.81H384.08z"/>
			<path id="XMLID_56_" style="fill:#231F20;" d="M391.42,1017.28h-0.06l-3.15,1.7l-0.47-1.87l3.96-2.12h2.09v18.12h-2.37V1017.28z"
				/>
			<path id="XMLID_58_" style="fill:#231F20;" d="M411.13,1017.06h-6.91l-0.7,4.66c0.42-0.06,0.81-0.11,1.48-0.11
				c1.39,0,2.79,0.31,3.9,0.98c1.42,0.81,2.59,2.37,2.59,4.66c0,3.54-2.82,6.19-6.75,6.19c-1.98,0-3.65-0.56-4.52-1.12l0.61-1.87
				c0.75,0.45,2.23,1,3.88,1c2.31,0,4.29-1.5,4.29-3.93c-0.03-2.34-1.59-4.01-5.21-4.01c-1.03,0-1.84,0.11-2.51,0.2l1.17-8.7h8.67
				V1017.06z"/>
		</g>
	</g>
</g>
</svg>
