<?xml version="1.0" encoding="utf-8"?>
<!-- Generator: Adobe Illustrator 19.0.0, SVG Export Plug-In . SVG Version: 6.00 Build 0)  -->
<svg version="1.1" xmlns="http://www.w3.org/2000/svg" xmlns:xlink="http://www.w3.org/1999/xlink" x="0px" y="0px"
	 viewBox="0 0 443.57 1188.67" style="enable-background:new 0 0 443.57 1188.67;" xml:space="preserve">
<g id="Layer_1">
	<g id="XMLID_295_">
		<rect id="XMLID_421_" x="44.75" y="915.14" style="opacity:0.21;fill:#2290BA;" width="398.82" height="139.36"/>
	</g>
	<rect id="XMLID_292_" x="44.81" y="490.6" style="fill:#2290BA;fill-opacity:0.21;" width="398.36" height="161.15"/>
	<rect id="XMLID_289_" x="47.01" y="53.5" style="fill:#2290BA;fill-opacity:0.21;" width="396.56" height="172.9"/>
	<g id="XMLID_283_">
		<g id="XMLID_285_">
			<path id="XMLID_286_" style="fill:#31708F;" d="M439.57,57.5v993.07H48.81V57.5H439.57 M443.57,53.5H44.81v1001.07h398.76V53.5
				L443.57,53.5z"/>
		</g>
	</g>
	
		<line id="XMLID_282_" style="fill:none;stroke:#31708F;stroke-width:4;stroke-miterlimit:10;" x1="123.53" y1="53.5" x2="123.53" y2="1053.57"/>
	
		<line id="XMLID_281_" style="fill:none;stroke:#31708F;stroke-width:4;stroke-miterlimit:10;" x1="203.84" y1="53.5" x2="203.84" y2="1053.57"/>
	
		<line id="XMLID_280_" style="fill:none;stroke:#31708F;stroke-width:4;stroke-miterlimit:10;" x1="284.15" y1="53.5" x2="284.15" y2="1053.57"/>
	
		<line id="XMLID_279_" style="fill:none;stroke:#31708F;stroke-width:4;stroke-miterlimit:10;" x1="364.46" y1="53.5" x2="364.46" y2="1053.57"/>
	
		<line id="XMLID_278_" style="fill:none;stroke:#31708F;stroke-width:4;stroke-miterlimit:10;" x1="46.16" y1="572.16" x2="443.57" y2="572.16"/>
	
		<line id="XMLID_277_" style="fill:none;stroke:#31708F;stroke-width:4;stroke-miterlimit:10;" x1="46.22" y1="227.5" x2="443.57" y2="227.5"/>
	
		<line id="XMLID_276_" style="fill:none;stroke:#31708F;stroke-width:4;stroke-miterlimit:10;" x1="46.25" y1="914.94" x2="443.57" y2="914.94"/>
	
		<line id="XMLID_275_" style="fill:none;stroke:#31708F;stroke-width:4;stroke-miterlimit:10;" x1="46.25" y1="651.26" x2="443.57" y2="651.26"/>
	
		<line id="XMLID_274_" style="fill:none;stroke:#31708F;stroke-width:4;stroke-miterlimit:10;" x1="46.25" y1="491.39" x2="443.57" y2="491.39"/>
	<g id="XMLID_258_">
		<g id="XMLID_555_">
			<path id="XMLID_556_" style="fill:#124C59;" d="M17.85,112.22c0,4.71-0.99,8.22-2.97,10.54c-1.98,2.32-4.98,3.48-9,3.48
				c-1.42,0-2.49-0.08-3.22-0.23v-4.05c0.91,0.23,1.87,0.34,2.88,0.34c1.69,0,3.08-0.25,4.17-0.74s1.92-1.27,2.5-2.34
				s0.91-2.52,1-4.39h-0.2c-0.63,1.02-1.36,1.74-2.19,2.16c-0.83,0.41-1.86,0.62-3.1,0.62c-2.08,0-3.72-0.67-4.92-2
				c-1.2-1.33-1.8-3.19-1.8-5.56c0-2.56,0.73-4.58,2.18-6.07s3.43-2.23,5.94-2.23c1.76,0,3.31,0.41,4.63,1.24s2.34,2.03,3.05,3.6
				S17.85,110.04,17.85,112.22z M9.2,105.8c-1.04,0-1.86,0.36-2.45,1.08c-0.59,0.72-0.88,1.75-0.88,3.1c0,1.15,0.27,2.07,0.8,2.74
				c0.53,0.68,1.35,1.01,2.43,1.01c1.02,0,1.9-0.33,2.63-1c0.73-0.67,1.09-1.44,1.09-2.31c0-1.3-0.34-2.39-1.02-3.28
				S10.26,105.8,9.2,105.8z"/>
			<path id="XMLID_559_" style="fill:#124C59;" d="M36.84,112.22c0,4.71-0.99,8.22-2.97,10.54c-1.98,2.32-4.98,3.48-9,3.48
				c-1.42,0-2.49-0.08-3.22-0.23v-4.05c0.91,0.23,1.87,0.34,2.88,0.34c1.69,0,3.08-0.25,4.17-0.74s1.92-1.27,2.5-2.34
				s0.91-2.52,1-4.39h-0.2c-0.63,1.02-1.36,1.74-2.19,2.16c-0.83,0.41-1.86,0.62-3.1,0.62c-2.08,0-3.72-0.67-4.92-2
				c-1.2-1.33-1.8-3.19-1.8-5.56c0-2.56,0.73-4.58,2.18-6.07s3.43-2.23,5.94-2.23c1.76,0,3.31,0.41,4.63,1.24s2.34,2.03,3.05,3.6
				S36.84,110.04,36.84,112.22z M28.2,105.8c-1.04,0-1.86,0.36-2.45,1.08c-0.59,0.72-0.88,1.75-0.88,3.1c0,1.15,0.27,2.07,0.8,2.74
				c0.53,0.68,1.35,1.01,2.43,1.01c1.02,0,1.9-0.33,2.63-1c0.73-0.67,1.09-1.44,1.09-2.31c0-1.3-0.34-2.39-1.02-3.28
				S29.26,105.8,28.2,105.8z"/>
		</g>
		<g id="XMLID_549_">
			<path id="XMLID_550_" style="fill:#124C59;" d="M17.85,224.44c0,4.71-0.99,8.22-2.97,10.54c-1.98,2.32-4.98,3.48-9,3.48
				c-1.42,0-2.49-0.08-3.22-0.23v-4.05c0.91,0.23,1.87,0.34,2.88,0.34c1.69,0,3.08-0.25,4.17-0.74s1.92-1.27,2.5-2.34
				s0.91-2.52,1-4.39h-0.2c-0.63,1.02-1.36,1.74-2.19,2.16c-0.83,0.41-1.86,0.62-3.1,0.62c-2.08,0-3.72-0.67-4.92-2
				c-1.2-1.33-1.8-3.19-1.8-5.56c0-2.56,0.73-4.58,2.18-6.07s3.43-2.23,5.94-2.23c1.76,0,3.31,0.41,4.63,1.24s2.34,2.03,3.05,3.6
				S17.85,222.26,17.85,224.44z M9.2,218.02c-1.04,0-1.86,0.36-2.45,1.08c-0.59,0.72-0.88,1.75-0.88,3.1c0,1.15,0.27,2.07,0.8,2.74
				c0.53,0.68,1.35,1.01,2.43,1.01c1.02,0,1.9-0.33,2.63-1c0.73-0.67,1.09-1.44,1.09-2.31c0-1.3-0.34-2.39-1.02-3.28
				S10.26,218.02,9.2,218.02z"/>
			<path id="XMLID_553_" style="fill:#124C59;" d="M28.94,222.87c2.31,0,4.15,0.65,5.51,1.94c1.37,1.3,2.05,3.07,2.05,5.33
				c0,2.67-0.82,4.72-2.47,6.16c-1.64,1.44-4,2.16-7.06,2.16c-2.66,0-4.8-0.43-6.44-1.29v-4.36c0.86,0.46,1.86,0.83,3.01,1.12
				s2.23,0.43,3.25,0.43c3.08,0,4.62-1.26,4.62-3.79c0-2.41-1.6-3.61-4.79-3.61c-0.58,0-1.21,0.06-1.91,0.17
				c-0.7,0.11-1.26,0.24-1.7,0.37l-2.01-1.08l0.9-12.17h12.96v4.28h-8.53l-0.44,4.69l0.57-0.11
				C27.13,222.95,27.96,222.87,28.94,222.87z"/>
		</g>
		<g id="XMLID_542_">
			<path id="XMLID_543_" style="fill:#124C59;" d="M17.85,308.09c0,4.71-0.99,8.22-2.97,10.54c-1.98,2.32-4.98,3.48-9,3.48
				c-1.42,0-2.49-0.08-3.22-0.23v-4.05c0.91,0.23,1.87,0.34,2.88,0.34c1.69,0,3.08-0.25,4.17-0.74s1.92-1.27,2.5-2.34
				s0.91-2.52,1-4.39h-0.2c-0.63,1.02-1.36,1.74-2.19,2.16c-0.83,0.41-1.86,0.62-3.1,0.62c-2.08,0-3.72-0.67-4.92-2
				c-1.2-1.33-1.8-3.19-1.8-5.56c0-2.56,0.73-4.58,2.18-6.07s3.43-2.23,5.94-2.23c1.76,0,3.31,0.41,4.63,1.24s2.34,2.03,3.05,3.6
				S17.85,305.92,17.85,308.09z M9.2,301.67c-1.04,0-1.86,0.36-2.45,1.08c-0.59,0.72-0.88,1.75-0.88,3.1c0,1.15,0.27,2.07,0.8,2.74
				c0.53,0.68,1.35,1.01,2.43,1.01c1.02,0,1.9-0.33,2.63-1c0.73-0.67,1.09-1.44,1.09-2.31c0-1.3-0.34-2.39-1.02-3.28
				S10.26,301.67,9.2,301.67z"/>
			<path id="XMLID_546_" style="fill:#124C59;" d="M36.81,309.84c0,4.17-0.68,7.26-2.05,9.26c-1.37,2-3.47,3.01-6.31,3.01
				c-2.76,0-4.83-1.03-6.23-3.1s-2.1-5.12-2.1-9.17c0-4.22,0.68-7.32,2.04-9.32c1.36-2,3.46-3,6.29-3c2.76,0,4.84,1.05,6.25,3.14
				C36.11,302.75,36.81,305.81,36.81,309.84z M25.13,309.84c0,2.93,0.25,5.03,0.76,6.3s1.36,1.9,2.56,1.9
				c1.18,0,2.03-0.64,2.55-1.93c0.52-1.28,0.78-3.38,0.78-6.27c0-2.93-0.26-5.03-0.79-6.31s-1.38-1.92-2.54-1.92
				c-1.19,0-2.04,0.64-2.55,1.92C25.39,304.81,25.13,306.91,25.13,309.84z"/>
		</g>
		<g id="XMLID_534_">
			<path id="XMLID_535_" style="fill:#124C59;" d="M9.48,342.19c2.29,0,4.13,0.52,5.53,1.56c1.4,1.04,2.1,2.44,2.1,4.21
				c0,1.22-0.34,2.31-1.01,3.26c-0.67,0.95-1.76,1.81-3.27,2.56c1.79,0.96,3.07,1.96,3.85,3c0.78,1.04,1.17,2.18,1.17,3.42
				c0,1.96-0.77,3.54-2.3,4.73c-1.54,1.19-3.56,1.79-6.06,1.79c-2.61,0-4.67-0.56-6.16-1.67c-1.49-1.11-2.24-2.68-2.24-4.72
				c0-1.36,0.36-2.57,1.09-3.63c0.72-1.06,1.89-1.99,3.49-2.79c-1.36-0.86-2.34-1.78-2.94-2.76c-0.6-0.98-0.9-2.05-0.9-3.22
				c0-1.71,0.71-3.09,2.12-4.15S7.21,342.19,9.48,342.19z M5.76,360.03c0,0.94,0.33,1.67,0.98,2.19c0.65,0.52,1.55,0.78,2.68,0.78
				c1.25,0,2.19-0.27,2.81-0.81c0.62-0.54,0.93-1.25,0.93-2.13c0-0.73-0.31-1.41-0.92-2.05c-0.62-0.64-1.62-1.32-3-2.03
				C6.92,357.04,5.76,358.39,5.76,360.03z M9.45,345.88c-0.86,0-1.55,0.22-2.08,0.66s-0.79,1.03-0.79,1.77
				c0,0.65,0.21,1.24,0.63,1.76c0.42,0.52,1.18,1.05,2.28,1.59c1.07-0.5,1.81-1.01,2.24-1.54c0.42-0.52,0.64-1.13,0.64-1.81
				c0-0.75-0.27-1.34-0.82-1.78C11,346.1,10.3,345.88,9.45,345.88z"/>
			<path id="XMLID_539_" style="fill:#124C59;" d="M37.48,361.43h-2.88v4.95h-4.93v-4.95H19.48v-3.51l10.47-15.42h4.66v15.01h2.88
				V361.43z M29.67,357.51v-4.05c0-0.68,0.03-1.66,0.08-2.94c0.05-1.29,0.1-2.03,0.13-2.24h-0.13c-0.4,0.89-0.89,1.76-1.45,2.61
				l-4.38,6.62H29.67z"/>
		</g>
		<g id="XMLID_526_">
			<path id="XMLID_527_" style="fill:#124C59;" d="M9.48,386.79c2.29,0,4.13,0.52,5.53,1.56c1.4,1.04,2.1,2.44,2.1,4.21
				c0,1.22-0.34,2.31-1.01,3.26c-0.67,0.95-1.76,1.81-3.27,2.56c1.79,0.96,3.07,1.96,3.85,3c0.78,1.04,1.17,2.18,1.17,3.42
				c0,1.96-0.77,3.54-2.3,4.73c-1.54,1.19-3.56,1.79-6.06,1.79c-2.61,0-4.67-0.56-6.16-1.67c-1.49-1.11-2.24-2.68-2.24-4.72
				c0-1.36,0.36-2.57,1.09-3.63c0.72-1.06,1.89-1.99,3.49-2.79c-1.36-0.86-2.34-1.78-2.94-2.76c-0.6-0.98-0.9-2.05-0.9-3.22
				c0-1.71,0.71-3.09,2.12-4.15S7.21,386.79,9.48,386.79z M5.76,404.63c0,0.94,0.33,1.67,0.98,2.19c0.65,0.52,1.55,0.78,2.68,0.78
				c1.25,0,2.19-0.27,2.81-0.81c0.62-0.54,0.93-1.25,0.93-2.13c0-0.73-0.31-1.41-0.92-2.05c-0.62-0.64-1.62-1.32-3-2.03
				C6.92,401.65,5.76,403,5.76,404.63z M9.45,390.49c-0.86,0-1.55,0.22-2.08,0.66s-0.79,1.03-0.79,1.77c0,0.65,0.21,1.24,0.63,1.76
				c0.42,0.52,1.18,1.05,2.28,1.59c1.07-0.5,1.81-1.01,2.24-1.54c0.42-0.52,0.64-1.13,0.64-1.81c0-0.75-0.27-1.34-0.82-1.78
				C11,390.7,10.3,390.49,9.45,390.49z"/>
			<path id="XMLID_531_" style="fill:#124C59;" d="M36.81,399.05c0,4.17-0.68,7.26-2.05,9.26c-1.37,2-3.47,3.01-6.31,3.01
				c-2.76,0-4.83-1.03-6.23-3.1s-2.1-5.12-2.1-9.17c0-4.22,0.68-7.32,2.04-9.32c1.36-2,3.46-3,6.29-3c2.76,0,4.84,1.05,6.25,3.14
				C36.11,391.96,36.81,395.02,36.81,399.05z M25.13,399.05c0,2.93,0.25,5.03,0.76,6.3s1.36,1.9,2.56,1.9
				c1.18,0,2.03-0.64,2.55-1.93c0.52-1.28,0.78-3.38,0.78-6.27c0-2.93-0.26-5.03-0.79-6.31s-1.38-1.92-2.54-1.92
				c-1.19,0-2.04,0.64-2.55,1.92C25.39,394.01,25.13,396.12,25.13,399.05z"/>
		</g>
		<g id="XMLID_520_">
			<path id="XMLID_521_" style="fill:#124C59;" d="M3.62,467.47l8.97-19.61H0.81v-4.25h17.14v3.17l-9.04,20.68H3.62z"/>
			<path id="XMLID_523_" style="fill:#124C59;" d="M36.81,455.52c0,4.17-0.68,7.26-2.05,9.26c-1.37,2-3.47,3.01-6.31,3.01
				c-2.76,0-4.83-1.03-6.23-3.1s-2.1-5.12-2.1-9.17c0-4.22,0.68-7.32,2.04-9.32c1.36-2,3.46-3,6.29-3c2.76,0,4.84,1.05,6.25,3.14
				C36.11,448.43,36.81,451.5,36.81,455.52z M25.13,455.52c0,2.93,0.25,5.03,0.76,6.3s1.36,1.9,2.56,1.9c1.18,0,2.03-0.64,2.55-1.93
				c0.52-1.28,0.78-3.38,0.78-6.27c0-2.93-0.26-5.03-0.79-6.31s-1.38-1.92-2.54-1.92c-1.19,0-2.04,0.64-2.55,1.92
				C25.39,450.49,25.13,452.6,25.13,455.52z"/>
		</g>
		<g id="XMLID_513_">
			<path id="XMLID_514_" style="fill:#124C59;" d="M1.08,529.83c0-4.73,1-8.24,3-10.55c2-2.31,4.99-3.46,8.98-3.46
				c1.36,0,2.43,0.08,3.2,0.25v4.04c-0.97-0.22-1.93-0.33-2.88-0.33c-1.73,0-3.14,0.26-4.24,0.78c-1.09,0.52-1.92,1.3-2.46,2.32
				c-0.54,1.02-0.87,2.48-0.96,4.36h0.21c1.08-1.85,2.8-2.78,5.18-2.78c2.13,0,3.81,0.67,5.02,2.01c1.21,1.34,1.81,3.19,1.81,5.55
				c0,2.55-0.72,4.57-2.16,6.05c-1.44,1.49-3.43,2.23-5.98,2.23c-1.76,0-3.3-0.41-4.62-1.23s-2.33-2.01-3.04-3.58
				C1.44,533.93,1.08,532.04,1.08,529.83z M9.71,536.26c1.08,0,1.91-0.36,2.48-1.09c0.58-0.72,0.87-1.76,0.87-3.1
				c0-1.17-0.27-2.08-0.81-2.75c-0.54-0.67-1.35-1-2.44-1c-1.02,0-1.9,0.33-2.62,1c-0.72,0.66-1.09,1.44-1.09,2.32
				c0,1.3,0.34,2.39,1.02,3.28S8.66,536.26,9.71,536.26z"/>
			<path id="XMLID_517_" style="fill:#124C59;" d="M36.81,528.03c0,4.17-0.68,7.26-2.05,9.26c-1.37,2-3.47,3.01-6.31,3.01
				c-2.76,0-4.83-1.03-6.23-3.1s-2.1-5.12-2.1-9.17c0-4.22,0.68-7.32,2.04-9.32c1.36-2,3.46-3,6.29-3c2.76,0,4.84,1.05,6.25,3.14
				C36.11,520.94,36.81,524,36.81,528.03z M25.13,528.03c0,2.93,0.25,5.03,0.76,6.3s1.36,1.9,2.56,1.9c1.18,0,2.03-0.64,2.55-1.93
				c0.52-1.28,0.78-3.38,0.78-6.27c0-2.93-0.26-5.03-0.79-6.31s-1.38-1.92-2.54-1.92c-1.19,0-2.04,0.64-2.55,1.92
				C25.39,523,25.13,525.1,25.13,528.03z"/>
		</g>
		<g id="XMLID_507_">
			<path id="XMLID_508_" style="fill:#124C59;" d="M9.94,564.46c2.31,0,4.15,0.65,5.51,1.94c1.37,1.3,2.05,3.07,2.05,5.33
				c0,2.67-0.82,4.72-2.47,6.16c-1.64,1.44-4,2.16-7.06,2.16c-2.66,0-4.8-0.43-6.44-1.29v-4.36c0.86,0.46,1.86,0.83,3.01,1.12
				s2.23,0.43,3.25,0.43c3.08,0,4.62-1.26,4.62-3.79c0-2.41-1.6-3.61-4.79-3.61c-0.58,0-1.21,0.06-1.91,0.17
				c-0.7,0.11-1.26,0.24-1.7,0.37l-2.01-1.08l0.9-12.17h12.96v4.28H7.34l-0.44,4.69l0.57-0.11C8.14,564.54,8.96,564.46,9.94,564.46z
				"/>
			<path id="XMLID_510_" style="fill:#124C59;" d="M36.81,567.78c0,4.17-0.68,7.26-2.05,9.26c-1.37,2-3.47,3.01-6.31,3.01
				c-2.76,0-4.83-1.03-6.23-3.1s-2.1-5.12-2.1-9.17c0-4.22,0.68-7.32,2.04-9.32c1.36-2,3.46-3,6.29-3c2.76,0,4.84,1.05,6.25,3.14
				C36.11,560.69,36.81,563.75,36.81,567.78z M25.13,567.78c0,2.93,0.25,5.03,0.76,6.3s1.36,1.9,2.56,1.9
				c1.18,0,2.03-0.64,2.55-1.93c0.52-1.28,0.78-3.38,0.78-6.27c0-2.93-0.26-5.03-0.79-6.31s-1.38-1.92-2.54-1.92
				c-1.19,0-2.04,0.64-2.55,1.92C25.39,562.75,25.13,564.85,25.13,567.78z"/>
		</g>
		<g id="XMLID_500_">
			<path id="XMLID_501_" style="fill:#124C59;" d="M18.48,614.53h-2.88v4.95h-4.93v-4.95H0.48v-3.51l10.47-15.42h4.66v15.01h2.88
				V614.53z M10.67,610.61v-4.05c0-0.68,0.03-1.66,0.08-2.94c0.05-1.29,0.1-2.03,0.13-2.24h-0.13c-0.4,0.89-0.89,1.76-1.45,2.61
				l-4.38,6.62H10.67z"/>
			<path id="XMLID_504_" style="fill:#124C59;" d="M36.81,607.53c0,4.17-0.68,7.26-2.05,9.26c-1.37,2-3.47,3.01-6.31,3.01
				c-2.76,0-4.83-1.04-6.23-3.1s-2.1-5.12-2.1-9.17c0-4.21,0.68-7.32,2.04-9.32c1.36-2,3.46-3,6.29-3c2.76,0,4.84,1.05,6.25,3.14
				C36.11,600.44,36.81,603.5,36.81,607.53z M25.13,607.53c0,2.93,0.25,5.03,0.76,6.3s1.36,1.9,2.56,1.9c1.18,0,2.03-0.64,2.55-1.93
				s0.78-3.38,0.78-6.27c0-2.93-0.26-5.03-0.79-6.31c-0.53-1.28-1.38-1.92-2.54-1.92c-1.19,0-2.04,0.64-2.55,1.92
				C25.39,602.5,25.13,604.6,25.13,607.53z"/>
		</g>
		<g id="XMLID_494_">
			<path id="XMLID_495_" style="fill:#124C59;" d="M17.01,680.4c0,1.49-0.45,2.76-1.36,3.81c-0.9,1.04-2.17,1.76-3.81,2.16v0.1
				c1.93,0.24,3.39,0.83,4.38,1.76c0.99,0.93,1.49,2.19,1.49,3.77c0,2.3-0.83,4.09-2.5,5.37c-1.67,1.28-4.05,1.92-7.14,1.92
				c-2.59,0-4.89-0.43-6.89-1.29v-4.3c0.93,0.47,1.94,0.85,3.05,1.14c1.11,0.29,2.21,0.44,3.3,0.44c1.67,0,2.9-0.28,3.69-0.85
				s1.19-1.48,1.19-2.73c0-1.12-0.46-1.92-1.37-2.39c-0.92-0.47-2.38-0.7-4.38-0.7H4.86v-3.87H6.7c1.85,0,3.2-0.24,4.06-0.73
				c0.85-0.49,1.28-1.32,1.28-2.49c0-1.81-1.13-2.71-3.4-2.71c-0.78,0-1.58,0.13-2.39,0.39c-0.81,0.26-1.71,0.71-2.7,1.36
				l-2.34-3.48c2.18-1.57,4.78-2.35,7.79-2.35c2.47,0,4.42,0.5,5.86,1.5S17.01,678.61,17.01,680.4z"/>
			<path id="XMLID_497_" style="fill:#124C59;" d="M36.81,687c0,4.17-0.68,7.26-2.05,9.26c-1.37,2-3.47,3.01-6.31,3.01
				c-2.76,0-4.83-1.04-6.23-3.1s-2.1-5.12-2.1-9.17c0-4.21,0.68-7.32,2.04-9.32c1.36-2,3.46-3,6.29-3c2.76,0,4.84,1.05,6.25,3.14
				C36.11,679.91,36.81,682.97,36.81,687z M25.13,687c0,2.93,0.25,5.03,0.76,6.3s1.36,1.9,2.56,1.9c1.18,0,2.03-0.64,2.55-1.93
				s0.78-3.38,0.78-6.27c0-2.93-0.26-5.03-0.79-6.31c-0.53-1.28-1.38-1.92-2.54-1.92c-1.19,0-2.04,0.64-2.55,1.92
				C25.39,681.97,25.13,684.07,25.13,687z"/>
		</g>
		<g id="XMLID_482_">
			<path id="XMLID_483_" style="fill:#124C59;" d="M17.94,760.98H1.25v-3.51l6-6.06c1.78-1.82,2.93-3.08,3.48-3.78
				c0.54-0.7,0.94-1.35,1.18-1.95c0.24-0.6,0.36-1.22,0.36-1.86c0-0.96-0.26-1.67-0.79-2.14c-0.53-0.47-1.23-0.7-2.12-0.7
				c-0.93,0-1.82,0.21-2.7,0.64c-0.87,0.42-1.78,1.03-2.73,1.81l-2.75-3.25c1.18-1,2.15-1.71,2.92-2.12
				c0.77-0.41,1.62-0.73,2.53-0.96c0.92-0.22,1.94-0.33,3.07-0.33c1.49,0,2.81,0.27,3.95,0.82c1.14,0.54,2.03,1.31,2.66,2.29
				c0.63,0.98,0.95,2.1,0.95,3.37c0,1.1-0.19,2.13-0.58,3.1s-0.99,1.95-1.8,2.96c-0.81,1.01-2.24,2.46-4.29,4.33l-3.07,2.89v0.23
				h10.41V760.98z"/>
			<path id="XMLID_487_" style="fill:#124C59;" d="M36.81,749.03c0,4.17-0.68,7.26-2.05,9.26c-1.37,2-3.47,3.01-6.31,3.01
				c-2.76,0-4.83-1.04-6.23-3.1s-2.1-5.12-2.1-9.17c0-4.21,0.68-7.32,2.04-9.32c1.36-2,3.46-3,6.29-3c2.76,0,4.84,1.05,6.25,3.14
				C36.11,741.94,36.81,745,36.81,749.03z M25.13,749.03c0,2.93,0.25,5.03,0.76,6.3s1.36,1.9,2.56,1.9c1.18,0,2.03-0.64,2.55-1.93
				s0.78-3.38,0.78-6.27c0-2.93-0.26-5.03-0.79-6.31c-0.53-1.28-1.38-1.92-2.54-1.92c-1.19,0-2.04,0.64-2.55,1.92
				C25.39,744,25.13,746.1,25.13,749.03z"/>
		</g>
		<g id="XMLID_476_">
			<path id="XMLID_477_" style="fill:#124C59;" d="M13.73,800.73H8.68v-13.82l0.05-2.27l0.08-2.48c-0.84,0.84-1.42,1.39-1.75,1.65
				l-2.75,2.21l-2.43-3.04l7.7-6.13h4.15V800.73z"/>
			<path id="XMLID_479_" style="fill:#124C59;" d="M20.08,790.58c0-4.73,1-8.25,3-10.55c2-2.31,4.99-3.46,8.98-3.46
				c1.36,0,2.43,0.08,3.2,0.25v4.04c-0.97-0.22-1.93-0.33-2.88-0.33c-1.73,0-3.14,0.26-4.24,0.78c-1.09,0.52-1.92,1.3-2.46,2.32
				c-0.54,1.02-0.87,2.48-0.96,4.36h0.21c1.08-1.85,2.8-2.78,5.18-2.78c2.13,0,3.81,0.67,5.02,2.01c1.21,1.34,1.81,3.19,1.81,5.56
				c0,2.55-0.72,4.57-2.16,6.05c-1.44,1.49-3.43,2.23-5.98,2.23c-1.76,0-3.3-0.41-4.62-1.23c-1.31-0.82-2.33-2.01-3.04-3.58
				C20.44,794.68,20.08,792.79,20.08,790.58z M28.71,797.02c1.08,0,1.91-0.36,2.48-1.09s0.87-1.76,0.87-3.1
				c0-1.17-0.27-2.08-0.81-2.75c-0.54-0.67-1.35-1-2.44-1c-1.02,0-1.9,0.33-2.62,1c-0.72,0.67-1.09,1.44-1.09,2.32
				c0,1.3,0.34,2.39,1.02,3.28C26.8,796.57,27.66,797.02,28.71,797.02z"/>
		</g>
		<g id="XMLID_470_">
			<path id="XMLID_471_" style="fill:#124C59;" d="M13.73,839.77H8.68v-13.82l0.05-2.27l0.08-2.48c-0.84,0.84-1.42,1.39-1.75,1.65
				l-2.75,2.21l-2.43-3.04l7.7-6.13h4.15V839.77z"/>
			<path id="XMLID_473_" style="fill:#124C59;" d="M36.81,827.83c0,4.17-0.68,7.26-2.05,9.26c-1.37,2-3.47,3.01-6.31,3.01
				c-2.76,0-4.83-1.04-6.23-3.1s-2.1-5.12-2.1-9.17c0-4.21,0.68-7.32,2.04-9.32c1.36-2,3.46-3,6.29-3c2.76,0,4.84,1.05,6.25,3.14
				C36.11,820.74,36.81,823.8,36.81,827.83z M25.13,827.83c0,2.93,0.25,5.03,0.76,6.3s1.36,1.9,2.56,1.9c1.18,0,2.03-0.64,2.55-1.93
				s0.78-3.38,0.78-6.27c0-2.93-0.26-5.03-0.79-6.31c-0.53-1.28-1.38-1.92-2.54-1.92c-1.19,0-2.04,0.64-2.55,1.92
				C25.39,822.8,25.13,824.9,25.13,827.83z"/>
		</g>
		<g id="XMLID_467_">
			<path id="XMLID_468_" style="fill:#124C59;" d="M28.94,903.98c2.31,0,4.15,0.65,5.51,1.94c1.37,1.3,2.05,3.07,2.05,5.33
				c0,2.67-0.82,4.72-2.47,6.16s-4,2.16-7.06,2.16c-2.66,0-4.8-0.43-6.44-1.29v-4.36c0.86,0.46,1.86,0.83,3.01,1.12
				c1.14,0.29,2.23,0.43,3.25,0.43c3.08,0,4.62-1.26,4.62-3.79c0-2.41-1.6-3.61-4.79-3.61c-0.58,0-1.21,0.06-1.91,0.17
				c-0.7,0.12-1.26,0.24-1.7,0.37l-2.01-1.08l0.9-12.17h12.96v4.28h-8.53l-0.44,4.69l0.57-0.12
				C27.13,904.06,27.96,903.98,28.94,903.98z"/>
		</g>
		<g id="XMLID_464_">
			<path id="XMLID_465_" style="fill:#124C59;" d="M32.73,1026.61h-5.05v-13.82l0.05-2.27l0.08-2.48c-0.84,0.84-1.42,1.39-1.75,1.65
				l-2.75,2.21l-2.43-3.04l7.7-6.13h4.15V1026.61z"/>
		</g>
	</g>
	<g id="XMLID_460_">
		<path id="XMLID_461_" style="fill:#124C59;" d="M142.25,23.81c0,7.05-2.01,12.45-6.02,16.2s-9.81,5.62-17.39,5.62h-12.13V2.81
			h13.45c6.99,0,12.42,1.85,16.29,5.54S142.25,17.19,142.25,23.81z M132.82,24.05c0-9.2-4.06-13.8-12.19-13.8h-4.83v27.89h3.9
			C128.44,38.14,132.82,33.44,132.82,24.05z"/>
	</g>
	<g id="XMLID_457_">
		<path id="XMLID_458_" style="fill:#124C59;" d="M200.58,45.64V2.81h9.08v42.83H200.58z"/>
	</g>
	<g id="XMLID_454_">
		<path id="XMLID_455_" style="fill:#124C59;" d="M298.76,33.75c0,3.87-1.39,6.91-4.17,9.14s-6.66,3.34-11.62,3.34
			c-4.57,0-8.61-0.86-12.13-2.58v-8.44c2.89,1.29,5.34,2.2,7.34,2.72s3.83,0.79,5.49,0.79c1.99,0,3.52-0.38,4.58-1.14
			s1.6-1.89,1.6-3.4c0-0.84-0.23-1.59-0.7-2.24c-0.47-0.65-1.16-1.28-2.07-1.89c-0.91-0.6-2.76-1.57-5.55-2.9
			c-2.62-1.23-4.58-2.41-5.89-3.54c-1.31-1.13-2.35-2.45-3.13-3.96c-0.78-1.5-1.17-3.26-1.17-5.27c0-3.79,1.28-6.77,3.85-8.94
			s6.12-3.25,10.65-3.25c2.23,0,4.35,0.26,6.37,0.79s4.14,1.27,6.34,2.23l-2.93,7.06c-2.29-0.94-4.17-1.59-5.67-1.96
			c-1.49-0.37-2.96-0.56-4.41-0.56c-1.72,0-3.04,0.4-3.96,1.2c-0.92,0.8-1.38,1.85-1.38,3.13c0,0.8,0.19,1.5,0.56,2.09
			c0.37,0.6,0.96,1.17,1.77,1.73s2.73,1.56,5.76,3c4,1.91,6.75,3.83,8.23,5.76C298.02,28.59,298.76,30.95,298.76,33.75z"/>
	</g>
	<g id="XMLID_451_">
		<path id="XMLID_452_" style="fill:#124C59;" d="M369.84,9.75c-3.42,0-6.06,1.28-7.94,3.85c-1.88,2.57-2.81,6.15-2.81,10.74
			c0,9.55,3.58,14.33,10.75,14.33c3.01,0,6.65-0.75,10.93-2.26v7.62c-3.52,1.46-7.44,2.2-11.78,2.2c-6.23,0-11-1.89-14.3-5.67
			s-4.95-9.2-4.95-16.27c0-4.45,0.81-8.35,2.43-11.7c1.62-3.35,3.95-5.92,6.99-7.71s6.6-2.68,10.68-2.68
			c4.16,0,8.34,1.01,12.54,3.02l-2.93,7.38c-1.6-0.76-3.21-1.43-4.83-1.99C373,10.04,371.41,9.75,369.84,9.75z"/>
	</g>
</g>
<g id="Most">
	<g id="XMLID_437_">
		<path id="XMLID_438_" style="fill:#2290BA;" d="M161.76,1122.02v-44.16h5.14v39.51h19.48v4.65H161.76z"/>
		<path id="XMLID_440_" style="fill:#2290BA;" d="M219.79,1122.02h-24.62v-44.16h24.62v4.56H200.3v14.23h18.3v4.53h-18.3v16.25
			h19.48V1122.02z"/>
		<path id="XMLID_442_" style="fill:#2290BA;" d="M258.63,1122.02l-5.5-14.05h-17.7l-5.44,14.05h-5.2l17.46-44.34h4.32l17.37,44.34
			H258.63z M251.54,1103.35l-5.14-13.68c-0.66-1.73-1.35-3.86-2.05-6.37c-0.44,1.93-1.08,4.06-1.9,6.37l-5.2,13.68H251.54z"/>
		<path id="XMLID_445_" style="fill:#2290BA;" d="M296.24,1110.27c0,3.89-1.41,6.92-4.23,9.09s-6.65,3.26-11.48,3.26
			c-5.24,0-9.26-0.67-12.08-2.02v-4.95c1.81,0.77,3.79,1.37,5.92,1.81c2.13,0.44,4.25,0.67,6.34,0.67c3.42,0,6-0.65,7.73-1.95
			c1.73-1.3,2.6-3.11,2.6-5.42c0-1.53-0.31-2.78-0.92-3.76s-1.64-1.88-3.08-2.7c-1.44-0.83-3.63-1.76-6.57-2.81
			c-4.11-1.47-7.04-3.21-8.81-5.23c-1.76-2.01-2.64-4.64-2.64-7.88c0-3.4,1.28-6.11,3.84-8.12c2.56-2.01,5.94-3.02,10.15-3.02
			c4.39,0,8.43,0.81,12.11,2.42l-1.6,4.47c-3.65-1.53-7.19-2.3-10.63-2.3c-2.72,0-4.84,0.58-6.37,1.75c-1.53,1.17-2.3,2.79-2.3,4.86
			c0,1.53,0.28,2.78,0.85,3.76c0.56,0.98,1.51,1.87,2.85,2.69c1.34,0.82,3.39,1.72,6.15,2.7c4.63,1.65,7.82,3.42,9.56,5.32
			C295.37,1104.79,296.24,1107.25,296.24,1110.27z"/>
		<path id="XMLID_449_" style="fill:#2290BA;" d="M320.16,1122.02h-5.13v-39.6h-13.99v-4.56h33.11v4.56h-13.99V1122.02z"/>
	</g>
	<g id="XMLID_380_">
		<path id="XMLID_381_" style="fill:#124C59;" d="M68.21,1177.63v-25.29h6.87v25.29H68.21z"/>
		<path id="XMLID_383_" style="fill:#124C59;" d="M79.86,1177.63v-25.29h6.87v25.29H79.86z"/>
		<path id="XMLID_385_" style="fill:#124C59;" d="M90.28,1174.76c0-1.06,0.31-1.88,0.94-2.46c0.63-0.58,1.54-0.86,2.74-0.86
			c1.14,0,2.02,0.29,2.63,0.86c0.61,0.58,0.92,1.4,0.92,2.46c0,1.04-0.31,1.85-0.94,2.43c-0.63,0.58-1.5,0.87-2.6,0.87
			c-1.14,0-2.04-0.29-2.7-0.87C90.61,1176.63,90.28,1175.81,90.28,1174.76z"/>
		<path id="XMLID_387_" style="fill:#124C59;" d="M127.19,1160.39c0,2.83-0.83,5.01-2.5,6.55c-1.67,1.54-4.03,2.31-7.1,2.31h-1.92
			v8.39h-6.83v-25.29h8.75c3.19,0,5.59,0.7,7.2,2.09C126.38,1155.84,127.19,1157.82,127.19,1160.39z M115.67,1163.68h1.25
			c1.03,0,1.84-0.29,2.45-0.86c0.6-0.58,0.91-1.37,0.91-2.39c0-1.71-0.95-2.56-2.84-2.56h-1.76V1163.68z"/>
		<path id="XMLID_390_" style="fill:#124C59;" d="M137.37,1168.43v9.2h-6.83v-25.29h8.28c6.87,0,10.31,2.49,10.31,7.47
			c0,2.93-1.43,5.19-4.29,6.8l7.37,11.02h-7.75l-5.36-9.2H137.37z M137.37,1163.3h1.28c2.39,0,3.58-1.06,3.58-3.17
			c0-1.74-1.17-2.61-3.51-2.61h-1.35V1163.3z"/>
		<path id="XMLID_393_" style="fill:#124C59;" d="M153.84,1177.63v-25.29h6.87v25.29H153.84z"/>
		<path id="XMLID_395_" style="fill:#124C59;" d="M179.7,1152.35h7.64l-8.28,25.29h-8.04l-8.25-25.29h7.68l3.44,12.82
			c0.71,2.85,1.11,4.83,1.18,5.95c0.08-0.81,0.24-1.82,0.48-3.03c0.24-1.21,0.46-2.16,0.64-2.85L179.7,1152.35z"/>
		<path id="XMLID_397_" style="fill:#124C59;" d="M204.92,1177.63l-1.25-4.74h-8.21l-1.28,4.74h-7.51l8.25-25.39h9.11l8.35,25.39
			H204.92z M202.25,1167.29l-1.09-4.15c-0.25-0.92-0.56-2.12-0.93-3.58c-0.36-1.46-0.6-2.51-0.72-3.15
			c-0.1,0.59-0.31,1.56-0.61,2.91c-0.31,1.35-0.98,4.01-2.03,7.97H202.25z"/>
		<path id="XMLID_400_" style="fill:#124C59;" d="M225.6,1177.63h-6.83v-19.7h-6.17v-5.59h19.16v5.59h-6.16V1177.63z"/>
		<path id="XMLID_402_" style="fill:#124C59;" d="M249.71,1177.63H234.7v-25.29h15.01v5.48h-8.18v3.98h7.58v5.48h-7.58v4.77h8.18
			V1177.63z"/>
		<path id="XMLID_404_" style="fill:#124C59;" d="M273.92,1157.59c-1.63,0-2.89,0.67-3.8,2s-1.37,3.17-1.37,5.51
			c0,4.87,1.85,7.3,5.55,7.3c1.12,0,2.2-0.16,3.25-0.47s2.1-0.69,3.17-1.12v5.78c-2.11,0.93-4.5,1.4-7.16,1.4
			c-3.82,0-6.74-1.11-8.78-3.32c-2.04-2.21-3.05-5.41-3.05-9.6c0-2.62,0.49-4.92,1.48-6.9s2.4-3.51,4.25-4.57s4.03-1.6,6.53-1.6
			c2.73,0,5.34,0.59,7.83,1.78l-2.09,5.38c-0.93-0.44-1.87-0.81-2.8-1.11C276,1157.74,275,1157.59,273.92,1157.59z"/>
		<path id="XMLID_409_" style="fill:#124C59;" d="M308.64,1164.96c0,4.25-1.04,7.49-3.13,9.7c-2.09,2.21-5.14,3.32-9.17,3.32
			c-3.97,0-7.01-1.11-9.12-3.34c-2.12-2.22-3.17-5.46-3.17-9.72c0-4.21,1.05-7.42,3.16-9.64c2.1-2.22,5.16-3.33,9.17-3.33
			c4.02,0,7.07,1.1,9.15,3.3S308.64,1160.69,308.64,1164.96z M291.24,1164.96c0,4.89,1.7,7.33,5.1,7.33c1.73,0,3.01-0.59,3.85-1.78
			s1.25-3.04,1.25-5.55c0-2.53-0.42-4.39-1.27-5.59s-2.11-1.81-3.8-1.81C292.95,1157.56,291.24,1160.02,291.24,1164.96z"/>
		<path id="XMLID_413_" style="fill:#124C59;" d="M336.6,1177.63h-8.96l-9.24-17.81h-0.16c0.22,2.8,0.33,4.94,0.33,6.42v11.4h-6.05
			v-25.29h8.92l9.2,17.57h0.1c-0.16-2.55-0.24-4.59-0.24-6.14v-11.43h6.09V1177.63z"/>
		<path id="XMLID_417_" style="fill:#124C59;" d="M352.65,1157.59c-1.63,0-2.89,0.67-3.8,2s-1.37,3.17-1.37,5.51
			c0,4.87,1.85,7.3,5.55,7.3c1.12,0,2.2-0.16,3.25-0.47s2.1-0.69,3.17-1.12v5.78c-2.11,0.93-4.5,1.4-7.16,1.4
			c-3.82,0-6.74-1.11-8.78-3.32c-2.04-2.21-3.05-5.41-3.05-9.6c0-2.62,0.49-4.92,1.48-6.9s2.4-3.51,4.25-4.57s4.03-1.6,6.53-1.6
			c2.73,0,5.34,0.59,7.83,1.78l-2.09,5.38c-0.93-0.44-1.87-0.81-2.8-1.11C354.73,1157.74,353.73,1157.59,352.65,1157.59z"/>
		<path id="XMLID_427_" style="fill:#124C59;" d="M378.72,1177.63h-15.01v-25.29h15.01v5.48h-8.18v3.98h7.58v5.48h-7.58v4.77h8.18
			V1177.63z"/>
		<path id="XMLID_432_" style="fill:#124C59;" d="M400.82,1160.39c0,2.83-0.83,5.01-2.5,6.55c-1.67,1.54-4.03,2.31-7.1,2.31h-1.92
			v8.39h-6.83v-25.29h8.75c3.19,0,5.59,0.7,7.2,2.09C400.02,1155.84,400.82,1157.82,400.82,1160.39z M389.3,1163.68h1.25
			c1.03,0,1.84-0.29,2.45-0.86c0.6-0.58,0.91-1.37,0.91-2.39c0-1.71-0.95-2.56-2.84-2.56h-1.76V1163.68z"/>
		<path id="XMLID_435_" style="fill:#124C59;" d="M415.33,1177.63h-6.83v-19.7h-6.17v-5.59h19.16v5.59h-6.16V1177.63z"/>
	</g>
</g>
<g id="Least">
	<g id="XMLID_598_">
		<g id="XMLID_376_">
			<path id="XMLID_377_" style="fill:#231F20;" d="M145.58,113.95c0,6.16-2.29,9.57-6.3,9.57c-3.54,0-5.94-3.32-6-9.32
				c0-6.08,2.62-9.43,6.3-9.43C143.4,104.77,145.58,108.18,145.58,113.95z M135.73,114.23c0,4.71,1.45,7.39,3.68,7.39
				c2.51,0,3.71-2.93,3.71-7.56c0-4.46-1.14-7.39-3.68-7.39C137.29,106.67,135.73,109.29,135.73,114.23z"/>
		</g>
		<g id="XMLID_373_">
			<path id="XMLID_374_" style="fill:#231F20;" d="M138.85,151.99h-0.06l-3.15,1.7l-0.47-1.87l3.96-2.12h2.09v18.13h-2.37V151.99z"
				/>
		</g>
		<g id="XMLID_370_">
			<path id="XMLID_371_" style="fill:#231F20;" d="M133.53,262.64v-1.51l1.92-1.87c4.63-4.41,6.72-6.75,6.75-9.48
				c0-1.84-0.89-3.54-3.6-3.54c-1.65,0-3.01,0.84-3.85,1.53l-0.78-1.73c1.26-1.06,3.04-1.84,5.13-1.84c3.91,0,5.55,2.68,5.55,5.27
				c0,3.35-2.43,6.05-6.25,9.73l-1.45,1.34v0.06h8.14v2.04H133.53z"/>
		</g>
		<g id="XMLID_367_">
			<path id="XMLID_368_" style="fill:#231F20;" d="M134.11,332.33c0.7,0.45,2.32,1.14,4.02,1.14c3.15,0,4.13-2.01,4.1-3.51
				c-0.03-2.54-2.32-3.63-4.69-3.63h-1.37v-1.84h1.37c1.79,0,4.04-0.92,4.04-3.07c0-1.45-0.92-2.73-3.18-2.73
				c-1.45,0-2.85,0.64-3.63,1.2l-0.64-1.79c0.95-0.7,2.79-1.4,4.74-1.4c3.57,0,5.19,2.12,5.19,4.32c0,1.87-1.12,3.46-3.35,4.27v0.06
				c2.23,0.45,4.04,2.12,4.04,4.66c0,2.9-2.26,5.44-6.61,5.44c-2.04,0-3.82-0.64-4.71-1.23L134.11,332.33z"/>
		</g>
		<g id="XMLID_363_">
			<path id="XMLID_364_" style="fill:#231F20;" d="M141.11,374.19v-4.94h-8.42v-1.62l8.09-11.58h2.65v11.27h2.54v1.92h-2.54v4.94
				H141.11z M141.11,367.33v-6.05c0-0.95,0.03-1.9,0.08-2.85h-0.08c-0.56,1.06-1,1.84-1.51,2.68l-4.43,6.16v0.06H141.11z"/>
		</g>
		<g id="XMLID_360_">
			<path id="XMLID_361_" style="fill:#231F20;" d="M144.35,419.47h-6.92l-0.7,4.66c0.42-0.06,0.81-0.11,1.48-0.11
				c1.39,0,2.79,0.31,3.91,0.98c1.42,0.81,2.59,2.37,2.59,4.66c0,3.54-2.82,6.19-6.75,6.19c-1.98,0-3.65-0.56-4.52-1.12l0.61-1.87
				c0.75,0.45,2.23,1,3.88,1c2.32,0,4.3-1.51,4.3-3.93c-0.03-2.34-1.59-4.02-5.22-4.02c-1.03,0-1.84,0.11-2.51,0.2l1.17-8.7h8.67
				V419.47z"/>
		</g>
		<g id="XMLID_356_">
			<path id="XMLID_357_" style="fill:#231F20;" d="M143.87,452.6c-0.5-0.03-1.14,0-1.84,0.11c-3.85,0.64-5.89,3.46-6.3,6.44h0.08
				c0.87-1.14,2.37-2.09,4.38-2.09c3.21,0,5.47,2.31,5.47,5.86c0,3.32-2.26,6.39-6.02,6.39c-3.88,0-6.42-3.01-6.42-7.73
				c0-3.57,1.28-6.39,3.07-8.17c1.51-1.48,3.51-2.4,5.8-2.68c0.73-0.11,1.34-0.14,1.79-0.14V452.6z M143.18,463.06
				c0-2.59-1.48-4.16-3.74-4.16c-1.48,0-2.85,0.92-3.51,2.23c-0.17,0.28-0.28,0.64-0.28,1.09c0.06,2.98,1.42,5.19,3.99,5.19
				C141.75,467.41,143.18,465.65,143.18,463.06z"/>
		</g>
		<g id="XMLID_353_">
			<path id="XMLID_354_" style="fill:#231F20;" d="M145.3,484.33v1.62l-7.89,16.51h-2.54l7.87-16.04v-0.06h-8.87v-2.04H145.3z"/>
		</g>
		<g id="XMLID_348_">
			<path id="XMLID_349_" style="fill:#231F20;" d="M133.3,536.9c0-2.29,1.37-3.9,3.6-4.85l-0.03-0.08
				c-2.01-0.95-2.87-2.51-2.87-4.07c0-2.87,2.43-4.83,5.61-4.83c3.51,0,5.27,2.2,5.27,4.46c0,1.53-0.75,3.18-2.98,4.24v0.08
				c2.26,0.89,3.65,2.48,3.65,4.69c0,3.15-2.71,5.27-6.17,5.27C135.59,541.81,133.3,539.55,133.3,536.9z M143.07,536.79
				c0-2.2-1.53-3.26-3.99-3.96c-2.12,0.61-3.26,2.01-3.26,3.74c-0.08,1.84,1.31,3.46,3.63,3.46
				C141.64,540.03,143.07,538.66,143.07,536.79z M136.32,527.73c0,1.81,1.37,2.79,3.46,3.35c1.56-0.53,2.76-1.65,2.76-3.29
				c0-1.45-0.86-2.96-3.07-2.96C137.43,524.83,136.32,526.16,136.32,527.73z"/>
		</g>
		<g id="XMLID_344_">
			<path id="XMLID_345_" style="fill:#231F20;" d="M134.95,567.66c0.53,0.06,1.14,0,1.98-0.08c1.42-0.2,2.76-0.78,3.79-1.76
				c1.2-1.09,2.06-2.68,2.4-4.83h-0.08c-1,1.23-2.45,1.95-4.27,1.95c-3.26,0-5.36-2.45-5.36-5.55c0-3.43,2.48-6.44,6.19-6.44
				s6,3.01,6,7.64c0,3.99-1.34,6.78-3.12,8.51c-1.39,1.37-3.32,2.2-5.27,2.43c-0.89,0.14-1.67,0.17-2.26,0.14V567.66z
				 M135.84,557.23c0,2.26,1.37,3.85,3.49,3.85c1.65,0,2.93-0.81,3.57-1.9c0.14-0.22,0.22-0.5,0.22-0.89c0-3.1-1.14-5.47-3.71-5.47
				C137.32,552.82,135.84,554.66,135.84,557.23z"/>
		</g>
		<g id="XMLID_338_">
			<path id="XMLID_339_" style="fill:#231F20;" d="M138.85,578.64h-0.06l-3.15,1.7l-0.47-1.87l3.96-2.12h2.09v18.13h-2.37V578.64z"
				/>
			<path id="XMLID_341_" style="fill:#231F20;" d="M159.8,585.23c0,6.17-2.29,9.57-6.3,9.57c-3.54,0-5.94-3.32-6-9.32
				c0-6.08,2.62-9.43,6.3-9.43C157.62,576.05,159.8,579.45,159.8,585.23z M149.95,585.5c0,4.71,1.45,7.39,3.68,7.39
				c2.51,0,3.71-2.93,3.71-7.56c0-4.46-1.14-7.39-3.68-7.39C151.51,577.95,149.95,580.57,149.95,585.5z"/>
		</g>
		<g id="XMLID_333_">
			<path id="XMLID_334_" style="fill:#231F20;" d="M138.85,606.53h-0.06l-3.15,1.7l-0.47-1.87l3.96-2.12h2.09v18.13h-2.37V606.53z"
				/>
			<path id="XMLID_336_" style="fill:#231F20;" d="M153.08,606.53h-0.06l-3.15,1.7l-0.47-1.87l3.96-2.12h2.09v18.13h-2.37V606.53z"
				/>
		</g>
		<g id="XMLID_328_">
			<path id="XMLID_329_" style="fill:#231F20;" d="M138.85,645.57h-0.06l-3.15,1.7l-0.47-1.87l3.96-2.12h2.09v18.13h-2.37V645.57z"
				/>
			<path id="XMLID_331_" style="fill:#231F20;" d="M147.75,661.42v-1.51l1.92-1.87c4.63-4.41,6.72-6.75,6.75-9.48
				c0-1.84-0.89-3.54-3.6-3.54c-1.65,0-3.01,0.84-3.85,1.53l-0.78-1.73c1.26-1.06,3.04-1.84,5.13-1.84c3.91,0,5.55,2.68,5.55,5.27
				c0,3.35-2.43,6.05-6.25,9.73l-1.45,1.34v0.06h8.15v2.04H147.75z"/>
		</g>
		<g id="XMLID_323_">
			<path id="XMLID_324_" style="fill:#231F20;" d="M138.85,695.77h-0.06l-3.15,1.7l-0.47-1.87l3.96-2.12h2.09v18.13h-2.37V695.77z"
				/>
			<path id="XMLID_326_" style="fill:#231F20;" d="M148.33,708.79c0.7,0.45,2.32,1.14,4.02,1.14c3.15,0,4.13-2.01,4.1-3.51
				c-0.03-2.54-2.32-3.63-4.69-3.63h-1.37v-1.84h1.37c1.79,0,4.04-0.92,4.04-3.07c0-1.45-0.92-2.73-3.18-2.73
				c-1.45,0-2.85,0.64-3.63,1.2l-0.64-1.79c0.95-0.7,2.79-1.39,4.74-1.39c3.57,0,5.19,2.12,5.19,4.32c0,1.87-1.12,3.46-3.35,4.27
				v0.06c2.23,0.45,4.04,2.12,4.04,4.66c0,2.9-2.26,5.44-6.61,5.44c-2.04,0-3.82-0.64-4.71-1.23L148.33,708.79z"/>
		</g>
		<g id="XMLID_317_">
			<path id="XMLID_318_" style="fill:#231F20;" d="M138.85,734.81h-0.06l-3.15,1.7l-0.47-1.87l3.96-2.12h2.09v18.13h-2.37V734.81z"
				/>
			<path id="XMLID_320_" style="fill:#231F20;" d="M155.33,750.65v-4.94h-8.42v-1.62l8.09-11.58h2.65v11.27h2.54v1.92h-2.54v4.94
				H155.33z M155.33,743.79v-6.05c0-0.95,0.03-1.9,0.08-2.85h-0.08c-0.56,1.06-1,1.84-1.51,2.68l-4.44,6.17v0.06H155.33z"/>
		</g>
		<g id="XMLID_312_">
			<path id="XMLID_313_" style="fill:#231F20;" d="M138.85,785h-0.06l-3.15,1.7l-0.47-1.87l3.96-2.12h2.09v18.13h-2.37V785z"/>
			<path id="XMLID_315_" style="fill:#231F20;" d="M158.57,784.78h-6.92l-0.7,4.66c0.42-0.06,0.81-0.11,1.48-0.11
				c1.39,0,2.79,0.31,3.91,0.98c1.42,0.81,2.59,2.37,2.59,4.66c0,3.54-2.82,6.19-6.75,6.19c-1.98,0-3.65-0.56-4.52-1.12l0.61-1.87
				c0.75,0.45,2.23,1,3.88,1c2.32,0,4.3-1.51,4.3-3.93c-0.03-2.34-1.59-4.02-5.22-4.02c-1.03,0-1.84,0.11-2.51,0.2l1.17-8.7h8.67
				V784.78z"/>
		</g>
		<g id="XMLID_306_">
			<path id="XMLID_307_" style="fill:#231F20;" d="M138.85,818.47h-0.06l-3.15,1.7l-0.47-1.87l3.96-2.12h2.09v18.13h-2.37V818.47z"
				/>
			<path id="XMLID_309_" style="fill:#231F20;" d="M158.1,817.91c-0.5-0.03-1.14,0-1.84,0.11c-3.85,0.64-5.89,3.46-6.3,6.44h0.08
				c0.87-1.14,2.37-2.09,4.38-2.09c3.21,0,5.47,2.32,5.47,5.86c0,3.32-2.26,6.39-6.03,6.39c-3.88,0-6.42-3.01-6.42-7.73
				c0-3.57,1.28-6.39,3.07-8.17c1.51-1.48,3.51-2.4,5.8-2.68c0.73-0.11,1.34-0.14,1.79-0.14V817.91z M157.4,828.37
				c0-2.59-1.48-4.16-3.74-4.16c-1.48,0-2.85,0.92-3.51,2.23c-0.17,0.28-0.28,0.64-0.28,1.09c0.06,2.98,1.42,5.19,3.99,5.19
				C155.98,832.72,157.4,830.96,157.4,828.37z"/>
		</g>
		<g id="XMLID_301_">
			<path id="XMLID_302_" style="fill:#231F20;" d="M138.85,868.66h-0.06l-3.15,1.7l-0.47-1.87l3.96-2.12h2.09v18.13h-2.37V868.66z"
				/>
			<path id="XMLID_304_" style="fill:#231F20;" d="M159.52,866.38v1.62l-7.89,16.51h-2.54l7.87-16.04v-0.06h-8.87v-2.04H159.52z"/>
		</g>
		<g id="XMLID_253_">
			<path id="XMLID_293_" style="fill:#231F20;" d="M138.85,935.59h-0.06l-3.15,1.7l-0.47-1.87l3.96-2.12h2.09v18.13h-2.37V935.59z"
				/>
			<path id="XMLID_296_" style="fill:#231F20;" d="M147.52,946.83c0-2.29,1.37-3.91,3.6-4.85l-0.03-0.08
				c-2.01-0.95-2.87-2.51-2.87-4.07c0-2.87,2.43-4.83,5.61-4.83c3.51,0,5.27,2.2,5.27,4.46c0,1.53-0.75,3.18-2.98,4.24v0.08
				c2.26,0.89,3.65,2.48,3.65,4.69c0,3.15-2.71,5.27-6.17,5.27C149.81,951.74,147.52,949.48,147.52,946.83z M157.29,946.72
				c0-2.2-1.53-3.26-3.99-3.96c-2.12,0.61-3.26,2.01-3.26,3.74c-0.08,1.84,1.31,3.46,3.63,3.46
				C155.86,949.95,157.29,948.59,157.29,946.72z M150.54,937.65c0,1.81,1.37,2.79,3.46,3.35c1.56-0.53,2.76-1.65,2.76-3.29
				c0-1.45-0.86-2.96-3.07-2.96C151.65,934.75,150.54,936.09,150.54,937.65z"/>
		</g>
		<g id="XMLID_245_">
			<path id="XMLID_246_" style="fill:#231F20;" d="M138.85,1013.67h-0.06l-3.15,1.7l-0.47-1.87l3.96-2.12h2.09v18.13h-2.37V1013.67z
				"/>
			<path id="XMLID_249_" style="fill:#231F20;" d="M149.17,1027.78c0.53,0.06,1.14,0,1.98-0.08c1.42-0.19,2.76-0.78,3.79-1.76
				c1.2-1.09,2.06-2.68,2.4-4.83h-0.08c-1,1.23-2.45,1.95-4.27,1.95c-3.26,0-5.36-2.45-5.36-5.55c0-3.43,2.48-6.44,6.19-6.44
				s6,3.01,6,7.64c0,3.99-1.34,6.78-3.12,8.51c-1.39,1.37-3.32,2.2-5.27,2.43c-0.89,0.14-1.67,0.17-2.26,0.14V1027.78z
				 M150.06,1017.35c0,2.26,1.37,3.85,3.49,3.85c1.65,0,2.93-0.81,3.57-1.9c0.14-0.22,0.22-0.5,0.22-0.89c0-3.1-1.14-5.47-3.71-5.47
				C151.54,1012.95,150.06,1014.79,150.06,1017.35z"/>
		</g>
		<g id="XMLID_239_">
			<path id="XMLID_240_" style="fill:#231F20;" d="M228.9,114.62c0,6.16-2.29,9.57-6.3,9.57c-3.54,0-5.94-3.32-6-9.32
				c0-6.08,2.62-9.43,6.3-9.43C226.72,105.44,228.9,108.84,228.9,114.62z M219.05,114.9c0,4.71,1.45,7.39,3.68,7.39
				c2.51,0,3.71-2.93,3.71-7.56c0-4.46-1.14-7.39-3.68-7.39C220.61,107.34,219.05,109.96,219.05,114.9z"/>
		</g>
		<g id="XMLID_236_">
			<path id="XMLID_237_" style="fill:#231F20;" d="M222.17,219.58h-0.06l-3.15,1.7l-0.47-1.87l3.96-2.12h2.09v18.13h-2.37V219.58z"
				/>
		</g>
		<g id="XMLID_233_">
			<path id="XMLID_234_" style="fill:#231F20;" d="M216.85,341.39v-1.51l1.92-1.87c4.63-4.41,6.72-6.75,6.75-9.48
				c0-1.84-0.89-3.54-3.6-3.54c-1.65,0-3.01,0.84-3.85,1.53l-0.78-1.73c1.26-1.06,3.04-1.84,5.13-1.84c3.91,0,5.55,2.68,5.55,5.27
				c0,3.35-2.43,6.05-6.25,9.73l-1.45,1.34v0.06h8.15v2.04H216.85z"/>
		</g>
		<g id="XMLID_230_">
			<path id="XMLID_231_" style="fill:#231F20;" d="M217.43,433.39c0.7,0.45,2.32,1.14,4.02,1.14c3.15,0,4.13-2.01,4.1-3.51
				c-0.03-2.54-2.32-3.63-4.69-3.63h-1.37v-1.84h1.37c1.79,0,4.04-0.92,4.04-3.07c0-1.45-0.92-2.73-3.18-2.73
				c-1.45,0-2.85,0.64-3.63,1.2l-0.64-1.79c0.95-0.7,2.79-1.4,4.74-1.4c3.57,0,5.19,2.12,5.19,4.32c0,1.87-1.12,3.46-3.35,4.27v0.06
				c2.23,0.45,4.04,2.12,4.04,4.66c0,2.9-2.26,5.44-6.61,5.44c-2.04,0-3.82-0.64-4.71-1.23L217.43,433.39z"/>
		</g>
		<g id="XMLID_226_">
			<path id="XMLID_227_" style="fill:#231F20;" d="M224.43,480.82v-4.94h-8.42v-1.62l8.09-11.58h2.65v11.27h2.54v1.92h-2.54v4.94
				H224.43z M224.43,473.96v-6.05c0-0.95,0.03-1.9,0.08-2.85h-0.08c-0.56,1.06-1,1.84-1.51,2.68l-4.44,6.16v0.06H224.43z"/>
		</g>
		<g id="XMLID_223_">
			<path id="XMLID_224_" style="fill:#231F20;" d="M227.67,537.26h-6.92l-0.7,4.66c0.42-0.06,0.81-0.11,1.48-0.11
				c1.39,0,2.79,0.31,3.91,0.98c1.42,0.81,2.59,2.37,2.59,4.66c0,3.54-2.82,6.19-6.75,6.19c-1.98,0-3.65-0.56-4.52-1.12l0.61-1.87
				c0.75,0.45,2.23,1,3.88,1c2.32,0,4.3-1.51,4.3-3.93c-0.03-2.34-1.59-4.02-5.22-4.02c-1.03,0-1.84,0.11-2.51,0.2l1.17-8.7h8.67
				V537.26z"/>
		</g>
		<g id="XMLID_219_">
			<path id="XMLID_220_" style="fill:#231F20;" d="M227.2,581.54c-0.5-0.03-1.14,0-1.84,0.11c-3.85,0.64-5.89,3.46-6.3,6.44h0.08
				c0.87-1.14,2.37-2.09,4.38-2.09c3.21,0,5.47,2.32,5.47,5.86c0,3.32-2.26,6.39-6.03,6.39c-3.88,0-6.42-3.01-6.42-7.73
				c0-3.57,1.28-6.39,3.07-8.17c1.51-1.48,3.51-2.4,5.8-2.68c0.73-0.11,1.34-0.14,1.79-0.14V581.54z M226.5,592
				c0-2.59-1.48-4.16-3.74-4.16c-1.48,0-2.85,0.92-3.51,2.23c-0.17,0.28-0.28,0.64-0.28,1.09c0.06,2.99,1.42,5.19,3.99,5.19
				C225.08,596.36,226.5,594.6,226.5,592z"/>
		</g>
		<g id="XMLID_216_">
			<path id="XMLID_217_" style="fill:#231F20;" d="M228.62,658.59v1.62l-7.89,16.51h-2.54l7.87-16.04v-0.06h-8.87v-2.04H228.62z"/>
		</g>
		<g id="XMLID_211_">
			<path id="XMLID_212_" style="fill:#231F20;" d="M216.62,722.32c0-2.29,1.37-3.91,3.6-4.85l-0.03-0.08
				c-2.01-0.95-2.87-2.51-2.87-4.07c0-2.87,2.43-4.83,5.61-4.83c3.51,0,5.27,2.2,5.27,4.46c0,1.53-0.75,3.18-2.98,4.24v0.08
				c2.26,0.89,3.65,2.48,3.65,4.69c0,3.15-2.71,5.27-6.17,5.27C218.91,727.23,216.62,724.97,216.62,722.32z M226.39,722.21
				c0-2.2-1.53-3.26-3.99-3.96c-2.12,0.61-3.26,2.01-3.26,3.74c-0.08,1.84,1.31,3.46,3.63,3.46
				C224.96,725.44,226.39,724.08,226.39,722.21z M219.64,713.14c0,1.81,1.37,2.79,3.46,3.35c1.56-0.53,2.76-1.65,2.76-3.29
				c0-1.45-0.86-2.96-3.07-2.96C220.75,710.24,219.64,711.58,219.64,713.14z"/>
		</g>
		<g id="XMLID_207_">
			<path id="XMLID_208_" style="fill:#231F20;" d="M218.27,753.08c0.53,0.06,1.14,0,1.98-0.08c1.42-0.2,2.76-0.78,3.79-1.76
				c1.2-1.09,2.06-2.68,2.4-4.83h-0.08c-1,1.23-2.45,1.95-4.27,1.95c-3.26,0-5.36-2.45-5.36-5.55c0-3.43,2.48-6.44,6.19-6.44
				s6,3.01,6,7.64c0,3.99-1.34,6.78-3.12,8.51c-1.39,1.37-3.32,2.2-5.27,2.43c-0.89,0.14-1.67,0.17-2.26,0.14V753.08z
				 M219.16,742.64c0,2.26,1.37,3.85,3.49,3.85c1.65,0,2.93-0.81,3.57-1.9c0.14-0.22,0.22-0.5,0.22-0.89c0-3.1-1.14-5.47-3.71-5.47
				C220.64,738.24,219.16,740.08,219.16,742.64z"/>
		</g>
		<g id="XMLID_201_">
			<path id="XMLID_202_" style="fill:#231F20;" d="M222.17,811.47h-0.06l-3.15,1.7l-0.47-1.87l3.96-2.12h2.09v18.13h-2.37V811.47z"
				/>
			<path id="XMLID_204_" style="fill:#231F20;" d="M243.12,818.05c0,6.17-2.29,9.57-6.3,9.57c-3.54,0-5.94-3.32-6-9.32
				c0-6.08,2.62-9.43,6.3-9.43C240.94,808.87,243.12,812.28,243.12,818.05z M233.27,818.33c0,4.71,1.45,7.39,3.68,7.39
				c2.51,0,3.71-2.93,3.71-7.56c0-4.46-1.14-7.39-3.68-7.39C234.83,810.77,233.27,813.39,233.27,818.33z"/>
		</g>
		<g id="XMLID_196_">
			<path id="XMLID_197_" style="fill:#231F20;" d="M222.17,836.56h-0.06l-3.15,1.7l-0.47-1.87l3.96-2.12h2.09v18.13h-2.37V836.56z"
				/>
			<path id="XMLID_199_" style="fill:#231F20;" d="M236.4,836.56h-0.06l-3.15,1.7l-0.47-1.87l3.96-2.12h2.09v18.13h-2.37V836.56z"/>
		</g>
		<g id="XMLID_191_">
			<path id="XMLID_192_" style="fill:#231F20;" d="M222.17,892.34h-0.06l-3.15,1.7l-0.47-1.87l3.96-2.12h2.09v18.13h-2.37V892.34z"
				/>
			<path id="XMLID_194_" style="fill:#231F20;" d="M231.07,908.18v-1.51l1.92-1.87c4.63-4.41,6.72-6.75,6.75-9.48
				c0-1.84-0.89-3.54-3.6-3.54c-1.65,0-3.01,0.84-3.85,1.53l-0.78-1.73c1.26-1.06,3.04-1.84,5.13-1.84c3.91,0,5.55,2.68,5.55,5.27
				c0,3.35-2.43,6.05-6.25,9.73l-1.45,1.34v0.06h8.14v2.04H231.07z"/>
		</g>
		<g id="XMLID_186_">
			<path id="XMLID_187_" style="fill:#231F20;" d="M222.17,917.44h-0.06l-3.15,1.7l-0.47-1.87l3.96-2.12h2.09v18.13h-2.37V917.44z"
				/>
			<path id="XMLID_189_" style="fill:#231F20;" d="M231.65,930.46c0.7,0.45,2.32,1.14,4.02,1.14c3.15,0,4.13-2.01,4.1-3.51
				c-0.03-2.54-2.32-3.63-4.69-3.63h-1.37v-1.84h1.37c1.79,0,4.04-0.92,4.04-3.07c0-1.45-0.92-2.73-3.18-2.73
				c-1.45,0-2.85,0.64-3.63,1.2l-0.64-1.79c0.95-0.7,2.79-1.39,4.74-1.39c3.57,0,5.19,2.12,5.19,4.32c0,1.87-1.12,3.46-3.35,4.27
				v0.06c2.23,0.45,4.04,2.12,4.04,4.66c0,2.9-2.26,5.44-6.61,5.44c-2.04,0-3.82-0.64-4.71-1.23L231.65,930.46z"/>
		</g>
		<g id="XMLID_180_">
			<path id="XMLID_181_" style="fill:#231F20;" d="M222.17,967.63h-0.06l-3.15,1.7l-0.47-1.87l3.96-2.12h2.09v18.13h-2.37V967.63z"
				/>
			<path id="XMLID_183_" style="fill:#231F20;" d="M238.66,983.47v-4.94h-8.42v-1.62l8.09-11.58h2.65v11.27h2.54v1.92h-2.54v4.94
				H238.66z M238.66,976.61v-6.05c0-0.95,0.03-1.9,0.08-2.85h-0.08c-0.56,1.06-1,1.84-1.51,2.68l-4.43,6.17v0.06H238.66z"/>
		</g>
		<g id="XMLID_174_">
			<path id="XMLID_175_" style="fill:#231F20;" d="M222.17,1012.25h-0.06l-3.15,1.7l-0.47-1.87l3.96-2.12h2.09v18.13h-2.37V1012.25z
				"/>
			<path id="XMLID_177_" style="fill:#231F20;" d="M241.42,1011.69c-0.5-0.03-1.14,0-1.84,0.11c-3.85,0.64-5.89,3.46-6.3,6.44h0.08
				c0.87-1.14,2.37-2.09,4.38-2.09c3.21,0,5.47,2.32,5.47,5.86c0,3.32-2.26,6.39-6.02,6.39c-3.88,0-6.42-3.01-6.42-7.73
				c0-3.57,1.28-6.39,3.07-8.17c1.51-1.48,3.51-2.4,5.8-2.68c0.73-0.11,1.34-0.14,1.79-0.14V1011.69z M240.72,1022.15
				c0-2.59-1.48-4.16-3.74-4.16c-1.48,0-2.85,0.92-3.51,2.23c-0.17,0.28-0.28,0.64-0.28,1.09c0.06,2.99,1.42,5.19,3.99,5.19
				C239.3,1026.5,240.72,1024.74,240.72,1022.15z"/>
		</g>
		<g id="XMLID_170_">
			<path id="XMLID_171_" style="fill:#231F20;" d="M306.28,114.65c0,6.16-2.29,9.57-6.3,9.57c-3.54,0-5.94-3.32-6-9.32
				c0-6.08,2.62-9.43,6.3-9.43C304.1,105.47,306.28,108.87,306.28,114.65z M296.43,114.93c0,4.71,1.45,7.39,3.68,7.39
				c2.51,0,3.71-2.93,3.71-7.56c0-4.46-1.14-7.39-3.68-7.39C298,107.37,296.43,109.99,296.43,114.93z"/>
		</g>
		<g id="XMLID_167_">
			<path id="XMLID_168_" style="fill:#231F20;" d="M299.56,386.93h-0.06l-3.15,1.7l-0.47-1.87l3.96-2.12h2.09v18.13h-2.37V386.93z"
				/>
		</g>
		<g id="XMLID_164_">
			<path id="XMLID_165_" style="fill:#231F20;" d="M294.23,469.7v-1.51l1.92-1.87c4.63-4.41,6.72-6.75,6.75-9.48
				c0-1.84-0.89-3.54-3.6-3.54c-1.65,0-3.01,0.84-3.85,1.53l-0.78-1.73c1.26-1.06,3.04-1.84,5.13-1.84c3.91,0,5.55,2.68,5.55,5.27
				c0,3.35-2.43,6.05-6.25,9.73l-1.45,1.34v0.06h8.15v2.04H294.23z"/>
		</g>
		<g id="XMLID_161_">
			<path id="XMLID_162_" style="fill:#231F20;" d="M294.82,550.54c0.7,0.45,2.32,1.14,4.02,1.14c3.15,0,4.13-2.01,4.1-3.51
				c-0.03-2.54-2.32-3.63-4.69-3.63h-1.37v-1.84h1.37c1.79,0,4.04-0.92,4.04-3.07c0-1.45-0.92-2.73-3.18-2.73
				c-1.45,0-2.85,0.64-3.63,1.2l-0.64-1.79c0.95-0.7,2.79-1.4,4.74-1.4c3.57,0,5.19,2.12,5.19,4.32c0,1.87-1.12,3.46-3.35,4.27v0.06
				c2.23,0.45,4.04,2.12,4.04,4.66c0,2.9-2.26,5.44-6.61,5.44c-2.04,0-3.82-0.64-4.71-1.23L294.82,550.54z"/>
		</g>
		<g id="XMLID_157_">
			<path id="XMLID_158_" style="fill:#231F20;" d="M301.82,597.97v-4.94h-8.42v-1.62l8.09-11.58h2.65v11.27h2.54v1.92h-2.54v4.94
				H301.82z M301.82,591.11v-6.05c0-0.95,0.03-1.9,0.08-2.85h-0.08c-0.56,1.06-1,1.84-1.51,2.68l-4.44,6.16v0.06H301.82z"/>
		</g>
		<g id="XMLID_154_">
			<path id="XMLID_155_" style="fill:#231F20;" d="M305.05,648.83h-6.92l-0.7,4.66c0.42-0.06,0.81-0.11,1.48-0.11
				c1.39,0,2.79,0.31,3.91,0.98c1.42,0.81,2.59,2.37,2.59,4.66c0,3.54-2.82,6.19-6.75,6.19c-1.98,0-3.65-0.56-4.52-1.12l0.61-1.87
				c0.75,0.45,2.23,1,3.88,1c2.32,0,4.3-1.51,4.3-3.93c-0.03-2.34-1.59-4.02-5.22-4.02c-1.03,0-1.84,0.11-2.51,0.2l1.17-8.7h8.67
				V648.83z"/>
		</g>
		<g id="XMLID_150_">
			<path id="XMLID_151_" style="fill:#231F20;" d="M304.58,676.38c-0.5-0.03-1.14,0-1.84,0.11c-3.85,0.64-5.89,3.46-6.3,6.44h0.08
				c0.87-1.14,2.37-2.09,4.38-2.09c3.21,0,5.47,2.32,5.47,5.86c0,3.32-2.26,6.39-6.03,6.39c-3.88,0-6.42-3.01-6.42-7.73
				c0-3.57,1.28-6.39,3.07-8.17c1.51-1.48,3.51-2.4,5.8-2.68c0.73-0.11,1.34-0.14,1.79-0.14V676.38z M303.88,686.84
				c0-2.59-1.48-4.16-3.74-4.16c-1.48,0-2.85,0.92-3.51,2.23c-0.17,0.28-0.28,0.64-0.28,1.09c0.06,2.99,1.42,5.19,3.99,5.19
				C302.46,691.2,303.88,689.44,303.88,686.84z"/>
		</g>
		<g id="XMLID_145_">
			<path id="XMLID_146_" style="fill:#231F20;" d="M306,731.12v1.62l-7.89,16.51h-2.54l7.87-16.04v-0.06h-8.87v-2.04H306z"/>
		</g>
		<g id="XMLID_140_">
			<path id="XMLID_141_" style="fill:#231F20;" d="M294.01,811.58c0-2.29,1.37-3.91,3.6-4.85l-0.03-0.08
				c-2.01-0.95-2.87-2.51-2.87-4.07c0-2.87,2.43-4.83,5.61-4.83c3.51,0,5.27,2.2,5.27,4.46c0,1.53-0.75,3.18-2.98,4.24v0.08
				c2.26,0.89,3.65,2.48,3.65,4.69c0,3.15-2.71,5.27-6.17,5.27C296.29,816.49,294.01,814.23,294.01,811.58z M303.77,811.47
				c0-2.2-1.53-3.26-3.99-3.96c-2.12,0.61-3.26,2.01-3.26,3.74c-0.08,1.84,1.31,3.46,3.63,3.46
				C302.35,814.71,303.77,813.34,303.77,811.47z M297.02,802.4c0,1.81,1.37,2.79,3.46,3.35c1.56-0.53,2.76-1.65,2.76-3.29
				c0-1.45-0.86-2.96-3.07-2.96C298.13,799.5,297.02,800.84,297.02,802.4z"/>
		</g>
		<g id="XMLID_136_">
			<path id="XMLID_137_" style="fill:#231F20;" d="M295.65,853.5c0.53,0.06,1.14,0,1.98-0.08c1.42-0.19,2.76-0.78,3.79-1.76
				c1.2-1.09,2.06-2.68,2.4-4.83h-0.08c-1,1.23-2.45,1.95-4.27,1.95c-3.26,0-5.36-2.45-5.36-5.55c0-3.43,2.48-6.44,6.19-6.44
				s6,3.01,6,7.64c0,3.99-1.34,6.78-3.12,8.51c-1.39,1.37-3.32,2.2-5.27,2.43c-0.89,0.14-1.67,0.17-2.26,0.14V853.5z M296.54,843.06
				c0,2.26,1.37,3.85,3.49,3.85c1.65,0,2.93-0.81,3.57-1.9c0.14-0.22,0.22-0.5,0.22-0.89c0-3.1-1.14-5.47-3.71-5.47
				C298.02,838.66,296.54,840.5,296.54,843.06z"/>
		</g>
		<g id="XMLID_130_">
			<path id="XMLID_131_" style="fill:#231F20;" d="M299.56,864.48h-0.06l-3.15,1.7l-0.47-1.87l3.96-2.12h2.09v18.13h-2.37V864.48z"
				/>
			<path id="XMLID_133_" style="fill:#231F20;" d="M320.5,871.06c0,6.17-2.29,9.57-6.3,9.57c-3.54,0-5.94-3.32-6-9.32
				c0-6.08,2.62-9.43,6.3-9.43C318.33,861.89,320.5,865.29,320.5,871.06z M310.66,871.34c0,4.71,1.45,7.39,3.68,7.39
				c2.51,0,3.71-2.93,3.71-7.56c0-4.46-1.14-7.39-3.68-7.39C312.22,863.78,310.66,866.41,310.66,871.34z"/>
		</g>
		<g id="XMLID_125_">
			<path id="XMLID_126_" style="fill:#231F20;" d="M299.56,889.58h-0.06l-3.15,1.7l-0.47-1.87l3.96-2.12h2.09v18.13h-2.37V889.58z"
				/>
			<path id="XMLID_128_" style="fill:#231F20;" d="M313.78,889.58h-0.06l-3.15,1.7l-0.47-1.87l3.96-2.12h2.09v18.13h-2.37V889.58z"
				/>
		</g>
		<g id="XMLID_120_">
			<path id="XMLID_121_" style="fill:#231F20;" d="M299.56,967.66h-0.06l-3.15,1.7l-0.47-1.87l3.96-2.12h2.09v18.13h-2.37V967.66z"
				/>
			<path id="XMLID_123_" style="fill:#231F20;" d="M308.45,983.5V982l1.92-1.87c4.63-4.41,6.72-6.75,6.75-9.48
				c0-1.84-0.89-3.54-3.6-3.54c-1.65,0-3.01,0.84-3.85,1.53l-0.78-1.73c1.26-1.06,3.04-1.84,5.13-1.84c3.91,0,5.55,2.68,5.55,5.27
				c0,3.35-2.43,6.05-6.25,9.73l-1.45,1.34v0.06h8.14v2.04H308.45z"/>
		</g>
		<g id="XMLID_114_">
			<path id="XMLID_115_" style="fill:#231F20;" d="M299.56,1015.06h-0.06l-3.15,1.7l-0.47-1.87l3.96-2.12h2.09v18.13h-2.37V1015.06z
				"/>
			<path id="XMLID_117_" style="fill:#231F20;" d="M316.04,1030.91v-4.94h-8.42v-1.62l8.09-11.58h2.65v11.27h2.54v1.92h-2.54v4.94
				H316.04z M316.04,1024.05v-6.05c0-0.95,0.03-1.9,0.08-2.85h-0.08c-0.56,1.06-1,1.84-1.51,2.68l-4.43,6.16v0.06H316.04z"/>
		</g>
		<g id="XMLID_110_">
			<path id="XMLID_111_" style="fill:#231F20;" d="M389.66,114.81c0,6.16-2.29,9.57-6.3,9.57c-3.54,0-5.94-3.32-6-9.32
				c0-6.08,2.62-9.43,6.3-9.43C387.49,105.64,389.66,109.04,389.66,114.81z M379.82,115.09c0,4.71,1.45,7.39,3.68,7.39
				c2.51,0,3.71-2.93,3.71-7.56c0-4.46-1.14-7.39-3.68-7.39C381.38,107.53,379.82,110.16,379.82,115.09z"/>
		</g>
		<g id="XMLID_107_">
			<path id="XMLID_108_" style="fill:#231F20;" d="M382.94,247.66h-0.06l-3.15,1.7l-0.47-1.87l3.96-2.12h2.09v18.13h-2.37V247.66z"
				/>
		</g>
		<g id="XMLID_104_">
			<path id="XMLID_105_" style="fill:#231F20;" d="M377.61,402.94v-1.51l1.92-1.87c4.63-4.41,6.72-6.75,6.75-9.48
				c0-1.84-0.89-3.54-3.6-3.54c-1.65,0-3.01,0.84-3.85,1.53l-0.78-1.73c1.26-1.06,3.04-1.84,5.13-1.84c3.91,0,5.55,2.68,5.55,5.27
				c0,3.35-2.43,6.05-6.25,9.73l-1.45,1.34v0.06h8.14v2.04H377.61z"/>
		</g>
		<g id="XMLID_101_">
			<path id="XMLID_102_" style="fill:#231F20;" d="M378.2,467.04c0.7,0.45,2.32,1.14,4.02,1.14c3.15,0,4.13-2.01,4.1-3.51
				c-0.03-2.54-2.32-3.63-4.69-3.63h-1.37v-1.84h1.37c1.79,0,4.04-0.92,4.04-3.07c0-1.45-0.92-2.73-3.18-2.73
				c-1.45,0-2.85,0.64-3.63,1.2l-0.64-1.79c0.95-0.7,2.79-1.4,4.74-1.4c3.57,0,5.19,2.12,5.19,4.32c0,1.87-1.12,3.46-3.35,4.27v0.06
				c2.23,0.45,4.04,2.12,4.04,4.66c0,2.9-2.26,5.44-6.61,5.44c-2.04,0-3.82-0.64-4.71-1.23L378.2,467.04z"/>
		</g>
		<g id="XMLID_97_">
			<path id="XMLID_98_" style="fill:#231F20;" d="M385.2,503.33v-4.94h-8.42v-1.62l8.09-11.58h2.65v11.27h2.54v1.92h-2.54v4.94
				H385.2z M385.2,496.47v-6.05c0-0.95,0.03-1.9,0.08-2.85h-0.08c-0.56,1.06-1,1.84-1.51,2.68l-4.43,6.16v0.06H385.2z"/>
		</g>
		<g id="XMLID_94_">
			<path id="XMLID_95_" style="fill:#231F20;" d="M388.43,537.46h-6.92l-0.7,4.66c0.42-0.06,0.81-0.11,1.48-0.11
				c1.39,0,2.79,0.31,3.91,0.98c1.42,0.81,2.59,2.37,2.59,4.66c0,3.54-2.82,6.19-6.75,6.19c-1.98,0-3.65-0.56-4.52-1.12l0.61-1.87
				c0.75,0.45,2.23,1,3.88,1c2.32,0,4.3-1.51,4.3-3.93c-0.03-2.34-1.59-4.02-5.22-4.02c-1.03,0-1.84,0.11-2.51,0.2l1.17-8.7h8.67
				V537.46z"/>
		</g>
		<g id="XMLID_90_">
			<path id="XMLID_91_" style="fill:#231F20;" d="M387.96,581.74c-0.5-0.03-1.14,0-1.84,0.11c-3.85,0.64-5.89,3.46-6.3,6.44h0.08
				c0.87-1.14,2.37-2.09,4.38-2.09c3.21,0,5.47,2.32,5.47,5.86c0,3.32-2.26,6.39-6.02,6.39c-3.88,0-6.42-3.01-6.42-7.73
				c0-3.57,1.28-6.39,3.07-8.17c1.51-1.48,3.51-2.4,5.8-2.68c0.73-0.11,1.34-0.14,1.79-0.14V581.74z M387.26,592.2
				c0-2.59-1.48-4.16-3.74-4.16c-1.48,0-2.85,0.92-3.51,2.23c-0.17,0.28-0.28,0.64-0.28,1.09c0.06,2.98,1.42,5.19,3.99,5.19
				C385.84,596.55,387.26,594.79,387.26,592.2z"/>
		</g>
		<g id="XMLID_87_">
			<path id="XMLID_88_" style="fill:#231F20;" d="M389.38,607.89v1.62l-7.89,16.51h-2.54l7.87-16.04v-0.06h-8.87v-2.04H389.38z"/>
		</g>
		<g id="XMLID_82_">
			<path id="XMLID_83_" style="fill:#231F20;" d="M377.39,649.31c0-2.29,1.37-3.91,3.6-4.85l-0.03-0.08
				c-2.01-0.95-2.87-2.51-2.87-4.07c0-2.87,2.43-4.83,5.61-4.83c3.51,0,5.27,2.2,5.27,4.46c0,1.53-0.75,3.18-2.98,4.24v0.08
				c2.26,0.89,3.65,2.48,3.65,4.69c0,3.15-2.71,5.27-6.17,5.27C379.68,654.22,377.39,651.96,377.39,649.31z M387.15,649.2
				c0-2.2-1.53-3.26-3.99-3.96c-2.12,0.61-3.26,2.01-3.26,3.74c-0.08,1.84,1.31,3.46,3.63,3.46
				C385.73,652.43,387.15,651.07,387.15,649.2z M380.4,640.13c0,1.81,1.37,2.79,3.46,3.35c1.56-0.53,2.76-1.65,2.76-3.29
				c0-1.45-0.86-2.96-3.07-2.96C381.52,637.23,380.4,638.57,380.4,640.13z"/>
		</g>
		<g id="XMLID_78_">
			<path id="XMLID_79_" style="fill:#231F20;" d="M379.03,685.65c0.53,0.06,1.14,0,1.98-0.08c1.42-0.2,2.76-0.78,3.79-1.76
				c1.2-1.09,2.06-2.68,2.4-4.83h-0.08c-1,1.23-2.45,1.95-4.27,1.95c-3.26,0-5.36-2.45-5.36-5.55c0-3.43,2.48-6.44,6.19-6.44
				s6,3.01,6,7.64c0,3.99-1.34,6.78-3.12,8.51c-1.39,1.37-3.32,2.2-5.27,2.43c-0.89,0.14-1.67,0.17-2.26,0.14V685.65z
				 M379.93,675.22c0,2.26,1.37,3.85,3.49,3.85c1.65,0,2.93-0.81,3.57-1.9c0.14-0.22,0.22-0.5,0.22-0.89c0-3.1-1.14-5.47-3.71-5.47
				C381.41,670.81,379.93,672.65,379.93,675.22z"/>
		</g>
		<g id="XMLID_72_">
			<path id="XMLID_73_" style="fill:#231F20;" d="M382.94,732.89h-0.06l-3.15,1.7l-0.47-1.87l3.96-2.12h2.09v18.13h-2.37V732.89z"/>
			<path id="XMLID_75_" style="fill:#231F20;" d="M403.88,739.47c0,6.17-2.29,9.57-6.3,9.57c-3.54,0-5.94-3.32-6-9.32
				c0-6.08,2.62-9.43,6.3-9.43C401.71,730.29,403.88,733.7,403.88,739.47z M394.04,739.75c0,4.71,1.45,7.39,3.68,7.39
				c2.51,0,3.71-2.93,3.71-7.56c0-4.46-1.14-7.39-3.68-7.39C395.6,732.19,394.04,734.81,394.04,739.75z"/>
		</g>
		<g id="XMLID_67_">
			<path id="XMLID_68_" style="fill:#231F20;" d="M382.94,805.39h-0.06l-3.15,1.7l-0.47-1.87l3.96-2.12h2.09v18.13h-2.37V805.39z"/>
			<path id="XMLID_70_" style="fill:#231F20;" d="M397.16,805.39h-0.06l-3.15,1.7l-0.47-1.87l3.96-2.12h2.09v18.13h-2.37V805.39z"/>
		</g>
		<g id="XMLID_62_">
			<path id="XMLID_63_" style="fill:#231F20;" d="M382.94,838.85h-0.06l-3.15,1.7l-0.47-1.87l3.96-2.12h2.09v18.13h-2.37V838.85z"/>
			<path id="XMLID_65_" style="fill:#231F20;" d="M391.83,854.7v-1.51l1.92-1.87c4.63-4.41,6.72-6.75,6.75-9.48
				c0-1.84-0.89-3.54-3.6-3.54c-1.65,0-3.01,0.84-3.85,1.53l-0.78-1.73c1.26-1.06,3.04-1.84,5.13-1.84c3.91,0,5.55,2.68,5.55,5.27
				c0,3.35-2.43,6.05-6.25,9.74l-1.45,1.34v0.06h8.15v2.04H391.83z"/>
		</g>
		<g id="XMLID_57_">
			<path id="XMLID_58_" style="fill:#231F20;" d="M382.94,894.63h-0.06l-3.15,1.7l-0.47-1.87l3.96-2.12h2.09v18.13h-2.37V894.63z"/>
			<path id="XMLID_60_" style="fill:#231F20;" d="M392.42,907.65c0.7,0.45,2.32,1.14,4.02,1.14c3.15,0,4.13-2.01,4.1-3.51
				c-0.03-2.54-2.32-3.63-4.69-3.63h-1.37v-1.84h1.37c1.79,0,4.04-0.92,4.04-3.07c0-1.45-0.92-2.73-3.18-2.73
				c-1.45,0-2.85,0.64-3.63,1.2l-0.64-1.79c0.95-0.7,2.79-1.39,4.74-1.39c3.57,0,5.19,2.12,5.19,4.32c0,1.87-1.12,3.46-3.35,4.27
				v0.06c2.23,0.45,4.04,2.12,4.04,4.66c0,2.9-2.26,5.44-6.61,5.44c-2.04,0-3.82-0.64-4.71-1.23L392.42,907.65z"/>
		</g>
		<g id="XMLID_51_">
			<path id="XMLID_52_" style="fill:#231F20;" d="M382.94,922.51h-0.06l-3.15,1.7l-0.47-1.87l3.96-2.12h2.09v18.13h-2.37V922.51z"/>
			<path id="XMLID_54_" style="fill:#231F20;" d="M399.42,938.35v-4.94H391v-1.62l8.09-11.58h2.65v11.27h2.54v1.92h-2.54v4.94
				H399.42z M399.42,931.49v-6.05c0-0.95,0.03-1.9,0.08-2.85h-0.08c-0.56,1.06-1,1.84-1.51,2.68l-4.44,6.17v0.06H399.42z"/>
		</g>
		<g id="XMLID_46_">
			<path id="XMLID_47_" style="fill:#231F20;" d="M382.94,983.86h-0.06l-3.15,1.7l-0.47-1.87l3.96-2.12h2.09v18.13h-2.37V983.86z"/>
			<path id="XMLID_49_" style="fill:#231F20;" d="M402.66,983.63h-6.92l-0.7,4.66c0.42-0.06,0.81-0.11,1.48-0.11
				c1.39,0,2.79,0.31,3.91,0.98c1.42,0.81,2.59,2.37,2.59,4.66c0,3.54-2.82,6.19-6.75,6.19c-1.98,0-3.65-0.56-4.52-1.12l0.61-1.87
				c0.75,0.45,2.23,1,3.88,1c2.32,0,4.3-1.51,4.3-3.93c-0.03-2.34-1.59-4.02-5.22-4.02c-1.03,0-1.84,0.11-2.51,0.2l1.17-8.7h8.67
				V983.63z"/>
		</g>
		<g id="XMLID_40_">
			<path id="XMLID_41_" style="fill:#231F20;" d="M382.94,1011.75h-0.06l-3.15,1.7l-0.47-1.87l3.96-2.12h2.09v18.13h-2.37V1011.75z"
				/>
			<path id="XMLID_43_" style="fill:#231F20;" d="M402.18,1011.19c-0.5-0.03-1.14,0-1.84,0.11c-3.85,0.64-5.89,3.46-6.3,6.44h0.08
				c0.87-1.14,2.37-2.09,4.38-2.09c3.21,0,5.47,2.32,5.47,5.86c0,3.32-2.26,6.39-6.03,6.39c-3.88,0-6.42-3.01-6.42-7.73
				c0-3.57,1.28-6.39,3.07-8.17c1.51-1.48,3.51-2.4,5.8-2.68c0.73-0.11,1.34-0.14,1.79-0.14V1011.19z M401.48,1021.65
				c0-2.59-1.48-4.16-3.74-4.16c-1.48,0-2.85,0.92-3.51,2.23c-0.17,0.28-0.28,0.64-0.28,1.09c0.06,2.99,1.42,5.19,3.99,5.19
				C400.06,1026,401.48,1024.24,401.48,1021.65z"/>
		</g>
	</g>
</g>
<g id="Layer_4">
</g>
</svg>
