<?xml version="1.0" encoding="UTF-8" standalone="no"?>
<!-- Created with Inkscape (http://www.inkscape.org/) -->

<svg
   xmlns:dc="http://purl.org/dc/elements/1.1/"
   xmlns:cc="http://creativecommons.org/ns#"
   xmlns:rdf="http://www.w3.org/1999/02/22-rdf-syntax-ns#"
   xmlns:svg="http://www.w3.org/2000/svg"
   xmlns="http://www.w3.org/2000/svg"
   xmlns:sodipodi="http://sodipodi.sourceforge.net/DTD/sodipodi-0.dtd"
   xmlns:inkscape="http://www.inkscape.org/namespaces/inkscape"
   version="1.1"
   width="100%"
   height="100%"
   viewBox="86 7.8 706 1113.9"
   id="svg2"
   inkscape:version="0.48.5 r10040"
   sodipodi:docname="probableStrength.svg">
  <sodipodi:namedview
     pagecolor="#ffffff"
     bordercolor="#666666"
     borderopacity="1"
     objecttolerance="10"
     gridtolerance="10"
     guidetolerance="10"
     inkscape:pageopacity="0"
     inkscape:pageshadow="2"
     inkscape:window-width="1920"
     inkscape:window-height="1020"
     id="namedview97"
     showgrid="false"
     inkscape:zoom="0.59925379"
     inkscape:cx="416.77857"
     inkscape:cy="373.37403"
     inkscape:window-x="0"
     inkscape:window-y="31"
     inkscape:window-maximized="1"
     inkscape:current-layer="svg2" />
  <metadata
     id="metadata222">
    <rdf:RDF>
      <cc:Work
         rdf:about="">
        <dc:format>image/svg+xml</dc:format>
        <dc:type
           rdf:resource="http://purl.org/dc/dcmitype/StillImage" />
        <dc:title />
      </cc:Work>
    </rdf:RDF>
  </metadata>
  <defs
     id="defs220" />
  <path
     style="fill:#f2f2f2"
     inkscape:connector-curvature="0"
     id="BottomSection"
     d="m 125,922.5 h 623.2 v 136.4 H 125 z" />
  <path
     style="fill:#f2f2f2"
     inkscape:connector-curvature="0"
     id="MiddleSection"
     d="m 125.5,658.8 622.4,0 3,-161.3 -622.3,0 z" />
  <path
     style="fill:#f2f2f2"
     inkscape:connector-curvature="0"
     id="TopSection"
     d="M 125.5,62 H 747.8 V 234.9 H 125.5 z" />
  <g
     id="ColumnTitles"
     style="fill:#124c59">
    <path
       d="m 236.7,26.6 c 0,6.1 -1.7,10.8 -5.2,14.1 -3.5,3.3 -8.5,4.9 -15.1,4.9 l -10.5,0 0,-37.3 11.7,0 c 6.1,0 10.8,1.6 14.2,4.8 3.2,3.3 4.9,7.8 4.9,13.5 m -8.2,0.2 c 0,-8 -3.5,-12 -10.6,-12 l -4.2,0 0,24.3 3.4,0 c 7.6,0 11.4,-4.1 11.4,-12.3"
       id="path10" />
    <path
       d="M 361.7,45.6 V 8.3 h 7.9 v 37.3 h -7.9 z"
       id="path12" />
    <path
       d="m 519.3,35.3 c 0,3.4 -1.2,6 -3.6,8 -2.4,1.9 -5.8,2.9 -10.1,2.9 -4,0 -7.5,-0.7 -10.5,-2.2 l 0,-7.3 c 2.5,1.1 4.6,1.9 6.4,2.4 1.7,0.5 3.3,0.7 4.8,0.7 1.7,0 3.1,-0.3 4,-1 0.9,-0.7 1.4,-1.6 1.4,-3 0,-0.7 -0.2,-1.4 -0.6,-1.9 -0.4,-0.6 -1,-1.1 -1.8,-1.6 -0.8,-0.5 -2.4,-1.4 -4.8,-2.5 -2.3,-1.1 -4,-2.1 -5.1,-3.1 -1.1,-1 -2,-2.1 -2.7,-3.4 -0.7,-1.3 -1,-2.8 -1,-4.6 0,-3.3 1.1,-5.9 3.4,-7.8 2.2,-1.9 5.3,-2.8 9.3,-2.8 1.9,0 3.8,0.2 5.5,0.7 1.8,0.5 3.6,1.1 5.5,1.9 l -2.5,6.1 c -2,-0.8 -3.6,-1.4 -4.9,-1.7 -1.3,-0.3 -2.6,-0.5 -3.8,-0.5 -1.5,0 -2.6,0.3 -3.4,1 -0.8,0.7 -1.2,1.6 -1.2,2.7 0,0.7 0.2,1.3 0.5,1.8 0.3,0.5 0.8,1 1.5,1.5 0.7,0.5 2.4,1.4 5,2.6 3.5,1.7 5.9,3.3 7.2,5 0.9,1.6 1.5,3.6 1.5,6.1"
       id="path14" />
    <path
       d="m 652.1,14.4 c -3,0 -5.3,1.1 -6.9,3.4 -1.6,2.2 -2.4,5.3 -2.4,9.3 0,8.3 3.1,12.5 9.4,12.5 2.6,0 5.8,-0.7 9.5,-2 l 0,6.6 c -3.1,1.3 -6.5,1.9 -10.2,1.9 -5.4,0 -9.6,-1.6 -12.4,-4.9 -2.9,-3.3 -4.3,-8 -4.3,-14.2 0,-3.9 0.7,-7.3 2.1,-10.2 1.4,-2.9 3.4,-5.1 6.1,-6.7 2.6,-1.6 5.7,-2.3 9.3,-2.3 3.6,0 7.3,0.9 10.9,2.6 l -2.5,6.4 c -1.4,-0.7 -2.8,-1.2 -4.2,-1.7 -1.7,-0.5 -3.1,-0.7 -4.4,-0.7"
       id="path16" />
  </g>
  <path
     d="m 747.8,236.5 v -3 H 650.3 V 61.3 h -3 V 233.5 H 508.7 V 61.3 h -3 V 233.5 H 367.1 V 61.3 h -3 V 233.5 H 225.6 V 61.3 h -3 v 172.2 h -97 v 3 h 97 V 496 H 123 v 3 h 99.5 v 78 H 123 v 3 h 99.5 v 78 h -97.7 v 3 h 97.7 v 260 h -97 v 3 h 97 v 136 h 3 V 924 h 138.6 v 136 h 3 V 924 h 138.6 v 136 h 3 V 924 h 138.6 v 136 h 3 V 924 h 97.5 v -3 H 650.3 V 661 h 97.4 v -3 h -97.4 v -78 h 97.5 v -3 h -97.5 v -78 h 97.4 v -3 H 650.3 V 236.5 h 97.5 z m -242.1,0 V 496 H 367.1 V 236.5 H 505.7 z M 367.1,577 v -78 h 138.6 v 78 H 367.1 z m 138.6,3 v 78 H 367.1 V 580 H 505.7 z M 225.6,236.5 H 364.2 V 496 H 225.6 V 236.5 z m 0,262.5 h 138.6 v 78 H 225.6 v -78 z m 0,81 h 138.6 v 78 H 225.6 v -78 z m 0,341 V 661 H 364.2 V 921 H 225.6 z m 141.5,0 V 661 H 505.7 V 921 H 367.1 z m 280.2,0 H 508.7 V 661 h 138.6 v 260 z m 0,-263 H 508.7 v -78 h 138.6 v 78 z m 0,-81 H 508.7 v -78 h 138.6 v 78 z m 0,-81 H 508.7 V 236.5 H 647.3 V 496 z"
     id="InnerGrid"
     style="fill:#e6e6e6" />
  <path
     d="M 750.1,1061.3 H 122.7 V 60 H 750 v 1001.3 z m -623.4,-4 H 746 V 64 H 126.7 v 993.3 z"
     id="OuterGrid"
     style="fill:#31708f" />
  <g
     id="ScoresRight">
    <g
       id="g21"
       style="fill:#124c59">
      <path
         d="m 772.4,73.8 c 0,3.5 -0.7,6.1 -2.2,7.9 -1.5,1.8 -3.7,2.6 -6.7,2.6 -1.1,0 -1.9,-0.1 -2.4,-0.2 l 0,-3 c 0.7,0.2 1.4,0.3 2.1,0.3 1.3,0 2.3,-0.2 3.1,-0.6 0.8,-0.4 1.4,-1 1.9,-1.7 0.4,-0.8 0.7,-1.9 0.7,-3.3 l -0.1,0 c -0.5,0.8 -1,1.3 -1.6,1.6 -0.6,0.3 -1.4,0.5 -2.3,0.5 -1.6,0 -2.8,-0.5 -3.7,-1.5 -0.9,-1 -1.3,-2.4 -1.3,-4.2 0,-1.9 0.5,-3.4 1.6,-4.5 1.1,-1.1 2.6,-1.7 4.4,-1.7 1.3,0 2.5,0.3 3.5,0.9 1,0.6 1.7,1.5 2.3,2.7 0.4,1.2 0.7,2.6 0.7,4.2 M 765.9,69 c -0.8,0 -1.4,0.3 -1.8,0.8 -0.4,0.5 -0.7,1.3 -0.7,2.3 0,0.9 0.2,1.5 0.6,2.1 0.4,0.5 1,0.8 1.8,0.8 0.8,0 1.4,-0.3 2,-0.8 0.5,-0.5 0.8,-1.1 0.8,-1.7 0,-1 -0.3,-1.8 -0.8,-2.5 -0.5,-0.7 -1.1,-1 -1.9,-1"
         id="path23" />
      <path
         d="m 786.6,73.8 c 0,3.5 -0.7,6.1 -2.2,7.9 -1.5,1.8 -3.7,2.6 -6.7,2.6 -1.1,0 -1.9,-0.1 -2.4,-0.2 l 0,-3 c 0.7,0.2 1.4,0.3 2.1,0.3 1.3,0 2.3,-0.2 3.1,-0.6 0.8,-0.4 1.4,-1 1.9,-1.7 0.4,-0.8 0.7,-1.9 0.7,-3.3 l -0.1,0 c -0.5,0.8 -1,1.3 -1.6,1.6 -0.6,0.3 -1.4,0.5 -2.3,0.5 -1.6,0 -2.8,-0.5 -3.7,-1.5 -0.9,-1 -1.3,-2.4 -1.3,-4.2 0,-1.9 0.5,-3.4 1.6,-4.5 1.1,-1.1 2.6,-1.7 4.4,-1.7 1.3,0 2.5,0.3 3.5,0.9 1,0.6 1.7,1.5 2.3,2.7 0.4,1.2 0.7,2.6 0.7,4.2 M 780.1,69 c -0.8,0 -1.4,0.3 -1.8,0.8 -0.4,0.5 -0.7,1.3 -0.7,2.3 0,0.9 0.2,1.5 0.6,2.1 0.4,0.5 1,0.8 1.8,0.8 0.8,0 1.4,-0.3 2,-0.8 0.5,-0.5 0.8,-1.1 0.8,-1.7 0,-1 -0.3,-1.8 -0.8,-2.5 -0.5,-0.7 -1.1,-1 -1.9,-1"
         id="path25" />
      <path
         d="m 772.4,221.7 c 0,3.5 -0.7,6.1 -2.2,7.9 -1.5,1.8 -3.7,2.6 -6.7,2.6 -1.1,0 -1.9,-0.1 -2.4,-0.2 l 0,-3 c 0.7,0.2 1.4,0.3 2.1,0.3 1.3,0 2.3,-0.2 3.1,-0.6 0.8,-0.4 1.4,-1 1.9,-1.7 0.4,-0.8 0.7,-1.9 0.7,-3.3 l -0.1,0 c -0.5,0.8 -1,1.3 -1.6,1.6 -0.6,0.3 -1.4,0.5 -2.3,0.5 -1.6,0 -2.8,-0.5 -3.7,-1.5 -0.9,-1 -1.3,-2.4 -1.3,-4.2 0,-1.9 0.5,-3.4 1.6,-4.5 1.1,-1.1 2.6,-1.7 4.4,-1.7 1.3,0 2.5,0.3 3.5,0.9 1,0.6 1.7,1.5 2.3,2.7 0.4,1.2 0.7,2.6 0.7,4.2 m -6.5,-4.8 c -0.8,0 -1.4,0.3 -1.8,0.8 -0.4,0.5 -0.7,1.3 -0.7,2.3 0,0.9 0.2,1.5 0.6,2.1 0.4,0.5 1,0.8 1.8,0.8 0.8,0 1.4,-0.3 2,-0.8 0.5,-0.5 0.8,-1.1 0.8,-1.7 0,-1 -0.3,-1.8 -0.8,-2.5 -0.5,-0.7 -1.1,-1 -1.9,-1"
         id="path27" />
      <path
         d="m 780.6,220.5 c 1.7,0 3.1,0.5 4.1,1.5 1,1 1.5,2.3 1.5,4 0,2 -0.6,3.5 -1.8,4.6 -1.2,1.1 -3,1.6 -5.3,1.6 -2,0 -3.6,-0.3 -4.8,-1 l 0,-3.2 c 0.6,0.3 1.4,0.6 2.2,0.8 0.9,0.2 1.7,0.3 2.4,0.3 2.3,0 3.5,-0.9 3.5,-2.8 0,-1.8 -1.2,-2.7 -3.6,-2.7 -0.4,0 -0.9,0 -1.4,0.1 -0.5,0.1 -0.9,0.2 -1.3,0.3 l -1.5,-0.8 0.7,-9.1 9.7,0 0,3.2 -6.4,0 -0.3,3.5 0.4,-0.1 c 0.6,-0.1 1.2,-0.2 1.9,-0.2"
         id="path29" />
      <path
         d="m 772.4,310.9 c 0,3.5 -0.7,6.1 -2.2,7.9 -1.5,1.8 -3.7,2.6 -6.7,2.6 -1.1,0 -1.9,-0.1 -2.4,-0.2 l 0,-3 c 0.7,0.2 1.4,0.3 2.1,0.3 1.3,0 2.3,-0.2 3.1,-0.6 0.8,-0.4 1.4,-1 1.9,-1.7 0.4,-0.8 0.7,-1.9 0.7,-3.3 l -0.1,0 c -0.5,0.8 -1,1.3 -1.6,1.6 -0.6,0.3 -1.4,0.5 -2.3,0.5 -1.6,0 -2.8,-0.5 -3.7,-1.5 -0.9,-1 -1.3,-2.4 -1.3,-4.2 0,-1.9 0.5,-3.4 1.6,-4.5 1.1,-1.1 2.6,-1.7 4.4,-1.7 1.3,0 2.5,0.3 3.5,0.9 1,0.6 1.7,1.5 2.3,2.7 0.4,1.1 0.7,2.5 0.7,4.2 m -6.5,-4.8 c -0.8,0 -1.4,0.3 -1.8,0.8 -0.4,0.5 -0.7,1.3 -0.7,2.3 0,0.9 0.2,1.5 0.6,2.1 0.4,0.5 1,0.8 1.8,0.8 0.8,0 1.4,-0.3 2,-0.8 0.5,-0.5 0.8,-1.1 0.8,-1.7 0,-1 -0.3,-1.8 -0.8,-2.5 -0.5,-0.7 -1.1,-1 -1.9,-1"
         id="path31" />
      <path
         d="m 786.5,312.2 c 0,3.1 -0.5,5.4 -1.5,6.9 -1,1.5 -2.6,2.2 -4.7,2.2 -2.1,0 -3.6,-0.8 -4.7,-2.3 -1,-1.5 -1.6,-3.8 -1.6,-6.8 0,-3.1 0.5,-5.5 1.5,-7 1,-1.5 2.6,-2.2 4.7,-2.2 2.1,0 3.6,0.8 4.7,2.3 1.1,1.5 1.6,3.9 1.6,6.9 m -8.7,0 c 0,2.2 0.2,3.8 0.6,4.7 0.4,0.9 1,1.4 1.9,1.4 0.9,0 1.5,-0.5 1.9,-1.4 0.4,-1 0.6,-2.5 0.6,-4.7 0,-2.2 -0.2,-3.8 -0.6,-4.7 -0.4,-1 -1,-1.4 -1.9,-1.4 -0.9,0 -1.5,0.5 -1.9,1.4 -0.4,0.9 -0.6,2.5 -0.6,4.7"
         id="path33" />
      <path
         d="m 766.1,356.9 c 1.7,0 3.1,0.4 4.1,1.2 1,0.8 1.6,1.8 1.6,3.1 0,0.9 -0.3,1.7 -0.8,2.4 -0.5,0.7 -1.3,1.3 -2.4,1.9 1.3,0.7 2.3,1.5 2.9,2.2 0.6,0.8 0.9,1.6 0.9,2.6 0,1.5 -0.6,2.6 -1.7,3.5 -1.1,0.9 -2.7,1.3 -4.5,1.3 -2,0 -3.5,-0.4 -4.6,-1.2 -1.1,-0.8 -1.7,-2 -1.7,-3.5 0,-1 0.3,-1.9 0.8,-2.7 0.5,-0.8 1.4,-1.5 2.6,-2.1 -1,-0.6 -1.8,-1.3 -2.2,-2.1 -0.4,-0.8 -0.7,-1.5 -0.7,-2.4 0,-1.3 0.5,-2.3 1.6,-3.1 1,-0.7 2.4,-1.1 4.1,-1.1 m -2.8,13.3 c 0,0.7 0.2,1.2 0.7,1.6 0.5,0.4 1.2,0.6 2,0.6 0.9,0 1.6,-0.2 2.1,-0.6 0.5,-0.4 0.7,-0.9 0.7,-1.6 0,-0.5 -0.2,-1.1 -0.7,-1.5 -0.5,-0.5 -1.2,-1 -2.2,-1.5 -1.7,0.8 -2.6,1.8 -2.6,3 m 2.8,-10.6 c -0.6,0 -1.2,0.2 -1.6,0.5 -0.4,0.3 -0.6,0.8 -0.6,1.3 0,0.5 0.2,0.9 0.5,1.3 0.3,0.4 0.9,0.8 1.7,1.2 0.8,-0.4 1.4,-0.8 1.7,-1.1 0.3,-0.4 0.5,-0.8 0.5,-1.4 0,-0.6 -0.2,-1 -0.6,-1.3 -0.5,-0.3 -1,-0.5 -1.6,-0.5"
         id="path35" />
      <path
         d="m 787,371.3 -2.1,0 0,3.7 -3.7,0 0,-3.7 -7.6,0 0,-2.6 7.8,-11.5 3.5,0 0,11.2 2.1,0 0,2.9 m -5.8,-3 0,-3 c 0,-0.5 0,-1.2 0.1,-2.2 0,-1 0.1,-1.5 0.1,-1.7 l -0.1,0 c -0.3,0.7 -0.7,1.3 -1.1,2 l -3.3,4.9 4.3,0"
         id="path37" />
      <path
         d="m 766.1,401.8 c 1.7,0 3.1,0.4 4.1,1.2 1,0.8 1.6,1.8 1.6,3.1 0,0.9 -0.3,1.7 -0.8,2.4 -0.5,0.7 -1.3,1.3 -2.4,1.9 1.3,0.7 2.3,1.5 2.9,2.2 0.6,0.8 0.9,1.6 0.9,2.6 0,1.5 -0.6,2.6 -1.7,3.5 -1.1,0.9 -2.7,1.3 -4.5,1.3 -2,0 -3.5,-0.4 -4.6,-1.2 -1.1,-0.8 -1.7,-2 -1.7,-3.5 0,-1 0.3,-1.9 0.8,-2.7 0.5,-0.8 1.4,-1.5 2.6,-2.1 -1,-0.6 -1.8,-1.3 -2.2,-2.1 -0.4,-0.8 -0.7,-1.5 -0.7,-2.4 0,-1.3 0.5,-2.3 1.6,-3.1 1,-0.7 2.4,-1.1 4.1,-1.1 m -2.8,13.3 c 0,0.7 0.2,1.2 0.7,1.6 0.5,0.4 1.2,0.6 2,0.6 0.9,0 1.6,-0.2 2.1,-0.6 0.5,-0.4 0.7,-0.9 0.7,-1.6 0,-0.5 -0.2,-1.1 -0.7,-1.5 -0.5,-0.5 -1.2,-1 -2.2,-1.5 -1.7,0.8 -2.6,1.8 -2.6,3 m 2.8,-10.6 c -0.6,0 -1.2,0.2 -1.6,0.5 -0.4,0.3 -0.6,0.8 -0.6,1.3 0,0.5 0.2,0.9 0.5,1.3 0.3,0.4 0.9,0.8 1.7,1.2 0.8,-0.4 1.4,-0.8 1.7,-1.1 0.3,-0.4 0.5,-0.8 0.5,-1.4 0,-0.6 -0.2,-1 -0.6,-1.3 -0.5,-0.3 -1,-0.5 -1.6,-0.5"
         id="path39" />
      <path
         d="m 786.5,410.9 c 0,3.1 -0.5,5.4 -1.5,6.9 -1,1.5 -2.6,2.2 -4.7,2.2 -2.1,0 -3.6,-0.8 -4.7,-2.3 -1,-1.5 -1.6,-3.8 -1.6,-6.8 0,-3.1 0.5,-5.5 1.5,-7 1,-1.5 2.6,-2.2 4.7,-2.2 2.1,0 3.6,0.8 4.7,2.3 1.1,1.5 1.6,3.9 1.6,6.9 m -8.7,0 c 0,2.2 0.2,3.8 0.6,4.7 0.4,0.9 1,1.4 1.9,1.4 0.9,0 1.5,-0.5 1.9,-1.4 0.4,-1 0.6,-2.5 0.6,-4.7 0,-2.2 -0.2,-3.8 -0.6,-4.7 -0.4,-1 -1,-1.4 -1.9,-1.4 -0.9,0 -1.5,0.5 -1.9,1.4 -0.4,1 -0.6,2.5 -0.6,4.7"
         id="path41" />
      <path
         d="m 761.7,466.4 6.7,-14.6 h -8.8 v -3.2 h 12.8 v 2.4 l -6.8,15.5 h -3.9 z"
         id="path43" />
      <path
         d="m 786.5,457.5 c 0,3.1 -0.5,5.4 -1.5,6.9 -1,1.5 -2.6,2.2 -4.7,2.2 -2.1,0 -3.6,-0.8 -4.7,-2.3 -1,-1.5 -1.6,-3.8 -1.6,-6.8 0,-3.1 0.5,-5.5 1.5,-7 1,-1.5 2.6,-2.2 4.7,-2.2 2.1,0 3.6,0.8 4.7,2.3 1.1,1.5 1.6,3.9 1.6,6.9 m -8.7,0 c 0,2.2 0.2,3.8 0.6,4.7 0.4,0.9 1,1.4 1.9,1.4 0.9,0 1.5,-0.5 1.9,-1.4 0.4,-1 0.6,-2.5 0.6,-4.7 0,-2.2 -0.2,-3.8 -0.6,-4.7 -0.4,-1 -1,-1.4 -1.9,-1.4 -0.9,0 -1.5,0.5 -1.9,1.4 -0.4,1 -0.6,2.5 -0.6,4.7"
         id="path45" />
      <path
         d="m 759.8,527.8 c 0,-3.5 0.7,-6.2 2.2,-7.9 1.5,-1.7 3.7,-2.6 6.7,-2.6 1,0 1.8,0.1 2.4,0.2 l 0,3 c -0.7,-0.2 -1.4,-0.2 -2.1,-0.2 -1.3,0 -2.3,0.2 -3.2,0.6 -0.8,0.4 -1.4,1 -1.8,1.7 -0.4,0.8 -0.6,1.9 -0.7,3.3 l 0.2,0 c 0.8,-1.4 2.1,-2.1 3.9,-2.1 1.6,0 2.8,0.5 3.7,1.5 0.9,1 1.4,2.4 1.4,4.2 0,1.9 -0.5,3.4 -1.6,4.5 -1.1,1.1 -2.6,1.7 -4.5,1.7 -1.3,0 -2.5,-0.3 -3.4,-0.9 -1,-0.6 -1.7,-1.5 -2.3,-2.7 -0.6,-1.2 -0.9,-2.7 -0.9,-4.3 m 6.5,4.8 c 0.8,0 1.4,-0.3 1.9,-0.8 0.4,-0.5 0.6,-1.3 0.6,-2.3 0,-0.9 -0.2,-1.6 -0.6,-2.1 -0.4,-0.5 -1,-0.8 -1.8,-0.8 -0.8,0 -1.4,0.2 -2,0.7 -0.5,0.5 -0.8,1.1 -0.8,1.7 0,1 0.3,1.8 0.8,2.5 0.5,0.8 1.1,1.1 1.9,1.1"
         id="path47" />
      <path
         d="m 786.5,526.4 c 0,3.1 -0.5,5.4 -1.5,6.9 -1,1.5 -2.6,2.2 -4.7,2.2 -2.1,0 -3.6,-0.8 -4.7,-2.3 -1,-1.5 -1.6,-3.8 -1.6,-6.8 0,-3.1 0.5,-5.5 1.5,-7 1,-1.5 2.6,-2.2 4.7,-2.2 2.1,0 3.6,0.8 4.7,2.3 1.1,1.5 1.6,3.9 1.6,6.9 m -8.7,0 c 0,2.2 0.2,3.8 0.6,4.7 0.4,0.9 1,1.4 1.9,1.4 0.9,0 1.5,-0.5 1.9,-1.4 0.4,-1 0.6,-2.5 0.6,-4.7 0,-2.2 -0.2,-3.8 -0.6,-4.7 -0.4,-1 -1,-1.4 -1.9,-1.4 -0.9,0 -1.5,0.5 -1.9,1.4 -0.4,1 -0.6,2.6 -0.6,4.7"
         id="path49" />
      <path
         d="m 766.5,575.8 c 1.7,0 3.1,0.5 4.1,1.5 1,1 1.5,2.3 1.5,4 0,2 -0.6,3.5 -1.8,4.6 -1.2,1.1 -3,1.6 -5.3,1.6 -2,0 -3.6,-0.3 -4.8,-1 l 0,-3.3 c 0.6,0.3 1.4,0.6 2.2,0.8 0.9,0.2 1.7,0.3 2.4,0.3 2.3,0 3.5,-0.9 3.5,-2.8 0,-1.8 -1.2,-2.7 -3.6,-2.7 -0.4,0 -0.9,0 -1.4,0.1 -0.5,0.1 -0.9,0.2 -1.3,0.3 l -1.5,-0.8 0.7,-9.1 9.7,0 0,3.2 -6.4,0 -0.3,3.5 0.4,-0.1 c 0.5,0 1.1,-0.1 1.9,-0.1"
         id="path51" />
      <path
         d="m 786.5,578.3 c 0,3.1 -0.5,5.4 -1.5,6.9 -1,1.5 -2.6,2.2 -4.7,2.2 -2.1,0 -3.6,-0.8 -4.7,-2.3 -1,-1.5 -1.6,-3.8 -1.6,-6.8 0,-3.1 0.5,-5.5 1.5,-7 1,-1.5 2.6,-2.2 4.7,-2.2 2.1,0 3.6,0.8 4.7,2.3 1.1,1.5 1.6,3.9 1.6,6.9 m -8.7,0 c 0,2.2 0.2,3.8 0.6,4.7 0.4,0.9 1,1.4 1.9,1.4 0.9,0 1.5,-0.5 1.9,-1.4 0.4,-1 0.6,-2.5 0.6,-4.7 0,-2.2 -0.2,-3.8 -0.6,-4.7 -0.4,-1 -1,-1.4 -1.9,-1.4 -0.9,0 -1.5,0.5 -1.9,1.4 -0.4,1 -0.6,2.5 -0.6,4.7"
         id="path53" />
      <path
         d="m 772.8,627.4 h -2.1 v 3.7 H 767 v -3.7 h -7.6 v -2.6 l 7.8,-11.5 h 3.5 v 11.2 h 2.1 v 2.9 z m -5.8,-2.9 v -3 c 0,-0.5 0,-1.2 0.1,-2.2 0,-1 0.1,-1.5 0.1,-1.7 h -0.1 c -0.3,0.7 -0.7,1.3 -1.1,2 l -3.3,4.9 h 4.3 z"
         id="path55" />
      <path
         d="m 786.5,622.2 c 0,3.1 -0.5,5.4 -1.5,6.9 -1,1.5 -2.6,2.2 -4.7,2.2 -2.1,0 -3.6,-0.8 -4.7,-2.3 -1.1,-1.5 -1.6,-3.8 -1.6,-6.8 0,-3.1 0.5,-5.5 1.5,-7 1,-1.5 2.6,-2.2 4.7,-2.2 2.1,0 3.6,0.8 4.7,2.3 1.1,1.6 1.6,3.9 1.6,6.9 m -8.7,0 c 0,2.2 0.2,3.8 0.6,4.7 0.4,0.9 1,1.4 1.9,1.4 0.9,0 1.5,-0.5 1.9,-1.4 0.4,-1 0.6,-2.5 0.6,-4.7 0,-2.2 -0.2,-3.8 -0.6,-4.7 -0.4,-1 -1,-1.4 -1.9,-1.4 -0.9,0 -1.5,0.5 -1.9,1.4 -0.4,0.9 -0.6,2.5 -0.6,4.7"
         id="path57" />
      <path
         d="m 771.7,691.9 c 0,1.1 -0.3,2.1 -1,2.8 -0.7,0.7 -1.6,1.3 -2.8,1.6 l 0,0.1 c 1.4,0.2 2.5,0.6 3.3,1.3 0.7,0.7 1.1,1.6 1.1,2.8 0,1.7 -0.6,3.1 -1.9,4 -1.2,1 -3,1.4 -5.3,1.4 -1.9,0 -3.7,-0.3 -5.2,-1 l 0,-3.2 c 0.7,0.3 1.5,0.6 2.3,0.9 0.8,0.3 1.7,0.3 2.5,0.3 1.2,0 2.2,-0.2 2.8,-0.6 0.6,-0.4 0.9,-1.1 0.9,-2 0,-0.8 -0.3,-1.4 -1,-1.8 -0.7,-0.4 -1.8,-0.5 -3.3,-0.5 l -1.4,0 0,-2.9 1.4,0 c 1.4,0 2.4,-0.2 3,-0.5 0.6,-0.3 1,-1 1,-1.9 0,-1.4 -0.8,-2 -2.5,-2 -0.6,0 -1.2,0.1 -1.8,0.3 -0.6,0.2 -1.3,0.5 -2,1 l -1.7,-2.6 c 1.6,-1.2 3.6,-1.8 5.8,-1.8 1.8,0 3.3,0.4 4.4,1.1 0.9,0.8 1.4,1.9 1.4,3.2"
         id="path59" />
      <path
         d="m 786.5,696.8 c 0,3.1 -0.5,5.4 -1.5,6.9 -1,1.5 -2.6,2.2 -4.7,2.2 -2.1,0 -3.6,-0.8 -4.7,-2.3 -1.1,-1.5 -1.6,-3.8 -1.6,-6.8 0,-3.1 0.5,-5.5 1.5,-7 1,-1.5 2.6,-2.2 4.7,-2.2 2.1,0 3.6,0.8 4.7,2.3 1.1,1.5 1.6,3.9 1.6,6.9 m -8.7,0 c 0,2.2 0.2,3.8 0.6,4.7 0.4,0.9 1,1.4 1.9,1.4 0.9,0 1.5,-0.5 1.9,-1.4 0.4,-1 0.6,-2.5 0.6,-4.7 0,-2.2 -0.2,-3.8 -0.6,-4.7 -0.4,-1 -1,-1.4 -1.9,-1.4 -0.9,0 -1.5,0.5 -1.9,1.4 -0.4,1 -0.6,2.6 -0.6,4.7"
         id="path61" />
      <path
         d="m 772.4,769.7 -12.4,0 0,-2.6 4.5,-4.5 c 1.3,-1.4 2.2,-2.3 2.6,-2.8 0.4,-0.5 0.7,-1 0.9,-1.5 0.2,-0.4 0.3,-0.9 0.3,-1.4 0,-0.7 -0.2,-1.2 -0.6,-1.6 -0.4,-0.3 -0.9,-0.5 -1.6,-0.5 -0.7,0 -1.4,0.2 -2,0.5 -0.7,0.3 -1.3,0.8 -2,1.4 l -2.1,-2.4 c 0.9,-0.7 1.6,-1.3 2.2,-1.6 0.6,-0.3 1.2,-0.5 1.9,-0.7 0.7,-0.2 1.4,-0.3 2.3,-0.3 1.1,0 2.1,0.2 3,0.6 0.9,0.4 1.5,1 2,1.7 0.5,0.7 0.7,1.6 0.7,2.5 0,0.8 -0.1,1.6 -0.4,2.3 -0.3,0.7 -0.7,1.5 -1.3,2.2 -0.6,0.8 -1.7,1.8 -3.2,3.2 l -2.3,2.2 0,0.2 7.8,0 0,3.1 z"
         id="path63" />
      <path
         d="m 786.5,760.8 c 0,3.1 -0.5,5.4 -1.5,6.9 -1,1.5 -2.6,2.2 -4.7,2.2 -2.1,0 -3.6,-0.8 -4.7,-2.3 -1.1,-1.5 -1.6,-3.8 -1.6,-6.8 0,-3.1 0.5,-5.5 1.5,-7 1,-1.5 2.6,-2.2 4.7,-2.2 2.1,0 3.6,0.8 4.7,2.3 1.1,1.5 1.6,3.9 1.6,6.9 m -8.7,0 c 0,2.2 0.2,3.8 0.6,4.7 0.4,0.9 1,1.4 1.9,1.4 0.9,0 1.5,-0.5 1.9,-1.4 0.4,-1 0.6,-2.5 0.6,-4.7 0,-2.2 -0.2,-3.8 -0.6,-4.7 -0.4,-1 -1,-1.4 -1.9,-1.4 -0.9,0 -1.5,0.5 -1.9,1.4 -0.4,1 -0.6,2.5 -0.6,4.7"
         id="path65" />
      <path
         d="m 769.3,820.2 -3.8,0 0,-10.3 0,-1.7 0.1,-1.9 c -0.6,0.6 -1.1,1 -1.3,1.2 l -2.1,1.6 -1.8,-2.3 5.8,-4.6 3.1,0 0,18"
         id="path67" />
      <path
         d="m 774,812.7 c 0,-3.5 0.7,-6.2 2.2,-7.9 1.5,-1.7 3.7,-2.6 6.7,-2.6 1,0 1.8,0.1 2.4,0.2 l 0,3 c -0.7,-0.2 -1.4,-0.2 -2.1,-0.2 -1.3,0 -2.3,0.2 -3.2,0.6 -0.8,0.4 -1.4,1 -1.8,1.7 -0.4,0.8 -0.6,1.9 -0.7,3.3 l 0.2,0 c 0.8,-1.4 2.1,-2.1 3.9,-2.1 1.6,0 2.8,0.5 3.7,1.5 0.9,1 1.4,2.4 1.4,4.2 0,1.9 -0.5,3.4 -1.6,4.5 -1.1,1.1 -2.6,1.7 -4.5,1.7 -1.3,0 -2.5,-0.3 -3.4,-0.9 -1,-0.6 -1.7,-1.5 -2.3,-2.7 -0.6,-1.3 -0.9,-2.7 -0.9,-4.3 m 6.5,4.8 c 0.8,0 1.4,-0.3 1.9,-0.8 0.4,-0.5 0.6,-1.3 0.6,-2.3 0,-0.9 -0.2,-1.6 -0.6,-2.1 -0.4,-0.5 -1,-0.8 -1.8,-0.8 -0.8,0 -1.4,0.2 -2,0.7 -0.5,0.5 -0.8,1.1 -0.8,1.7 0,1 0.3,1.8 0.8,2.5 0.4,0.7 1.1,1.1 1.9,1.1"
         id="path69" />
      <path
         d="m 769.3,869.8 -3.8,0 0,-10.3 0,-1.7 0.1,-1.9 c -0.6,0.6 -1.1,1 -1.3,1.2 l -2.1,1.6 -1.8,-2.3 5.8,-4.6 3.1,0 0,18"
         id="path71" />
      <path
         d="m 786.5,860.9 c 0,3.1 -0.5,5.4 -1.5,6.9 -1,1.5 -2.6,2.2 -4.7,2.2 -2.1,0 -3.6,-0.8 -4.7,-2.3 -1.1,-1.5 -1.6,-3.8 -1.6,-6.8 0,-3.1 0.5,-5.5 1.5,-7 1,-1.5 2.6,-2.2 4.7,-2.2 2.1,0 3.6,0.8 4.7,2.3 1.1,1.5 1.6,3.9 1.6,6.9 m -8.7,0 c 0,2.2 0.2,3.8 0.6,4.7 0.4,0.9 1,1.4 1.9,1.4 0.9,0 1.5,-0.5 1.9,-1.4 0.4,-1 0.6,-2.5 0.6,-4.7 0,-2.2 -0.2,-3.8 -0.6,-4.7 -0.4,-1 -1,-1.4 -1.9,-1.4 -0.9,0 -1.5,0.5 -1.9,1.4 -0.4,1 -0.6,2.5 -0.6,4.7"
         id="path73" />
    </g>
    <g
       id="g75">
      <path
         d="m 766.5,917.1 c 1.7,0 3.1,0.5 4.1,1.5 1,1 1.5,2.3 1.5,4 0,2 -0.6,3.5 -1.8,4.6 -1.2,1.1 -3,1.6 -5.3,1.6 -2,0 -3.6,-0.3 -4.8,-1 l 0,-3.3 c 0.6,0.3 1.4,0.6 2.2,0.8 0.9,0.2 1.7,0.3 2.4,0.3 2.3,0 3.5,-0.9 3.5,-2.8 0,-1.8 -1.2,-2.7 -3.6,-2.7 -0.4,0 -0.9,0 -1.4,0.1 -0.5,0.1 -0.9,0.2 -1.3,0.3 l -1.5,-0.8 0.7,-9.1 9.7,0 0,3.2 -6.4,0 -0.3,3.5 0.4,-0.1 c 0.5,0 1.1,-0.1 1.9,-0.1"
         id="path77"
         style="fill:#124c59" />
    </g>
    <g
       id="g79">
      <path
         d="m 769.3,1043.7 -3.8,0 0,-10.3 0,-1.7 0.1,-1.9 c -0.6,0.6 -1.1,1 -1.3,1.2 l -2.1,1.6 -1.8,-2.3 5.8,-4.6 3.1,0 0,18"
         id="path81"
         style="fill:#124c59" />
    </g>
  </g>
  <g
     id="ScoresLeft">
    <g
       id="g84"
       style="fill:#124c59">
      <path
         d="m 98.9,73.8 c 0,3.5 -0.7,6.1 -2.2,7.9 -1.5,1.7 -3.7,2.6 -6.7,2.6 -1.1,0 -1.9,-0.1 -2.4,-0.2 l 0,-3 c 0.7,0.2 1.4,0.3 2.1,0.3 1.3,0 2.3,-0.2 3.1,-0.6 0.8,-0.4 1.4,-1 1.9,-1.7 0.4,-0.8 0.7,-1.9 0.7,-3.3 l -0.1,0 c -0.5,0.8 -1,1.3 -1.6,1.6 -0.6,0.3 -1.4,0.5 -2.3,0.5 -1.6,0 -2.8,-0.5 -3.7,-1.5 -0.9,-1 -1.3,-2.4 -1.3,-4.2 0,-1.9 0.5,-3.4 1.6,-4.5 1.1,-1.1 2.6,-1.7 4.4,-1.7 1.3,0 2.5,0.3 3.5,0.9 1,0.6 1.7,1.5 2.3,2.7 0.4,1.2 0.7,2.6 0.7,4.2 M 92.4,69 c -0.8,0 -1.4,0.3 -1.8,0.8 -0.4,0.5 -0.7,1.3 -0.7,2.3 0,0.9 0.2,1.5 0.6,2.1 0.4,0.5 1,0.8 1.8,0.8 0.8,0 1.4,-0.3 2,-0.8 0.5,-0.5 0.8,-1.1 0.8,-1.7 0,-1 -0.3,-1.8 -0.8,-2.5 -0.4,-0.6 -1.1,-1 -1.9,-1"
         id="path86" />
      <path
         d="m 113.1,73.8 c 0,3.5 -0.7,6.1 -2.2,7.9 -1.5,1.8 -3.7,2.6 -6.7,2.6 -1.1,0 -1.9,-0.1 -2.4,-0.2 l 0,-3 c 0.7,0.2 1.4,0.3 2.1,0.3 1.3,0 2.3,-0.2 3.1,-0.6 0.8,-0.4 1.4,-1 1.9,-1.7 0.4,-0.8 0.7,-1.9 0.7,-3.3 l -0.1,0 c -0.5,0.8 -1,1.3 -1.6,1.6 -0.6,0.3 -1.4,0.5 -2.3,0.5 -1.6,0 -2.8,-0.5 -3.7,-1.5 -0.9,-1 -1.3,-2.4 -1.3,-4.2 0,-1.9 0.5,-3.4 1.6,-4.5 1.1,-1.1 2.6,-1.7 4.4,-1.7 1.3,0 2.5,0.3 3.5,0.9 1,0.6 1.7,1.5 2.3,2.7 0.4,1.2 0.7,2.6 0.7,4.2 M 106.6,69 c -0.8,0 -1.4,0.3 -1.8,0.8 -0.4,0.5 -0.7,1.3 -0.7,2.3 0,0.9 0.2,1.5 0.6,2.1 0.4,0.5 1,0.8 1.8,0.8 0.8,0 1.4,-0.3 2,-0.8 0.5,-0.5 0.8,-1.1 0.8,-1.7 0,-1 -0.3,-1.8 -0.8,-2.5 -0.5,-0.6 -1.1,-1 -1.9,-1"
         id="path88" />
      <path
         d="m 98.9,221.7 c 0,3.5 -0.7,6.1 -2.2,7.9 -1.5,1.7 -3.7,2.6 -6.7,2.6 -1.1,0 -1.9,-0.1 -2.4,-0.2 l 0,-3 c 0.7,0.2 1.4,0.3 2.1,0.3 1.3,0 2.3,-0.2 3.1,-0.6 0.8,-0.4 1.4,-1 1.9,-1.7 0.4,-0.8 0.7,-1.9 0.7,-3.3 l -0.1,0 c -0.5,0.8 -1,1.3 -1.6,1.6 -0.6,0.3 -1.4,0.5 -2.3,0.5 -1.6,0 -2.8,-0.5 -3.7,-1.5 -0.9,-1 -1.3,-2.4 -1.3,-4.2 0,-1.9 0.5,-3.4 1.6,-4.5 1.1,-1.1 2.6,-1.7 4.4,-1.7 1.3,0 2.5,0.3 3.5,0.9 1,0.6 1.7,1.5 2.3,2.7 0.4,1.2 0.7,2.6 0.7,4.2 m -6.5,-4.8 c -0.8,0 -1.4,0.3 -1.8,0.8 -0.4,0.5 -0.7,1.3 -0.7,2.3 0,0.9 0.2,1.5 0.6,2.1 0.4,0.5 1,0.8 1.8,0.8 0.8,0 1.4,-0.3 2,-0.8 0.5,-0.5 0.8,-1.1 0.8,-1.7 0,-1 -0.3,-1.8 -0.8,-2.5 -0.4,-0.6 -1.1,-1 -1.9,-1"
         id="path90" />
      <path
         d="m 107.2,220.6 c 1.7,0 3.1,0.5 4.1,1.5 1,1 1.5,2.3 1.5,4 0,2 -0.6,3.5 -1.8,4.6 -1.2,1.1 -3,1.6 -5.3,1.6 -2,0 -3.6,-0.3 -4.8,-1 l 0,-3.3 c 0.6,0.3 1.4,0.6 2.2,0.8 0.9,0.2 1.7,0.3 2.4,0.3 2.3,0 3.5,-0.9 3.5,-2.8 0,-1.8 -1.2,-2.7 -3.6,-2.7 -0.4,0 -0.9,0 -1.4,0.1 -0.5,0.1 -0.9,0.2 -1.3,0.3 l -1.5,-0.8 0.7,-9.1 9.7,0 0,3.2 -6.4,0 -0.3,3.5 0.4,-0.1 c 0.5,-0.1 1.1,-0.1 1.9,-0.1"
         id="path92" />
      <path
         d="m 98.9,310.9 c 0,3.5 -0.7,6.1 -2.2,7.9 -1.5,1.7 -3.7,2.6 -6.7,2.6 -1.1,0 -1.9,-0.1 -2.4,-0.2 l 0,-3 c 0.7,0.2 1.4,0.3 2.1,0.3 1.3,0 2.3,-0.2 3.1,-0.6 0.8,-0.4 1.4,-1 1.9,-1.7 0.4,-0.8 0.7,-1.9 0.7,-3.3 l -0.1,0 c -0.5,0.8 -1,1.3 -1.6,1.6 -0.6,0.3 -1.4,0.5 -2.3,0.5 -1.6,0 -2.8,-0.5 -3.7,-1.5 -0.9,-1 -1.3,-2.4 -1.3,-4.2 0,-1.9 0.5,-3.4 1.6,-4.5 1.1,-1.1 2.6,-1.7 4.4,-1.7 1.3,0 2.5,0.3 3.5,0.9 1,0.6 1.7,1.5 2.3,2.7 0.4,1.2 0.7,2.6 0.7,4.2 m -6.5,-4.8 c -0.8,0 -1.4,0.3 -1.8,0.8 -0.4,0.5 -0.7,1.3 -0.7,2.3 0,0.9 0.2,1.5 0.6,2.1 0.4,0.5 1,0.8 1.8,0.8 0.8,0 1.4,-0.3 2,-0.8 0.5,-0.5 0.8,-1.1 0.8,-1.7 0,-1 -0.3,-1.8 -0.8,-2.5 -0.4,-0.7 -1.1,-1 -1.9,-1"
         id="path94" />
      <path
         d="m 113,312.2 c 0,3.1 -0.5,5.4 -1.5,6.9 -1,1.5 -2.6,2.2 -4.7,2.2 -2.1,0 -3.6,-0.8 -4.7,-2.3 -1,-1.5 -1.6,-3.8 -1.6,-6.8 0,-3.1 0.5,-5.5 1.5,-7 1,-1.5 2.6,-2.2 4.7,-2.2 2.1,0 3.6,0.8 4.7,2.3 1.1,1.6 1.6,3.9 1.6,6.9 m -8.7,0 c 0,2.2 0.2,3.8 0.6,4.7 0.4,0.9 1,1.4 1.9,1.4 0.9,0 1.5,-0.5 1.9,-1.4 0.4,-1 0.6,-2.5 0.6,-4.7 0,-2.2 -0.2,-3.8 -0.6,-4.7 -0.4,-1 -1,-1.4 -1.9,-1.4 -0.9,0 -1.5,0.5 -1.9,1.4 -0.4,0.9 -0.6,2.5 -0.6,4.7"
         id="path96" />
      <path
         d="m 92.6,356.9 c 1.7,0 3.1,0.4 4.1,1.2 1,0.8 1.6,1.8 1.6,3.1 0,0.9 -0.3,1.7 -0.8,2.4 -0.5,0.7 -1.3,1.3 -2.4,1.9 1.3,0.7 2.3,1.5 2.9,2.2 0.6,0.8 0.9,1.6 0.9,2.6 0,1.5 -0.6,2.6 -1.7,3.5 -1.1,0.9 -2.7,1.3 -4.5,1.3 -2,0 -3.5,-0.4 -4.6,-1.2 -1.1,-0.8 -1.7,-2 -1.7,-3.5 0,-1 0.3,-1.9 0.8,-2.7 0.5,-0.8 1.4,-1.5 2.6,-2.1 -1,-0.6 -1.8,-1.3 -2.2,-2.1 -0.4,-0.7 -0.7,-1.5 -0.7,-2.4 0,-1.3 0.5,-2.3 1.6,-3.1 1,-0.7 2.4,-1.1 4.1,-1.1 m -2.8,13.4 c 0,0.7 0.2,1.2 0.7,1.6 0.5,0.4 1.2,0.6 2,0.6 0.9,0 1.6,-0.2 2.1,-0.6 0.5,-0.4 0.7,-0.9 0.7,-1.6 0,-0.5 -0.2,-1.1 -0.7,-1.5 -0.5,-0.5 -1.2,-1 -2.2,-1.5 -1.7,0.7 -2.6,1.7 -2.6,3 m 2.8,-10.6 c -0.6,0 -1.2,0.2 -1.6,0.5 -0.4,0.3 -0.6,0.8 -0.6,1.3 0,0.5 0.2,0.9 0.5,1.3 0.3,0.4 0.9,0.8 1.7,1.2 0.8,-0.4 1.4,-0.8 1.7,-1.1 0.3,-0.3 0.5,-0.8 0.5,-1.4 0,-0.6 -0.2,-1 -0.6,-1.3 -0.4,-0.4 -1,-0.5 -1.6,-0.5"
         id="path98" />
      <path
         d="m 113.5,371.3 -2.1,0 0,3.7 -3.7,0 0,-3.7 -7.6,0 0,-2.6 7.8,-11.5 3.5,0 0,11.2 2.1,0 0,2.9 m -5.8,-2.9 0,-3 c 0,-0.5 0,-1.2 0.1,-2.2 0,-1 0.1,-1.5 0.1,-1.7 l -0.1,0 c -0.3,0.7 -0.7,1.3 -1.1,2 l -3.3,4.9 4.3,0"
         id="path100" />
      <path
         d="m 92.6,401.8 c 1.7,0 3.1,0.4 4.1,1.2 1,0.8 1.6,1.8 1.6,3.1 0,0.9 -0.3,1.7 -0.8,2.4 -0.5,0.7 -1.3,1.3 -2.4,1.9 1.3,0.7 2.3,1.5 2.9,2.2 0.6,0.8 0.9,1.6 0.9,2.6 0,1.5 -0.6,2.6 -1.7,3.5 -1.1,0.9 -2.7,1.3 -4.5,1.3 -2,0 -3.5,-0.4 -4.6,-1.2 -1.1,-0.8 -1.7,-2 -1.7,-3.5 0,-1 0.3,-1.9 0.8,-2.7 0.5,-0.8 1.4,-1.5 2.6,-2.1 -1,-0.6 -1.8,-1.3 -2.2,-2.1 -0.4,-0.7 -0.7,-1.5 -0.7,-2.4 0,-1.3 0.5,-2.3 1.6,-3.1 1,-0.7 2.4,-1.1 4.1,-1.1 m -2.8,13.3 c 0,0.7 0.2,1.2 0.7,1.6 0.5,0.4 1.2,0.6 2,0.6 0.9,0 1.6,-0.2 2.1,-0.6 0.5,-0.4 0.7,-0.9 0.7,-1.6 0,-0.5 -0.2,-1.1 -0.7,-1.5 -0.5,-0.5 -1.2,-1 -2.2,-1.5 -1.7,0.8 -2.6,1.8 -2.6,3 m 2.8,-10.5 c -0.6,0 -1.2,0.2 -1.6,0.5 -0.4,0.3 -0.6,0.8 -0.6,1.3 0,0.5 0.2,0.9 0.5,1.3 0.3,0.4 0.9,0.8 1.7,1.2 0.8,-0.4 1.4,-0.8 1.7,-1.1 0.3,-0.3 0.5,-0.8 0.5,-1.4 0,-0.6 -0.2,-1 -0.6,-1.3 -0.4,-0.4 -1,-0.5 -1.6,-0.5"
         id="path102" />
      <path
         d="m 113,411 c 0,3.1 -0.5,5.4 -1.5,6.9 -1,1.5 -2.6,2.2 -4.7,2.2 -2.1,0 -3.6,-0.8 -4.7,-2.3 -1,-1.5 -1.6,-3.8 -1.6,-6.8 0,-3.1 0.5,-5.5 1.5,-7 1,-1.5 2.6,-2.2 4.7,-2.2 2.1,0 3.6,0.8 4.7,2.3 1.1,1.6 1.6,3.8 1.6,6.9 m -8.7,0 c 0,2.2 0.2,3.8 0.6,4.7 0.4,0.9 1,1.4 1.9,1.4 0.9,0 1.5,-0.5 1.9,-1.4 0.4,-1 0.6,-2.5 0.6,-4.7 0,-2.2 -0.2,-3.8 -0.6,-4.7 -0.4,-1 -1,-1.4 -1.9,-1.4 -0.9,0 -1.5,0.5 -1.9,1.4 -0.4,0.9 -0.6,2.5 -0.6,4.7"
         id="path104" />
      <path
         d="m 88.2,466.5 6.7,-14.6 h -8.8 v -3.2 h 12.8 v 2.4 l -6.8,15.5 h -3.9 z"
         id="path106" />
      <path
         d="m 113,457.6 c 0,3.1 -0.5,5.4 -1.5,6.9 -1,1.5 -2.6,2.2 -4.7,2.2 -2.1,0 -3.6,-0.8 -4.7,-2.3 -1,-1.5 -1.6,-3.8 -1.6,-6.8 0,-3.1 0.5,-5.5 1.5,-7 1,-1.5 2.6,-2.2 4.7,-2.2 2.1,0 3.6,0.8 4.7,2.3 1.1,1.6 1.6,3.8 1.6,6.9 m -8.7,0 c 0,2.2 0.2,3.8 0.6,4.7 0.4,0.9 1,1.4 1.9,1.4 0.9,0 1.5,-0.5 1.9,-1.4 0.4,-1 0.6,-2.5 0.6,-4.7 0,-2.2 -0.2,-3.8 -0.6,-4.7 -0.4,-1 -1,-1.4 -1.9,-1.4 -0.9,0 -1.5,0.5 -1.9,1.4 -0.4,0.9 -0.6,2.5 -0.6,4.7"
         id="path108" />
      <path
         d="m 86.3,527.8 c 0,-3.5 0.7,-6.2 2.2,-7.9 1.5,-1.7 3.7,-2.6 6.7,-2.6 1,0 1.8,0.1 2.4,0.2 l 0,3 c -0.7,-0.2 -1.4,-0.2 -2.1,-0.2 -1.3,0 -2.3,0.2 -3.2,0.6 -0.8,0.4 -1.4,1 -1.8,1.7 -0.4,0.8 -0.6,1.9 -0.7,3.3 l 0.2,0 c 0.8,-1.4 2.1,-2.1 3.9,-2.1 1.6,0 2.8,0.5 3.7,1.5 0.9,1 1.4,2.4 1.4,4.2 0,1.9 -0.5,3.4 -1.6,4.5 -1.1,1.1 -2.6,1.7 -4.5,1.7 -1.3,0 -2.5,-0.3 -3.4,-0.9 -1,-0.6 -1.7,-1.5 -2.3,-2.7 -0.6,-1.2 -0.9,-2.6 -0.9,-4.3 m 6.5,4.8 c 0.8,0 1.4,-0.3 1.9,-0.8 0.4,-0.5 0.6,-1.3 0.6,-2.3 0,-0.9 -0.2,-1.6 -0.6,-2.1 -0.4,-0.5 -1,-0.8 -1.8,-0.8 -0.8,0 -1.4,0.2 -2,0.7 -0.5,0.5 -0.8,1.1 -0.8,1.7 0,1 0.3,1.8 0.8,2.5 0.5,0.8 1.1,1.1 1.9,1.1"
         id="path110" />
      <path
         d="m 113,526.5 c 0,3.1 -0.5,5.4 -1.5,6.9 -1,1.5 -2.6,2.2 -4.7,2.2 -2.1,0 -3.6,-0.8 -4.7,-2.3 -1,-1.5 -1.6,-3.8 -1.6,-6.8 0,-3.1 0.5,-5.5 1.5,-7 1,-1.5 2.6,-2.2 4.7,-2.2 2.1,0 3.6,0.8 4.7,2.3 1.1,1.6 1.6,3.9 1.6,6.9 m -8.7,0 c 0,2.2 0.2,3.8 0.6,4.7 0.4,0.9 1,1.4 1.9,1.4 0.9,0 1.5,-0.5 1.9,-1.4 0.4,-1 0.6,-2.5 0.6,-4.7 0,-2.2 -0.2,-3.8 -0.6,-4.7 -0.4,-1 -1,-1.4 -1.9,-1.4 -0.9,0 -1.5,0.5 -1.9,1.4 -0.4,0.9 -0.6,2.5 -0.6,4.7"
         id="path112" />
      <path
         d="m 93,575.9 c 1.7,0 3.1,0.5 4.1,1.5 1,1 1.5,2.3 1.5,4 0,2 -0.6,3.5 -1.8,4.6 -1.2,1.1 -3,1.6 -5.3,1.6 -2,0 -3.6,-0.3 -4.8,-1 l 0,-3.3 c 0.6,0.3 1.4,0.6 2.2,0.8 0.9,0.2 1.7,0.3 2.4,0.3 2.3,0 3.5,-0.9 3.5,-2.8 0,-1.8 -1.2,-2.7 -3.6,-2.7 -0.4,0 -0.9,0 -1.4,0.1 -0.5,0.1 -0.9,0.2 -1.3,0.3 l -1.5,-0.8 0.7,-9.1 9.7,0 0,3.2 -6.4,0 -0.3,3.5 0.4,-0.1 c 0.5,-0.1 1.1,-0.1 1.9,-0.1"
         id="path114" />
      <path
         d="m 113,578.3 c 0,3.1 -0.5,5.4 -1.5,6.9 -1,1.5 -2.6,2.2 -4.7,2.2 -2.1,0 -3.6,-0.8 -4.7,-2.3 -1,-1.5 -1.6,-3.8 -1.6,-6.8 0,-3.1 0.5,-5.5 1.5,-7 1,-1.5 2.6,-2.2 4.7,-2.2 2.1,0 3.6,0.8 4.7,2.3 1.1,1.7 1.6,3.9 1.6,6.9 m -8.7,0 c 0,2.2 0.2,3.8 0.6,4.7 0.4,0.9 1,1.4 1.9,1.4 0.9,0 1.5,-0.5 1.9,-1.4 0.4,-1 0.6,-2.5 0.6,-4.7 0,-2.2 -0.2,-3.8 -0.6,-4.7 -0.4,-1 -1,-1.4 -1.9,-1.4 -0.9,0 -1.5,0.5 -1.9,1.4 -0.4,1 -0.6,2.6 -0.6,4.7"
         id="path116" />
      <path
         d="m 99.3,627.4 -2.1,0 0,3.7 -3.7,0 0,-3.7 -7.6,0 0,-2.6 7.8,-11.5 3.5,0 0,11.2 2.1,0 0,2.9 m -5.8,-2.9 0,-3 c 0,-0.5 0,-1.2 0.1,-2.2 0,-1 0.1,-1.5 0.1,-1.7 l -0.1,0 c -0.3,0.7 -0.7,1.3 -1.1,2 l -3.3,4.9 4.3,0"
         id="path118" />
      <path
         d="m 113,622.2 c 0,3.1 -0.5,5.4 -1.5,6.9 -1,1.5 -2.6,2.2 -4.7,2.2 -2.1,0 -3.6,-0.8 -4.7,-2.3 -1,-1.5 -1.6,-3.8 -1.6,-6.8 0,-3.1 0.5,-5.5 1.5,-7 1,-1.5 2.6,-2.2 4.7,-2.2 2.1,0 3.6,0.8 4.7,2.3 1.1,1.6 1.6,3.9 1.6,6.9 m -8.7,0 c 0,2.2 0.2,3.8 0.6,4.7 0.4,0.9 1,1.4 1.9,1.4 0.9,0 1.5,-0.5 1.9,-1.4 0.4,-1 0.6,-2.5 0.6,-4.7 0,-2.2 -0.2,-3.8 -0.6,-4.7 -0.4,-1 -1,-1.4 -1.9,-1.4 -0.9,0 -1.5,0.5 -1.9,1.4 -0.4,1 -0.6,2.5 -0.6,4.7"
         id="path120" />
      <path
         d="m 98.2,691.9 c 0,1.1 -0.3,2.1 -1,2.8 -0.7,0.8 -1.6,1.3 -2.8,1.6 l 0,0.1 c 1.4,0.2 2.5,0.6 3.3,1.3 0.7,0.7 1.1,1.6 1.1,2.8 0,1.7 -0.6,3.1 -1.9,4 -1.2,1 -3,1.4 -5.3,1.4 -1.9,0 -3.7,-0.3 -5.2,-1 l 0,-3.2 c 0.7,0.3 1.5,0.6 2.3,0.9 0.8,0.3 1.7,0.3 2.5,0.3 1.2,0 2.2,-0.2 2.8,-0.6 0.6,-0.4 0.9,-1.1 0.9,-2 0,-0.8 -0.3,-1.4 -1,-1.8 -0.7,-0.4 -1.8,-0.5 -3.3,-0.5 l -1.4,0 0,-2.9 1.4,0 c 1.4,0 2.4,-0.2 3,-0.5 0.6,-0.3 1,-1 1,-1.9 0,-1.4 -0.8,-2 -2.5,-2 -0.6,0 -1.2,0.1 -1.8,0.3 -0.6,0.2 -1.3,0.5 -2,1 l -1.7,-2.6 c 1.6,-1.2 3.6,-1.8 5.8,-1.8 1.8,0 3.3,0.4 4.4,1.1 0.9,0.9 1.4,1.9 1.4,3.2"
         id="path122" />
      <path
         d="m 113,696.9 c 0,3.1 -0.5,5.4 -1.5,6.9 -1,1.5 -2.6,2.2 -4.7,2.2 -2.1,0 -3.6,-0.8 -4.7,-2.3 -1,-1.5 -1.6,-3.8 -1.6,-6.8 0,-3.1 0.5,-5.5 1.5,-7 1,-1.5 2.6,-2.2 4.7,-2.2 2.1,0 3.6,0.8 4.7,2.3 1.1,1.6 1.6,3.9 1.6,6.9 m -8.7,0 c 0,2.2 0.2,3.8 0.6,4.7 0.4,0.9 1,1.4 1.9,1.4 0.9,0 1.5,-0.5 1.9,-1.4 0.4,-1 0.6,-2.5 0.6,-4.7 0,-2.2 -0.2,-3.8 -0.6,-4.7 -0.4,-1 -1,-1.4 -1.9,-1.4 -0.9,0 -1.5,0.5 -1.9,1.4 -0.4,0.9 -0.6,2.5 -0.6,4.7"
         id="path124" />
      <path
         d="m 98.9,769.8 -12.4,0 0,-2.6 4.5,-4.5 c 1.3,-1.4 2.2,-2.3 2.6,-2.8 0.4,-0.5 0.7,-1 0.9,-1.5 0.2,-0.4 0.3,-0.9 0.3,-1.4 0,-0.7 -0.2,-1.2 -0.6,-1.6 -0.4,-0.3 -0.9,-0.5 -1.6,-0.5 -0.7,0 -1.4,0.2 -2,0.5 -0.6,0.3 -1.3,0.8 -2,1.4 l -2.1,-2.4 c 0.9,-0.7 1.6,-1.3 2.2,-1.6 0.6,-0.3 1.2,-0.5 1.9,-0.7 0.7,-0.2 1.4,-0.3 2.3,-0.3 1.1,0 2.1,0.2 3,0.6 0.9,0.4 1.5,1 2,1.7 0.5,0.7 0.7,1.6 0.7,2.5 0,0.8 -0.1,1.6 -0.4,2.3 -0.3,0.7 -0.7,1.5 -1.3,2.2 -0.6,0.8 -1.7,1.8 -3.2,3.2 l -2.3,2.2 0,0.2 7.8,0 0,3.1 z"
         id="path126" />
      <path
         d="m 113,760.8 c 0,3.1 -0.5,5.4 -1.5,6.9 -1,1.5 -2.6,2.2 -4.7,2.2 -2.1,0 -3.6,-0.8 -4.7,-2.3 -1,-1.5 -1.6,-3.8 -1.6,-6.8 0,-3.1 0.5,-5.5 1.5,-7 1,-1.5 2.6,-2.2 4.7,-2.2 2.1,0 3.6,0.8 4.7,2.3 1.1,1.7 1.6,3.9 1.6,6.9 m -8.7,0 c 0,2.2 0.2,3.8 0.6,4.7 0.4,0.9 1,1.4 1.9,1.4 0.9,0 1.5,-0.5 1.9,-1.4 0.4,-1 0.6,-2.5 0.6,-4.7 0,-2.2 -0.2,-3.8 -0.6,-4.7 -0.4,-1 -1,-1.4 -1.9,-1.4 -0.9,0 -1.5,0.5 -1.9,1.4 -0.4,1 -0.6,2.6 -0.6,4.7"
         id="path128" />
      <path
         d="M 95.8,820.3 H 92 V 810 l 0,-1.7 0.1,-1.9 c -0.6,0.6 -1.1,1 -1.3,1.2 l -2.1,1.6 -1.8,-2.3 5.8,-4.6 h 3.1 v 18 z"
         id="path130" />
      <path
         d="m 100.5,812.7 c 0,-3.5 0.7,-6.2 2.2,-7.9 1.5,-1.7 3.7,-2.6 6.7,-2.6 1,0 1.8,0.1 2.4,0.2 l 0,3 c -0.7,-0.2 -1.4,-0.2 -2.1,-0.2 -1.3,0 -2.4,0.2 -3.2,0.6 -0.8,0.4 -1.4,1 -1.8,1.7 -0.4,0.8 -0.6,1.9 -0.7,3.3 l 0.2,0 c 0.8,-1.4 2.1,-2.1 3.9,-2.1 1.6,0 2.8,0.5 3.7,1.5 0.9,1 1.4,2.4 1.4,4.2 0,1.9 -0.5,3.4 -1.6,4.5 -1.1,1.1 -2.6,1.7 -4.5,1.7 -1.3,0 -2.5,-0.3 -3.4,-0.9 -1,-0.6 -1.7,-1.5 -2.3,-2.7 -0.6,-1.2 -0.9,-2.7 -0.9,-4.3 m 6.5,4.8 c 0.8,0 1.4,-0.3 1.9,-0.8 0.4,-0.5 0.6,-1.3 0.6,-2.3 0,-0.9 -0.2,-1.6 -0.6,-2.1 -0.4,-0.5 -1,-0.8 -1.8,-0.8 -0.8,0 -1.4,0.2 -2,0.7 -0.6,0.5 -0.8,1.1 -0.8,1.7 0,1 0.3,1.8 0.8,2.5 0.5,0.8 1.1,1.1 1.9,1.1"
         id="path132" />
      <path
         d="m 95.8,869.9 -3.8,0 0,-10.3 0,-1.7 0.1,-1.9 c -0.6,0.6 -1.1,1 -1.3,1.2 l -2.1,1.6 -1.8,-2.3 5.8,-4.6 3.1,0 0,18"
         id="path134" />
      <path
         d="m 113,861 c 0,3.1 -0.5,5.4 -1.5,6.9 -1,1.5 -2.6,2.2 -4.7,2.2 -2.1,0 -3.6,-0.8 -4.7,-2.3 -1,-1.5 -1.6,-3.8 -1.6,-6.8 0,-3.1 0.5,-5.5 1.5,-7 1,-1.5 2.6,-2.2 4.7,-2.2 2.1,0 3.6,0.8 4.7,2.3 1.1,1.6 1.6,3.9 1.6,6.9 m -8.7,0 c 0,2.2 0.2,3.8 0.6,4.7 0.4,0.9 1,1.4 1.9,1.4 0.9,0 1.5,-0.5 1.9,-1.4 0.4,-1 0.6,-2.5 0.6,-4.7 0,-2.2 -0.2,-3.8 -0.6,-4.7 -0.4,-1 -1,-1.4 -1.9,-1.4 -0.9,0 -1.5,0.5 -1.9,1.4 -0.4,0.9 -0.6,2.5 -0.6,4.7"
         id="path136" />
    </g>
    <g
       id="g138">
      <path
         d="m 107.2,917.1 c 1.7,0 3.1,0.5 4.1,1.5 1,1 1.5,2.3 1.5,4 0,2 -0.6,3.5 -1.8,4.6 -1.2,1.1 -3,1.6 -5.3,1.6 -2,0 -3.6,-0.3 -4.8,-1 l 0,-3.3 c 0.6,0.3 1.4,0.6 2.2,0.8 0.9,0.2 1.7,0.3 2.4,0.3 2.3,0 3.5,-0.9 3.5,-2.8 0,-1.8 -1.2,-2.7 -3.6,-2.7 -0.4,0 -0.9,0 -1.4,0.1 -0.5,0.1 -0.9,0.2 -1.3,0.3 l -1.5,-0.8 0.7,-9.1 9.7,0 0,3.2 -6.4,0 -0.3,3.5 0.4,-0.1 c 0.5,0 1.1,-0.1 1.9,-0.1"
         id="path140"
         style="fill:#124c59" />
    </g>
    <g
       id="g142">
      <path
         d="m 110,1043.7 -3.8,0 0,-10.3 0,-1.7 0.1,-1.9 c -0.6,0.6 -1.1,1 -1.3,1.2 l -2.1,1.6 -1.8,-2.3 5.7,-4.6 3.1,0 0,18 z"
         id="path144"
         style="fill:#124c59" />
    </g>
  </g>
  <path
     d="m 210.76507,1091.9751 c 0,3.4 -1.1,6.1 -3.4,7.9 -2.3,1.8 -5.4,2.7 -9.6,2.7 l -3.4,0 0,12.3 -5.4,0 0,-32.8 9.5,0 c 4.1,0 7.2,0.8 9.2,2.5 2.1,1.7 3.1,4.2 3.1,7.4 m -16.3,6.1 2.9,0 c 2.8,0 4.8,-0.5 6.1,-1.4 1.3,-0.9 1.9,-2.5 1.9,-4.5 0,-1.9 -0.6,-3.3 -1.7,-4.2 -1.1,-0.9 -3,-1.4 -5.4,-1.4 l -3.7,0 0,11.5 z"
     id="path148"
     style="fill:#2290ba" />
  <path
     d="m 223.96507,1101.7751 0,13.1 -5.4,0 0,-32.8 9.3,0 c 4.2,0 7.4,0.8 9.4,2.4 2,1.6 3.1,4 3.1,7.2 0,4.1 -2.1,7 -6.4,8.7 l 9.3,14.5 -6.1,0 -7.9,-13.1 -5.3,0 m 0,-4.4 3.7,0 c 2.5,0 4.3,-0.5 5.4,-1.4 1.1,-0.9 1.7,-2.3 1.7,-4.1 0,-1.9 -0.6,-3.2 -1.8,-4 -1.2,-0.8 -3,-1.2 -5.5,-1.2 l -3.5,0 0,10.7"
     id="path186"
     style="fill:#2290ba" />
  <path
     d="m 276.26507,1098.4751 c 0,5.3 -1.3,9.5 -4,12.5 -2.7,3 -6.5,4.4 -11.4,4.4 -5,0 -8.8,-1.5 -11.4,-4.4 -2.7,-2.9 -4,-7.1 -4,-12.5 0,-5.4 1.3,-9.6 4,-12.5 2.7,-2.9 6.5,-4.4 11.4,-4.4 4.9,0 8.7,1.5 11.3,4.4 2.6,2.9 4.1,7.1 4.1,12.5 m -25.1,0 c 0,4 0.8,7.1 2.4,9.2 1.6,2.1 4.1,3.1 7.3,3.1 3.2,0 5.6,-1 7.2,-3.1 1.6,-2.1 2.4,-5.1 2.4,-9.2 0,-4 -0.8,-7.1 -2.4,-9.2 -1.6,-2.1 -4,-3.1 -7.2,-3.1 -3.2,0 -5.6,1 -7.3,3.1 -1.6,2.1 -2.4,5.1 -2.4,9.2"
     id="path188"
     style="fill:#2290ba" />
  <path
     d="m 282.36507,1082.0751 9.7,0 c 4.5,0 7.8,0.7 9.8,2 2,1.3 3,3.4 3,6.2 0,1.9 -0.5,3.5 -1.5,4.8 -1,1.3 -2.4,2.1 -4.3,2.4 l 0,0.2 c 2.3,0.4 4,1.3 5.1,2.6 1.1,1.3 1.6,3 1.6,5.2 0,3 -1,5.3 -3.1,6.9 -2.1,1.7 -4.9,2.5 -8.6,2.5 l -11.9,0 0,-32.8 z m 5.4,13.6 5.2,0 c 2.2,0 3.9,-0.4 4.9,-1.1 1,-0.7 1.5,-1.9 1.5,-3.6 0,-1.5 -0.6,-2.7 -1.7,-3.3 -1.1,-0.7 -2.9,-1 -5.3,-1 l -4.6,0 0,9 m 0,4.3 0,10.4 5.7,0 c 2.2,0 3.9,-0.4 5.1,-1.3 1.1,-0.9 1.7,-2.2 1.7,-4.1 0,-1.7 -0.6,-3 -1.8,-3.8 -1.2,-0.8 -2.9,-1.2 -5.3,-1.2 l -5.4,0"
     id="path190"
     style="fill:#2290ba" />
  <path
     d="m 332.26507,1114.8751 -3.3,-9.1 -12.6,0 -3.2,9.1 -5.7,0 12.3,-33 5.8,0 12.3,33 -5.6,0 m -4.7,-13.7 -3.1,-8.9 c -0.2,-0.6 -0.5,-1.5 -0.9,-2.8 -0.4,-1.3 -0.7,-2.2 -0.8,-2.8 -0.4,1.8 -1,3.9 -1.8,6 l -3,8.6 9.6,0 z"
     id="path192"
     style="fill:#2290ba" />
  <path
     d="m 341.46507,1082.0751 9.7,0 c 4.5,0 7.8,0.7 9.8,2 2,1.3 3,3.4 3,6.2 0,1.9 -0.5,3.5 -1.5,4.8 -1,1.3 -2.4,2.1 -4.3,2.4 l 0,0.2 c 2.3,0.4 4,1.3 5.1,2.6 1.1,1.3 1.6,3 1.6,5.2 0,3 -1,5.3 -3.1,6.9 -2.1,1.7 -4.9,2.5 -8.6,2.5 l -11.9,0 0,-32.8 z m 5.3,13.6 5.2,0 c 2.2,0 3.9,-0.4 4.9,-1.1 1,-0.7 1.5,-1.9 1.5,-3.6 0,-1.5 -0.6,-2.7 -1.7,-3.3 -1.1,-0.7 -2.9,-1 -5.3,-1 l -4.6,0 0,9 m 0,4.3 0,10.4 5.7,0 c 2.2,0 3.9,-0.4 5.1,-1.3 1.1,-0.9 1.7,-2.2 1.7,-4.1 0,-1.7 -0.6,-3 -1.8,-3.8 -1.2,-0.8 -2.9,-1.2 -5.3,-1.2 l -5.4,0"
     id="path194"
     style="fill:#2290ba" />
  <path
     d="m 370.96507,1114.8751 v -32.8 h 5.4 v 28.2 h 13.8 v 4.6 h -19.2 z"
     id="path196"
     style="fill:#2290ba" />
  <path
     d="m 413.56507,1114.8751 h -18.6 v -32.8 h 18.6 v 4.5 h -13.2 v 8.9 h 12.4 v 4.5 h -12.4 v 10.3 h 13.2 v 4.6 z"
     id="path198"
     style="fill:#2290ba" />
  <path
     d="m 449.76507,1105.9751 c 0,2.9 -1.1,5.2 -3.2,6.9 -2.1,1.7 -5,2.5 -8.7,2.5 -3.7,0 -6.8,-0.6 -9.1,-1.7 l 0,-5.1 c 1.5,0.7 3.1,1.3 4.8,1.7 1.7,0.4 3.3,0.6 4.7,0.6 2.1,0 3.7,-0.4 4.7,-1.2 1,-0.8 1.5,-1.9 1.5,-3.3 0,-1.2 -0.5,-2.3 -1.4,-3.1 -0.9,-0.8 -2.8,-1.9 -5.8,-3 -3,-1.2 -5.1,-2.6 -6.3,-4.2 -1.2,-1.6 -1.8,-3.4 -1.8,-5.6 0,-2.7 1,-4.9 2.9,-6.5 1.9,-1.6 4.6,-2.4 7.8,-2.4 3.1,0 6.3,0.7 9.4,2.1 l -1.7,4.4 c -2.9,-1.2 -5.5,-1.8 -7.8,-1.8 -1.7,0 -3.1,0.4 -4,1.1 -0.9,0.8 -1.3,1.8 -1.3,3 0,0.9 0.2,1.6 0.5,2.2 0.4,0.6 1,1.2 1.8,1.7 0.8,0.5 2.3,1.2 4.4,2.1 2.4,1 4.2,1.9 5.3,2.8 1.1,0.9 1.9,1.8 2.5,2.9 0.6,1.1 0.8,2.4 0.8,3.9"
     id="path200"
     style="fill:#2290ba" />
  <path
     d="m 466.66507,1114.8751 h -5.4 v -28.2 h -9.7 v -4.6 h 24.7 v 4.6 h -9.7 v 28.2 z"
     id="path202"
     style="fill:#2290ba" />
  <path
     d="m 485.76507,1101.7751 0,13.1 -5.4,0 0,-32.8 9.3,0 c 4.2,0 7.4,0.8 9.4,2.4 2,1.6 3.1,4 3.1,7.2 0,4.1 -2.1,7 -6.4,8.7 l 9.3,14.5 -6.1,0 -7.9,-13.1 -5.3,0 m 0,-4.4 3.7,0 c 2.5,0 4.3,-0.5 5.4,-1.4 1.1,-0.9 1.7,-2.3 1.7,-4.1 0,-1.9 -0.6,-3.2 -1.8,-4 -1.2,-0.8 -3,-1.2 -5.5,-1.2 l -3.5,0 0,10.7"
     id="path204"
     style="fill:#2290ba" />
  <path
     d="m 527.56507,1114.8751 h -18.6 v -32.8 h 18.6 v 4.5 h -13.2 v 8.9 h 12.4 v 4.5 h -12.4 v 10.3 h 13.2 v 4.6 z"
     id="path206"
     style="fill:#2290ba" />
  <path
     d="m 561.16507,1114.8751 -6.6,0 -16.1,-26.2 -0.3,0 0.1,1.5 c 0.2,2.8 0.3,5.3 0.3,7.6 l 0,17.1 -4.9,0 0,-32.8 6.5,0 16.1,26 0.1,0 c 0,-0.3 -0.1,-1.6 -0.2,-3.8 -0.1,-2.2 -0.1,-3.9 -0.1,-5.1 l 0,-17.2 4.9,0 0,32.9 z"
     id="path208"
     style="fill:#2290ba" />
  <path
     d="m 582.36507,1097.0751 12.1,0 0,16.5 c -2,0.6 -3.9,1.1 -5.7,1.4 -1.8,0.3 -3.8,0.4 -5.9,0.4 -5,0 -8.8,-1.5 -11.5,-4.4 -2.7,-2.9 -4,-7.1 -4,-12.5 0,-5.3 1.5,-9.4 4.6,-12.4 3,-3 7.2,-4.5 12.6,-4.5 3.4,0 6.7,0.7 9.7,2 l -1.9,4.5 c -2.7,-1.2 -5.3,-1.8 -8,-1.8 -3.5,0 -6.3,1.1 -8.3,3.3 -2,2.2 -3.1,5.2 -3.1,9 0,4 0.9,7.1 2.8,9.2 1.8,2.1 4.5,3.1 7.9,3.1 1.7,0 3.6,-0.2 5.6,-0.7 l 0,-8.5 -6.8,0 0,-4.6 z"
     id="path210"
     style="fill:#2290ba" />
  <path
     d="m 612.76507,1114.8751 h -5.4 v -28.2 h -9.7 v -4.6 h 24.7 v 4.6 h -9.7 v 28.2 z"
     id="path212"
     style="fill:#2290ba" />
  <path
     d="m 652.46507,1114.8751 h -5.4 v -14.8 h -15.1 v 14.8 h -5.4 v -32.8 h 5.4 v 13.4 h 15.1 v -13.4 h 5.4 v 32.8 z"
     id="path214"
     style="fill:#2290ba" />
  <path
     d="m 679.16507,1105.9751 c 0,2.9 -1.1,5.2 -3.2,6.9 -2.1,1.7 -5,2.5 -8.7,2.5 -3.7,0 -6.8,-0.6 -9.1,-1.7 l 0,-5.1 c 1.5,0.7 3.1,1.3 4.8,1.7 1.7,0.4 3.3,0.6 4.7,0.6 2.1,0 3.7,-0.4 4.7,-1.2 1,-0.8 1.5,-1.9 1.5,-3.3 0,-1.2 -0.5,-2.3 -1.4,-3.1 -0.9,-0.8 -2.8,-1.9 -5.8,-3 -3,-1.2 -5.1,-2.6 -6.3,-4.2 -1.2,-1.6 -1.8,-3.4 -1.8,-5.6 0,-2.7 1,-4.9 2.9,-6.5 1.9,-1.6 4.6,-2.4 7.8,-2.4 3.1,0 6.3,0.7 9.4,2.1 l -1.7,4.4 c -2.9,-1.2 -5.5,-1.8 -7.8,-1.8 -1.7,0 -3.1,0.4 -4,1.1 -0.9,0.8 -1.3,1.8 -1.3,3 0,0.9 0.2,1.6 0.5,2.2 0.4,0.6 1,1.2 1.8,1.7 0.8,0.5 2.3,1.2 4.4,2.1 2.4,1 4.2,1.9 5.3,2.8 1.1,0.9 1.9,1.8 2.5,2.9 0.6,1.1 0.8,2.4 0.8,3.9"
     id="path216"
     style="fill:#2290ba" />
  <path
     style="fill:#ececec;fill-opacity:0"
     d="m 280.74939,530.40882 0.44739,-39.63262 69.25279,0 69.2528,0 0.44738,39.63262 0.44739,39.63262 -70.14757,0 -70.14757,0 0.44739,-39.63262 z"
     id="path3077"
     inkscape:connector-curvature="0"
     transform="translate(86,7.7999878)" />
  <path
     style="fill:#ececec;fill-opacity:0"
     d="m 40.875053,566.28677 c -0.506454,-2.06507 -0.708494,-19.89975 -0.448978,-39.63262 l 0.471847,-35.87795 47.559148,0 47.55915,0 0.44739,39.63262 0.44738,39.63262 -47.557553,0 -47.557558,0 -0.920826,-3.75467 z"
     id="path3079"
     inkscape:connector-curvature="0"
     transform="translate(86,7.7999878)" />
  <path
     style="fill:#ececec;fill-opacity:0"
     d="m 40.875053,566.28677 c -0.506454,-2.06507 -0.708494,-19.89975 -0.448978,-39.63262 l 0.471847,-35.87795 47.559148,0 47.55915,0 0.44739,39.63262 0.44738,39.63262 -47.557553,0 -47.557558,0 -0.920826,-3.75467 z"
     id="path3081"
     inkscape:connector-curvature="0"
     transform="translate(86,7.7999878)" />
  <path
     style="fill:#ececec;fill-opacity:0"
     d="m 139.26839,567.91775 c -0.44821,-1.16803 -0.61238,-19.00271 -0.36481,-39.63262 l 0.45012,-37.50893 69.2528,0 69.25279,0 0.44739,39.63262 0.44739,39.63262 -69.33537,0 c -54.58644,0 -69.50873,-0.45175 -70.15031,-2.12369 z"
     id="path3083"
     inkscape:connector-curvature="0"
     transform="translate(86,7.7999878)" />
  <path
     style="fill:#ececec;fill-opacity:0"
     d="m 140.18807,783.65894 0,-130.1804 69.26303,0 69.26303,0 -0.42742,129.7447 -0.42742,129.74469 -68.83561,0.43569 -68.83561,0.43571 0,-130.18039 z"
     id="path3085"
     inkscape:connector-curvature="0"
     transform="translate(86,7.7999878)" />
  <path
     style="fill:#ececec;fill-opacity:0"
     d="m 140.18807,783.65894 0,-130.1804 69.26303,0 69.26303,0 -0.42742,129.7447 -0.42742,129.74469 -68.83561,0.43569 -68.83561,0.43571 0,-130.18039 z"
     id="path3087"
     inkscape:connector-curvature="0"
     transform="translate(86,7.7999878)" />
  <path
     style="fill:#ececec;fill-opacity:0"
     d="m 138.51933,610.92562 0,-39.21544 70.08717,0 70.08716,0 0,39.21544 0,39.21544 -70.08716,0 -70.08717,0 0,-39.21544 z"
     id="path3089"
     inkscape:connector-curvature="0"
     transform="translate(86,7.7999878)" />
  <path
     style="fill:#ececec;fill-opacity:0"
     d="m 280.3624,610.92562 0,-39.21544 70.08717,0 70.08717,0 0,39.21544 0,39.21544 -70.08717,0 -70.08717,0 0,-39.21544 z"
     id="path3091"
     inkscape:connector-curvature="0"
     transform="translate(86,7.7999878)" />
  <path
     style="fill:#ececec;fill-opacity:0"
     d="m 40.86273,552.51965 c 0.0023,-273.50682 0.205739,-458.788081 0.452054,-411.73614 l 0.447845,85.549 47.126795,-0.44315 47.126796,-0.44315 0,-84.68885 c 0,-66.638698 0.44458,-84.688818 2.08593,-84.688663 1.64147,1.55e-4 2.08592,18.137667 2.08592,85.124553 l 0,85.12436 68.83561,-0.43571 68.83561,-0.43569 0,-84.68885 c 0,-66.638698 0.44459,-84.688818 2.08593,-84.688663 1.64147,1.55e-4 2.08593,18.133964 2.08593,85.106043 l 0,85.10584 68.41842,0 68.41842,0 0,-85.10584 c 0,-66.972079 0.44446,-85.105888 2.08593,-85.106043 1.64134,-1.55e-4 2.08593,18.049965 2.08593,84.688663 l 0,84.68885 68.83561,0.43569 68.83561,0.43571 0,-85.12436 c 0,-66.986886 0.44445,-85.124398 2.08593,-85.124553 1.64134,-1.55e-4 2.08592,18.049965 2.08592,84.688663 l 0,84.68885 47.55915,0.8602 47.55915,0.86021 -47.55915,0.80854 -47.55915,0.80854 -0.42741,129.71907 -0.42742,129.7191 47.98657,0.44278 47.98656,0.4428 0.0192,280.34867 c 0.01,154.19176 -0.18581,250.49908 -0.43633,214.01616 l -0.45553,-66.33249 -47.53999,0 -47.54001,0 0,65.91531 c 0,42.831 -0.58441,65.9153 -1.66874,65.9153 -1.08433,0 -1.66874,-23.0843 -1.66874,-65.9153 l 0,-65.91531 -68.41843,0 -68.41842,0 0,65.91531 c 0,57.4789 -0.32036,65.9153 -2.50311,65.9153 -2.18275,0 -2.50312,-8.4364 -2.50312,-65.9153 l 0,-65.91531 -68.41842,0 -68.41842,0 0,65.91531 c 0,57.4789 -0.32037,65.9153 -2.50312,65.9153 -2.18274,0 -2.50311,-8.4364 -2.50311,-65.9153 l 0,-65.91531 -68.41842,0 -68.41843,0 0,65.91531 c 0,42.831 -0.58441,65.9153 -1.66874,65.9153 -1.08433,0 -1.66874,-23.0843 -1.66874,-65.9153 l 0,-65.91531 -47.540002,0 -47.54,0 -0.456033,66.33249 C 41.063737,1019.9552 40.860416,826.02647 40.86273,552.51965 z m 95.58091,230.70359 0.42741,-129.7447 -47.569376,0 -47.569381,0 0,130.18787 0,130.18787 47.141963,-0.44318 47.141964,-0.44317 0.42742,-129.74469 z m 141.84307,0 0.42741,-129.7447 -69.26302,0 -69.26303,0 0,130.18039 0,130.1804 68.83561,-0.43571 68.83561,-0.43569 0.42742,-129.74469 0,0 z m 141.84307,0 0.42742,-129.7447 -70.0974,0 -70.0974,0 0,129.04938 c 0,70.97718 0.50885,129.55823 1.13076,130.18016 0.62192,0.62192 31.97342,0.93481 69.66998,0.69531 l 68.53923,-0.43546 0.42741,-129.74469 z m 140.58129,0.41718 0,-130.16188 -69.2528,0 -69.25279,0 0,129.04938 c 0,70.97718 0.50062,129.55002 1.1125,130.16188 0.61186,0.61188 31.77562,1.1125 69.25279,1.1125 l 68.1403,0 0,-130.16188 z m 98.45578,0 0,-130.16188 -47.55915,0 -47.55915,0 0,130.16188 0,130.16188 47.55915,0 47.55915,0 0,-130.16188 z m -522.31626,-171.88043 0,-38.38106 -47.559149,0 -47.559148,0 0,38.38106 0,38.38107 47.559148,0 47.559149,0 0,-38.38107 z m 140.17433,0 0,-38.38106 -68.41842,0 -68.41843,0 0,38.38106 0,38.38107 68.41843,0 68.41842,0 0,-38.38107 z m 141.84307,0 0,-38.38106 -68.41842,0 -68.41842,0 0,38.38106 0,38.38107 68.41842,0 68.41842,0 0,-38.38107 z m 141.84308,0 0,-38.38106 -68.41843,0 -68.41842,0 0,38.38106 0,38.38107 68.41842,0 68.41843,0 0,-38.38107 z m 98.45578,0 0,-38.38106 -47.55915,0 -47.55915,0 0,38.38106 0,38.38107 47.55915,0 47.55915,0 0,-38.38107 z m -522.31626,-81.76836 0,-38.38106 -47.559149,0 -47.559148,0 0,38.38106 0,38.38107 47.559148,0 47.559149,0 0,-38.38107 z m 140.17433,0 0,-38.38106 -68.41842,0 -68.41843,0 0,38.38106 0,38.38107 68.41843,0 68.41842,0 0,-38.38107 z m 141.84307,0 0,-38.38106 -68.41842,0 -68.41842,0 0,38.38106 0,38.38107 68.41842,0 68.41842,0 0,-38.38107 z m 141.84308,0 0,-38.38106 -68.41843,0 -68.41842,0 0,38.38106 0,38.38107 68.41842,0 68.41843,0 0,-38.38107 z m 98.45578,0 0,-38.38106 -47.55915,0 -47.55915,0 0,38.38106 0,38.38107 47.55915,0 47.55915,0 0,-38.38107 z M 136.44364,358.52839 136.01622,228.7837 l -47.141964,-0.44317 -47.141963,-0.44319 0,130.18788 0,130.18786 47.569381,0 47.569376,0 -0.42741,-129.74469 z m 141.84307,0 -0.42742,-129.74469 -68.83561,-0.4357 -68.83561,-0.43571 0,130.18041 0,130.18038 69.26303,0 69.26302,0 -0.42741,-129.74469 0,0 z m 141.41566,-0.41719 0,-129.3275 -69.2528,0 -69.25279,0 -0.42742,129.76301 -0.42743,129.763 69.68023,-0.43549 69.68021,-0.43551 0,-129.32751 z m 141.0087,-0.0185 0,-130.1804 -68.83561,0.43571 -68.83561,0.43569 -0.42742,129.74469 -0.42741,129.7447 69.26302,0 69.26303,0 0,-130.18039 0,0 z"
     id="path3093"
     inkscape:connector-curvature="0"
     transform="translate(86,7.7999878)" />
  <path
     style="fill:#ececec;fill-opacity:0"
     d="m 422.20548,982.20242 0,-66.76799 69.66998,0.43549 69.66998,0.4355 0.43633,66.33249 0.43634,66.33249 -70.10632,0 -70.10631,0 0,-66.76798 z"
     id="path3095"
     inkscape:connector-curvature="0"
     transform="translate(86,7.7999878)" />
  <path
     style="fill:#ececec;fill-opacity:0"
     d="m 422.20548,982.20242 0,-66.76799 69.66998,0.43549 69.66998,0.4355 0.43633,66.33249 0.43634,66.33249 -70.10632,0 -70.10631,0 0,-66.76798 z"
     id="path3097"
     inkscape:connector-curvature="0"
     transform="translate(86,7.7999878)" />
  <path
     style="fill:#e6e6e6;fill-opacity:0"
     d="m 138.91737,982.63791 0.43633,-66.33249 69.66998,-0.4355 69.66998,-0.43549 0,66.76799 0,66.76798 -70.10631,0 -70.10631,0 0.43633,-66.33249 z"
     id="path3099"
     inkscape:connector-curvature="0"
     transform="translate(86,7.7999878)" />
  <path
     style="fill:#e6e6e6;fill-opacity:0"
     d="m 138.91737,982.63791 0.43633,-66.33249 69.66998,-0.4355 69.66998,-0.43549 0,66.76799 0,66.76798 -70.10631,0 -70.10631,0 0.43633,-66.33249 z"
     id="path3101"
     inkscape:connector-curvature="0"
     transform="translate(86,7.7999878)" />
  <path
     style="fill:none;stroke:#31708f;stroke-width:2.97823547999999994px;stroke-linecap:butt;stroke-linejoin:miter;stroke-opacity:1"
     d="m 123.75818,578.50225 622.26525,0"
     id="path3086"
     inkscape:connector-curvature="0" />
</svg>
